<svg xmlns="http://www.w3.org/2000/svg" width="120" height="120" viewBox="0 0 120 120">
  <g fill="none" fill-rule="evenodd">
    <path fill="#70CBF4" d="M69.4786,95 L85.6186,30.59 C85.6186,30.59 71.8986,30 70.1276,30 C68.1996,29.905 66.3046,30.537 64.8186,31.77 C63.4886,33.1 43.3686,57.02 32.8186,69.98 C23.9086,80.89 15.1086,90.42 2.6186,93.74 C-0.3814,94.56 1.4886,95 2.6676,95 L69.4786,95 Z"/>
    <path fill="#092A5E" d="M101.0587,95 L118.4387,25.63 C118.4387,25.63 103.6677,25 101.7577,25 C99.8487,25 97.4677,25.47 96.0377,26.9 C94.6087,28.33 72.9487,54.1 61.6187,68.06 C52.0377,79.8 42.5587,90.06 29.1187,93.65 C25.8387,94.521 27.8977,95 29.1787,95 L101.0587,95 Z"/>
  </g>
</svg>
