<svg xmlns="http://www.w3.org/2000/svg" width="120" height="120" viewBox="0 0 120 120">
  <g fill="none" fill-rule="evenodd">
    <path fill="#2D1B85" d="M66.8902215,11.2657116 C81.515057,11.2657116 93.9840949,16.3752504 104.342916,26.5474343 C114.608887,36.6248928 119.765319,48.9063558 119.765319,63.3908854 C119.765319,77.7816275 114.608887,90.0621526 104.342916,100.235274 C93.9840949,110.40652 81.515057,115.516059 66.8902215,115.516059 C52.2183047,115.516059 39.6559483,110.40652 29.2030587,100.235274 C18.7029002,90.0630905 13.4529617,77.7816275 13.4529617,63.3908854 C13.4529617,49.0001433 18.7029002,36.7186803 29.2030587,26.5474343 C39.6559483,16.3752504 52.2183047,11.2657116 66.8902215,11.2657116 Z M66.8902215,15.624951 C53.4840597,15.624951 42.0464022,20.2655527 32.5779053,29.5476939 C23.1559271,38.8748531 18.421538,50.1246545 18.421538,63.3908854 C18.421538,76.562391 23.1559271,87.7652986 32.5779053,97.0943336 C42.0464022,106.469324 53.4840597,111.15682 66.8902215,111.15682 C80.3905458,111.15682 91.9217094,106.468386 101.437381,97.0943336 C111.046841,87.7662365 115.875017,76.562391 115.875017,63.3908854 C115.875017,50.2193797 111.046841,38.9217468 101.437381,29.5476939 C91.9217094,20.2655527 80.3905458,15.624951 66.8902215,15.624951 Z"/>
    <polyline fill="#E60003" points="44.25 9.11 0 4 100.593 4 42.797 70.657 17.953 70.657 44.25 9.11" transform="matrix(1 0 0 -1 0 74.657)"/>
  </g>
</svg>
