<svg xmlns="http://www.w3.org/2000/svg" width="120" height="120" viewBox="0 0 120 120">
  <path fill="#002D62" d="M27.2725699,73.9372646 C28.9580153,73.9821519 30.7404752,74.1182617 32.5779583,74.3673138 C32.6257415,78.1421903 34.2720916,84.6609835 34.2720916,84.6609835 C34.3575222,84.9389951 34.4589385,85.3342929 34.5327275,85.5326658 C34.5978864,85.7223508 34.4139933,85.8917641 34.1388777,85.8917641 L34.1388777,85.8917641 L29.5806455,85.8917641 C29.2867062,85.8917641 29.0289083,85.8092294 28.9927668,85.6962872 C28.981183,85.5891369 28.8958102,85.2807177 28.8248014,84.9983622 C28.8248014,84.9983622 27.2725699,78.0147683 27.2725699,74.1747328 L27.2725699,74.1747328 Z M105.424381,70.5316222 C105.540219,71.7363393 105.61841,72.9497441 105.61841,74.1747328 C105.61841,78.032144 104.07197,84.9983622 104.07197,84.9983622 C103.998123,85.2807177 103.914141,85.5891369 103.885181,85.6962872 C103.867805,85.8091715 103.582554,85.8917641 103.311782,85.8917641 L103.311782,85.8917641 L98.7607899,85.8917641 C98.4668506,85.8917641 98.2886914,85.7223508 98.3568043,85.5326658 C98.4132754,85.3342929 98.5349055,84.9389951 98.6073043,84.6609835 C98.6073043,84.6609835 100.327501,77.9249937 100.327501,74.1747328 C100.327501,73.2465794 100.288348,72.2967064 100.208767,71.371449 C102.010051,71.1426686 103.775135,70.8545212 105.424381,70.5316222 Z M81.3058653,62.0705704 C84.2322271,61.4363564 90.4440492,63.3824377 98.8032214,64.5118599 C102.624433,65.0287877 115.16102,64.7377443 117.799234,65.0403715 C118.430552,65.1171143 120.766139,65.8005016 119.745315,65.8888862 C114.295129,66.3290712 107.23624,68.94267 98.3080132,69.8838552 C89.3942658,70.8351762 86.2637391,67.8986785 78.8283763,70.9481184 C78.8283763,70.9481184 66.3815646,76.0247264 64.9900585,76.7791225 L64.9900585,76.7791225 L64.8351249,76.8673912 C62.674743,78.0865879 60.6157195,79.2145622 56.0821029,80.0428051 C53.7827152,80.4699584 52.3159143,80.5611809 51.2342754,80.6480596 C50.4002405,80.7016347 49.7891941,80.7363862 49.2548906,80.8913197 C47.8242891,81.3358487 45.5364852,81.2055308 45.5364852,81.2055308 C46.2604738,80.7363862 48.090659,78.9293107 48.0313499,77.8172642 C47.9937024,77.4103826 47.7200348,77.0730039 47.1147803,76.7790646 C39.2493683,72.8651823 29.4161553,71.86463 22.840891,72.2367602 C19.3903614,72.438029 15.7023635,72.6595695 9.15605872,73.9830206 C5.89231817,74.6447462 3.13826558,75.0849892 2.34043016,75.1906336 C1.52811497,75.3122637 -1.14050696,75.1225787 0.550730377,74.5984109 C0.550730377,74.5984109 17.3371297,70.2124881 22.8828823,68.4112045 C34.2350233,64.7680939 55.5246317,71.8153988 57.1203026,72.2005607 C57.3186754,72.1556734 60.1291991,71.5214015 60.2247656,71.4997398 C65.4707869,68.8528375 78.4099109,62.7047264 81.3058653,62.0705124 Z M38.3225123,55.3003504 C36.2113616,58.4366689 34.6200347,61.9653893 33.646994,65.7301299 C31.6980168,65.6229796 29.8793574,65.6229796 28.2170796,65.7301299 C28.9584439,62.3766148 30.1226176,59.1751373 31.6647133,56.2227118 C34.4694451,55.6869603 36.566116,55.449492 38.3225123,55.3003504 Z M92.9806156,53.164584 C93.1051417,53.164584 93.2340116,53.164584 93.3672255,53.1877517 C95.1265178,53.3774367 97.0668072,53.549746 99.6123511,53.3774367 C101.490377,56.3544777 102.968762,59.6095304 103.998274,63.0745398 C101.894363,63.0354444 100.098871,62.9471178 99.0375041,62.811008 C98.7855561,62.7834385 98.5480879,62.7415051 98.3077237,62.7038577 C97.0581194,59.2287124 95.2481479,56.0040673 92.9806156,53.164584 Z M87.0043737,45.4329651 C89.3095533,44.9377569 94.2442595,46.4769567 100.851379,47.3674626 C103.913851,47.7743442 113.833943,47.5484598 115.910342,47.788824 C116.402654,47.8481911 118.274889,48.3796566 117.448094,48.4476536 C113.144706,48.8154398 107.528002,50.8744633 100.474905,51.6230675 C93.4044328,52.3817497 90.9240479,50.0462204 85.0076131,52.4614463 C85.0076131,52.4614463 75.1657123,56.479583 74.0739375,57.109453 L74.0739375,57.109453 L73.9465155,57.1586843 C72.2451423,58.1056613 70.6132721,59.0222309 67.0150488,59.6752686 C65.1934935,60.0054074 64.0322158,60.0878842 63.1663255,60.1531011 C62.5103918,60.1820606 62.0383512,60.2298439 61.5967182,60.3514739 C60.465848,60.6874046 58.6587725,60.5976301 58.6587725,60.5976301 C59.2350674,60.2298439 60.6715187,58.7818667 60.6468452,57.9246642 C60.6149897,57.6017653 60.3804174,57.3165138 59.899689,57.0848374 C53.6704912,53.9934062 45.8731341,53.1868829 40.677792,53.4793743 C37.9237394,53.6372038 35.0133053,53.815305 29.8396828,54.8650884 C27.2449078,55.3849122 25.0555663,55.7468486 24.435832,55.8323372 C23.7827943,55.9105279 21.6586118,55.7613863 23.0023346,55.3675365 C23.0023346,55.3675365 36.3106928,51.8865994 40.7139914,50.4617898 C49.6957938,47.5759713 66.5748637,53.1564754 67.8302599,53.4475188 C67.9880894,53.4301431 70.2164684,52.9103192 70.299061,52.9045273 C74.4359318,50.8122003 84.7136738,45.9107976 87.0043737,45.4329651 Z M66.4412212,35 C75.9442954,35 84.6538781,38.3998504 91.444891,44.0411695 C89.4365467,43.7081347 87.8698354,43.5416173 86.6332629,43.8123891 C86.0207686,43.9513949 84.8913464,44.3582765 83.5027363,44.9302275 C78.4912873,41.9966257 72.6602832,40.2967005 66.4412212,40.2967005 C58.271734,40.2967005 50.7480446,43.2071346 44.9083527,48.0375865 C43.1432685,48.1592165 41.5736613,48.447364 40.2169066,48.8774132 C39.0831405,49.2480954 37.3687355,49.7433036 35.434238,50.2776072 C42.5886933,40.9989694 53.8278921,35 66.4412212,35 Z"/>
</svg>
