<svg xmlns="http://www.w3.org/2000/svg" width="120" height="120" viewBox="0 0 120 120">
  <path fill="#F01428" fill-rule="evenodd" d="M61.971831,84.3802817 C61.971831,80.4366197 63.6619718,79.8732394 67.6056338,82.1267606 C74.3661972,86.0704225 81.1267606,89.4507042 81.1267606,89.4507042 C81.1267606,87.1971831 83.3802817,85.5070423 87.3239437,86.6338028 C91.2676056,87.7605634 95.2112676,88.3239437 95.2112676,88.3239437 C95.2112676,88.3239437 92.9577465,83.2535211 91.8309859,81 C90.1408451,77.056338 91.8309859,74.8028169 93.5211268,74.2394366 C93.5211268,74.2394366 91.2676056,72.5492958 89.5774648,71.4225352 C86.1971831,69.1690141 86.7605634,66.3521127 90.1408451,65.2253521 C94.6478873,62.971831 100.84507,60.7183099 100.84507,60.7183099 C99.1549296,59.5915493 96.9014085,56.7746479 99.1549296,52.8309859 C101.408451,49.4507042 105.352113,44.3802817 105.352113,44.3802817 C105.352113,44.3802817 99.1549296,44.3802817 94.6478873,44.3802817 C90.7042254,44.3802817 89.5774648,41 89.5774648,38.7464789 C89.5774648,38.7464789 83.3802817,43.2535211 78.8732394,46.0704225 C74.9295775,48.8873239 71.5492958,46.0704225 72.1126761,41.5633803 C73.2394366,34.8028169 73.8028169,26.915493 73.8028169,26.915493 C71.5492958,29.1690141 67.6056338,28.6056338 65.3521127,25.2253521 C62.5352113,19.5915493 59.7183099,12.8309859 59.7183099,12.8309859 C59.7183099,12.8309859 56.9014085,19.5915493 54.084507,25.2253521 C52.3943662,28.6056338 48.4507042,29.1690141 46.1971831,27.4788732 C46.1971831,27.4788732 46.7605634,35.3661972 47.8873239,42.1267606 C48.4507042,46.0704225 45.0704225,48.8873239 41.1267606,46.0704225 C36.6197183,43.2535211 29.8591549,38.7464789 29.8591549,38.7464789 C29.8591549,41 28.7323944,43.8169014 24.7887324,44.3802817 C20.2816901,44.3802817 14.084507,44.3802817 14.084507,44.3802817 C14.084507,44.3802817 18.028169,49.4507042 20.2816901,52.8309859 C22.5352113,56.2112676 20.2816901,59.5915493 18.5915493,60.7183099 C18.5915493,60.7183099 24.2253521,63.5352113 29.2957746,65.2253521 C32.6760563,66.915493 33.8028169,69.1690141 29.8591549,71.4225352 C28.7323944,72.5492958 25.915493,74.2394366 25.915493,74.2394366 C28.1690141,74.8028169 29.8591549,77.056338 28.1690141,81 C27.0422535,83.2535211 24.7887324,88.3239437 24.7887324,88.3239437 C24.7887324,88.3239437 28.7323944,87.1971831 32.6760563,86.6338028 C36.6197183,85.5070423 38.3098592,87.7605634 38.8732394,89.4507042 C38.8732394,89.4507042 45.6338028,85.5070423 52.3943662,82.1267606 C55.7746479,79.8732394 58.028169,81 58.028169,84.3802817 L58.028169,93.9577465 C58.028169,99.5915493 56.9014085,105.225352 55.2112676,108.605634 C29.8591549,105.788732 8.45070423,85.5070423 8.45070423,58.4647887 C8.45070423,30.8591549 31.5492958,8.32394366 60.2816901,8.32394366 C89.0140845,8.32394366 112.112676,30.8591549 112.112676,58.4647887 C112.112676,84.3802817 91.8309859,105.788732 65.915493,108.605634 L65.915493,115.366197 C96.3380282,112.549296 120,88.3239437 120,58.4647887 C120,26.3521127 92.9577465,1 59.7183099,1 C27.0422535,1 0,26.3521127 0,57.9014085 C0,85.5070423 20.8450704,108.605634 48.4507042,113.676056 C52.9577465,114.802817 55.7746479,115.366197 58.5915493,118.183099 C61.4084507,112.549296 61.971831,101.28169 61.971831,95.084507 L61.971831,84.3802817 Z"/>
</svg>
