<svg xmlns="http://www.w3.org/2000/svg" width="120" height="120" viewBox="0 0 120 120">
  <g fill="none" fill-rule="evenodd">
    <path fill="#EC1D24" d="M101.665538,46.5384615 L86.5163077,68.4538462 C84.5209231,71.3384615 81.2870769,74.1153846 77.3778462,74.4123077 L77.3778462,75.0876923 L94.2286154,75.0876923 C98.7009231,75.0876923 101.962462,72.1738462 104.171692,68.9646154 L119.727077,46.5384615 L101.665538,46.5384615 Z"/>
    <polygon fill="#002056" points="44.015 75.087 51.641 75.087 51.641 66.652 69.106 66.652 69.106 61.046 51.641 61.046 51.641 54.55 69.508 54.55 69.508 48.943 44.015 48.943"/>
    <path fill="#002056" d="M14.2315385,63.9018462 L18.3284615,55.9249231 L22.7484615,63.9018462 L14.2315385,63.9018462 Z M15.5515385,48.9726154 L0.999230769,75.088 L8.27615385,75.088 L11.3207692,69.3433846 L25.9284615,69.3433846 L29.2684615,75.088 L38.6761538,75.088 L22.1838462,48.9726154 L15.5515385,48.9726154 Z"/>
  </g>
</svg>
