<svg xmlns="http://www.w3.org/2000/svg" width="120" height="120" viewBox="0 0 120 120">
  <g fill="none" fill-rule="evenodd">
    <path fill="#BB2A33" d="M119.788624,19 L105.863853,19 L58.8451376,55.5691743 C49.3922936,62.2502752 41.0755963,68.7166972 34.9754128,70.2675229 C26.6770642,72.3776147 15.893945,73.573211 0,73.2447706 C4.78201835,74.3233028 8.95045872,74.8242202 11.6741284,75.1673394 C24.7078899,76.8077064 34.0609174,81.2165138 41.9611009,86.9816514 C47.1651376,90.7794495 50.359633,94.0631193 54.0572477,96.2649541 C58.1126606,98.6792661 63.7622018,100.296881 68.5911927,100.296881 C73.4205505,100.296881 78.2495413,99.6873394 82.1405505,98.6561468 C77.9211009,98.8433028 72.4359633,98.5152294 68.4506422,97.6711927 C64.4653211,96.8275229 55.9966972,93.8242202 55.0418349,88.9508257 C54.1277064,84.2858716 65.8124771,80.7115596 70.4198165,80.0429358 C82.3754128,78.3078899 92.5489908,78.7772477 96.252844,79.0583486 C91.3302752,77.1361468 89.9702752,74.7919266 89.9702752,72.7757798 C89.9702752,70.76 91.3768807,68.8377982 92.2209174,67.3842202 L119.788624,19"/>
    <path fill="#D8783B" d="M70.1486239,55.2565138 L69.532844,55.4983486 C70.7842202,61.6095413 72.0524771,66.1456881 74.5988991,71.0106422 C75.5500917,72.8286239 77.0333945,75.9350459 78.5291743,79.1511927 C78.9504587,79.1192661 79.3666055,79.0895413 79.7787156,79.0623853 C78.6418349,75.5644037 77.5592661,72.1159633 76.999633,70.0675229 C75.5519266,64.7702752 73.3926606,60.5845872 70.1486239,55.2565138 Z M40.3966972,84.2715596 C40.3383486,84.3449541 40.2921101,84.4047706 40.2616514,84.4455046 C40.293945,84.4058716 40.3401835,84.346422 40.3966972,84.2715596 Z M63.7629358,54.7218349 L63.240367,54.3155963 C58.6253211,58.5130275 55.373945,61.92 52.4913761,66.5941284 C49.7772477,70.9955963 41.747156,82.4873394 40.3966972,84.2715596 C41.7908257,82.5218349 50.9365138,71.8961468 54.5284404,68.1765138 C58.3434862,64.226055 60.8392661,60.2322936 63.7629358,54.7218349 Z M71.5614679,54.3644037 L71.0282569,54.7559633 C73.8011009,60.3434862 76.1875229,64.4040367 79.893945,68.4565138 C81.8682569,70.6146789 85.5581651,75.0304587 88.6352294,78.7823853 C88.9222018,78.7831193 89.2040367,78.7849541 89.48,78.7875229 C86.7655046,74.6462385 83.4921101,69.5489908 81.973211,66.9302752 C79.2187156,62.1790826 76.0609174,58.6855046 71.5614679,54.3644037 Z M73.8697248,50.039633 L73.7633028,50.6924771 C79.6565138,52.7379817 84.2040367,53.9644037 89.6873394,54.2601835 C91.8381651,54.3761468 95.5108257,54.7141284 99.2242202,55.092844 L99.8201835,54.0466055 C96.040367,53.1977982 92.2568807,52.3093578 90.1027523,51.7144954 C84.8088073,50.253578 80.1075229,49.9717431 73.8697248,50.039633 Z M72.6994495,53.1401835 L72.2840367,53.6550459 C76.3941284,58.3478899 79.7398165,61.6627523 84.3592661,64.6319266 C85.9449541,65.6510092 88.4594495,67.3944954 91.1001835,69.2653211 C91.3269725,68.8590826 91.5644037,68.4708257 91.7886239,68.1038532 C89.4565138,65.9655046 87.2836697,63.9324771 85.9790826,62.6249541 C82.1009174,58.7365138 78.1544954,56.1666055 72.6994495,53.1401835 Z M89.946055,45.8359633 C84.4543119,45.7779817 79.8377982,46.7082569 73.8245872,48.3691743 L73.8888073,49.0275229 C80.1089908,49.4976147 84.8187156,49.52 90.1955963,48.4029358 C93.2304587,47.772844 99.4275229,46.7805505 104.385688,46.0337615 L104.74422,45.4044037 C99.6715596,45.6344954 93.1321101,45.8697248 89.946055,45.8359633 Z M73.4862385,51.666422 L73.2165138,52.2700917 C78.3900917,55.7548624 82.4722936,58.1038532 87.6979817,59.7922936 C89.4223853,60.3500917 92.1486239,61.3346789 95.0510092,62.4172477 L95.7288073,61.2275229 C92.9420183,59.7651376 90.3387156,58.3644037 88.7504587,57.4377982 C84.0066055,54.6711927 79.533945,53.1963303 73.4862385,51.666422 Z M66.2300917,55.7398165 C64.2950459,61.6700917 63.1541284,66.239633 62.9607339,71.7277064 C62.8777982,74.0836697 62.5633028,78.267156 62.2179817,82.3321101 C62.5941284,82.1823853 62.973945,82.0388991 63.3541284,81.9016514 C64.1350459,78.0910092 64.9570642,74.2689908 65.5137615,72.0954128 C66.8755963,66.7750459 67.0693578,62.0693578 66.8847706,55.8337615 L66.2300917,55.7398165 Z M102.481101,22.560367 C102.55633,22.5045872 102.616147,22.4587156 102.656147,22.426789 C102.614679,22.4568807 102.554862,22.5027523 102.481101,22.560367 Z M62.5177982,53.6069725 L62.1166972,53.0807339 C62.0425688,53.119633 61.9702752,53.1574312 61.8965138,53.1959633 L58.8451376,55.5691743 C54.1640367,58.8777982 49.7625688,62.1324771 45.7699083,64.7647706 C41.0565138,68.9544954 33.7937615,75.0818349 32.3699083,76.1963303 C34.1655046,74.8616514 45.7251376,66.9288073 50.1489908,64.2521101 C54.8473394,61.4088073 58.2818349,58.186055 62.5177982,53.6069725 Z M32.3699083,76.1963303 C32.2946789,76.2524771 32.2348624,76.2983486 32.1952294,76.3302752 C32.2363303,76.3001835 32.2961468,76.2543119 32.3699083,76.1963303 Z M68.5544954,55.7574312 L67.8972477,55.8337615 C67.5434862,62.0620183 67.6095413,66.7713761 68.826422,72.1262385 C69.239633,73.9445872 69.8051376,76.9042202 70.373211,80.0499083 C70.3886239,80.0477064 70.4047706,80.0451376 70.4198165,80.0429358 C70.8488073,79.9809174 71.2755963,79.9214679 71.6998165,79.8649541 C71.5313761,76.6836697 71.4033028,73.6866055 71.3882569,71.8286239 C71.3442202,66.3368807 70.3277064,61.7383486 68.5544954,55.7574312 Z M50.2220183,90.0249541 C50.1842202,90.1104587 50.1548624,90.1801835 50.1361468,90.2275229 C50.1570642,90.1812844 50.186422,90.1115596 50.2220183,90.0249541 Z M64.6425688,55.2223853 C61.2550459,60.4601835 58.9831193,64.586055 57.3922936,69.8418349 C55.8943119,74.7911927 51.0708257,87.9544954 50.2220183,90.0249541 C51.1222018,87.9765138 57.2451376,75.3651376 59.7662385,70.8502752 C62.4440367,66.0554128 63.8348624,61.5559633 65.2517431,55.4807339 L64.6425688,55.2223853 Z M73.3537615,46.6249541 L73.5838532,47.2451376 C79.7174312,46.1082569 84.2759633,44.9251376 89.1886239,42.4700917 C93.813945,40.1585321 106.692844,34.6201835 108.78055,33.8150459 C106.673394,34.5680734 93.3027523,38.7823853 88.2902752,40.0524771 C82.9666055,41.4007339 78.7416514,43.4814679 73.3537615,46.6249541 Z M108.78055,33.8150459 C108.868624,33.7834862 108.93945,33.7570642 108.986789,33.7383486 C108.938716,33.7544954 108.868257,33.7809174 108.78055,33.8150459 Z M86.267156,36.5555963 C90.0165138,32.9952294 100.718899,23.9401835 102.481101,22.560367 C101.387156,23.373945 96.6715596,26.6344954 92.1526606,29.6642202 L72.5746789,44.8913761 C72.493578,44.9779817 72.4146789,45.0620183 72.333211,45.1500917 L72.7346789,45.6759633 C78.2697248,42.7988991 82.2847706,40.3372477 86.267156,36.5555963 L86.267156,36.5555963 Z"/>
  </g>
</svg>
