<svg xmlns="http://www.w3.org/2000/svg" width="120" height="120" viewBox="0 0 120 120">
  <path fill="#EE3024" d="M64.6282999,68.1249518 L65.837729,68.1266441 L71.1151838,84.4425519 C71.8816822,86.8440014 72.3762047,88.4288171 72.3762047,88.4945798 C72.3762047,88.7980653 69.925193,90.2698005 68.2379718,90.9828221 C66.4960329,91.7161513 64.5611721,92.2401996 62.7024647,92.4816341 C61.3937542,92.6508639 58.6793081,92.6830176 57.5956732,92.5419927 C56.2215271,92.3631732 54.0773855,91.867894 52.939597,91.4617425 L52.6268048,91.3446785 C51.1319054,90.7598325 48.5486476,89.4371898 48.5486476,89.239191 C48.5486476,89.1624735 48.965517,88.7839628 49.470386,88.3969906 L50.3909961,87.6958151 L52.0240638,88.4629902 C56.6451658,90.6342087 61.4975485,90.8722586 66.2884444,89.165858 C67.9514093,88.5729896 70.3099087,87.3009456 70.1073971,87.104639 L69.4940802,86.6417146 L69.4940802,86.6417146 L63.9408494,82.5817464 C62.2219986,81.309113 60.9766556,80.3392367 60.9577054,80.2480112 C60.915962,80.04832 62.4756968,78.8721729 62.7825668,78.8721729 C62.8487381,78.8721729 63.6998276,79.4522963 64.7965,80.2385701 L66.8086275,81.6901208 C67.5606765,82.2248034 68.0510668,82.557246 68.0202294,82.506101 L67.9699888,82.3754711 C67.4590309,80.9444455 63.4183068,68.4532294 63.4183068,68.2812073 C63.4183068,68.1949001 63.9615345,68.1249518 64.6282999,68.1249518 Z M40.1585324,66.3518981 L41.5707385,67.3194179 L41.4314059,68.5739749 L41.4028486,68.8936944 C41.3443366,69.6759317 41.3090716,70.9991509 41.324227,72.0668782 C41.3851498,76.8927482 43.2867287,81.2549286 46.8868109,84.8245493 L48.2801363,86.2099774 L51.0326424,77.692792 C51.5380992,76.1607337 51.894885,75.1189634 51.934372,75.0740919 C52.0528328,74.9398362 53.9239504,76.2931106 53.9239504,76.5136734 L53.9142687,76.561435 C53.8664165,76.7506728 53.6453773,77.4505835 53.3450365,78.3668369 L52.6247745,80.540997 C52.2609247,81.6542501 52.0173682,82.4547679 52.0460636,82.4547679 L52.1011354,82.4211253 C52.2014724,82.3545241 52.4347422,82.1910991 52.7751768,81.9493185 L61.2449936,75.8458496 C62.9180159,74.6524912 64.0636365,73.8578936 64.1200464,73.8578936 C64.2621995,73.8578936 65.0965024,76.0183942 64.9842466,76.1013168 L61.6170795,78.5510918 C56.6192218,82.1769513 47.8350106,88.5351437 47.7431137,88.5876562 C47.6438322,88.6451943 46.9827078,88.1961712 46.2747631,87.5886362 C40.7780953,82.8836924 38.0685274,75.7068208 39.0820662,68.5945736 L39.2673204,67.4271616 C39.4865988,66.102331 39.5702921,65.9698728 40.1585324,66.3518981 L40.1585324,66.3518981 Z M19.839373,84.0501363 L20.0966039,84.2508603 C21.1063418,85.0625993 22.5013595,85.645878 23.9217617,85.850082 L24.206414,85.8774673 C25.3917714,85.9621112 29.2035246,86.0257945 33.6122555,86.0332702 L43.4559585,86.0390553 L45.7631249,88.3670933 L31.2967067,88.3273075 C27.1156263,88.2971953 23.8383095,88.2343343 23.378534,88.1674022 C20.9303428,87.8108914 18.9396361,86.7306411 17.1102619,84.7619343 L16.2122157,83.7984526 L18.2127543,83.7351958 C19.1936413,83.7087661 19.426643,83.7458011 19.839373,84.0501363 Z M102.006088,83.7093249 L102.338356,83.7132761 C103.033396,83.7300938 103.549464,83.798603 103.549464,83.880247 C103.549464,84.2300088 101.156051,86.3983024 100.09945,87.0241334 L99.3448074,87.4250951 C98.0199901,88.0927003 97.1227819,88.2272575 91.3490238,88.2850981 L81.9194306,88.3400393 C77.5234636,88.3536845 74.3466038,88.3402401 74.3466038,88.3044783 C74.3466038,88.2599145 74.8514727,87.7324816 75.466341,87.133408 L76.5883346,86.0452604 L88.3199298,86.0300006 C95.8739008,86.0015321 97.1257084,85.8607478 98.4923129,85.1613167 C98.853125,84.9796767 99.3642342,84.6403973 99.7112259,84.3611505 L100.018415,84.1011404 C100.467195,83.7332593 100.700376,83.7093249 102.006088,83.7093249 Z M80.0524688,64.9005598 L80.2476472,65.4900437 C80.9364125,67.5766472 81.2731798,71.259652 80.9984635,73.6790741 C80.4490307,78.509457 78.6095027,82.5168189 75.352957,85.9730557 L74.4990754,86.8751848 C73.3045097,88.1149222 73.1713339,88.061673 72.8776325,87.106481 L72.4224608,85.5900322 L73.60989,84.3371675 C77.2816128,80.4606767 79.2311402,74.8693238 78.6529383,69.8680188 L78.5967835,69.4006923 C78.4150342,67.9592307 78.1995099,66.9011248 78.0504802,66.7536262 C78.0127026,66.7149598 76.7122252,67.6031837 74.9405723,68.8687278 L69.2110621,73.0031638 C68.8948726,73.2284921 68.7014499,73.3641304 68.6678155,73.3834861 C68.4134067,73.5318442 67.6174625,71.1671397 67.8667944,71.004115 L70.4909846,69.1109975 L70.4909846,69.1109975 L72.9544065,67.3194179 L61.3698789,67.2350241 C58.6915513,67.1943043 57.8645455,67.128459 57.9104406,67.0029582 L58.3019256,65.8414776 L58.3019256,65.8414776 L58.6104879,64.9005598 L80.0524688,64.9005598 Z M106.662164,78.5145339 L106.992568,78.5183059 C107.684811,78.5343501 108.20554,78.5996001 108.20554,78.6758663 C108.20554,79.0160182 105.508581,81.3361589 104.468382,81.8906686 L104.197373,82.0330182 C102.40784,82.9553927 101.441211,83.0290053 92.8259942,83.1182558 L88.4442352,83.1512197 C85.2383318,83.1611531 83.8409601,83.1184128 83.8409601,83.017175 C83.8409601,82.9197396 84.1882775,82.6903703 84.634556,82.4837599 L84.77116,82.4226143 C85.2839263,82.2037437 86.0511015,81.7581052 86.4758683,81.4337481 L87.2492485,80.8442642 L93.961249,80.8341461 C100.584407,80.7954246 102.29338,80.5180407 104.034622,79.3082302 L104.485356,78.9835478 C105.12274,78.532146 105.328188,78.5145339 106.662164,78.5145339 Z M15.4634541,78.9523693 L15.8545186,79.2545953 C17.605351,80.5761837 18.6021685,80.6833987 26.0664675,80.7850338 L32.6940709,80.8758538 L33.6913986,81.5646191 C34.178279,81.9010731 34.853694,82.2896748 35.2885751,82.4875631 L35.4395425,82.5523571 C35.8502068,82.7182023 36.1886664,82.9246627 36.1886664,83.0126622 C36.1886664,83.2134816 21.6258773,83.1785074 19.4907612,82.9726111 C17.7302071,82.8028172 16.0954471,82.3092303 14.9915047,81.6142599 C14.1825862,81.1060063 11.8240868,78.9088393 11.8240868,78.6645843 C11.8240868,78.592718 12.3452393,78.5327154 13.0364939,78.5179923 L13.3663344,78.5145339 C14.7120875,78.5145339 14.9352845,78.5497553 15.4634541,78.9523693 L15.4634541,78.9523693 Z M111.114577,73.1405738 L111.656068,73.1439862 C112.344272,73.1594133 112.865001,73.2221536 112.865001,73.2954866 C112.865001,73.3817938 112.211774,74.0739437 111.415829,74.8360419 C110.452348,75.756088 109.584763,76.3985972 108.825485,76.7534157 L108.446421,76.9246482 C106.708687,77.6764519 105.252656,77.779579 97.5461345,77.791022 L93.9998123,77.7860153 C90.8062199,77.7689892 88.5004209,77.717737 88.5004209,77.6548464 C88.5004209,77.5851488 88.727732,77.4445836 89.0250689,77.3246696 L89.1395455,77.2808486 C89.4898512,77.1544903 90.2982056,76.6941852 90.9328173,76.2598287 L92.0864005,75.4689614 L99.0191909,75.4680786 C105.857584,75.4536194 107.143296,75.2508272 108.831628,73.9220588 L109.231707,73.5994273 C109.762568,73.1805352 109.963508,73.1434064 111.114577,73.1405738 L111.114577,73.1405738 Z M10.8955792,73.7044586 C11.7682409,74.4699414 13.1091051,75.0549125 14.5120202,75.2799881 L14.6627562,75.2991966 C15.533647,75.390742 18.425924,75.4624529 21.4930635,75.468565 L27.9471747,75.4689614 L29.0398352,76.2739312 C29.6389087,76.7150569 30.4461349,77.1719774 30.8297225,77.2870537 C31.2161306,77.4021299 31.530898,77.5651546 31.530898,77.6469491 C31.530898,77.839871 15.2916055,77.8032046 13.9575105,77.606898 C12.7813634,77.4342836 11.4297813,76.9452094 10.3128646,76.2914183 C9.45768992,75.7916262 7.16462601,73.6294334 7.16462601,73.3242556 C7.16462601,73.2200101 7.69385651,73.150162 8.52804565,73.1413123 L9.11448792,73.141624 C10.2111631,73.150671 10.3452439,73.2201229 10.8955792,73.7044586 Z M58.9105888,50.4827442 C58.9459969,50.5150281 58.8290381,50.9765348 58.6462298,51.5371669 L58.2235158,52.80909 L56.595525,53.1255497 C52.9649815,53.8301098 49.8635632,55.426511 47.1981937,57.9593172 C45.3863066,59.6815125 44.0522116,61.4776049 43.083653,63.4959524 L42.4541181,64.810868 L50.3875322,64.8789091 C53.3925203,64.917772 54.2918088,64.9828134 54.2370256,65.1273278 L53.9484775,65.9814555 L53.9484775,65.9814555 L53.5369783,67.2302902 L46.8947083,67.2302902 L55.1013516,73.1879358 C57.4000608,74.870691 59.0600328,76.1133885 59.0832032,76.176342 C59.139049,76.3348539 57.4710072,77.6210005 57.2137779,77.6165113 L57.1582639,77.5862608 C56.8507182,77.3948684 55.3198462,76.3098173 53.1588851,74.7541858 L45.5577904,69.2322688 C40.5799584,65.5887113 40.0447004,65.1094923 40.063465,64.7279454 C40.0956186,64.0566672 41.3710473,61.3896054 42.402785,59.8304348 C43.4621636,58.2323413 45.8990729,55.6775353 47.4621922,54.5267726 C50.3988935,52.3645797 53.7355412,51.0451513 57.4151614,50.5910513 L57.7437616,50.5529327 C58.3810722,50.4828824 58.8806109,50.4513158 58.9105888,50.4827442 Z M13.037431,64.9089563 L30.3260866,64.914938 C36.7870543,64.9391438 38.8119352,64.9978429 38.8702285,65.119781 C38.8698307,65.2486091 38.7649082,65.7517858 38.6368577,66.2442445 L38.4033205,67.1405984 L4.94997191,67.3194179 L5.83391561,68.0990032 C6.32129746,68.5277187 7.04165235,69.0438697 7.43482961,69.244689 L7.85695351,69.4531558 C9.10441886,70.0372501 10.081626,70.1306181 15.275865,70.2065095 L23.5173025,70.3142214 L24.3454003,70.9482691 C24.7407635,71.2533058 25.3689145,71.6313317 25.8334338,71.8525821 L26.2665341,72.0459899 C26.6163478,72.2112503 26.8731296,72.3781584 26.8731296,72.4487734 C26.8731296,72.6371826 11.6689594,72.6117981 10.0330713,72.4200044 C7.6153414,72.1373906 5.89145375,71.4023691 4.30464224,69.9785823 L4.09249891,69.7796643 C2.88223695,68.6068149 0,65.2967627 0,65.0551231 C0,64.9867558 5.41315157,64.9297154 13.037431,64.9089563 L13.037431,64.9089563 Z M86.6532856,64.9188214 L103.415905,64.901858 C113.820294,64.9114002 120.033372,64.973036 120,65.0697897 C119.970805,65.1530507 119.325011,65.9550477 118.513504,66.9193885 L118.237483,67.246085 C115.690166,70.255808 114.106762,71.4665409 111.817338,72.1146147 L111.46361,72.2080603 C110.630067,72.4027187 109.21238,72.472816 104.239374,72.530229 L99.8446907,72.5691872 C95.9317506,72.5895074 92.9795955,72.5563284 92.9810621,72.4854399 C92.9844467,72.4025173 93.4300852,72.1419034 93.9750052,71.907238 C94.5182329,71.6703163 95.3074079,71.2150881 95.7276619,70.8941156 L96.4914525,70.3108368 L105.749233,70.1933086 C109.232587,70.1339933 110.242135,70.0540245 110.982601,69.8443267 C112.250132,69.4861236 113.187665,68.9524856 114.296685,67.9636194 L115.103911,67.2443927 L81.5738448,67.2302902 L81.3769741,66.3785002 C81.2822054,65.9623202 81.1566829,65.5033522 81.0840015,65.2852648 L81.0537755,65.1978241 L81.0537755,65.1664394 C81.0942593,65.0102554 81.8478076,64.9454651 86.6532856,64.9188214 L86.6532856,64.9188214 Z M59.9254035,50.3501809 L61.4338052,50.4714622 C69.1004797,51.094792 75.5035716,55.3785626 78.8971933,62.1567805 L79.4212159,63.2258609 C79.6046422,63.6106365 79.7219066,63.8727708 79.7219066,63.9032322 C79.7219066,63.959078 79.1307305,64.0053342 78.4052987,64.0053342 L77.089819,64.0053342 L76.7496671,63.2449282 C75.693673,60.8943262 72.9352272,57.7003956 70.6071891,56.1327634 C68.0653574,54.4195937 64.7574787,53.1847802 62.0892887,52.951243 L61.6228458,52.9149256 C61.0509715,52.8791204 60.9019726,52.9177497 60.9341896,53.0603272 L64.4286088,63.7368229 C64.5148533,63.956947 64.3996377,64.0054734 63.5829766,63.9810523 L61.9465716,63.9162065 L60.9221328,60.7290031 C60.4829575,59.3849548 60.0995564,58.2973153 60.035967,58.230649 C59.9808878,58.1718669 59.2642405,60.1953911 58.3359904,63.0052345 L55.7030436,71.068252 C55.5122745,71.6394705 55.3937855,71.9834805 55.3731217,72.0223143 C55.2929793,72.172123 55.0323855,72.077763 54.4567489,71.6886495 L54.3182559,71.5935988 C53.8071819,71.2342675 53.3835432,70.8506799 53.3807213,70.7423728 L53.4079586,70.6312065 C53.6161038,69.886172 54.9915649,65.555231 56.6496785,60.4469954 L59.9254035,50.3501809 Z M70.4058056,48.5648064 L71.7500544,49.2264949 L71.8025156,50.4364881 C71.8312847,51.1009971 71.810413,51.6459171 71.7545672,51.6459171 C71.6970291,51.6459171 71.0054432,51.3198677 70.2157041,50.9221776 C63.879176,47.7378955 56.6005045,47.6699337 50.2305456,50.7198811 L48.8333541,51.4050956 C48.5228444,51.5526928 48.3129293,51.6459171 48.2846491,51.6459171 C48.2377855,51.6459171 48.1986123,51.1748774 48.1928629,50.5708819 L48.1921368,49.1881362 L49.7834611,48.4598839 C56.6192172,45.3280042 63.9124578,45.366363 70.4058056,48.5648064 Z M73.4502499,36.2470976 C75.108702,36.2437481 76.2701826,36.7277453 77.2787923,37.8480467 C78.4368883,39.1325009 78.7358609,39.995573 78.7358609,42.0618689 C78.7358609,44.1947286 78.4227858,45.0448264 77.1140752,46.4415364 C76.0947477,47.5330686 74.7380887,48.2071674 73.2516869,48.3622947 L72.1398471,48.4790633 L72.2594361,47.8794257 C72.4026421,47.1697134 72.7433882,46.7592597 73.532547,46.3710497 L73.7086074,46.2881014 C76.2972594,45.1170311 77.3267407,41.6190509 75.6632117,39.6424468 C75.0257794,38.8848613 74.3370141,38.5684016 73.3267121,38.5700939 C72.426948,38.5700939 71.8941678,38.8147498 70.4409841,39.9389243 L70.2269861,40.1055723 C68.9504293,41.1062846 68.136998,41.4351545 66.9303894,41.4351545 C66.1412144,41.4351545 65.8507033,41.3460268 65.4028084,40.972029 C65.1010152,40.7164919 64.8533756,40.3537761 64.8533756,40.1648028 C64.8533756,39.8759839 64.9842466,39.8229586 65.713063,39.8229586 C66.7556753,39.8229586 67.8596735,39.3001725 69.2593357,38.1353229 L69.5094517,37.9230719 C71.1058529,36.5455413 71.8025156,36.248825 73.4502499,36.2470976 Z M46.5669665,36.2420416 C48.1088381,36.2404437 48.806991,36.5115443 50.2914111,37.7658258 L50.5201749,37.9614307 C51.9298592,39.1776289 53.2098006,39.8184458 54.2370256,39.8212663 L54.4804852,39.8248955 C54.9427715,39.8407289 54.9991238,39.9185922 54.9991238,40.2578792 C54.9991238,40.9573624 54.2240513,41.4351545 53.0879552,41.4351545 C51.9165286,41.4351545 51.1734176,41.1425229 49.768408,40.0944103 L49.5279241,39.9126504 C48.0832656,38.8070156 47.5580891,38.5684016 46.5590691,38.5684016 C44.1255445,38.5684016 42.7367319,41.557 43.9946734,44.0830369 C44.5170294,45.1294413 45.156154,45.7302071 46.4394801,46.3806136 C47.2574241,46.7963549 47.8328055,47.5618377 47.8328055,48.2359365 C47.8328055,48.5281399 46.4011213,48.4407045 45.3784092,48.0875783 C43.7616158,47.5286405 42.760833,46.6846068 41.8648484,45.0960148 L41.7241735,44.8389301 C41.3640525,44.1631673 41.3002274,43.8310467 41.2947452,42.311833 L41.2965608,41.5667478 C41.3099996,40.2768304 41.3907017,39.9003886 41.7111992,39.2543464 C42.6876552,37.2918447 44.3731841,36.2454404 46.5669665,36.2420416 Z M50.2872018,45.241697 C50.6882765,45.6811304 51.0588898,46.3298447 51.0588898,46.5949714 C51.0588898,46.6857914 50.6544305,46.9289182 50.1608436,47.1331222 L49.2627974,47.5071201 L49.0151578,46.9131234 C48.8792098,46.5853817 48.5853141,46.1905122 48.3613666,46.0353848 L48.2104458,45.9248979 C47.9820181,45.7450406 48.015834,45.6662469 48.2592646,45.2958506 C48.6603393,44.6804182 49.7501792,44.6516491 50.2872018,45.241697 Z M71.6541575,45.2321073 L72.0185657,45.6235923 L71.5915425,46.0822051 C71.3568771,46.3343575 71.0545199,46.7563038 70.9208283,47.0197382 L70.6743169,47.500915 L69.8242192,47.131994 C68.8048916,46.689176 68.7456612,46.3631266 69.5286311,45.4712855 C70.2049862,44.7029821 71.0691865,44.6037007 71.6541575,45.2321073 Z M68.5747391,43.5048351 C69.0925823,43.867551 69.079608,44.1834466 68.5335598,44.4762142 C68.290433,44.605393 67.9260248,45.0623134 67.7246413,45.4921572 L67.5517579,45.8471539 C67.4268646,46.0940737 67.3314641,46.25984 67.3156693,46.2531272 L65.8769201,45.8072628 C65.6197535,45.7223703 65.4368082,45.6543614 65.4123981,45.633182 C65.2640399,45.4955417 66.1733681,43.9154994 66.5936221,43.5860654 C67.1402344,43.1562217 68.0253063,43.1212475 68.5747391,43.5048351 Z M54.0147704,44.3035998 L54.2813865,44.8267863 C54.697644,45.6773907 54.5534853,45.7124693 53.5804139,45.9575391 L52.5447275,46.2175889 L52.3309338,45.6264128 C52.212473,45.3020557 51.8768338,44.8355455 51.5874509,44.5895982 C50.969198,44.071755 50.9421212,43.9250891 51.3866315,43.5223222 C52.065243,42.9085821 53.5161066,43.3384258 54.0147704,44.3035998 Z M58.1276189,44.6149826 L58.1670269,44.8127431 C58.2160197,45.0984355 58.1766972,45.1746876 57.9758745,45.1930085 L57.8354154,45.1982614 C57.6381418,45.1997119 57.2614155,45.2351466 56.9354286,45.2825408 L56.5801993,45.3376571 C56.1419189,45.3960143 56.0931116,45.2996002 55.8238371,44.5958033 C55.6546073,44.1467802 55.238866,43.538117 54.9004064,43.2425289 C54.2528204,42.6750449 54.2319487,42.2869446 54.829894,41.9676643 C56.0776818,41.2992066 57.6898778,42.5938146 58.1276189,44.6149826 Z M65.383629,42.1848426 L65.5363512,42.3543566 C65.8401617,42.7092611 65.7747614,42.7982301 65.3102961,43.0089918 C65.0636308,43.1223244 64.7465697,43.5330913 64.4557427,44.1120285 L64.1472154,44.760474 C63.8057266,45.4389314 63.6337025,45.4006828 62.3893896,45.2462098 C61.6797526,45.1582103 61.6543681,44.9043656 62.2297494,43.6672957 C63.0223091,41.9676643 64.5228134,41.2625401 65.383629,42.1848426 Z M60.9751925,40.7035177 L61.4580615,41.5885896 L60.1456901,43.6060835 C60.0357943,43.7702266 59.9631982,43.8750454 59.9496598,43.8878586 C59.9252907,43.9135815 59.8110268,43.7306328 59.675318,43.4551176 L59.570585,43.2329392 C59.4155987,42.8903899 59.1712115,42.4977415 58.9893402,42.2934504 L58.9156657,42.2181244 C58.4570529,41.8046396 58.4954117,41.4622313 59.1023826,40.506647 L59.2696458,40.2481578 C59.983876,39.1729699 60.20473,39.2886397 60.9751925,40.7035177 Z M64.2125587,33.5529941 C65.1890147,33.5529941 65.6058841,34.9621143 64.8420936,35.6751359 L64.4731726,36.0186724 L64.9554776,36.3988754 C65.2211684,36.606464 65.6696274,36.7773861 65.9511129,36.7773861 C66.3956232,36.7773861 66.4655716,36.7102583 66.4655716,36.2674403 C66.4655716,35.2357025 67.9311017,34.7308336 68.5143805,35.5628802 C69.1467358,36.4660032 68.5989954,37.838457 67.3495153,38.485479 C66.5405968,38.9040407 64.8437859,38.8273232 64.1217387,38.3399413 C63.1486673,37.685022 62.7024647,36.873283 62.7024647,35.7563662 C62.7024647,34.2575542 63.1853338,33.5529941 64.2125587,33.5529941 Z M55.8638881,33.5529941 C57.1466501,33.5529941 57.7891593,35.7484689 56.9328564,37.2089221 C56.2852704,38.3100441 55.7087608,38.638914 54.3216405,38.6998367 C53.382415,38.741016 52.9717507,38.67276 52.4505229,38.3895821 C50.8253526,37.5078948 50.8129424,35.1651901 52.4330358,35.1651901 C53.0930321,35.1651901 53.564055,35.6491874 53.564055,36.3221579 C53.564055,36.7999501 53.5995933,36.8191294 54.2161539,36.719848 C54.5726647,36.6606175 55.0070212,36.4851826 55.1813279,36.3266707 L55.2985163,36.2154058 C55.4721996,36.0343537 55.4159498,35.9568819 55.0713285,35.6108286 C54.2703074,34.8120639 54.7565611,33.5529941 55.8638881,33.5529941 Z M60.0150953,34.806987 C60.5983741,34.806987 60.8713982,34.9209351 61.2837548,35.3315994 C62.437338,36.4851826 61.648163,38.3895821 60.0150953,38.3895821 C59.4318166,38.3895821 59.1582284,38.2761981 58.7464359,37.8655338 C57.5939809,36.7119506 58.38372,34.806987 60.0150953,34.806987 Z M59.9891468,28 C60.0630438,28 60.3039142,28.5640994 60.5278617,29.254557 L60.9323209,30.509114 L63.6659464,30.509114 L62.5479015,31.3400323 C61.9324691,31.7969528 61.460882,32.2600784 61.5009331,32.3689496 L61.6306929,32.7309574 C61.9623803,33.68273 62.1725874,34.500493 62.0988784,34.5757063 C62.0457663,34.6272563 61.619187,34.3822436 61.1217299,34.0172525 L59.9942237,33.1677143 L59.0290497,33.8982229 L58.6675595,34.1612001 C58.2801694,34.4335699 57.9584325,34.6281675 57.8833639,34.6281675 C57.7943167,34.6281675 57.8842618,34.1432349 58.0859033,33.5224947 L58.5574626,32.127515 L56.3766545,30.5982417 L59.0533059,30.4944474 L59.4543806,29.2483519 C59.6777639,28.5612789 59.9158139,28 59.9891468,28 Z"/>
</svg>
