<svg xmlns="http://www.w3.org/2000/svg" width="120" height="120" viewBox="0 0 120 120">
  <path fill="#00508E" fill-rule="evenodd" d="M113.996421,0 C115.200237,0 116.175807,0.973115586 116.175807,2.17325057 L116.175807,117.829204 C116.175807,119.028112 115.200237,120 113.996421,120 L6.18061336,120 C4.97679698,120 4,119.028112 4,117.829204 L4,2.17325057 C4,0.973115586 4.97679698,0 6.18061336,0 L113.996421,0 Z M114.760924,22.2883964 L98.1529211,22.2883964 C93.4738672,22.339936 89.9961754,22.2061786 87.3676589,23.7842702 C86.1503441,24.5573633 85.4656045,25.615151 84.7943634,26.3244332 C82.7364632,29.0683001 82.1817996,30.3555615 78.5912117,35.9206046 L76.0964526,39.7934328 C75.2742742,40.9260755 74.5772633,42.0341756 73.6740942,42.7508206 C73.1832415,43.1030075 72.7549724,43.5091881 71.6456452,43.8552393 C71.0369878,44.047899 69.3815869,44.2356502 68.3152093,44.2920983 L67.9530421,44.3086486 C66.9871193,44.3470011 66.0572866,44.3411836 66.0572866,44.3411836 L25.1312111,44.3313665 L15.9743529,44.3313665 L15.9743529,44.3313665 L16.1547413,44.3325936 L15.3874655,44.332889 C14.4028122,44.3337628 14.3984488,44.336275 13.7618342,44.336275 C11.4180123,44.4810766 10.6952316,45.2038573 10.3381362,45.4517379 C9.58713148,45.9769504 9.04964771,46.7488163 8.72936629,47.2531675 C8.14893291,48.1698351 6.88375993,50.4240763 5.58300013,53.2096657 L13.9870374,53.2099937 C25.8510371,53.212302 48.0423551,53.2140925 61.7684602,53.2150437 L73.6728671,53.2158014 C73.6728671,53.2158014 76.528403,53.2329812 78.0439109,53.1691704 C79.0194807,53.1274479 79.5753715,53.063637 80.2061173,52.9028827 C80.5865281,52.8096207 81.097015,52.6304595 81.608729,52.3236765 C81.9425089,52.1396067 82.418636,51.7972369 82.8714477,51.3112927 C83.6531307,50.5541523 84.4286781,49.2754809 84.4286781,49.2754809 L89.9863584,39.1847754 C89.9863584,39.1847754 90.1814724,38.8779924 90.4219902,38.6583358 C90.5925615,38.5024901 90.7496344,38.3405086 91.3386577,38.3171931 C91.4196484,38.3171931 91.1779034,38.3098303 91.1779034,38.3098303 L102.760801,38.3110575 C102.760801,38.3110575 102.957142,38.3049218 103.228339,38.2963319 C103.580525,38.2852877 103.992842,38.2202497 104.279991,38.064404 C104.412521,37.9932303 104.556095,37.8840156 104.667764,37.7588481 C104.803976,37.6030024 104.935279,37.3968442 104.935279,37.3968442 L107.047173,33.607461 L93.9033634,33.6013253 L93.0652323,33.6000982 C93.0603238,33.6160509 95.6642976,29.0805714 95.6642976,29.0805714 C95.6642976,29.0805714 96.3723527,27.8914806 97.3871908,27.4644387 C98.0032832,27.0822233 99.0311441,27.050632 99.2644665,27.048489 L109.81681,27.048441 C109.81681,27.048441 111.228011,27.1122519 112.051417,26.5220015 C112.14836,26.4532821 112.386424,26.2814836 112.563131,26.0765526 C112.797513,25.8029022 112.963176,25.4875293 112.963176,25.4875293 L114.760924,22.2883964 Z"/>
</svg>
