<svg xmlns="http://www.w3.org/2000/svg" width="120" height="120" viewBox="0 0 120 120">
  <path fill="#49559F" d="M49.5412824,71.922808 C52.1897339,74.1999081 55.405196,75.4712307 58.6950726,75.7368787 C58.9640484,75.7585614 59.1782126,75.9592361 59.2157569,76.2165207 L59.2213191,76.3154169 L58.1226069,109.571227 L58.0402674,109.895954 L53.3154184,119.401746 C53.0018347,120.032716 52.1006512,119.958677 51.8692622,119.332078 L51.8371148,119.222554 L49.8226778,110.193611 C49.6827978,109.566727 48.9049575,109.373076 48.4825443,109.817629 L48.4118926,109.902747 L43.0049634,117.364871 C42.5917527,117.934625 41.7118661,117.715284 41.5896126,117.058416 L41.576784,116.951115 L40.9962902,107.572744 C40.9570188,106.938666 40.2322316,106.622789 39.743437,106.982945 L39.6598164,107.053593 L33.088709,113.380666 C32.5725242,113.877791 31.7331725,113.484285 31.7501374,112.801257 L31.7585136,112.701777 L33.0414667,103.689096 C33.132051,103.052178 32.4697759,102.596131 31.9167371,102.866864 L31.8257233,102.918809 L24.2973157,107.857638 C23.7043025,108.246889 22.9571146,107.719625 23.0864571,107.055186 L23.1110087,106.959417 L26.3378955,96.8200223 L26.4231941,96.6749889 L26.5046331,96.5298783 L48.7497935,71.9653158 C48.9566716,71.736206 49.3066147,71.721282 49.5412824,71.922808 Z M70.9795577,71.9978257 L71.0535179,72.0640203 L93.8229754,96.3543921 L93.9948592,96.6418601 L97.3844695,106.699944 C97.6111232,107.372537 96.9090703,107.960258 96.2987218,107.665417 L96.2122632,107.617207 L88.3949467,102.655323 C87.8504656,102.309659 87.1604009,102.725816 87.18116,103.341517 L87.1913484,103.445886 L88.6517432,112.540597 C88.7634897,113.23715 87.9847182,113.700969 87.4301821,113.320084 L87.3488228,113.256539 L80.2978816,107.035066 C79.8198031,106.613054 79.0787318,106.90455 78.9932972,107.508304 L78.9852864,107.611752 L78.8185488,116.726019 C78.8053156,117.440609 77.9371329,117.75489 77.465053,117.264856 L77.3973682,117.185268 L71.9230235,109.906452 C71.5369197,109.393688 70.749807,109.536328 70.547356,110.113878 L70.5178992,110.220269 L68.6916081,119.02885 C68.5485648,119.717935 67.6594978,119.875307 67.2757631,119.329089 L67.2167009,119.231509 L62.3192477,109.783149 L62.2819376,109.62157 L62.2369081,109.460069 L60.5676797,76.3818032 C60.552241,76.0733387 60.7899965,75.8156159 61.0977405,75.7925608 C64.582556,75.5324708 67.756025,74.1611056 70.270263,72.0261441 C70.4770267,71.8512183 70.7708061,71.8419475 70.9795577,71.9978257 Z M43.5206148,60.4923294 C43.8293881,60.4768907 44.0897869,60.713514 44.1103718,61.0214639 C44.3708735,64.5015448 45.7441942,67.6707939 47.8819347,70.1817383 C48.0539328,70.3874957 48.063285,70.6812446 47.9070996,70.889785 L47.8407649,70.9636552 L23.5179719,93.70275 L23.2297835,93.8745309 L13.1581132,97.2597154 C12.4841453,97.4861726 11.8955175,96.7854237 12.1907266,96.1754627 L12.238998,96.089053 L17.207572,88.2821319 C17.5538207,87.7384308 17.1368638,87.0495157 16.5205511,87.0700436 L16.4160832,87.0801803 L7.30922649,88.5385166 C6.61620198,88.6501651 6.14723066,87.8722291 6.52823888,87.3186619 L6.5918432,87.2374489 L12.8217561,80.1958739 C13.243963,79.7182828 12.9521081,78.9800084 12.3478785,78.8932042 L12.2443501,78.8849254 L3.11804069,78.7184966 C2.40247083,78.7054595 2.08739604,77.8386864 2.57824589,77.3668293 L2.65796848,77.2991686 L9.94656214,71.8322345 C10.459812,71.4470055 10.3175666,70.6606759 9.73919147,70.4584826 L9.63264262,70.4290657 L0.81222464,68.6050389 C0.122847628,68.4623857 -0.0353708879,67.5746325 0.511721012,67.1912101 L0.609463509,67.1321903 L10.0702773,62.2412213 L10.39346,62.1539414 L43.5206148,60.4923294 Z M76.4171159,60.6974748 L109.717287,61.7950439 L110.042528,61.8768688 L119.560979,66.5953365 C120.192827,66.9085301 120.118927,67.8083075 119.491552,68.0396371 L119.381891,68.0717875 L110.340803,70.0835484 C109.712849,70.223234 109.519139,71.0002372 109.964296,71.421951 L110.049527,71.492481 L117.521841,76.8922054 C118.091887,77.3044384 117.872375,78.1793529 117.214519,78.3049945 L117.107055,78.3184293 L107.716127,78.8983055 C107.081369,78.9374797 106.765178,79.6612516 107.125649,80.1495002 L107.196359,80.2330296 L113.530843,86.7953884 C114.029048,87.3110819 113.635216,88.1488171 112.951171,88.1320643 L112.851541,88.1237312 L103.826818,86.8425278 C103.193996,86.7519435 102.732991,87.4132025 103.003892,87.9656092 L103.055915,88.0565215 L108.001228,95.5748425 C108.390871,96.1675609 107.863156,96.9133288 107.197601,96.7842158 L107.101668,96.7597086 L96.9488933,93.5371446 L96.8056997,93.4537758 L96.6586464,93.370407 L72.0595013,71.1555064 C71.8320383,70.9483195 71.8165997,70.5987881 72.0183315,70.364738 C74.2985194,67.7197859 75.5721063,64.5086465 75.8376514,61.2231957 C75.8623532,60.9208038 76.1134888,60.6880916 76.4171159,60.6974748 Z M59.9998456,45.9028971 C67.7412605,45.9028971 74.0169171,52.1785538 74.0169171,59.9199686 C74.0169171,67.6613835 67.7412605,73.9370402 59.9998456,73.9370402 C52.2584308,73.9370402 45.9827741,67.6613835 45.9827741,59.9199686 C45.9827741,52.1785538 52.2584308,45.9028971 59.9998456,45.9028971 Z M107.808656,23.6642646 L107.760384,23.7506744 L102.791913,31.5575955 C102.445762,32.1012965 102.862632,32.7902116 103.478935,32.7696838 L103.583402,32.759547 L112.690465,31.3012107 C113.383489,31.1895622 113.852461,31.9674982 113.471452,32.5210654 L113.407848,32.6022785 L107.178038,39.6438535 C106.755831,40.1214445 107.047686,40.8597189 107.651916,40.9465231 L107.755444,40.954802 L116.881753,41.1212308 C117.597323,41.1342679 117.912398,42.001041 117.421548,42.4728981 L117.341826,42.5405587 L110.053129,48.0074928 C109.539879,48.3927218 109.682125,49.1790515 110.2605,49.3812447 L110.367049,49.4106616 L119.187261,51.2346884 C119.877613,51.3774392 120.034959,52.2651975 119.487772,52.6486201 L119.390022,52.7076399 L109.929208,57.5986089 L109.606025,57.6858889 L76.479694,59.347398 C76.1709207,59.3628366 75.9105219,59.1262134 75.889937,58.8182635 C75.6296411,55.3381826 74.2563204,52.1689335 72.1185799,49.657989 C71.9465818,49.4522316 71.9372296,49.1584828 72.093415,48.9499423 L72.1597497,48.8760721 L96.4824398,26.1369773 L96.6284638,26.0510869 L96.7706282,25.9651965 L106.842299,22.5800119 C107.515284,22.3535547 108.103867,23.0543036 107.808656,23.6642646 Z M12.8018857,23.0557173 L12.8978173,23.0802246 L23.0507979,26.3027886 L23.1939915,26.3861574 L23.3410448,26.4695262 L47.9403958,48.6844268 C48.168888,48.8916137 48.1832974,49.2411451 47.9815655,49.4751952 C45.7015835,52.1201473 44.4279966,55.3312866 44.1624516,58.6167374 C44.1404943,58.8855303 43.9396265,59.0992675 43.6820133,59.1366518 L43.582987,59.1421674 L10.2827133,58.0448893 L9.95747213,57.9630644 L0.439020649,53.2445967 C-0.192827022,52.9314031 -0.11892671,52.0316257 0.508448048,51.8002961 L0.618109161,51.7681457 L9.65919712,49.7563848 C10.2871505,49.6166992 10.4808613,48.8396959 10.0357039,48.4179821 L9.95047326,48.3474522 L2.47836535,42.9477277 C1.90831838,42.5354948 2.12783046,41.6605803 2.78568715,41.5349387 L2.89315081,41.5215039 L12.283976,40.9416276 C12.9187338,40.9024535 13.2349247,40.1786815 12.8744539,39.690433 L12.8037444,39.6069036 L6.46823095,33.0445447 C5.97002524,32.5288512 6.36385793,31.6911161 7.04790233,31.7078689 L7.14753221,31.716202 L16.1726669,32.9974053 C16.8054896,33.0879897 17.2664941,32.4267307 16.9955939,31.874324 L16.9435709,31.7834117 L11.9982578,24.2649878 C11.6088104,23.6723676 12.1363471,22.9266042 12.8018857,23.0557173 Z M68.1303253,0.507958571 L68.1624735,0.617481946 L70.1769105,9.64642482 C70.3167906,10.2733089 71.0946308,10.4669603 71.517044,10.0224066 L71.5876957,9.93728927 L76.9946249,2.4750621 C77.4078356,1.90530846 78.2877222,2.12464943 78.4099758,2.78151759 L78.4228043,2.88881831 L79.0032981,12.2671896 C79.0424723,12.901267 79.7673459,13.2171447 80.2561504,12.856988 L80.3397719,12.7863405 L86.9108793,6.45926686 C87.4270641,5.96214185 88.2664158,6.35564854 88.2494509,7.03867638 L88.2410747,7.13815641 L86.9581216,16.1508372 C86.8674398,16.7877553 87.5296174,17.2438023 88.0826462,16.973069 L88.1736592,16.9211237 L95.7021697,11.9822948 C96.2951828,11.593044 97.0423708,12.1203082 96.9130283,12.7847474 L96.8884767,12.8805163 L93.6615899,23.0199109 L93.5766772,23.1649443 L93.4948523,23.3100549 L71.2496919,47.8747203 C71.0428138,48.1038301 70.6928707,48.1187541 70.458203,47.9172281 C67.8097515,45.640128 64.5942893,44.3688054 61.3044128,44.1031574 C61.0320747,44.0812036 60.8157605,43.8757551 60.7823446,43.613841 L60.778154,43.5246192 L61.8768785,10.2688089 L61.959218,9.94408228 L66.6839641,0.43829051 C66.9791934,-0.155563706 67.7949264,-0.124911698 68.0827923,0.403149177 L68.1303253,0.507958571 L68.1303253,0.507958571 Z M52.7239265,0.510844147 L52.7829903,0.608424596 L57.6804435,10.0566816 L57.7177536,10.2182215 L57.7627831,10.3797614 L59.4268653,43.4579241 C59.442304,43.7663887 59.2055778,44.0241115 58.8968045,44.0471665 C55.4119891,44.3072566 52.23852,45.6786217 49.724282,47.8135832 C49.5184332,47.988509 49.2239422,47.9977798 49.0150211,47.8419017 L48.9410271,47.775707 L26.1715696,23.4853352 L26.0871716,23.3416012 L25.9996858,23.1978672 L22.6100755,13.139783 C22.3834218,12.4671905 23.0854747,11.8794693 23.6958232,12.1743103 L23.7822818,12.2225204 L31.5994954,17.1844044 C32.1439765,17.530068 32.8340412,17.1139117 32.8132821,16.49821 L32.8030937,16.3938418 L31.3426989,7.29913023 C31.2309524,6.60296897 32.0097239,6.13879612 32.56426,6.51964608 L32.6456193,6.58318788 L39.6965604,12.804661 C40.174639,13.2266729 40.9157103,12.9351772 41.0011449,12.3314235 L41.0091557,12.2279754 L41.1758933,3.1137082 C41.1889304,2.39911857 42.0572905,2.0848373 42.5293877,2.5748714 L42.5970739,2.65445938 L48.0765648,9.93337814 C48.4625714,10.4461419 49.2496787,10.3035023 49.4521294,9.72595197 L49.4815862,9.61956155 L51.3080832,0.811082803 C51.4509315,0.121998313 52.3401729,-0.0353734283 52.7239265,0.510844147 Z"/>
</svg>
