<svg xmlns="http://www.w3.org/2000/svg" width="120" height="120" viewBox="0 0 120 120">
  <path fill="#003876" d="M8.52421633,49.2978298 L8.52421633,74.0819842 C8.52421633,77.9357906 5.71126421,80.5220117 1.81095419,80.5220117 L1.95399252e-13,80.5220117 L1.95399252e-13,76.1684464 L1.31284878,76.1684464 C2.90037892,76.1684464 3.89886324,75.4407165 3.89886324,73.7184292 L3.89886324,49.2978298 L8.52421633,49.2978298 Z M20.9892525,49.0258353 C26.0649673,49.0258353 30.4656562,52.7899414 30.4656562,58.7304168 L30.4656562,58.7304168 L30.4656562,62.538133 L16.135515,62.538133 C16.135515,66.3028591 18.4478815,68.2086807 21.6229418,68.2086807 C23.391526,68.2086807 25.2950741,67.3918705 26.6577334,65.9874612 L26.6577334,65.9874612 L30.0105408,68.8427833 C27.7446779,71.4722012 24.7957286,72.562866 21.7140889,72.562866 C16.9963486,72.562866 11.5099552,70.2945229 11.5099552,60.8623493 C11.5099552,51.9268343 16.5420599,49.0258353 20.9892525,49.0258353 Z M84.8149501,49.2978298 L84.8149501,62.9920083 C84.8149501,66.1232518 86.764175,67.9362728 89.3979332,67.9362728 C91.9816741,67.9362728 93.9292456,66.1234585 93.9292456,62.9920083 L93.9292456,49.2978298 L98.5566655,49.2978298 L98.5566655,72.2898381 L93.9292456,72.2898381 L93.9292456,69.8396142 L93.8424389,69.8396142 C92.3896659,71.654702 90.3027902,72.5626593 87.8984499,72.5626593 C84.2730279,72.5626593 80.1889769,69.7945574 80.1889769,64.5811919 L80.1889769,49.2978298 L84.8149501,49.2978298 Z M110.520703,49.0258353 C115.600758,49.0258353 120,52.7899414 120,58.7304168 L120,58.7304168 L120,62.538133 L105.667999,62.5383396 C105.667999,66.3034792 107.982225,68.209094 111.156252,68.209094 C112.92587,68.209094 114.827558,67.3920772 116.188357,65.9876679 L116.188357,65.9876679 L119.545711,68.8427833 C117.277575,71.4722012 114.332139,72.562866 111.244712,72.562866 C106.530072,72.562866 101.040372,70.2945229 101.040372,60.8623493 C101.040372,51.9268343 106.07599,49.0258353 110.520703,49.0258353 Z M57.5764382,40 C63.878195,40 67.1466759,43.5834654 67.1470892,48.6629004 C67.1470892,51.3375818 66.1483982,53.9223562 62.3842921,55.6008267 L62.3842921,55.6008267 L62.3842921,55.6901137 C65.9210472,56.5085773 67.6435412,59.8642783 67.6435412,63.129659 C67.6435412,68.7067861 63.5183603,72.2898381 58.6648295,72.2898381 L58.6648295,72.2898381 L45.0582845,72.2898381 L45.0582845,40 Z M74.927661,40 L74.927661,66.348536 C74.927661,67.3914571 75.5175336,67.9362728 76.6549087,67.9362728 L78.239752,67.9362728 L78.239752,72.2898381 L76.1991733,72.2898381 C72.8409921,72.2898381 70.302308,70.8395453 70.302308,66.7106442 L70.302308,40 L74.927661,40 Z M38.7581812,42.3129866 L38.7581812,49.2978298 L42.1116087,49.2978298 L42.1116087,52.835205 L38.7581812,52.835205 L38.7581812,66.2121254 C38.7581812,67.4832243 39.2560799,67.9362728 40.3866345,67.9362728 L42.1116087,67.9362728 L42.1116087,72.2898381 L39.7091285,72.2898381 C36.487978,72.2898381 34.1328281,70.2455391 34.1328281,66.6207372 L34.1328281,52.835205 L31.8161213,52.835205 L31.8161213,49.2978298 L34.1328281,49.2978298 L34.1328281,42.3129866 L38.7581812,42.3129866 Z M57.487978,57.9594902 L49.958319,57.9594902 L49.958319,67.6636583 L57.487978,67.6636583 C61.1148467,67.6636583 62.7447468,65.3514984 62.7447468,62.8105408 C62.7447468,60.2712367 61.1152601,57.9594902 57.487978,57.9594902 L57.487978,57.9594902 Z M20.9888391,53.3800207 C18.2666207,53.3800207 16.2252153,55.2389252 16.1353083,58.7304168 L16.1353083,58.7304168 L25.8398898,58.7304168 C25.705546,55.2389252 23.7108508,53.3800207 20.9888391,53.3800207 Z M110.520703,53.3800207 C107.799104,53.3800207 105.762039,55.2389252 105.667999,58.7304168 L105.667999,58.7304168 L115.37568,58.7304168 C115.236169,55.2389252 113.241268,53.3800207 110.520703,53.3800207 Z M57.0316225,44.3552187 L49.958319,44.3552187 L49.958319,53.607165 L57.0316225,53.607165 C60.5696176,53.607165 62.2470548,51.5182225 62.2470548,48.9803651 C62.2470548,46.4857044 60.5696176,44.3552187 57.0316225,44.3552187 L57.0316225,44.3552187 Z M8.52421633,40 L8.52421633,44.6261798 L3.89886324,44.6261798 L3.89886324,40 L8.52421633,40 Z"/>
</svg>
