<svg xmlns="http://www.w3.org/2000/svg" width="120" height="120" viewBox="0 0 120 120">
  <g fill="none" transform="translate(0 44)">
    <path fill="#0D47A1" d="M117.55102,15.6968789 C117.55102,15.6968789 117.800816,16.9213687 117.061224,18.6454503 C114.852245,22.5564707 103.831837,27.2168789 98.2089796,29.4160625 C89.637551,27.7017768 81.7910204,24.7678993 76.1681633,23.2936136 C85.9640816,21.3344299 95.997551,18.1458584 99.1836735,16.9213687 C101.632653,15.9466748 107.505306,13.0103482 109.714286,11.0487156 L112.653061,7.3752462 L117.55102,15.6968789 Z"/>
    <path fill="#FF3D00" d="M-6.75015599e-14,3.70177682 C16.4081633,2.96708294 72.4946939,0.0283074288 79.1020408,0.0283074288 C85.9640816,0.0283074288 98.2089796,-0.22148849 101.142857,0.763001306 C104.081633,1.50259314 107.755102,1.9874911 110.693878,4.43647069 C113.627755,6.88545029 116.816327,12.2732054 117.800816,15.6968789 C116.076735,13.2478993 113.390204,11.0487156 110.941224,10.5613687 C103.831837,10.0715727 81.5534694,9.8242258 81.5534694,9.8242258 C81.5534694,9.8242258 44.3289796,10.0740217 31.8367347,9.08953192 C18.8571429,7.86504212 7.59673469,6.15075641 -6.75015599e-14,3.70177682"/>
  </g>
</svg>
