<svg xmlns="http://www.w3.org/2000/svg" width="120" height="120" viewBox="0 0 120 120">
  <path fill="#5A3F99" d="M11.0824077,35 L11.0824077,35.0014291 C6.52095921,35.0014291 4.86462512,38.1034211 4.45017199,39.6584335 C3.6208222,42.5596546 3.63733134,43.5064903 3.01535596,44.025567 C1.46103352,45.3710366 0,45.7782454 0,47.5391045 C0,50.1301018 3.93015898,49.1989375 3.93015898,54.1728186 L3.93015898,68.2706315 C3.93015898,70.9645275 5.18647927,71.8890389 7.98559024,71.8890389 C10.6787471,71.8890389 11.8123084,70.6543037 11.8123084,68.2706315 L11.8123084,53.6529041 C11.8123084,52.2022689 12.3328142,51.0736357 13.059216,50.554559 C13.8878266,49.9317951 16.4897151,49.3025754 16.4897151,47.4358115 C16.4897151,46.6064617 15.9679772,45.667166 14.8276151,45.1488286 C13.2732927,44.4223775 12.9557752,44.0248278 12.9557752,43.1939503 C12.9557752,42.4690269 13.4821455,41.9419174 15.1393666,41.0104081 C16.9010142,40.0766319 16.6776235,38.8425867 16.6776235,37.7037523 C16.6776235,36.2508994 15.1318759,35 13.059216,35 L11.0824077,35 Z M22.2696853,35.1456697 L22.2696853,35.1470988 C20.405139,35.1470988 19.1712909,36.61035 19.1712909,38.474157 L19.1712909,68.1043525 C19.1712909,70.7989878 20.3038173,71.9499946 23.4131521,71.9499946 C26.0041495,71.9499946 27.2602726,70.8022403 27.2602726,68.6229364 L27.2602726,38.9927409 C27.2602726,36.4040105 26.1095122,35.1456697 23.9332144,35.1456697 L22.2696853,35.1456697 Z M57.9717916,36.4974472 C56.2094048,36.4974472 55.3934594,37.8543008 55.3934594,39.7210647 L55.3934594,67.7915168 C55.3934594,71.1089159 56.2130516,71.9503395 58.9084753,71.9503395 C61.2906691,71.9503395 61.0796972,71.2234449 63.5655289,71.2234449 C66.0535783,71.2234449 66.2805173,72.5737934 70.1149726,72.5737934 C76.5387496,72.5737934 81.5107088,67.8028021 81.5107088,58.0610345 C81.5107088,49.6674962 76.8308874,45.105555 70.4062232,45.105555 C67.5019959,45.105555 66.0546132,46.2505002 64.3959136,46.2505002 C62.9452784,46.2505002 62.234203,44.5815995 62.234203,43.1317527 L62.234203,39.7202269 C62.234203,37.5439291 61.0861037,36.4980386 59.6354685,36.4980386 L57.9717916,36.4974472 Z M96.9397491,44.2325915 C90.2040233,44.2325915 83.7772893,48.2587498 83.7772893,58.8301136 C83.7772893,67.6390907 89.4786071,72.304522 97.0432391,72.304522 C104.81633,72.304522 108.542465,67.6412097 108.542465,65.9827566 C108.542465,64.7387073 106.684671,63.3009836 105.028928,63.3009836 C102.334983,63.3009836 101.603061,66.9193911 97.1484048,66.9193911 C94.452981,66.9193911 91.7629781,64.4374526 91.7629781,62.1575168 C91.7629781,60.3958693 92.9969741,59.4539124 95.3813856,59.4539124 L106.172444,59.4539124 C108.661233,59.4539124 109.68746,58.8440602 109.68746,56.4604372 C109.686474,54.3885658 108.236973,44.2338235 96.9399462,44.2325915 L96.9397491,44.2325915 Z M31.9578352,45.1488237 C30.5064607,45.1488237 28.8426852,45.6816497 30.0859953,49.8276594 C30.3962586,50.9680216 36.9266896,70.2314679 36.9266896,71.9937561 C36.9266896,73.4451305 35.9021871,74.8035118 33.9332144,75.2159444 C32.0664012,75.6313683 30.9178584,76.4495461 30.9178584,78.1059788 C30.9178584,79.8676263 32.0662041,80.9144531 33.7249037,80.9144531 L36.3047142,80.9144531 C39.3081442,80.9144531 42.6314078,79.9783607 44.7041662,73.552366 L52.8981165,48.6836998 C53.002538,48.2667876 53.1049734,47.7466218 53.1049734,47.0201707 C53.1049734,45.9827566 52.063469,45.1498093 50.8179412,45.1498093 L49.0509713,45.1498093 C47.0827379,45.1498093 45.8464749,46.0902877 45.4325639,47.8534137 L43.2489725,57.8958939 C42.9387092,59.4516948 42.3096768,61.1195113 41.2736918,61.1195113 C40.4450813,61.1195113 39.7352379,60.5895436 39.2153727,57.9992854 L37.1352221,48.4767197 C36.6183631,46.3004218 35.5909037,45.1496614 33.8285169,45.1496614 L31.9578352,45.1488237 Z M96.9397491,49.619398 C99.4277984,49.619398 101.618634,51.4741866 101.618634,53.1329355 C101.618634,54.5843099 99.8371263,55.3164776 96.4180112,55.3164776 C93.6189495,55.3164776 92.17615,54.4788486 92.17615,52.9260539 C92.1776284,51.0607684 94.8683705,49.619398 96.9395519,49.619398 L96.9397491,49.619398 Z M68.5563627,49.9719148 C72.7001547,49.9719148 74.5666723,54.0221715 74.5666723,59.3077056 C74.5666723,64.9050405 71.6647119,67.5844479 68.3493825,67.5844479 C64.8253482,67.5844479 62.3390729,64.58979 62.3390729,58.580811 C62.3390729,52.571487 65.3424536,49.9719148 68.5563627,49.9719148 L68.5563627,49.9719148 Z M115.093387,62.7820154 C111.568614,62.7820154 110.538296,64.1233454 110.538296,67.6473304 C110.538296,69.9265763 110.947082,72.3043348 115.196779,72.3043348 C118.200948,72.3043348 119.772223,71.2725387 119.772223,67.4390197 C119.772223,64.9502311 119.342301,62.7820154 115.093338,62.7820154 L115.093387,62.7820154 Z M59.2826659,74.7163928 C55.7526686,74.7163928 54.7072216,76.0698952 54.7072216,79.6021102 C54.7072216,81.8865798 55.1274456,84.2809953 59.3861067,84.2809953 C62.3969781,84.2809953 63.9382451,83.2407229 63.9382451,79.3952779 C63.9397195,76.9034832 63.5420712,74.7163928 59.2826659,74.7163928 Z M70.4906415,74.7163928 C66.9591658,74.7163928 65.9151973,76.0698952 65.9151973,79.6021102 C65.9151973,81.8865798 66.3332233,84.2809953 70.5926532,84.2809953 C73.6035246,84.2809953 75.1476992,83.2407229 75.1476992,79.3952779 C75.1491736,76.9034832 74.7493273,74.7163928 70.4906415,74.7163928 Z M81.8646941,74.7163928 C78.3346968,74.7163928 77.3110813,76.0698952 77.3110813,79.6021102 C77.3110813,81.8865798 77.708705,84.2809953 81.9681349,84.2809953 C84.9790063,84.2809953 86.5435792,83.2407229 86.5435792,79.3952779 C86.5435792,76.9034832 86.1240895,74.7163928 81.8646941,74.7163928 L81.8646941,74.7163928 Z M93.0726697,74.7163928 C89.541194,74.7163928 88.4986546,76.0698952 88.4986546,79.6021102 C88.4986546,81.8865798 88.9166856,84.2809953 93.1761105,84.2809953 C96.1869819,84.2809953 97.7501257,83.2407229 97.7501257,79.3952779 C97.7501257,76.9034832 97.3328487,74.7163928 93.072719,74.7163928 L93.0726697,74.7163928 Z M104.280645,74.7163928 C100.750648,74.7163928 99.7052011,76.0698952 99.7052011,79.6021102 C99.7052011,81.8865798 100.125425,84.2809953 104.384086,84.2809953 C107.395007,84.2809953 108.958103,83.2407229 108.958103,79.3952779 C108.959087,76.9034832 108.541578,74.7163928 104.280695,74.7163928 L104.280645,74.7163928 Z M115.322544,74.7163928 C111.792547,74.7163928 110.7471,76.0698952 110.7471,79.6021102 C110.7471,81.8865798 111.166575,84.2809953 115.425985,84.2809953 C118.437645,84.2809953 120,83.2407229 120,79.3952779 C120,76.9034832 119.581979,74.7163928 115.322544,74.7163928 Z"/>
</svg>
