<svg xmlns="http://www.w3.org/2000/svg" width="120" height="120" viewBox="0 0 120 120">
  <g fill="none" fill-rule="evenodd">
    <polygon fill="#E9D226" points="120 63.308 63.07 120.046 0 120.046 119.929 .046"/>
    <path fill="#1C140F" d="M19.2596385,107.990428 L19.1138264,108.124737 C16.8622475,110.085789 17.958037,113.499474 20.2854054,114.001579 C22.7769843,114.541579 27.0969843,112.924737 27.6369843,112.798421 L27.8556159,112.758935 C28.8748254,112.605587 32.3702567,112.404508 32.3327738,115.662632 C32.295113,118.702398 27.6491827,117.466166 26.2734374,117.033159 L25.8938264,116.906842 C25.8938264,116.906842 21.6559317,115.163684 19.1643528,114.999474 C16.6696159,114.832105 13.9285633,115.703684 12.558037,116.865789 C15.7569843,108.775263 19.1643528,107.663684 19.1643528,107.663684 C19.5981686,107.522763 19.5629383,107.693734 19.2596385,107.990428 Z M98.0517212,107.445789 L98.1751399,107.49883 C98.8424042,107.81055 102.094118,109.646551 104.948563,116.865789 C103.578037,115.703684 100.833826,114.832105 98.3422475,114.999474 C96.637483,115.111828 94.1151911,115.963358 92.6921688,116.489961 L91.5126427,116.941761 C90.6998174,117.218837 85.2118381,118.966725 85.1738264,115.662632 C85.1336663,112.171785 89.1491473,112.651961 89.8292951,112.789787 L89.8696159,112.798421 C90.4096159,112.924737 94.7296159,114.541579 97.2211949,114.001579 C99.7127738,113.464737 100.91909,109.397368 98.0517212,107.445789 Z M24.7876914,108.434792 L35.1559317,111.472105 L33.2454054,115.163684 L33.2454054,115.163684 C33.286458,114.582632 32.3327738,112.094211 29.9233001,111.762632 C27.5138264,111.431053 25.6854054,112.675263 23.3169843,112.965789 C20.9485633,113.256316 18.9969843,112.552105 18.9969843,110.85 C18.9969843,107.260712 24.3665491,108.344286 24.7876914,108.434792 L24.7876914,108.434792 Z M98.5096159,110.85 C98.5096159,112.552105 96.558037,113.256316 94.1896159,112.965789 C91.8211949,112.675263 89.9927738,111.431053 87.5833001,111.762632 C85.1738264,112.094211 84.2201422,114.582632 84.2611949,115.163684 L82.3506686,111.472105 L82.3506686,111.472105 L92.7189088,108.434792 C93.1400512,108.344286 98.5096159,107.260712 98.5096159,110.85 Z M90.7317212,100.327895 C92.7622475,101.073158 97.038037,107.319474 97.038037,107.319474 L96.1614589,107.342903 C95.3833404,107.368937 94.2431672,107.420359 93.4055417,107.514753 L93.2422475,107.534211 C89.8759317,107.960526 73.9001422,114.314211 58.2401422,114.314211 C42.5833001,114.314211 26.7117212,106.558421 21.0748791,107.073158 L24.3139553,102.453723 C24.5989556,102.088817 26.3981874,99.9829624 29.5885633,100.514211 C33.078037,101.095263 44.4969843,104.202632 50.9422475,105.203684 L51.5730619,105.297414 C54.8969229,105.767255 57.5540339,105.765542 58.6308973,105.738091 L59.612977,105.695176 C61.2060465,105.61081 66.5378229,105.291072 69.7746328,104.643109 L69.9969843,104.597368 C73.7927738,103.795263 88.7011949,99.5794737 90.7317212,100.327895 Z M58.3854054,109.308947 L57.6654054,110.028947 L57.9370954,110.318774 C58.2824284,110.692475 58.8322475,111.307697 58.8148791,111.418421 C58.7896159,111.579474 58.1454054,112.725789 56.6485633,112.511053 L56.8519881,112.727532 C57.2538887,113.131345 57.789535,113.544899 58.038037,113.499474 C58.3348791,113.445789 58.9759317,112.299474 59.1085633,111.791053 C59.2411949,111.285789 58.9759317,110.243684 58.3854054,109.308947 Z M71.9990896,111.307895 L71.5885633,111.87 L71.2001422,111.560526 L70.7296159,112.207895 L71.3359317,112.691053 L71.746458,112.128947 L72.1348791,112.438421 L72.6022475,111.791053 L71.9990896,111.307895 Z M60.1222475,106.744737 L59.4022475,107.414211 L59.6959317,112.245789 L60.3906686,111.232105 L60.1222475,106.744737 Z M54.8075107,106.852105 L54.138037,107.575263 L54.1690734,108.736261 C54.1916574,110.001848 54.1880188,111.885463 53.9769843,112.166842 C54.5138264,111.791053 54.886458,111.232105 54.8611949,110.537368 L54.8337327,109.20991 C54.818311,108.1306 54.8075107,106.852105 54.8075107,106.852105 Z M71.1054054,107.174211 C70.6790896,107.493158 70.4106686,107.919474 70.4106686,107.919474 L70.4754706,107.948629 C70.6613114,108.04155 71.1704209,108.36678 70.9727738,109.068947 L70.3854054,109.068947 L70.3854054,110.028947 L70.5670337,109.963816 C70.8969843,109.853092 71.5719843,109.664211 71.6927738,109.924737 C71.8538264,110.268947 68.9422475,111.658421 65.1211949,110.963684 L66.6717212,112.113158 L66.8890051,112.13227 C67.3820526,112.162593 68.6647036,112.171053 70.2243528,111.633158 C72.226458,110.938421 72.7096159,109.523684 71.4811949,109.23 L71.5202446,109.131447 C71.6339142,108.816754 71.908037,107.818947 71.1054054,107.174211 Z M46.0159317,105.705789 L45.1885633,106.400526 L43.9854054,109.23 L43.9702075,109.056942 C43.9007543,108.372224 43.5568029,105.888621 42.2201422,105.866842 L42.1411949,107.227895 L42.2055642,107.23642 C42.4618057,107.283317 43.4066395,107.58343 43.638037,109.47 L43.3099755,109.585092 C42.3974522,109.888285 41.2334756,110.146842 41.0201422,110.003684 C41.6611949,110.483684 42.9685633,110.963684 43.2369843,110.884737 C43.5054054,110.805789 45.0527738,107.973158 45.0527738,107.973158 L44.7875107,110.351053 L44.7878166,110.381846 C44.7930616,110.529862 44.8597707,111.165975 45.6148791,111.285789 C45.8909693,111.329098 46.1925805,111.258722 46.4759624,111.122389 L46.6159317,111.048947 C46.8306686,111.282632 47.2633001,111.677368 47.6990896,111.658421 C48.0148791,111.568947 48.2539142,111.435614 48.4362972,111.280351 L48.5390896,111.184737 C48.6306686,111.383684 48.8359317,111.702632 49.2496159,111.791053 C49.8622475,111.926842 50.2633001,111.124737 50.2633001,111.124737 L50.2587661,111.16918 C50.2468063,111.356582 50.2768928,112.067437 51.4411949,111.952105 C52.7769843,111.819474 52.9096159,110.19 52.9096159,110.19 L53.0422475,108.108947 L53.1010909,108.095675 C53.2284463,108.063411 53.526458,107.967895 53.6296159,107.761579 C52.938037,107.575263 52.938037,106.880526 52.938037,106.880526 L52.2148791,107.439474 L52.5085633,107.628947 L52.4315896,108.769737 C52.381458,109.423421 52.308037,110.243684 52.2148791,110.91 C51.5201422,111.497368 50.6643528,110.963684 50.6643528,110.963684 L50.5317212,109.47 L50.1022475,109.817368 L50.0844242,109.905381 C50.0611388,110.04085 50.0233001,110.340364 50.0233001,110.856316 C49.3538264,111.055263 49.0317212,110.780526 48.8896159,110.578421 C49.0096159,110.164737 48.9148791,109.788947 48.8201422,109.735263 C48.3559317,111.131053 47.5854054,110.780526 47.238037,110.527895 C47.4338264,110.294211 47.566458,110.041579 47.566458,109.817368 L47.143034,110.121928 C46.7041561,110.425072 46.2917831,110.604056 45.5359317,110.297368 C45.1601422,110.028947 46.0159317,105.705789 46.0159317,105.705789 Z M61.9948791,108.108947 L61.8875107,109.337368 L61.9913675,109.392189 C62.2486475,109.534674 62.902458,109.939895 63.0085633,110.43 C63.1443528,111.045789 61.486458,111.045789 61.0854054,110.218421 L61.0101491,110.509572 C60.8867467,111.026798 60.8643528,111.530942 61.6727738,111.844737 C62.6359317,112.220526 63.3022475,111.472105 63.438037,110.698421 C63.5706686,109.924737 63.3559317,109.068947 61.9948791,108.108947 Z M73.458037,106.880445 C72.7348791,106.959474 72.1222475,108.320526 72.5485633,109.043684 C72.9748791,109.763684 73.8843528,110.19 74.3927738,108.882632 C74.7654054,108.696316 75.0590896,110.376316 72.8169843,110.591053 C72.9748791,110.938421 73.3506686,111.364737 74.1243528,111.203684 C74.9011949,111.045789 75.4348791,109.735263 74.7654054,108.295263 C74.0990896,106.852105 73.458037,106.880445 73.458037,106.880445 Z M78.4538264,105.304737 C77.8917212,105.626842 77.9454054,105.945789 77.9454054,105.945789 L78.0850826,106.076754 C78.3123387,106.301046 78.7331949,106.768526 78.6938264,107.120526 C78.6401422,107.600526 77.1433001,108.026842 76.2875107,106.533158 L76.2085633,107.332105 L76.2893548,107.472668 C76.4099211,107.66516 76.6640289,108.012267 77.0422475,108.235263 L77.0310931,108.45065 C76.9758537,109.079318 76.6833001,110.068947 75.3527738,109.656316 C75.4601422,109.896316 76.1296159,110.483684 76.5843528,110.512105 C77.0138264,110.537368 77.5096159,109.763684 77.3990896,108.386842 C77.6169843,108.446842 77.8601422,108.465789 78.1317212,108.402632 C79.3885633,108.108947 79.2811949,106.132105 78.4538264,105.304737 Z M38.2127738,109.015263 C37.9548791,109.149474 37.615844,109.226667 37.2669405,109.272427 L37.0569843,109.296316 C36.2769843,109.365789 35.5127738,109.293158 35.5127738,109.293158 C35.6075107,109.722632 35.9611949,109.924737 36.3496159,110.000526 C36.7254054,110.073158 37.1359317,110.028947 37.3854054,109.95 C37.8938264,109.788947 38.8001422,109.094211 38.8001422,109.094211 L40.0822475,110.376316 L40.2236014,110.276012 C40.4604089,110.098982 40.9306686,109.706842 41.1275107,109.255263 C41.3927738,108.642632 41.0990896,107.360526 40.458037,107.174211 C39.8169843,106.987895 39.0969843,108.560526 38.2127738,109.015263 Z M78.9685633,108.696316 L78.7096159,109.387895 L79.4675107,109.637368 L79.726458,108.945789 L78.9685633,108.696316 Z M40.0569843,108.080526 C40.4327738,108.216316 40.6443528,109.283684 40.4327738,109.495263 C40.218037,109.71 39.3622475,108.535263 39.3622475,108.535263 L39.3878323,108.492368 C39.4710194,108.359474 39.746458,107.97 40.0569843,108.080526 Z M73.458037,107.761579 C73.7517212,107.761579 74.1527738,108.266842 74.1527738,108.266842 C72.1727738,109.337368 73.1643528,107.761579 73.458037,107.761579 Z M70.3033001,105.99 L69.8548791,106.637368 L70.5401422,107.044737 L70.9885633,106.400526 L70.3033001,105.99 Z M82.638037,45.6268421 C88.9254054,51.7752632 92.8254054,60.3110526 92.8254054,69.75 C92.8254054,88.4794737 77.4843528,103.662632 58.5622475,103.662632 C39.6369843,103.662632 24.2990896,88.4794737 24.2990896,69.75 C24.2990896,60.3110526 28.1959317,51.7752632 34.4833001,45.6268421 C31.7896159,50.0668421 30.2296159,55.2994737 30.2296159,60.9110526 C30.2296159,75.5857895 40.878037,87.7057895 54.6938264,89.6384211 C54.0117212,85.8994737 50.6706686,83.8057895 50.6706686,83.8057895 L50.9717358,83.8604532 C51.9261949,84.05 54.8985633,84.7684211 56.206458,86.5657895 C56.2886761,84.3641729 58.3441272,82.8937097 58.7088649,82.6527419 L58.7422475,82.6310526 L58.7422475,82.5994737 L58.7643528,82.6152632 L58.7643528,82.6152632 L58.786458,82.5994737 L58.786458,82.6310526 L58.9990221,82.7779178 C59.6170488,83.2295059 61.2496159,84.608797 61.3254054,86.5657895 C62.8917212,84.4089474 66.858037,83.8057895 66.858037,83.8057895 L66.69962,83.912535 C66.0322278,84.379984 63.455904,86.3679224 62.8443528,89.5847368 C76.458037,87.4721053 86.8917212,75.4373684 86.8917212,60.9110526 C86.8917212,55.2994737 85.3317212,50.0668421 82.638037,45.6268421 Z M68.0675107,90.4847368 C67.486458,91.0626316 67.1643528,91.5047368 67.1643528,91.5047368 L67.786458,91.7857895 L67.8714781,92.5430666 C67.9868656,93.4774914 68.2087317,94.9636421 68.4685633,95.1268421 L68.6563696,95.2508236 C69.0188218,95.497792 69.4506686,95.8278947 69.4506686,95.8278947 L69.4162601,95.8586147 C69.3382728,95.9241347 69.135877,96.0719747 68.8935591,96.0757547 L68.7875107,96.0678947 C68.4275107,96.0078947 67.1643528,96.6710526 66.8233001,95.7078947 C67.2843528,95.6889474 67.6254054,95.2689474 67.6254054,95.2689474 L67.5654054,94.7068421 L67.4917593,94.73208 C67.2226001,94.8187263 66.2678264,95.0769474 65.5001422,94.6689474 L65.2037886,94.5125644 C64.5136443,94.1585595 64.1853435,94.0936533 63.798037,94.5868421 L63.6185444,94.8187239 C63.3347047,95.1979041 63.30079,95.3495951 63.5359317,95.6889474 C63.738037,95.1868421 64.2369843,94.9689474 64.7390896,95.1868421 C65.2411949,95.4078947 65.9422475,95.55 65.9422475,95.55 L65.5991486,95.7872874 C65.1142475,96.1181368 64.234458,96.7010526 63.7569843,96.9110526 C63.078037,97.2110526 61.6538264,97.3089474 62.0927738,95.55 C61.7738264,95.7678947 61.5148791,95.8689474 61.5148791,95.8689474 L61.530082,95.959071 C61.5742143,96.2612786 61.6566519,97.223518 60.9306686,97.29 C60.0717212,97.3689474 60.0559317,96.9363158 60.0559317,96.9363158 C60.0733001,96.7926316 60.0859317,96.6371053 60.0946159,96.4693421 L60.105,96.1681053 L60.0977864,96.2686326 C60.0274159,97.1928 59.6485633,97.29 59.1085633,97.29 C58.7454054,97.29 58.5369843,97.1447368 58.4296159,97.0278947 C58.6222475,96.5542105 58.666458,96.1089474 58.666458,96.1089474 L58.6155396,96.199469 C58.4591515,96.4617356 57.9520308,97.2004644 57.226458,97.1510526 C56.6643528,97.1131579 56.3233001,96.8321053 56.1496159,96.6331579 C56.3004661,96.2330769 56.3347732,95.8390501 56.3416036,95.6344496 L56.342,95.4921053 L56.2955078,95.6212887 C56.1504772,95.9875381 55.6466494,96.9914354 54.4917212,96.9552632 L54.5148791,96.6895322 C54.518037,96.644386 54.5201422,96.5984211 54.5201422,96.5510526 C54.5201422,94.5868421 53.8190896,94.7668421 53.8190896,94.7668421 C53.118037,94.6689474 52.1138264,95.61 52.0948791,96.2889474 C52.0759317,96.8984211 52.4011949,97.7131579 53.8917212,97.8363158 C53.8569843,97.9342105 53.8222475,98.0321053 53.778037,98.13 C52.8369843,98.7110526 51.5138264,97.8710526 51.5138264,97.8710526 L51.5446482,97.9807511 C51.6421309,98.3008432 51.9782227,99.2194737 52.6569843,99.3521053 C53.2696159,99.4721053 54.0054054,98.9415789 54.3369843,97.8521053 C54.3811949,97.8489474 54.4159317,97.8521053 54.4601422,97.8521053 C55.0822475,97.8331579 55.5022475,97.59 55.7801422,97.2678947 C55.8590896,97.6563158 56.1306686,98.1394737 57.0054054,98.1521053 C57.4254054,98.1584211 57.738037,97.9878947 57.9748791,97.7478947 C58.0727738,97.9626316 58.3001422,98.19 58.8085633,98.25 C59.3675107,98.3163158 59.6959317,98.1236842 59.8854054,97.6563158 C60.0275107,97.8710526 60.3085633,98.1710526 60.7506686,98.13 C61.4327738,98.07 61.7738264,97.2710526 61.7738264,97.2710526 L61.7923785,97.3411999 C61.8555493,97.5437243 62.1042908,98.1088235 62.8948791,98.01 C63.858037,97.89 65.1811949,96.9710526 66.3622475,95.67 L66.6433001,95.6478947 L66.6433001,95.6478947 L66.6626505,95.7701058 C66.7267931,96.1251848 66.9681918,97.1328483 67.6443528,97.1510526 C68.4685633,97.17 68.7875107,96.57 69.8706686,96.69 C70.3696159,96.0678947 70.3917212,95.49 70.3917212,95.49 L70.1949459,95.4732289 C69.7865668,95.4200892 68.8759317,95.1994737 68.7685633,94.2868421 L68.6294621,93.2051432 C68.530724,92.4776396 68.446458,91.9247368 68.446458,91.9247368 L68.866458,92.0257895 L68.8519551,91.9173684 C68.8404931,91.7896491 68.8411949,91.5847368 68.9485633,91.5047368 C68.446458,91.3626316 68.1875107,90.7626316 68.0675107,90.4847368 Z M44.8001422,94.4257895 L45.4222475,95.9889474 L45.5148829,96.0912838 C45.834421,96.4311941 46.9558475,97.5195158 48.4917212,97.8457895 C48.8675107,97.9278947 49.2685633,97.9657895 49.6885633,97.9310526 C51.7421518,97.7645455 51.8496246,95.4934044 51.8283614,94.7352437 L51.8138264,94.4857895 L51.8138264,94.4857895 L50.7717212,94.8078947 L50.8636294,95.2086398 C50.877881,95.2761988 50.8927738,95.3496491 50.9075107,95.4268421 C51.0022475,95.9194737 51.0906686,96.5668421 50.9738264,96.87 C50.4622475,97.0026316 49.9348791,97.0057895 49.4138264,96.9236842 C47.0548791,96.5573684 44.8001422,94.4257895 44.8001422,94.4257895 Z M26.0706686,95.8468421 C26.2014054,96.1395789 26.0968159,96.4732421 25.8397759,96.6429442 L25.7485633,96.6931579 C25.6506686,96.7373684 23.2822475,97.77 18.5801422,97.77 C13.9190896,97.77 10.8085633,96.7910526 10.6759317,96.75 C10.3411949,96.6426316 10.1548791,96.2826316 10.2622475,95.9447368 C10.3598552,95.6404306 10.6688591,95.4561766 10.9757277,95.5082309 L11.52515,95.6584158 C12.5331843,95.9188816 15.1318001,96.4878947 18.5801422,96.4878947 C22.9759317,96.4878947 25.2054054,95.5310526 25.2275107,95.5215789 C25.5496159,95.3794737 25.9285633,95.5247368 26.0706686,95.8468421 Z M92.190517,95.4874579 L92.6298325,95.6473489 C93.4083684,95.9090643 95.5162826,96.4878947 98.9327738,96.4878947 C103.382248,96.4878947 106.416984,95.5405263 106.448563,95.5310526 C106.7833,95.4205263 107.146458,95.61 107.253826,95.9447368 C107.361195,96.2826316 107.174879,96.6426316 106.840142,96.75 L106.504549,96.8474486 C105.571245,97.1037039 102.780748,97.77 98.9327738,97.77 C94.2338264,97.77 91.8654054,96.7373684 91.7675107,96.6931579 C91.4454054,96.5478947 91.3001422,96.1721053 91.4422475,95.8468421 C91.5729843,95.5569474 91.8930054,95.4102947 92.190517,95.4874579 L92.190517,95.4874579 Z M54.0496159,96.8889474 L53.8790896,96.8510526 L53.8790896,96.8510526 C51.9748791,96.27 52.7169843,95.7078947 53.2759317,95.5278947 C53.6643528,95.4047368 54.0527738,96.03 54.0496159,96.8889474 Z M70.2938264,89.9826316 L70.2045257,90.2101725 C70.0796128,90.5082249 69.8446767,90.995587 69.6369843,91.0152632 C69.9640896,91.2786842 70.1850545,92.056886 70.3290677,92.7466374 L70.4573645,93.4262573 C70.634265,94.4299123 70.9127738,96.1689474 70.9127738,96.1689474 L70.9814071,96.0288044 C71.1250155,95.7162378 71.4331247,94.9324561 71.298037,94.2078947 L71.2426343,93.9484413 C70.9785389,92.8252573 70.1630896,90.3254526 70.2938264,89.9826316 Z M77.118037,89.2405263 L76.9885633,90.4405263 L76.9885633,90.4405263 L77.3387959,90.569741 C77.785685,90.7400329 78.5037607,91.0342105 78.5233001,91.1731579 C78.5517212,91.3721053 78.0496159,93.0205263 75.0117212,94.35 L74.4561368,94.4760349 C73.6218869,94.6546767 72.9622475,94.7510526 72.9622475,94.7510526 L73.200728,94.7977841 C73.6718013,94.8951138 74.6859008,95.1314861 74.7969843,95.3826316 L75.6261928,95.0265818 C77.1184131,94.3621636 79.5008348,93.0845152 78.8233001,91.2142105 C78.4222475,90.1563158 77.118037,89.2405263 77.118037,89.2405263 Z M42.3811949,94.2236842 L41.6422475,94.3405263 L41.8254054,95.1552632 L42.5675107,95.0384211 L42.3811949,94.2236842 Z M25.366458,93.1563158 C25.5085633,93.4433684 25.4179001,93.7815789 25.1658338,93.9591537 L25.0759317,94.0121053 C24.9875107,94.0563158 22.8243528,95.1015789 18.5422475,95.1015789 C14.3011949,95.1015789 11.4685633,94.1163158 11.3517212,94.0752632 C11.0169843,93.9584211 10.8433001,93.5921053 10.9601422,93.2573684 C11.0663623,92.955933 11.3813689,92.7823793 11.6868851,92.8411005 L12.161126,92.9840375 C13.0471762,93.2394291 15.4038122,93.8194737 18.5422475,93.8194737 C22.4896159,93.8194737 24.4917212,92.8721053 24.5106686,92.8626316 C24.8296159,92.7110526 25.2148791,92.8405263 25.366458,93.1563158 Z M93.0054054,92.8626316 L93.0996398,92.9040588 C93.5382922,93.0878512 95.5049269,93.8194737 98.9738264,93.8194737 C102.978037,93.8194737 105.709616,92.8752632 105.738037,92.8657895 C106.069616,92.7489474 106.435932,92.9257895 106.555932,93.2573684 C106.672774,93.5921053 106.49909,93.9584211 106.164353,94.0752632 L105.897551,94.1614953 C105.088708,94.4099516 102.524495,95.1015789 98.9738264,95.1015789 C94.6917212,95.1015789 92.5285633,94.0563158 92.4401422,94.0121053 C92.1211949,93.8573684 91.9917212,93.4752632 92.146458,93.1563158 C92.3011949,92.8405263 92.686458,92.7110526 93.0054054,92.8626316 Z M49.3759317,94.0184211 L48.6338264,94.1352632 L48.8201422,94.95 L49.5590896,94.8331579 L49.3759317,94.0184211 Z M56.5411949,93.4121053 L55.9096159,93.8163158 L56.4054054,94.4889474 L57.0369843,94.0847368 L56.5411949,93.4121053 Z M40.8338264,91.8836842 C40.4706686,92.5657895 41.3738264,93.5257895 42.1538264,93.6457895 C44.5001422,93.4878947 44.538037,91.2426316 44.538037,91.2426316 L44.2554054,91.3488158 C44.0777738,91.4194737 43.8275107,91.5252632 43.5369843,91.6657895 C43.5590896,92.9668421 43.0569843,92.9447368 43.0569843,92.9447368 C42.6559317,92.9668421 41.9548791,92.3036842 41.7338264,92.0036842 C41.5127738,91.7036842 42.4159317,90.5226316 43.098037,89.5626316 C43.7769843,88.6026316 44.3201422,89.2215789 44.3201422,89.2215789 L45.2801422,88.4226316 C43.1769843,87.3394737 41.1938264,91.2047368 40.8338264,91.8836842 Z M93.868098,90.4978232 L94.1011017,90.6101297 C94.5689675,90.8263908 96.2168825,91.4794737 99.0243528,91.4794737 C102.434879,91.4794737 104.75909,90.5478947 104.784353,90.5384211 C105.112774,90.4057895 105.485405,90.5605263 105.621195,90.8889474 C105.740563,91.1816842 105.627163,91.5153474 105.363871,91.6758411 L105.270669,91.7226316 C105.166458,91.7668421 102.7033,92.7615789 99.0243528,92.7615789 C95.298037,92.7615789 93.406458,91.6973684 93.3275107,91.6531579 C93.0211949,91.4794737 92.9169843,91.0878947 93.0906686,90.7815789 C93.2469843,90.5058947 93.5797949,90.3913579 93.868098,90.4978232 L93.868098,90.4978232 Z M24.4254054,90.7815789 C24.5817212,91.0572632 24.5129422,91.4020105 24.2743191,91.5948189 L24.1885633,91.6531579 C24.1096159,91.6973684 22.218037,92.7615789 18.4917212,92.7615789 C14.8127738,92.7615789 12.346458,91.7668421 12.2454054,91.7226316 C11.9169843,91.59 11.7622475,91.2142105 11.8948791,90.8889474 C12.0170896,90.5933684 12.3311422,90.4384737 12.6321496,90.5071389 L12.7608706,90.5498918 C13.0399103,90.6573916 15.2878934,91.4794737 18.4917212,91.4794737 C21.0832322,91.4794737 22.6867198,90.9230007 23.2860649,90.6672942 L23.5538264,90.5415789 C23.8601422,90.3678947 24.2517212,90.4752632 24.4254054,90.7815789 Z M82.2496159,88.1921053 L82.0989251,88.3146298 C81.8937635,88.4889167 81.5941061,88.7643518 81.2865663,89.0511912 L81.138037,89.19 L80.958037,89.0384211 L80.958037,89.0384211 L80.6140423,88.7900699 C79.8584482,88.2587664 79.4229054,88.0677632 79.1106686,88.2805263 C78.5485633,88.6626316 78.766458,90.0710526 79.4390896,90.7847368 C80.0810896,91.4657368 80.6689396,90.7502368 80.8371271,90.6147118 L80.8601422,90.5984211 C80.8727738,90.5910526 80.9057563,90.5591228 80.9555808,90.5080117 L81.4285633,90.0142105 C81.8359317,90.8573684 80.6043528,91.7763158 79.9696159,92.1742105 L80.7081938,92.2299726 C81.2626159,92.2745368 81.7190896,92.3163158 81.7190896,92.3163158 L81.7943088,92.1852818 C81.9792656,91.8306493 82.3909924,90.8085425 81.6717212,89.7678947 L81.9303986,89.5131343 C82.5992353,88.8684302 83.4102351,88.202322 83.8254054,88.35 C83.8538264,87.8068421 83.7243528,87.1910526 83.7243528,87.1910526 L83.1654054,87.15 L83.165178,87.2113642 C83.1571949,87.3608211 83.0889843,87.7241053 82.606458,87.6205263 C82.006458,87.4910526 81.4033001,87.0615789 81.4317212,86.6478947 C81.0590896,86.5026316 80.5854054,87.8068421 82.2496159,88.1921053 Z M75.3654054,91.2142105 L75.2296159,91.95 L76.0601422,92.0447368 L76.1959317,91.3089474 L75.3654054,91.2142105 Z M34.398037,84.7184211 L34.2203464,84.8301795 C33.8735423,85.0564578 33.1493682,85.573096 33.258037,85.8773684 L33.3019368,85.9901042 C33.4997036,86.4524781 34.1056686,87.3944737 35.2317212,86.8531579 C35.0233001,87.3805263 34.9443528,87.8826316 35.2001422,88.1794737 C35.3327738,88.3342105 35.5096159,88.5173684 35.7054054,88.7163158 C35.6611949,88.8047368 35.6169843,88.8994737 35.5790896,89.0005263 L34.9411949,88.9626316 L34.9411949,88.9626316 C35.1496159,89.0352632 35.3390896,89.0857895 35.5285633,89.1426316 C35.1527738,90.2763158 35.2348791,91.8426316 36.3622475,91.7857895 C37.2559317,91.7384211 37.5338264,91.0531579 37.6127738,90.4910526 L37.966458,90.8036842 C37.966458,90.8036842 38.9485633,91.5047368 39.9306686,90.5826316 C40.9127738,89.6636842 41.6927738,88.2994737 41.6927738,88.2994737 L42.7159317,88.4005263 L42.6966767,88.1282774 C42.680097,87.7701809 42.6837607,87.1541447 42.8769843,86.8784211 C42.3338264,86.8405263 41.8538264,86.9384211 41.8538264,86.9384211 L41.5948791,87.6205263 L41.2262522,88.1242486 C40.6239479,88.9360511 39.4677941,90.4436842 39.1885633,90.4436842 C39.0243528,90.4436842 38.3643528,89.9857895 37.6696159,89.4142105 C39.6748791,89.2215789 39.5011949,87.3615789 39.1096159,87.1784211 C38.6769843,86.9794737 36.8643528,87.8163158 36.2611949,88.1036842 C35.9769843,87.7847368 35.7906686,87.5163158 35.8033001,87.3615789 C35.8411949,86.7394737 37.426458,84.7973684 37.426458,84.7973684 L36.4822475,84.7784211 L36.2633018,85.0706725 C36.0220035,85.4045365 35.631845,85.9802786 35.358037,86.5626316 C35.0359317,86.6163158 34.5433001,86.5594737 34.158037,85.8994737 C33.9401422,85.5173684 34.398037,84.7184211 34.398037,84.7184211 Z M36.0685633,89.2815789 L36.3369843,89.3257895 L36.3369843,89.3257895 L36.7565896,89.7173684 C36.8943528,89.8444737 37.0285633,89.9668421 37.1548791,90.0805263 L37.1780145,90.2818213 C37.2185563,90.735614 37.1822475,91.2702105 36.7854054,91.2236842 C36.1569843,90.8257895 36.0527738,89.9321053 36.0685633,89.2815789 Z M80.7397104,89.3734203 L80.866458,89.4457895 L80.1710194,90.0930409 C80.0969843,90.1591228 80.0506686,90.1973684 80.0422475,90.1973684 L79.8638587,90.2236259 C79.6312056,90.251246 79.2487137,90.2528571 79.1675107,89.9257895 C79.067831,89.5240503 79.8175952,88.8940593 80.7397104,89.3734203 Z M4.57803698,44.1390742 C5.45908961,44.1931579 5.51593171,46.6184211 5.34856329,47.9984211 C5.50119487,48.38 5.54843798,50.9416148 5.56306084,52.4908191 L5.56961592,53.6763158 L5.79323434,54.0478618 C6.2154054,54.7693421 7.15803698,56.4757895 7.94435276,58.5836842 C10.2812618,58.8260097 12.8319086,61.2155401 13.4011964,61.7759645 L13.518037,61.8931579 L13.5351678,61.7979408 C13.5799146,61.454843 13.6083902,60.1828188 12.1400522,57.9541945 L11.9706686,57.7026316 C10.0411949,54.8889474 9.65277382,52.9594737 10.2622475,52.6278947 C12.5350107,53.0515789 17.0380425,58.8928728 17.4093493,59.3789117 L17.4338264,59.4110526 L17.6932692,59.574622 C18.3162646,59.9845203 19.9031912,61.133412 20.6896159,62.6636842 C21.6843528,64.5931579 21.2990896,69.5005263 21.2990896,69.5005263 L22.1641397,77.649883 C22.5506427,81.4155425 22.9855107,85.8425474 23.2854054,89.4584211 C17.6011949,91.2236842 13.0759317,89.2942105 13.0759317,89.2942105 L13.7877966,78.2574858 C14.0387096,74.489947 14.2974968,70.7692521 14.4559317,68.9478947 C13.3783001,67.4605263 10.5332343,65.6925 9.17805342,64.9014474 L8.44014224,64.4826316 C8.44014224,64.4826316 4.96330013,61.6721053 3.52961592,55.5521053 C2.09277382,49.4321053 3.96856329,44.1015789 4.57803698,44.1390742 Z M112.938037,44.1390742 C113.547511,44.1015789 115.420142,49.4321053 113.986458,55.5521053 C112.552774,61.6721053 109.075932,64.4826316 109.075932,64.4826316 L108.587923,64.7566358 C107.369026,65.4555158 104.20709,67.3613684 103.060142,68.9478947 L103.200193,70.7056124 C103.643802,76.5805701 104.440142,89.2942105 104.440142,89.2942105 L104.21935,89.3792272 C103.247451,89.7323587 99.178037,90.9948538 94.2306686,89.4584211 L94.4699577,86.7066727 C95.1575847,79.099251 96.185647,69.7841504 96.2162834,69.5068683 L96.1767697,68.8163014 C96.1124935,67.3941732 96.0605471,64.1478947 96.8233001,62.6636842 C97.818037,60.7342105 100.07909,59.4110526 100.07909,59.4110526 L100.483305,58.8919205 C101.689121,57.3682251 105.298193,52.9924602 107.253826,52.6278947 C107.841769,52.9494258 107.497318,54.7734769 105.713694,57.4492978 L105.542248,57.7026316 C103.612774,60.5131579 103.998037,61.8931579 103.998037,61.8931579 L104.239729,61.6547989 C104.99255,60.9337869 107.376443,58.8113233 109.571721,58.5836842 C110.620142,55.7731579 111.946458,53.6763158 111.946458,53.6763158 L111.952919,52.4908191 C111.967333,50.9416148 112.013902,48.38 112.164353,47.9984211 L112.132723,47.687953 C112.012049,46.2840538 112.116984,44.189309 112.938037,44.1390742 Z M38.446458,88.4005263 C38.686458,88.8110526 38.0548791,88.9689474 37.2022475,89.0163158 C36.9559317,88.7984211 36.7190896,88.5773684 36.5106686,88.3689474 C37.0790896,88.1573684 38.1306686,87.8542105 38.446458,88.4005263 Z M80.3517212,82.4163158 L80.3896159,83.4963158 L84.438037,87.3805263 L84.318037,86.5784211 L80.3517212,82.4163158 Z M79.246458,85.3721053 C79.126458,86.0131579 79.9190896,86.0289474 79.9190896,86.0289474 C79.7643528,86.31 79.8843528,86.5026316 79.9948791,86.7678947 C80.058037,86.4626316 80.3640019,85.9636842 80.560961,85.6649708 L80.7348822,85.4108968 C80.7425694,85.3954371 80.7341135,85.3505742 80.4085633,85.3247368 C80.2727738,85.9215789 79.9822475,85.9657895 79.7043528,85.6468421 C79.4296159,85.3247368 79.966458,85.2963158 79.966458,85.2963158 L80.178037,84.8826316 C79.8117212,84.7626316 79.3696159,84.7310526 79.246458,85.3721053 Z M83.778037,78.4910526 C83.598037,79.2521053 83.778037,79.8521053 83.778037,79.8521053 L84.4601422,79.8331579 L85.8333416,80.9078357 C86.4608833,81.4056379 87.0769001,81.9067579 87.1254054,81.9931579 L87.1503496,82.0526605 C87.2480176,82.3392682 87.3289001,83.2530316 86.0011949,83.2152632 C84.558037,83.1742105 83.7369843,82.4952632 83.6169843,82.2552632 L83.6169843,83.1963158 L83.8190369,83.3053605 C84.101888,83.4515056 84.6513495,83.7129121 85.2715078,83.8893892 L85.4422475,83.9352632 L85.4480487,84.0621436 C85.4552631,84.5753154 85.2621212,85.3569474 83.9169843,85.0373684 L84.0744528,85.2184863 C84.5662791,85.7611579 85.2230896,86.2613684 85.7801422,85.7384211 C86.3071159,85.2469737 86.1429917,84.5529153 85.836797,84.0933861 L85.7738264,84.0047368 C86.1243528,84.0678947 86.478037,84.09 86.8033001,84.0363158 C88.1675107,83.8152632 88.2054054,82.0342105 87.6054054,81.6552632 L87.4282471,81.5339857 C86.6890238,81.0012939 85.0411949,79.5710526 85.0411949,79.5710526 L84.8990896,78.93 L84.8236839,78.9445952 C84.6025862,78.980581 83.9600803,79.034582 83.778037,78.4910526 Z M28.906458,78.6110526 L28.8938264,78.6710526 C28.8211949,78.9773684 28.7011949,80.5342105 28.4675107,80.7331579 C28.8054054,81.6742105 30.9338264,85.1163158 31.6348791,85.2173684 C32.3327738,85.3184211 33.8169843,84.9363158 33.7190896,84.4184211 C33.618037,83.8973684 32.778037,82.7352632 33.258037,82.4763158 C33.7162188,82.2261244 34.4506251,82.197488 34.4450323,83.1182424 L34.4201422,83.5973684 L34.4201422,83.5973684 L34.5494819,83.5931254 C34.8445073,83.5709156 35.5333832,83.4418006 35.4211949,82.7163158 C35.2822475,81.7942105 33.558037,81.6142105 33.1159317,81.9331579 L32.9250034,82.06706 C32.5419682,82.3283459 32.1784881,82.5611278 32.3138264,82.9563158 L32.3859226,83.1436954 C32.5988346,83.6698579 33.0158079,84.5785449 32.7148791,84.7373684 C32.3769843,84.9173684 28.9475107,82.2742105 28.906458,78.6110526 Z M58.7801422,64.7131579 L58.7801422,64.7352632 L58.9086032,64.830893 C59.2834075,65.1247154 60.2783377,66.0214286 60.3243528,67.2963158 C61.278037,65.8942105 63.6938264,65.4994737 63.6938264,65.4994737 L63.5784967,65.5827028 C63.0839354,65.9553409 61.1675107,67.5664686 61.1675107,70.1573684 C61.1675107,73.1352632 63.5833001,74.5942105 64.2559317,78.0173684 C64.8138067,80.8432399 62.0769218,82.5608152 61.1048519,83.0741614 L60.7727738,83.2373684 L58.7643528,81.2857895 L56.7559317,83.2373684 L56.5169163,83.1224603 C55.6422187,82.6766345 52.6958804,80.9395764 53.2727738,78.0173684 C53.9454054,74.5942105 56.3611949,73.1352632 56.3611949,70.1573684 C56.3611949,67.1826316 53.8348791,65.4994737 53.8348791,65.4994737 L54.0438997,65.540724 C54.6510378,65.6725738 56.4209693,66.1445865 57.2043528,67.2963158 C57.2554806,65.8797744 58.4781086,64.9301146 58.7226451,64.7555898 L58.7517212,64.7352632 L58.7517212,64.7131579 L58.7643528,64.7226316 L58.7643528,64.7226316 L58.7801422,64.7131579 L58.7801422,64.7131579 Z M88.9885633,80.4742105 L84.8801422,77.01 L84.8990896,78.03 L84.8990896,78.03 L89.0485633,81.1121053 L88.9885633,80.4742105 Z M58.7769843,49.4984211 L58.7769843,49.5142105 L58.8508851,49.5688911 C59.1308245,49.7836452 60.0134756,50.5412281 60.0527738,51.6331579 C60.8454054,50.4742105 62.8411949,50.1489474 62.8411949,50.1489474 L62.7328499,50.2275782 C62.3042702,50.5534282 60.7506686,51.8808893 60.7506686,54.0015789 C60.7506686,56.4615789 62.7496159,57.6678947 63.3085633,60.5005263 C63.7690746,62.8475639 61.4870767,64.2688692 60.6911441,64.6871997 L60.4254054,64.8173684 L58.7643528,63.2036842 L57.1033001,64.8173684 L56.9796506,64.7594143 C56.3694724,64.4605083 53.7282325,63.0094286 54.2233001,60.5005263 C54.7790896,57.6678947 56.778037,56.4615789 56.778037,54.0015789 C56.778037,51.9657169 55.3462377,50.6608943 54.8525139,50.2714746 L54.6875107,50.1489474 L54.9014138,50.1920463 C55.4377001,50.3124 56.8418264,50.706 57.4759317,51.6331579 C57.5127738,50.6094737 58.290844,49.8796491 58.6186218,49.6154678 L58.7517212,49.5142105 L58.7517212,49.4984211 L58.7643528,49.5078947 L58.7769843,49.4984211 L58.7769843,49.4984211 Z M111.172774,52.1321053 C110.787511,53.8973684 109.075932,57.5352632 109.075932,57.5352632 L108.991773,57.5439967 C108.607823,57.5930428 106.972379,57.9007895 105.378037,59.6857895 L107.260365,56.3794693 C108.309523,54.5189796 109.240142,52.8489474 109.240142,52.8489474 L109.461195,47.7773684 L109.398832,47.4297595 C109.272253,46.6470032 109.055857,44.7974436 109.792774,44.5815789 C110.692774,44.3163158 111.835932,47.4457895 111.172774,52.1321053 Z M7.72330013,44.5815789 C8.44681893,44.7935188 8.25137489,46.5802866 8.12422888,47.3860219 L8.05487908,47.7773684 L8.27593171,52.8489474 L11.5894892,58.7310866 C11.7825858,59.0689348 11.9673603,59.3906767 12.138037,59.6857895 C10.3159317,57.6457895 8.44014224,57.5352632 8.44014224,57.5352632 L8.11984488,56.8352853 C7.60520531,55.6902436 6.62349152,53.415933 6.34330013,52.1321053 C5.68014224,47.4457895 6.82330013,44.3163158 7.72330013,44.5815789 Z M105.431721,48.5510526 C105.966706,48.6095666 106.073899,49.4646567 106.091717,50.1574813 L106.103761,51.0103125 C106.119748,51.6226974 106.151721,52.2426316 106.151721,52.2426316 L104.935932,53.1805263 L104.9369,49.8664021 C104.943678,49.5927632 104.997905,48.5013158 105.431721,48.5510526 Z M12.0811949,48.5510526 C12.548958,48.4977632 12.5781932,49.7545066 12.5800204,49.9118077 L12.5801422,53.1805263 L11.3643528,52.2426316 L11.4080113,51.1632029 C11.4141174,50.9601077 11.4188912,50.7520413 11.4205565,50.5622438 L11.4211949,50.4236842 C11.4211949,49.7068421 11.478037,48.6173684 12.0811949,48.5510526 Z M9.88405677,46.340984 L9.93066855,46.3436842 C10.6293352,46.4370175 10.5421056,47.4738768 10.4980615,47.7941968 L10.4833001,47.8878947 L10.426458,51.8036842 L10.1669259,51.8277778 C9.85628259,51.8640351 9.34119487,51.9489474 9.04645803,52.1321053 C8.62702483,48.1055466 9.25640508,46.4381075 9.83710162,46.3450912 L9.88405677,46.340984 Z M108.469616,52.1321053 C108.027511,51.8573684 107.089616,51.8036842 107.089616,51.8036842 L107.032774,47.8878947 L107.01082,47.7379074 C106.966963,47.3673474 106.923511,46.4321053 107.585405,46.3436842 C108.188563,46.2647368 108.908563,47.8878947 108.469616,52.1321053 Z M67.2305888,26.1383909 L67.5654054,26.1394737 C72.9654054,26.2531579 79.2685633,32.4773684 84.9685633,33.0426316 C90.6685633,33.6078947 93.1601422,32.4394737 93.1601422,32.4394737 L93.0015024,32.6981092 C92.1612339,34.0074269 88.0296159,39.7131579 81.7222475,36.3615789 L81.7871497,36.4596553 C82.1837422,37.0925053 82.3721422,37.9391053 86.1401422,38.5121053 L86.129719,38.6357574 C85.9468895,39.9870058 83.4313001,42.9166883 76.5875107,39.1152632 C77.3801422,40.3594737 79.0790896,41.49 81.1569843,41.9447368 L80.8390522,42.3272041 C79.5178783,43.8740696 77.6464993,45.2830893 71.266458,40.9626316 C72.2740475,42.9164346 74.4476022,43.9817846 75.2378832,44.3163318 L75.5327738,44.4331579 L75.3862501,44.567334 C74.8104767,45.0526905 72.5165896,46.6205921 68.1306686,45.3015789 C63.8023791,43.9964332 62.5339762,41.028794 62.2429301,40.1316764 L62.1685633,39.87 L61.186458,40.4352632 L61.3263411,40.6945468 C61.7634756,41.53 63.0748791,44.2378947 63.0748791,46.6563158 C63.0748791,49.2122658 61.290635,49.7542197 60.8615793,49.8475932 L60.7696159,49.8647368 L58.998037,48.1657895 L58.994,48.0631053 L58.9948791,48.1657895 L57.2201422,49.8647368 L57.1268716,49.8472803 C56.6958795,49.7530129 54.918037,49.2094258 54.918037,46.6563158 C54.918037,44.347823 56.1129315,41.7755742 56.601752,40.8198752 L56.806458,40.4352632 L55.8243528,39.87 L55.7707284,40.0659852 C55.5227516,40.8734024 54.3026119,43.9625101 49.8590896,45.3015789 C44.7243528,46.8457895 42.4601422,44.4331579 42.4601422,44.4331579 L42.7547554,44.3163318 C43.5443412,43.9817846 45.7163112,42.9164346 46.726458,40.9626316 C39.8169843,45.6394737 38.1938264,43.6026316 36.8359317,41.9447368 C38.9106686,41.49 40.6096159,40.3594737 41.4022475,39.1152632 C34.3443528,43.0373684 31.8906686,39.7942105 31.8527738,38.5121053 C35.8159317,37.9089474 35.8159317,37.0026316 36.2675107,36.3615789 C29.1717212,40.1321053 24.8296159,32.4394737 24.8296159,32.4394737 L25.0594656,32.5302275 C25.7932932,32.7934444 28.3124992,33.5095881 33.0211949,33.0426316 C38.7211949,32.4773684 45.0275107,26.2531579 50.4243528,26.1394737 C55.4896159,26.0352632 58.6285633,29.9447368 58.9948791,30.4278947 L59.1696588,30.2094624 C59.9267678,29.2976911 62.6829355,26.3538289 66.9015444,26.1487106 L67.2305888,26.1383909 Z M59.6517212,24.7278947 L59.6517212,28.8015789 L59.0517212,29.4078947 L58.4896159,28.8015789 L58.4896159,24.7278947 L59.6517212,24.7278947 Z M66.2359317,16.2805263 L66.44578,17.4315349 C66.7471476,18.9914206 67.3344405,21.6964035 67.9506686,22.6942105 C66.194988,21.7299637 65.4146087,20.8690074 65.1668472,20.5540254 L65.0738264,20.4268421 L64.2433001,23.6321053 L63.989063,23.4292511 C63.4656172,22.9980411 62.2773892,21.9460324 61.8085633,20.9257895 C60.6805523,22.7294471 59.5578668,23.6464103 59.1813709,23.9236335 L59.0990896,23.9826316 L59.0990896,24.0205263 L59.0822475,24.0078947 C59.078037,24.0050877 59.0738264,24.0026316 59.0706686,24.0015789 L59.0422475,24.0205263 L59.0422475,23.9826316 L58.8479015,23.8386591 C58.3920648,23.4836691 57.3646475,22.5757263 56.3327738,20.9257895 C55.8486601,21.9793012 54.5974619,23.0666842 54.1032361,23.4694318 L53.898037,23.6321053 L53.0675107,20.4268421 L52.9744899,20.5540254 C52.7267284,20.8690074 51.9463491,21.7299637 50.1906686,22.6942105 C51.0748791,21.2573684 51.9054054,16.2805263 51.9054054,16.2805263 C54.2611949,17.1363158 58.7833001,17.2689474 59.0706686,17.2752632 L59.855012,17.244007 C61.3121061,17.1705345 64.4186084,16.9407068 66.2359317,16.2805263 Z M59.0706686,0.472105263 C59.6801422,0.472105263 60.1759317,0.967894737 60.1759317,1.58052632 C60.1759317,1.97700499 59.9661213,2.32537426 59.6516912,2.52044337 L59.6520397,13.7425705 L60.2507654,13.755686 C63.5987428,13.854725 66.1506686,14.3678431 66.1506686,14.9826316 C66.1506686,15.6534008 63.1406488,16.1982529 59.3698988,16.225753 L59.0706686,16.2268421 C55.1611949,16.2268421 51.9906686,15.6710526 51.9906686,14.9826316 C51.9906686,14.3678431 54.5425943,13.854725 57.8905718,13.755686 L58.4892974,13.7425705 L58.4886121,2.52121853 C58.1726147,2.32629803 57.9622475,1.9775307 57.9622475,1.58052632 C57.9622475,0.967894737 58.458037,0.472105263 59.0706686,0.472105263 Z M61.8654054,3.73421053 C63.6369843,4.67526316 65.1306686,6.11210526 67.6222475,6.05526316 C66.8454054,7.38157895 64.3569843,7.88052632 64.3569843,7.88052632 L64.5272618,7.97587509 C64.8114966,8.14112982 65.3713001,8.49421053 65.5727738,8.81842105 L65.7427159,9.0864918 C66.0464034,9.54506465 66.5515354,10.1447368 67.5085633,10.1447368 C66.5706686,10.9752632 64.3569843,11.1963158 63.6938264,10.59 L63.4030402,10.3304015 C62.7053725,9.72866652 61.4740406,8.84410064 59.6516467,8.76407473 L59.6508554,3.2116504 C60.2374959,3.18882588 61.0200613,3.28436669 61.8654054,3.73421053 Z"/>
  </g>
</svg>
