<svg xmlns="http://www.w3.org/2000/svg" width="120" height="120" viewBox="0 0 120 120">
  <g fill="none" fill-rule="evenodd">
    <path fill="#004899" d="M119.146762,42.8084728 C84.0579232,36.8836941 66.5842476,78.6931771 38.2514254,82.2480443 C17.6119725,84.8478725 2.63200967,70.0624547 0.0852391311,59.220994 C-1.43574883,80.2318509 17.6296584,95.2118138 38.7643167,94.2567748 C74.2245592,92.6296714 93.0423637,49.4230018 119.146762,42.8084728 Z"/>
    <path fill="#004899" d="M91.8457567,42.1938006 C65.0692942,38.5151321 58.7731115,58.3233474 37.1786197,65.4153959 C23.2244394,69.9960457 12.5421519,66.6180375 4.91952619,57.9696292 C8.4743934,69.3239812 22.1809709,77.4418123 34.2604451,76.4514015 C58.0126175,74.5059518 71.4185347,48.2070088 91.8457567,42.1938006 Z"/>
    <path fill="#FECA3A" d="M35.2327614,60.3106586 C40.2909306,58.6481834 43.8988555,56.5612464 47.0646328,54.4389377 C49.5406597,52.7764624 58.2774975,46.5510234 62.7166601,43.8627656 C58.9672479,33.4457666 49.0100825,26 37.3196983,26 C22.4104791,26 10.331005,38.0794741 10.331005,52.9886933 C10.331005,54.2443927 10.4194345,55.4647202 10.5786077,56.6673619 C16.8924763,61.3010694 25.5231987,63.4941218 35.2327614,60.3106586 Z"/>
  </g>
</svg>
