<svg xmlns="http://www.w3.org/2000/svg" width="120" height="120" viewBox="0 0 120 120">
  <path fill="#DA0021" d="M87.5895506,49.3509842 C100.043503,49.3509842 103.651187,60.4075428 103.651187,65.179843 L103.645301,65.5269505 C103.568366,68.0221242 102.628556,77.6330656 94.6896241,77.6330656 C85.3807072,77.6330656 86.0147095,69.4593848 86.4108558,67.0214192 L86.5424174,66.343 C86.6584412,66.6918011 86.0768627,69.6026124 88.7534372,69.6026124 C91.4300117,69.6026124 91.4300117,66.5772367 91.4300117,66.5772367 C91.1972344,64.481511 89.9173239,61.8049365 86.774465,61.8049365 C82.0481365,61.8049365 81.7855627,66.7887466 81.7709753,67.3425033 L81.7701172,89.5061691 C77.2305943,117.323425 56.7461888,120 47.90065,120 C43.3772781,120 37.9772363,118.37302 35.418876,117.505298 L33.9340099,116.974624 C33.9340099,116.974624 64.7335939,123.818261 71.2220396,91.3189035 L71.4111609,90.3219843 L71.4139957,65.2564151 C71.4793684,64.3617721 72.7966392,49.3509842 87.5895506,49.3509842 Z M109.587374,16.2951432 L109.567232,16.5753167 C109.386997,18.6751124 107.725126,32.0172601 94.3400933,37.4778807 C90.9921602,38.8171739 85.7566304,39.2129151 83.9986501,39.3101701 L83.4002882,39.3379102 C80.1414055,39.9202184 76.1834611,41.5496598 72.8085546,44.9245663 C67.3234741,50.6389082 67.6725247,56.576233 67.6870307,61.3069438 L67.6874533,90.4336299 C67.6874533,90.4336299 65.0108788,113.130515 41.6163917,114.061115 L41.2330876,114.056207 C38.6796497,113.987416 24.0641288,113.023822 18.5127277,100.047654 L18.3386582,99.6294292 C18.3386582,99.6294292 22.7621573,105.797664 32.8876065,105.797664 C43.126773,105.797664 51.6603693,100.795038 54.8909165,88.4243604 L55.0014533,87.9898327 C55.0014533,87.9898327 55.4374567,84.9384928 55.4655859,82.9474006 L55.467008,82.7519778 L55.4679756,56.757551 C55.4905308,55.9436773 55.986469,42.941669 64.7781014,35.615662 L64.8013652,35.5999884 C65.29232,35.1958077 73.1053457,27.1050964 84.6801987,26.5373459 C97.598976,25.9557674 103.884694,21.8817992 109.587374,16.2951432 Z M114.591721,0 C109.172665,20.097083 92.9117658,22.2324503 85.0367103,22.7673841 L84.3306679,22.8129086 C76.6490158,23.2784632 70.1312504,26.7701233 70.1312504,26.7701233 C51.8108715,36.3326965 51.1706623,56.3913731 51.1596902,56.7915904 L51.1595327,86.8266757 C51.1595327,86.8266757 48.4829582,101.839719 33.9340099,101.839719 C17.1740418,101.839719 15.5446005,86.2436378 15.5446005,86.2436378 L15.5446005,48.6490036 C15.5446005,44.4597413 11.4706322,43.6453855 11.4706322,43.6453855 L6,43.6453855 L6,42.8303 L20.3169007,42.8303 L20.3086308,42.5627752 C20.3069243,41.4484406 20.6324378,37.1506781 25.6111311,35.3655608 L25.9035567,35.2654014 C25.9035567,35.2654014 27.5329981,34.9158706 31.8397436,35.1486479 C34.9826025,35.2654014 39.2886184,30.8433618 39.2886184,30.8433618 C39.2886184,37.8259521 33.0036303,40.270479 30.0935488,40.270479 C27.2881023,40.3823591 28.2694658,39.7376915 25.7345058,39.6915011 L25.4380021,39.6889005 C22.7614276,39.572147 22.1791194,42.8310297 22.1791194,42.8310297 L22.4213356,42.8469269 C23.4942506,42.944789 27.7657754,43.634744 27.7657754,48.4176857 L27.7620651,82.4328489 C27.7843468,83.3631067 28.1746926,86.4546974 32.3688181,86.5886747 L32.6776735,86.5922769 C33.0339791,86.576341 37.3096462,86.2990958 37.3096462,82.1703993 L37.3112845,53.9800792 C37.365913,53.2225852 38.8657591,34.3433465 53.4968819,21.3485007 L54.2587484,20.685914 C56.1999827,19.0474585 67.15643,10.2694756 80.024652,9.4256578 L81.6925904,9.32179887 C94.7565496,8.54574138 101.29583,8.93935019 114.591721,0 Z"/>
</svg>
