<svg xmlns="http://www.w3.org/2000/svg" width="120" height="120" viewBox="0 0 120 120">
  <path fill="#EB2227" d="M64.6768296,11.793026 C66.2490137,19.3731993 66.0244159,30.0415914 69.674129,36.5549255 C71.6393591,39.1939488 75.4013711,40.1484891 79.8933256,40.1484891 C85.0658793,40.1484891 91.188797,38.8285392 96.7261369,37.2126005 L100.57937,36.0802812 C106.2456,34.4271198 111.126447,33.1278048 114.425226,33.4105573 C116.446606,33.5790056 117.906491,34.3650976 118.636434,36.10573 C118.804882,36.5549255 118.861031,37.0602703 118.861031,37.5656152 C118.01879,41.6645238 110.887812,46.4372255 101.791604,51.9960192 L101.019865,52.455463 C89.6388983,59.1798192 75.6072523,65.2922047 69.8425773,72.2098147 C68.8318875,73.5574011 68.2142438,75.0734358 67.989646,76.6456199 C66.3784529,83.5348596 71.858849,92.4581211 78.2842116,99.8253416 L79.7708393,101.508137 C85.4910434,107.953568 90.4862064,113.413817 90.2248211,117.073211 C90.013435,117.813062 89.5036215,118.503176 88.6485684,119.049927 L88.4841887,119.15074 C87.5296484,119.768384 86.3505103,120.049131 85.0590734,119.992981 C79.9571003,119.826613 72.3904059,115.059431 64.0900428,108.93716 L63.7784387,108.706946 C53.166196,100.902174 43.1715971,90.2899318 35.1422284,87.0332648 C34.4933905,86.8336223 33.8445526,86.6783449 33.1957147,86.6463035 L32.9524005,86.6402187 C27.0567102,86.4717705 21.8909624,93.5465989 18.5781459,100.452979 L16.8721016,104.144916 C14.6926053,108.814752 12.8509039,112.25559 10.8295243,111.851314 C10.3241794,111.739015 9.81883456,111.402118 9.25734024,110.784474 C7.85360444,109.156141 7.40440899,106.348669 7.51670785,102.755106 C7.68515615,99.2176915 8.47124819,95.0064841 9.48193797,90.3460813 C11.3910187,81.6429193 14.9845823,72.1536653 16.7252147,64.4611931 C17.1182607,62.7205607 17.4551573,61.0922272 17.6236056,59.5200431 C18.4658471,52.220617 13.0755016,48.8516511 8.1343516,47.5602141 L6.2700784,47.134224 C2.79962651,46.3244275 0.309366766,45.493915 1.17182204,42.6190641 L1.34027034,42.2821675 C2.91245443,38.9132016 6.84291467,37.1725692 12.1209613,35.7688334 C12.8509039,35.6003851 13.5808465,35.3757874 14.3669385,35.2073391 C19.3080886,34.0843505 25.1476295,33.635155 30.7625727,32.6244652 C33.2892971,32.1752698 35.7037227,31.6137754 37.9497,30.8276834 C43.1715971,28.5255567 46.540563,23.4721078 48.6742415,18.3625095 C49.5726324,16.2849805 50.2464256,14.1513021 50.7517704,12.186072 L51.0261282,11.091875 C51.678281,8.46152296 52.2139017,6.16685289 53.0538972,4.43745039 C54.0084375,2.64066857 55.3560239,1.4615305 57.4897023,1.12463391 C61.6447602,0.67543845 63.3292432,5.22354244 64.6768296,11.793026 Z M103.251489,0.113944131 C110.157869,-0.78444678 116.615054,3.70750778 117.681893,10.8384856 C118.84924,18.565209 111.651714,25.1362591 104.370539,26.0296517 L104.14988,26.0549817 L104.037581,26.0549817 C98.2541899,26.22343 92.5269478,23.4159584 91.2355109,17.4079692 C90.5233717,13.9020534 90.7732217,10.0754746 92.506464,6.86675877 L92.6392467,6.62727824 C94.6044768,3.03371459 99.3210291,0.619289018 103.251489,0.113944131 Z"/>
</svg>
