<svg xmlns="http://www.w3.org/2000/svg" width="120" height="120" viewBox="0 0 120 120">
  <path fill="#0A1D3D" fill-rule="evenodd" d="M59.9999999,116.399556 C28.8602825,116.399556 3.60023282,91.1395055 3.60023282,59.9997881 C3.60023282,28.8598592 28.8602825,3.59959782 59.9999999,3.59959782 C91.1397172,3.59959782 116.399767,28.8598592 116.399767,59.9997881 C116.399767,91.1395055 91.1397172,116.399556 59.9999999,116.399556 M60,0 C93.1799691,0 120,26.8198189 120,59.9997881 C120,93.1797573 93.1799691,119.999788 60,119.999788 C26.8204539,119.999788 0,93.1797573 0,59.9997881 C0,26.8198189 26.8204539,0 60,0 Z M81.2372249,45.2010723 C76.6059652,45.2010723 72.7544844,45.416972 69.1428217,45.8851779 C64.3437107,56.2155538 56.9044854,62.0950098 48.6137265,62.0950098 C44.8221472,62.0950098 40.7189951,60.7511402 35.3314517,57.7514048 L28.9482299,54.1877902 L30.1600197,53.2403717 L42.4464042,58.5792319 L44.0061735,57.3316705 L20.0694618,46.3650256 L17.5739156,48.3447409 L10.2428518,45.2010723 L10.3148184,47.9849081 C21.1493835,52.7723774 26.0086077,55.5435132 39.8909564,64.9144055 C54.324696,74.6931788 71.4106148,81.8324729 87.6443651,84.8802566 L91.5798773,81.0761891 L90.523874,81.0761891 C79.2695746,81.0761891 67.655019,76.2650132 60.5637732,68.6579364 C68.0029985,64.1104967 75.202194,62.1312048 84.3328451,62.1312048 C87.8723297,62.1312048 91.8798085,62.3708111 95.1792635,62.7786921 L97.6151198,60.4389324 C92.9838601,59.7552501 88.088441,59.4191239 82.9650572,59.4191239 C79.3654594,59.4191239 76.3418056,59.5512037 73.5943765,59.8390699 C73.9662742,59.4314006 75.1901291,58.1112376 75.6579117,57.5714884 C77.7337236,57.4514735 80.0493533,57.3795071 82.0889702,57.3795071 C87.8242814,57.3795071 94.2193567,57.8475013 99.4506903,58.6634751 L101.886547,56.299797 C95.0114121,55.1957454 88.6762385,54.6919795 81.8969888,54.6919795 C79.9414035,54.6919795 78.5255673,54.7158977 77.7938368,54.7639461 C78.4415357,53.9837438 79.0894464,53.1440635 79.3775244,52.7120524 L79.4857789,52.7082099 C79.7433831,52.7004108 80.0674508,52.7004108 81.1172101,52.7004108 C89.3601324,52.7004108 95.8271742,53.2520133 103.614379,54.6318663 L106.049812,52.2800415 C97.4231384,50.7323371 89.6238686,50.024525 81.0331785,50.024525 C81.5852043,49.1725679 81.957102,48.5606405 82.2091967,48.1044995 C82.4250963,48.0805813 82.8088474,48.0687279 83.2649884,48.0687279 C90.3200393,48.0687279 101.370716,49.1725679 107.873529,50.5282908 L110.417124,48.0687279 C99.9665212,46.112931 90.7397736,45.2010723 81.2372249,45.2010723 Z"/>
</svg>
