<svg xmlns="http://www.w3.org/2000/svg" width="120" height="120" viewBox="0 0 120 120">
  <g fill="none" fill-rule="evenodd">
    <polyline fill="#00ADEF" fill-rule="nonzero" points="84.187 18 0 102.579 85.395 102.579 119.781 18 84.187 18"/>
    <path fill="#FFF" fill-rule="nonzero" d="M74.8376965,49.3115393 C76.1534008,49.3115393 78.0889961,51.538137 78.0889961,51.538137 L79.1105837,51.3578568 L79.1109271,49.5421722 C77.9715092,48.9052072 77.2002957,47.6871105 77.2002957,46.2878988 C77.2002957,44.2289276 78.8702568,42.5621416 80.9260389,42.5621416 C82.9850428,42.5621416 84.6549572,44.2289276 84.6549572,46.2878988 C84.6549572,47.7683583 83.7916037,49.0460585 82.5410332,49.6471752 C82.5274783,50.3992324 82.5195237,51.1269759 82.5548638,51.1269759 C82.6276109,51.1269759 84.7340078,52.0852949 85.5373541,52.0125525 C86.3375253,51.9398101 89.5477821,52.2307844 90.1044047,52.4363673 C94.3172451,53.9924545 95.3293074,57.3608125 95.430537,59.2078739 C95.5792062,61.893077 93.2576965,64.8660887 89.9367782,64.7585556 C86.6158599,64.6478568 85.6290584,60.9568949 85.6290584,60.9568949 L85.6290584,75.6163751 L85.6290584,75.6163751 C85.6290584,81.4928171 78.4369027,86.3508467 73.2594397,86.3508467 C68.0851518,86.3508467 61.1649805,81.4928171 61.1649805,75.6163751 L61.1649805,60.9568949 L61.1649805,60.9568949 L61.1382285,61.0295821 C60.9403554,61.5471923 59.6262763,64.6570817 56.5821012,64.7585556 C53.264358,64.8660887 51.1041712,61.5578195 51.0883292,59.2047128 C51.0788638,57.5980202 52.2016809,53.9892887 56.4144747,52.4332016 C56.971144,52.2276233 60.1813541,51.9366444 60.9847004,52.0093914 C61.7848716,52.0821339 63.8913152,51.1238101 63.9640623,51.1238101 C64.0003499,51.1238101 63.9917341,50.3555351 63.978332,49.5816109 C62.7982686,48.957351 61.9936342,47.7171067 61.9936342,46.2878988 C61.9936342,44.2289276 63.6635953,42.5621416 65.7194241,42.5621416 C67.7783813,42.5621416 69.4451673,44.2289276 69.4451673,46.2878988 C69.4451673,47.7385712 68.6177589,48.9945614 67.4087411,49.6100737 L67.4082957,51.3546957 L68.4298833,51.5349712 C68.4298833,51.5349712 70.3686537,49.3083782 71.6812296,49.3083782 C71.6994791,49.3083782 71.700182,48.4816553 71.6959913,47.623094 C70.4197033,47.0329976 69.5337432,45.7413482 69.5337432,44.241628 C69.5337432,42.1858226 71.2036576,40.5158755 73.2594864,40.5158755 C75.3184436,40.5158755 76.9884047,42.1858226 76.9884047,44.241628 C76.9884047,45.7417412 76.1019554,47.0336746 74.8244598,47.6244864 C74.8203045,48.4828967 74.8209314,49.3115393 74.8376965,49.3115393 Z"/>
    <path fill="#ED1C24" fill-rule="nonzero" d="M84.1833361,73.055543 C84.0354675,78.9157582 79.2578003,84.3709494 73.3859767,84.3709494 C67.5202834,84.3709494 62.744553,79.6897953 62.5920231,73.8577898 L62.5882646,73.5700576 C62.5882646,73.3043813 62.5534786,73.0671735 62.5882646,72.804663 L62.9524447,72.8759435 C63.9647665,73.1006268 66.8642693,73.9269353 68.7873152,76.3185105 L68.995756,75.927859 C69.5751777,74.88095 71.2925666,72.0357659 73.2594864,71.207463 C75.6884825,72.2290366 77.7316576,76.3185105 77.7316576,76.3185105 C80.0973852,73.3802895 84.1868638,72.7761992 84.1868638,72.7761992 L84.1872545,72.7285909 C84.1883126,72.6919713 84.1910973,72.7845854 84.1910973,72.8186567 L84.1898622,72.8286615 L84.1868622,72.7926615 L84.1833361,73.055543 Z M80.9260389,43.4129323 C82.5137276,43.4129323 83.8041712,44.7001821 83.8041712,46.2878988 C83.8041712,47.5766262 82.953978,48.6674006 81.7847255,49.0325119 L81.7863502,51.7974817 C83.4942257,51.7974817 83.924358,52.5280856 83.924358,52.5280856 L83.8993534,52.5522514 C83.8486518,52.5974696 83.7187821,52.6965047 83.4910506,52.7652934 C81.7199066,53.2871533 80.9102568,54.2359844 80.3346304,55.001379 C79.3369442,56.3336101 79.1686494,57.488114 78.947898,58.1345014 L78.9082179,58.243228 C78.4622868,59.3768215 78.4674413,60.4459739 78.4997686,60.9221014 L78.5255253,61.181449 L78.5318288,74.4106445 L77.5671595,75.1767502 C77.0867007,74.0202708 76.596475,73.1252031 76.0964825,72.4915471 C75.1381634,71.2802054 73.7307082,70.3187206 73.7307082,70.3187206 L73.7443209,62.0052246 C73.7430748,60.7246259 73.7391341,59.6087025 73.7307082,58.9453634 C73.7085759,56.9559782 75.239393,54.4036156 76.9915331,53.0689214 C78.1015675,52.222472 79.4004404,51.9933467 79.8728252,51.9357094 L80.0562957,51.9176685 L80.0658105,49.0315714 C78.8997873,48.6655306 78.0510817,47.5755215 78.0510817,46.2878988 C78.0510817,44.7001821 79.3414786,43.4129323 80.9260389,43.4129323 Z M65.7194241,43.4129323 C67.3071128,43.4129323 68.5943813,44.7001821 68.5943813,46.2878988 C68.5943813,47.632181 67.6715836,48.7610756 66.4249601,49.075642 L66.424716,51.9113416 L66.5415315,51.9278784 C66.9375995,51.9900418 68.2726543,52.249127 69.4894319,53.0594335 C71.0233774,54.0810117 72.7502568,56.6302086 72.7502568,58.9390412 L72.7502568,70.3123938 L72.5526577,70.4536086 C72.1316408,70.7628495 71.1242843,71.5477104 70.3845292,72.4852249 C69.4262101,73.6997323 68.9138054,75.1767502 68.9138054,75.1767502 L68.0661946,74.5347035 L68.0661946,61.1466584 L68.1060704,61.0107855 C68.1902952,60.6728238 68.338821,59.7283579 67.8241298,58.4481215 L67.7372451,58.243228 C67.417821,57.5316047 66.9655564,55.9913276 66.1337276,55.001379 L65.7004748,54.4708397 C65.2074565,53.8811846 64.5603642,53.2427881 63.2287801,52.8172256 L62.9709572,52.7399907 C62.6989728,52.6640872 62.487035,52.5280856 62.487035,52.5280856 L62.5361239,52.4689716 C62.6974981,52.2940524 63.28436,51.7911595 64.6978366,51.7911595 L64.6972188,48.9758156 C63.6140986,48.5636479 62.8444202,47.5155976 62.8444202,46.2878988 C62.8444202,44.7001821 64.1316887,43.4129323 65.7194241,43.4129323 Z M61.6046381,52.9613603 C65.1374475,53.5686163 67.0604358,58.1072031 67.1901012,60.0776171 L67.2044235,60.3649354 C67.2836235,62.434944 67.1984428,69.813245 67.1906605,70.9203656 L67.1901012,74.050772 L66.7753011,73.7643281 C65.8872398,73.1676132 63.7856317,71.846316 62.5882646,71.846316 C62.4807315,71.846316 62.6799689,61.7507253 62.5882646,61.1750988 C62.2687938,59.1287813 61.1650272,58.1419938 61.1650272,58.1419938 L60.8722564,57.9362975 C60.4526217,57.650122 59.7051005,57.1751143 59.4729339,57.2532514 C59.2420389,57.3291595 60.1623969,57.9806942 60.2161868,59.5304545 C60.2446226,60.41287 59.4824125,63.0759315 56.1267082,63.2941634 C52.7678288,63.5123953 51.6640156,59.4766879 52.6602957,57.1583673 L52.8105227,56.8223095 C53.7391343,54.8251123 55.7706465,51.9566342 61.6046381,52.9613603 Z M93.9503813,57.1046008 C95.0288872,59.3818039 93.8428482,63.455463 90.4839689,63.2372311 C87.1282646,63.0189992 86.3660545,60.3591035 86.3944903,59.4766879 C86.4482802,57.9237619 87.3686381,57.2722272 87.1409183,57.1963237 C86.9260444,57.1246951 86.2794589,57.5417003 85.8498119,57.8449795 L85.4187505,58.1629061 C85.2362487,58.309161 84.1868638,59.2211907 84.1868638,60.8556607 L84.2340661,68.76111 C84.2373805,70.51071 84.2274117,71.846316 84.1868638,71.846316 C82.6402646,71.846316 79.4174008,74.050772 79.4174008,74.050772 L79.4038855,71.7315972 C79.4047689,71.5103415 79.4068162,71.3133628 79.4105262,71.1643348 L79.4244604,70.7429169 C79.4507099,69.2275975 79.3997361,62.0236598 79.4174008,60.5235689 C79.4553619,57.926923 81.4732296,53.511684 85.0060389,52.9044327 C91.176607,51.8448981 93.004716,55.1057276 93.9503813,57.1046008 Z M73.2594864,41.3666615 C74.8471751,41.3666615 76.1344436,42.653916 76.1344436,44.241628 C76.1344436,45.5218903 75.2974521,46.6067868 74.1408714,46.9789497 L74.1481868,49.6974257 C75.1507704,49.8555642 76.6815875,50.6968623 77.1971206,52.0283907 L76.6835454,52.3376263 C76.4349014,52.4917042 76.1443362,52.6786599 75.928856,52.8380638 C74.3474241,54.0177805 74.0406537,55.6560981 73.2151751,57.1868872 C72.3549105,55.7067035 71.5831751,53.8153634 70.412965,52.8380638 C69.8974319,52.4395518 69.1920934,52.0505323 69.1288716,52.0283907 C69.0261698,51.9926692 69.5538473,51.3675553 69.8731301,51.0029313 L70.1713598,50.6679488 C70.3791464,50.4528047 71.073122,49.847514 72.4213074,49.6974257 L72.4230184,46.9930003 C71.2432309,46.6347546 70.3845292,45.5384116 70.3845292,44.241628 C70.3845292,42.653916 71.671751,41.3666615 73.2594864,41.3666615 Z"/>
  </g>
</svg>
