<svg xmlns="http://www.w3.org/2000/svg" width="120" height="120" viewBox="0 0 120 120">
  <g fill="none" fill-rule="evenodd">
    <path fill="#6F757A" d="M59.8731163,0 C25.7261395,0 -0.000372093023,27.7888372 -0.000372093023,61.9348837 C-0.000372093023,96.0753488 25.7261395,123.649302 59.8731163,123.649302 C94.0173023,123.649302 119.743814,96.0753488 119.743814,61.9348837 C119.743814,27.7888372 94.0173023,0 59.8731163,0"/>
    <path fill="#FBAB18" d="M59.8731163,-1.06930233 C25.7261395,-1.06930233 -0.000372093023,26.7195349 -0.000372093023,60.8655814 C-0.000372093023,95.0060465 25.7261395,122.58 59.8731163,122.58 C94.0173023,122.58 119.743814,95.0060465 119.743814,60.8655814 C119.743814,26.7195349 94.0173023,-1.06930233 59.8731163,-1.06930233 M59.8731163,117.111163 C28.9075349,117.111163 5.57544186,92.0386047 5.57544186,60.9846512 C5.57544186,29.9334884 28.9075349,4.61069767 59.8731163,4.61069767 C90.8386977,4.61069767 114.16707,29.9334884 114.16707,60.9846512 C114.16707,92.0386047 90.8386977,117.111163 59.8731163,117.111163"/>
    <path fill="#FBAB18" d="M56.3675349,50.3468837 L86.5340465,50.3468837 L71.3349767,62.6054884 L76.9284651,67.9859535 L108.631721,43.3385116 L61.7852093,43.3338605 C55.4996279,43.3338605 53.1870698,43.4668837 51.7061395,43.9087442 C50.2819535,44.3375814 48.4289302,45.2371163 47.4326512,47.4213023 C46.7014884,49.0259535 46.6642791,51.8994419 47.7033488,53.6836279 C49.1414884,56.1571163 51.5647442,58.3422326 57.8010233,64.9171163 C51.6326512,61.1245581 35.1740465,50.3533953 35.1740465,50.3533953 C35.1740465,50.3533953 38.8298605,50.3571163 39.7489302,50.3571163 C39.7489302,48.6036279 39.7414884,43.3347907 39.7414884,43.3347907 L10.6893953,43.3347907 L96.203814,98.9543256 L96.203814,89.1701395 L55.920093,52.6082791 C54.3349767,51.1431628 54.855907,50.3468837 56.3675349,50.3468837"/>
  </g>
</svg>
