<svg xmlns="http://www.w3.org/2000/svg" width="120" height="120" viewBox="0 0 120 120">
  <g fill="none" fill-rule="evenodd">
    <path fill="#003D50" fill-rule="nonzero" d="M81.8070582,58.9330144 C51.2616037,74.6650718 21.1754793,84.2535885 6.70657976,81.2679426 C-6.03983173,78.6267943 0.218541479,61.1722488 18.4194984,46.8755981 L22.2663884,46.8755981 C7.96973765,58.9330144 6.87882856,73.9760766 15.9505989,75.1818182 C26.2281109,76.3875598 52.8118429,70.8181818 79.8549051,58.2440191 L81.8070582,58.9330144 Z"/>
    <path fill="#003D50" fill-rule="nonzero" d="M113.615671,37.2870813 C114.476915,37.2870813 115.338159,37.4593301 116.08457,37.6315789 C116.601317,37.8038278 116.773565,37.8038278 117.290312,38.1483254 C117.462561,38.1483254 117.634809,38.3205742 117.807058,38.492823 C118.151556,38.6650718 117.979307,38.8373206 118.151556,39.0095694 C118.323805,39.6985646 117.979307,40.215311 117.634809,40.7320574 C116.601317,42.4545455 114.821412,43.7177033 113.271173,44.923445 C111.548685,46.3014354 109.768781,47.3923445 108.046293,48.5980861 C107.701795,48.7703349 107.357297,49.1148325 107.0128,49.2870813 C107.357297,49.4593301 107.529546,49.4593301 107.874044,49.6315789 L107.874044,49.6315789 C107.874044,49.6315789 108.046293,49.8038278 108.218541,49.8038278 C108.735288,49.6315789 109.079785,49.2870813 109.596532,49.1148325 C110.113278,48.7703349 110.457776,48.7703349 110.974522,48.9425837 C111.31902,49.1148325 111.835766,49.6315789 112.008015,49.9760766 C112.180264,50.6650718 112.180264,51.1818182 111.835766,51.8708134 C114.132417,52.9043062 116.199403,53.9952153 118.323805,55.0287081 C118.840551,55.3732057 119.357297,55.5454545 119.874044,55.8899522 C120.046293,56.2344498 119.701795,56.5789474 119.357297,56.7511962 C118.496053,57.0956938 117.807058,57.784689 116.888398,57.784689 C116.027154,57.6124402 115.16591,57.4401914 114.075001,57.0956938 C112.69701,56.7511962 111.261604,56.4066986 109.883613,56.2344498 C108.85012,56.062201 107.586963,55.8899522 106.55347,55.5454545 C105.692226,55.3732057 105.00323,55.2009569 104.08457,55.2009569 C103.051077,55.0287081 101.960168,55.0287081 100.754427,55.0287081 C99.3764362,55.0287081 98.1132783,55.0287081 96.7352879,54.8564593 C94.610886,55.7177033 92.7161491,56.7511962 90.2472496,57.6698565 C88.6970104,58.1866029 87.2616037,58.7033493 85.7113644,59.2200957 C86.2281109,59.9090909 86.9171061,60.0813397 87.2616037,60.9425837 C87.2616037,61.1148325 87.0893549,61.1148325 87.0893549,61.1148325 C86.7448573,61.2870813 86.5726085,61.2870813 86.2281109,61.4593301 C84.6778716,61.1148325 83.2424649,60.7703349 81.6922257,60.2535885 L81.3477281,60.2535885 C80.6587329,60.4258373 79.62524,61.1148325 78.8788286,60.2535885 C78.8788286,60.0813397 78.7065798,59.9090909 78.7065798,59.5645933 C78.7065798,59.3923445 78.534331,59.3923445 78.3620821,59.2200957 C78.0175845,59.0478469 77.8453357,59.0478469 77.6730869,58.8755981 C77.1563405,58.7033493 76.8118429,58.5311005 76.2950965,58.3588517 C75.2616037,58.0143541 74.4003597,57.8421053 73.4816994,57.3253589 C73.3094506,57.15311 73.1372018,56.9808612 73.4816994,56.6363636 C73.9984458,56.291866 74.8596898,55.9473684 75.6061013,56.291866 C76.2950965,56.291866 77.1563405,56.4641148 77.7305032,56.4641148 L77.7305032,56.4641148 C76.8692592,55.6028708 76.180264,54.7416268 75.2616037,53.8229665 C75.0893549,53.6507177 74.9171061,53.4784689 74.9171061,53.1339713 C74.9171061,52.9617225 75.0893549,52.7894737 75.2616037,52.6172249 C75.4338525,52.4449761 75.6061013,52.4449761 75.7783501,52.4449761 C76.4673453,52.1004785 76.6395941,51.9282297 77.1563405,52.1004785 C78.7065798,52.7894737 79.9697377,53.3062201 81.6922257,53.9952153 C82.0367233,54.1674641 82.3812209,54.3397129 82.7257185,54.3397129 C83.2424649,54.1674641 83.4147137,53.9952153 83.7592113,53.8229665 C83.9314601,53.8229665 84.4482066,53.4784689 84.6204554,53.3062201 C85.1372018,52.9617225 85.6539482,52.6172249 85.9984458,52.4449761 C87.0319386,51.7559809 87.548685,51.4114833 88.4673453,50.8947368 C87.2616037,50.3779904 85.826197,49.6889952 84.6204554,49.1722488 C83.2424649,48.8277512 82.8979673,48.6555024 81.6348094,48.3110048 C80.7735654,48.138756 79.7400726,47.7942584 79.7400726,47.7942584 C78.0175845,47.4497608 77.6156707,47.277512 76.0654314,46.9330144 C75.3764362,46.5885167 74.5151922,46.5885167 73.5965319,46.2440191 C73.5965319,46.0717703 73.5965319,46.0717703 73.5965319,45.8995215 C73.7687807,45.5550239 74.2855271,45.2105263 74.6300247,44.8660287 C75.1467711,44.5215311 75.4912688,44.1770335 76.180264,44.0047847 C77.3860056,44.0047847 78.3046659,44.1770335 79.6826563,44.3492823 C81.2328955,44.5215311 82.840551,44.6937799 84.2185415,44.8660287 C86.1132783,45.0382775 88.409929,45.2105263 90.3046659,45.5550239 C90.4769147,45.5550239 90.6491635,45.7272727 90.8214123,45.5550239 C90.9936611,45.7272727 91.1659099,45.5550239 91.3381587,45.7272727 C91.5104075,45.7272727 91.6826563,45.7272727 91.8549051,45.7272727 C92.7161491,45.0382775 93.749642,44.1770335 95.0127999,43.8325359 C95.7017951,43.8325359 96.3907903,44.1770335 96.7352879,44.6937799 C99.0319386,43.1435407 101.098924,41.5358852 103.567824,40.3301435 C105.864474,39.1244019 107.93146,38.2057416 109.653948,37.6889952 C110.85969,37.3444976 112.295097,37.1722488 113.500838,37 C113.098924,37.2870813 113.271173,37.2870813 113.615671,37.2870813"/>
    <path fill="#D81939" fill-rule="nonzero" d="M92.3142353 46.3588517C92.6587329 46.1866029 92.8309817 46.0143541 93.1754793 45.8421053 93.5199769 45.6698565 93.6922257 45.4976077 93.8644745 45.4976077 93.6922257 46.0143541 93.6922257 46.1866029 93.8644745 46.7033493 93.8644745 47.0478469 94.2089721 47.2200957 94.2089721 47.3923445 93.5199769 47.9090909 92.8309817 48.2535885 92.0845702 48.7703349 91.9123214 48.5980861 91.7400726 48.4258373 91.7400726 48.0813397 91.5678238 47.5645933 91.7400726 47.2200957 91.9123214 46.7033493L92.3142353 46.3588517zM91.0510774 52.1004785C90.1898333 52.6172249 89.3285893 53.1339713 88.409929 53.4784689 86.687441 54.3397129 84.7352879 55.3732057 82.0941396 56.6363636 81.4051444 56.9808612 80.7161491 57.15311 79.9697377 56.9808612 79.4529912 56.9808612 79.4529912 56.9808612 78.9362448 56.8086124 78.0750008 55.9473684 77.041508 54.9138756 76.1228477 53.9952153 75.9505989 53.8229665 75.7783501 53.6507177 75.7783501 53.4784689L76.2950965 53.1339713 76.4673453 53.1339713C77.8453357 53.6507177 78.763996 54.1674641 80.1419865 54.8564593 80.6587329 55.0287081 81.1754793 55.3732057 81.6922257 55.5454545 82.2089721 55.5454545 82.7257185 55.3732057 83.2424649 55.2009569L83.5869625 55.0287081C84.2759577 54.5119617 84.6204554 54.3397129 84.964953 54.1674641 86.3429434 53.3062201 87.6061013 52.6172249 88.9840917 51.6985646L89.3285893 51.5263158C90.0175845 51.7559809 90.3620821 51.9282297 91.0510774 52.1004785M114.821412 38.6650718C113.787919 38.8373206 113.098924 39.0095694 111.835766 39.5263158 110.802274 39.8708134 109.194618 40.5598086 107.816628 41.2488038 105.921891 42.1100478 104.314235 43.1435407 102.24725 44.4066986 101.558254 44.923445 99.9505989 46.1291866 99.7783501 46.3014354 98.5726085 46.1291866 97.4816994 46.1291866 96.2759577 45.9569378L96.4482066 45.784689C97.9984458 44.5789474 99.2616037 43.6602871 100.984092 42.7990431 102.362082 41.937799 104.658733 40.6746411 106.381221 39.9856459 107.93146 39.2966507 109.711364 38.7799043 111.433852 38.6076555 112.926675 38.3205742 113.960168 38.3205742 114.821412 38.6650718"/>
  </g>
</svg>
