<svg xmlns="http://www.w3.org/2000/svg" width="120" height="120" viewBox="0 0 120 120">
  <g fill="none" fill-rule="evenodd">
    <path fill="#CF2A2C" d="M120,59.9996571 C120,93.1354286 93.1395429,120 59.9976,120 C26.8642286,120 0,93.1347429 0,59.9996571 C0,26.8642286 26.8642286,0 59.9976,0 C93.1388571,0 120,26.8642286 120,59.9996571"/>
    <path fill="#FFFFFE" d="M79.3464,70.7396571 C80.8896,70.5816 85.3998857,69.5928 85.4448,64.6412571 C85.4554286,62.7243429 83.6235429,61.7139429 83.1781714,60.3778286 C82.8912,59.5522286 82.9601143,57.8485714 84.2626286,57.3366857 C85.872,56.7034286 86.2052571,57.7608 86.7606857,58.5517714 C86.9917714,58.8761143 87.7285714,58.7986286 87.9805714,58.5353143 C88.332,58.1701714 88.8452571,57.624 89.0664,56.6965714 C89.2618286,55.8466286 88.3597714,54.4186286 85.7386286,54.5074286 C84.8225143,54.5276571 83.5265143,54.6836571 81.6912,56.4342857 C80.8443429,57.24 78.1494857,60.9257143 80.1442286,64.0902857 C80.6825143,64.9494857 81.9774857,65.9996571 81.1446857,66.8064 C79.8459429,68.0581714 77.6146286,66.1193143 77.1905143,65.5337143 C76.9995429,65.2642286 76.4458286,64.9494857 76.0820571,65.4833143 C75.8718857,65.7894857 74.8707429,67.5737143 75.0257143,68.2333714 C75.4762286,70.2918857 78.1326857,70.8613714 79.3464,70.7396571 M76.3625143,56.1798857 C77.1706286,56.0605714 79.7986286,55.7492571 79.6978286,56.8515429 C79.5432,58.6278857 78.8739429,58.6014857 76.5236571,59.1054857 C76.0793143,59.2056 75.6061714,59.3067429 75.1100571,59.412 C75.0740571,59.5313143 75.036,59.6005714 75.0085714,59.6046857 C74.1233143,63.7584 74.0533714,65.3293714 73.5672,68.9458286 C73.3580571,70.5298286 73.668,72.2338286 71.7822857,72.4940571 C69.8972571,72.7676571 69.2458286,70.824 69.2568,69.1666286 C69.2636571,66.2338286 70.7434286,60.4834286 70.7506286,60.4494857 C68.8323429,60.9380571 66.7755429,61.4941714 64.7286857,62.1325714 C62.2902857,66.2739429 57.8461714,76.2514286 57.2962286,78.7446857 C56.8488,80.7438857 55.9467429,81.3562286 54.6140571,80.7706286 C53.2878857,80.1956571 52.5466286,78.8705143 53.0016,77.3688 C54.2393143,73.2408 58.9179429,64.3008 58.9916571,64.1396571 C57.2561143,64.8366857 55.6381714,65.5848 54.2434286,66.3805714 C53.3794286,66.8722286 52.2768,66.4035429 52.0426286,65.3674286 C51.888,64.6220571 51.5444571,63.1704 53.2323429,62.3993143 C55.9395429,61.1653714 58.8826286,60.1333714 61.8219429,59.2858286 C68.0681143,48.78 75.8142857,38.0012571 78.0462857,38.2001143 C79.0193143,38.2824 78.8677714,39.3288 79.7180571,40.2764571 C80.5642286,41.2179429 80.6835429,41.7984 79.6693714,44.3005714 C77.6108571,49.4403429 77.7802286,48.2403429 75.7892571,56.2666286 C75.9853714,56.2395429 76.1712,56.208 76.3625143,56.1798857 M75.6558857,44.8206857 C72.8420571,48.5163429 69.8194286,53.2227429 67.08,57.9233143 C68.6818286,57.5568 70.2212571,57.2403429 71.6598857,56.9681143 C72.8424,52.6107429 74.2522286,48.1498286 75.6558857,44.8206857 M96.2177143,50.7685714 C97.5699429,50.5278857 98.7514286,49.3093714 98.8580571,48.0514286 C98.9554286,46.7958857 97.9433143,45.9785143 96.5976,46.2205714 C95.2422857,46.464 94.0563429,47.6814857 93.9576,48.9408 C93.8496,50.1936 94.8682286,51.012 96.2177143,50.7685714 M110.4168,58.9014857 C111.032229,57.9243429 112.334743,58.2438857 111.9864,59.1421714 C111.685714,59.9197714 111.117257,61.1818286 109.667657,62.8940571 C107.886171,65.0842286 106.2456,66.1467429 104.7624,66.3438857 C103.566514,66.5122286 102.719314,66 102.512229,64.9285714 L102.442629,64.7105143 C102.4392,64.5219429 102.344229,64.428 102.240343,64.4454857 C102.131314,64.4568 102.051429,64.5384 101.851543,64.7273143 C100.347429,66.3212571 99.1968,67.3014857 97.8065143,67.4917714 C95.7298286,67.7633143 94.5212571,66.1419429 94.8154286,63.7896 C94.2596571,64.6121143 93.6857143,65.4024 93.1573714,65.9856 C91.5342857,67.7883429 90.204,68.9338286 88.9697143,69.0953143 C87.3041143,69.3178286 86.4322286,68.1305143 86.7126857,66.0274286 C86.8381714,65.0691429 87.1954286,63.9528 87.8046857,62.5368 C88.4379429,61.1245714 89.4198857,59.1833143 90.3274286,57.5996571 C91.0518857,56.3019429 91.7513143,54.8345143 91.86,54.3342857 C91.9436571,53.9403429 91.9865143,53.8642286 92.2944,53.664 C92.6814857,53.3893714 93.4446857,53.0636571 93.9102857,53.0266286 C95.0859429,52.9381714 96.6459429,53.7881143 95.6139429,55.5504 L95.2248,56.2206857 C95.1692571,56.3585143 94.4633143,57.6342857 94.0573714,58.3302857 C93.3082286,59.5032 92.3496,61.2507429 91.7475429,62.4339429 C91.3738286,63.1381714 91.1924571,63.6771429 91.1434286,64.0693714 C91.1022857,64.3316571 91.1924571,64.488 91.3978286,64.4574857 C91.6854857,64.4218286 92.1085714,64.1393143 92.6232,63.6425143 C93.1505143,63.0905143 93.4728,62.7243429 94.6488,61.1684571 L95.0756571,60.6301714 C95.4147429,60.1875429 98.0945143,56.6832 98.9002286,55.8154286 C101.061943,53.2361143 103.503429,51.408 105.071314,51.2053714 C106.101257,51.0634286 106.932,51.5334857 107.332457,52.4845714 C107.615314,53.2614857 107.670857,53.3146286 108.36,53.6122286 C109.461943,54.0493714 109.823314,54.4193143 109.738286,54.9805714 C109.697486,55.3813714 109.547314,55.6916571 108.846514,56.7925714 C108.354171,57.6346286 107.811771,58.6179429 107.422629,59.3756571 C106.603886,60.9963429 106.155771,62.0996571 106.949829,62.3811429 C107.250514,62.4846857 107.806629,62.1987429 108.501257,61.4636571 C109.269257,60.6497143 109.812686,59.8436571 110.4168,58.9014857 M101.932457,61.7838857 C103.348457,60.0425143 105.539314,56.0478857 105.676114,54.9572571 C105.7392,54.4563429 105.5952,54.2585143 105.2016,54.3096 C104.714743,54.3740571 103.622743,55.2661714 102.583543,56.5385143 C101.061257,58.3656 99.0113143,62.0502857 98.8505143,63.2643429 C98.7833143,63.7608 98.9859429,64.0872 99.336,64.0453714 C99.8993143,63.9678857 100.872343,63.1227429 101.932457,61.7838857 M52.6566857,53.5861714 C53.7144,53.3938286 56.0900571,54.8317714 54.9538286,56.1641143 C53.7726857,57.5352 52.4403429,57.2616 50.3485714,58.1345143 C49.1633143,58.6261714 48.2537143,59.6876571 46.9553143,61.5558857 C45.3041143,63.9781714 44.5477714,66.3507429 44.412,68.1339429 C44.4006857,68.6633143 44.3585143,68.9276571 44.0787429,69.1100571 C41.3146286,70.9155429 40.4643429,69.5585143 40.5342857,67.9001143 C40.5521143,67.5085714 40.6892571,66.8897143 40.9333714,66.1275429 C38.8062857,69.3164571 36.9236571,70.9296 35.6921143,71.1507429 C34.0416,71.4493714 33.1100571,70.3035429 33.2876571,68.1836571 C33.3685714,67.2195429 33.6586286,66.0860571 34.1986286,64.6577143 C34.7646857,63.2074286 35.6568,61.2243429 36.4827429,59.5998857 C36.6936,59.1764571 36.8972571,58.7701714 37.0683429,58.4064 C35.8155429,58.6484571 34.0378286,59.016 31.9453714,59.4932571 C31.9169143,59.5618286 31.8936,59.5995429 31.8678857,59.6036571 C30.9785143,63.7573714 30.9085714,65.3232 30.4296,68.9444571 C30.2266286,70.5284571 30.5321143,72.2324571 28.6457143,72.4926857 C26.7596571,72.7662857 26.1336,70.824 26.1222857,69.1656 C26.0979429,67.4766857 26.4099429,65.4476571 27.6034286,60.5355429 C25.6436571,61.0344 23.5721143,61.6083429 21.5221714,62.2378286 C21.4933714,62.2837714 21.4728,62.3077714 21.4728,62.3077714 C18.0685714,68.5395429 14.7085714,76.2500571 14.1528,78.7436571 C13.7098286,80.7425143 12.8064,81.3552 11.4774857,80.7757714 C10.1506286,80.1942857 9.37817143,78.8578286 9.86057143,77.3677714 C10.7348571,74.6928 13.3978286,68.6893714 15.7697143,64.3803429 C15.7518857,64.3882286 15.7697143,64.3285714 15.8256,64.2195429 C14.0873143,64.8946286 12.4710857,65.6187429 11.0581714,66.3977143 C10.1266286,66.8993143 8.95748571,66.4357714 8.73325714,65.3955429 C8.57245714,64.6577143 8.22,63.2005714 10.0244571,62.4085714 C12.7505143,61.2168 15.6997714,60.2077714 18.6456,59.3554286 C24.9017143,48.8297143 32.6777143,38.0002286 34.9138286,38.1980571 C35.8817143,38.2817143 35.7284571,39.3277714 36.5821714,40.2757714 C37.4245714,41.2196571 37.5476571,41.7977143 36.5393143,44.2998857 C34.4715429,49.4358857 34.6361143,48.2396571 32.652,56.2518857 C36.2904,55.6484571 39.4577143,55.3004571 39.7542857,55.2545143 C40.7585143,55.1118857 42.4872,55.7958857 41.5734857,57.7573714 C41.5734857,57.7573714 40.6158857,59.4435429 40.2380571,60.1656 C39.5554286,61.3601143 38.6694857,63.1556571 38.1346286,64.3686857 C37.7952,65.0842286 37.6405714,65.6314286 37.6131429,66.0318857 C37.5853714,66.2921143 37.6827429,66.4395429 37.8932571,66.4018286 C38.1716571,66.3514286 38.58,66.0504 39.0723429,65.5405714 C39.5513143,64.9806857 41.1678857,63.6545143 44.0574857,58.7862857 L44.82,57.2088 C45.0658286,56.7387429 45.4179429,55.9104 45.4851429,55.5301714 C45.5646857,54.9648 45.5862857,54.8180571 46.0587429,54.5204571 C46.8216,54.0339429 48.1998857,53.6314286 48.9956571,54.1505143 C49.7444571,54.6459429 49.5504,55.5428571 48.9284571,56.6314286 C51.4467429,53.7956571 52.0944,53.6787429 52.6566857,53.5861714 M28.5198857,56.9934857 C29.6941714,52.6213714 31.1156571,48.1566857 32.5220571,44.8234286 C29.688,48.5382857 26.6513143,53.2652571 23.9146286,57.9843429 C25.5075429,57.6116571 27.0565714,57.2808 28.5198857,56.9934857 M43.1098286,47.9993143 C44.4665143,47.7538286 45.4752,48.5784 45.3737143,49.8325714 C45.2722286,51.0853714 44.0862857,52.3093714 42.732,52.5514286 C41.3838857,52.7917714 40.3666286,51.9672 40.4742857,50.712 C40.5774857,49.4574857 41.7555429,48.2475429 43.1098286,47.9993143"/>
  </g>
</svg>
