<svg xmlns="http://www.w3.org/2000/svg" width="120" height="120" viewBox="0 0 120 120"><path fill="#CF2A2C" d="M120 60c0 33.135-26.86 60-60.002 60C26.864 120 0 93.135 0 60 0 26.864 26.864 0 59.998 0 93.138 0 120 26.864 120 60"/><path fill="#FFFFFE" d="M79.346 70.74c1.544-.158 6.054-1.147 6.099-6.099.01-1.917-1.821-2.927-2.267-4.263-.287-.826-.218-2.53 1.085-3.041 1.609-.634 1.942.424 2.498 1.215.23.324.968.247 1.22-.017.351-.365.864-.911 1.085-1.838.196-.85-.706-2.278-3.327-2.19-.916.02-2.212.177-4.048 1.927-.847.806-3.542 4.492-1.547 7.656.539.86 1.833 1.91 1 2.716-1.298 1.252-3.53-.687-3.953-1.272-.191-.27-.745-.585-1.109-.05-.21.305-1.211 2.09-1.056 2.75.45 2.058 3.107 2.627 4.32 2.506m-2.983-14.56c.808-.12 3.436-.43 3.335.672-.155 1.776-.824 1.75-3.174 2.253-.445.1-.918.202-1.414.307-.036.12-.074.189-.101.193-.886 4.153-.956 5.724-1.442 9.34-.209 1.585.101 3.289-1.785 3.55-1.885.273-2.536-1.671-2.525-3.328.007-2.933 1.486-8.684 1.494-8.718a118.784 118.784 0 00-6.022 1.684c-2.439 4.14-6.883 14.118-7.433 16.612-.447 1.999-1.35 2.611-2.682 2.026-1.326-.575-2.067-1.9-1.612-3.402 1.237-4.128 5.916-13.068 5.99-13.23-1.736.698-3.354 1.446-4.749 2.242-.864.491-1.966.023-2.2-1.014-.155-.745-.499-2.197 1.19-2.968 2.707-1.234 5.65-2.266 8.589-3.113C68.068 48.78 75.814 38 78.046 38.2c.973.082.822 1.129 1.672 2.076.846.942.966 1.522-.049 4.025-2.058 5.14-1.889 3.94-3.88 11.966.196-.027.382-.059.574-.087m-.707-11.36c-2.814 3.696-5.837 8.403-8.576 13.103 1.602-.366 3.141-.683 4.58-.955 1.182-4.357 2.592-8.818 3.996-12.147m20.562 5.948c1.352-.241 2.533-1.46 2.64-2.718.097-1.255-.915-2.072-2.26-1.83-1.356.243-2.542 1.46-2.64 2.72-.108 1.253.91 2.071 2.26 1.828m14.199 8.132c.615-.977 1.918-.657 1.57.241-.301.778-.87 2.04-2.32 3.752-1.78 2.19-3.421 3.253-4.905 3.45-1.195.168-2.043-.344-2.25-1.415l-.07-.218c-.003-.19-.098-.283-.202-.266-.109.012-.189.093-.388.282-1.505 1.594-2.655 2.574-4.045 2.765-2.077.271-3.286-1.35-2.992-3.702-.555.822-1.13 1.612-1.658 2.196-1.623 1.802-2.953 2.948-4.187 3.11-1.666.222-2.538-.965-2.257-3.069.125-.958.482-2.074 1.092-3.49a61.58 61.58 0 012.522-4.937c.725-1.298 1.424-2.765 1.533-3.266.084-.394.127-.47.434-.67.387-.275 1.15-.6 1.616-.637 1.176-.089 2.736.761 1.704 2.523l-.39.67c-.055.139-.76 1.414-1.167 2.11-.749 1.173-1.707 2.92-2.31 4.104-.373.704-.555 1.243-.604 1.635-.04.263.05.419.255.388.287-.035.71-.318 1.225-.814.528-.552.85-.919 2.026-2.475l.427-.538c.339-.442 3.019-3.947 3.824-4.815 2.162-2.579 4.603-4.407 6.171-4.61 1.03-.142 1.861.328 2.261 1.28.283.776.339.83 1.028 1.127 1.102.437 1.463.807 1.378 1.369-.04.4-.19.71-.891 1.812a58.344 58.344 0 00-1.424 2.583c-.82 1.62-1.267 2.724-.473 3.005.3.104.857-.182 1.551-.917.768-.814 1.312-1.62 1.916-2.563m-8.485 2.883c1.416-1.741 3.607-5.736 3.744-6.827.063-.5-.08-.698-.474-.647-.487.064-1.58.956-2.618 2.229-1.523 1.827-3.573 5.511-3.733 6.725-.068.497.135.823.485.781.563-.077 1.536-.922 2.596-2.261m-49.275-8.198c1.057-.192 3.433 1.246 2.297 2.578-1.181 1.371-2.514 1.098-4.605 1.97-1.186.492-2.095 1.554-3.394 3.422-1.65 2.422-2.407 4.795-2.543 6.578-.011.53-.053.794-.333.976-2.764 1.806-3.615.449-3.545-1.21.018-.391.155-1.01.4-1.772-2.128 3.188-4.01 4.802-5.242 5.023-1.65.298-2.582-.847-2.404-2.967.08-.964.37-2.098.91-3.526a62.107 62.107 0 012.285-5.058c.21-.424.414-.83.585-1.194-1.252.242-3.03.61-5.123 1.087-.028.069-.051.107-.077.11-.89 4.154-.96 5.72-1.438 9.341-.203 1.584.102 3.288-1.784 3.549-1.886.273-2.512-1.669-2.524-3.327-.024-1.69.288-3.718 1.481-8.63-1.96.498-4.03 1.072-6.08 1.702a.64.64 0 01-.05.07c-3.404 6.232-6.764 13.942-7.32 16.436-.443 1.999-1.347 2.611-2.676 2.032-1.326-.582-2.099-1.918-1.616-3.408.874-2.675 3.537-8.679 5.909-12.988-.018.008 0-.051.056-.16-1.739.675-3.355 1.399-4.768 2.178-.931.501-2.1.038-2.325-1.002-.16-.738-.513-2.195 1.291-2.987 2.727-1.192 5.676-2.201 8.622-3.054C24.902 48.83 32.678 38 34.914 38.198c.968.084.814 1.13 1.668 2.078.843.944.966 1.522-.043 4.024-2.067 5.136-1.903 3.94-3.887 11.952 3.638-.604 6.806-.952 7.102-.997 1.005-.143 2.733.54 1.82 2.502 0 0-.958 1.687-1.336 2.409-.683 1.194-1.569 2.99-2.103 4.203-.34.715-.494 1.262-.522 1.663-.028.26.07.408.28.37.279-.05.687-.352 1.18-.861.478-.56 2.095-1.886 4.984-6.755l.763-1.577c.246-.47.598-1.299.665-1.679.08-.565.101-.712.574-1.01.763-.486 2.14-.889 2.937-.37.748.496.554 1.393-.068 2.481 2.519-2.835 3.166-2.952 3.729-3.045M28.52 56.993c1.174-4.372 2.596-8.836 4.002-12.17-2.834 3.715-5.87 8.442-8.607 13.161 1.593-.372 3.142-.703 4.605-.99m14.59-8.995c1.357-.245 2.365.58 2.264 1.834-.102 1.252-1.288 2.476-2.642 2.718-1.348.24-2.365-.584-2.258-1.839.103-1.255 1.282-2.464 2.636-2.713"/></svg>
