<svg xmlns="http://www.w3.org/2000/svg" width="120" height="120" viewBox="0 0 120 120">
  <g fill="none" fill-rule="evenodd">
    <path fill="#7BCBE2" d="M44.2648,28.2018 C34.6478,26.8868 29.7648,32.2398 23.0298,37.1598 L0.0078,55.2398 L-0.0002,55.2438 L4.4318,57.5868 C4.4398,57.5938 4.4508,57.5978 4.4618,57.6048 C10.2278,60.4398 18.2478,59.4708 23.7078,55.4258 L33.4298,47.7008 L37.1468,44.7438 L55.6738,30.0228 L44.2648,28.2018 Z"/>
    <path fill="#089BC9" d="M0.0075,55.2399 L4.4325,57.5899 C4.4435,57.5939 4.4515,57.6009 4.4625,57.6049 C10.2285,60.4429 18.2515,59.4749 23.7115,55.4259 L33.4295,47.7049 L37.1505,44.7469 L0.0075,55.2399 Z"/>
    <path fill="#8F174F" d="M83.5797,39.3688 L71.2217,37.1448 C71.2217,37.1448 62.6167,35.0998 55.4277,40.6688 C55.4277,40.6688 50.1207,44.6168 46.2057,47.6708 L37.5007,54.5658 L17.3647,70.5818 L17.1977,70.7158 L23.2757,73.9308 C29.0457,76.7808 37.0837,75.8158 42.5517,71.7628 L60.5567,57.5008 L75.0757,46.0658 L83.5797,39.3688 Z"/>
    <path fill="#C8C4C3" d="M46.2091 47.6711C50.1161 44.6171 55.4241 40.6691 55.4241 40.6691 56.7841 39.6141 58.1951 38.8361 59.5881 38.2621L37.1541 44.7471 33.4331 47.7011 23.7191 55.4261C18.2581 59.4751 10.2351 60.4431 4.4701 57.6051 9.3861 60.5511 17.0221 61.2291 28.5241 57.7981L36.3791 55.4601 37.5081 54.5661 46.2091 47.6711zM77.8542 54.5397C81.5612 51.6377 84.3582 49.5377 87.1402 48.2897L62.0282 56.3427 60.5532 57.5047 42.5482 71.7627C37.0802 75.8157 29.0412 76.7837 23.2722 73.9307 32.1372 78.7987 45.7882 75.2187 57.2682 71.1367L57.9532 70.5817C57.9492 70.5817 77.1692 55.0347 77.8542 54.5397M107.3844 70.716C97.3054 67.788 94.2804 69.64 82.4054 73.212L82.4034 73.212 81.4114 74.034 81.4114 74.031 81.4004 74.042 81.4114 74.034 81.3814 74.054 62.2434 89.228C56.7914 93.27 48.2694 94.048 42.5034 91.225 49.6174 94.935 56.9734 94.026 69.5594 90.1L119.9994 74.616 107.3844 70.716z"/>
    <path fill="#8F174F" d="M110.7292,49.7907 L97.3872,47.3617 C89.3942,45.8797 85.6132,48.4647 77.8512,54.5397 C77.1662,55.0387 57.9502,70.5827 57.9502,70.5827 L36.3762,87.9877 L42.4512,91.2027 C48.2242,94.0547 56.7842,93.2807 62.2482,89.2277 L81.3852,74.0537 L81.4122,74.0347 L81.4012,74.0417 L110.7292,49.7907 Z"/>
    <polygon fill="#B4175E" points="36.376 55.46 79.043 42.938 62.024 56.343 17.194 70.716"/>
    <polygon fill="#B4175E" points="57.264 71.133 103.726 55.583 82.406 73.212 36.379 87.987"/>
  </g>
</svg>
