<svg xmlns="http://www.w3.org/2000/svg" width="120" height="120" viewBox="0 0 120 120">
  <path fill="#D71A21" fill-rule="evenodd" d="M69.6038171,52.8487284 C74.7570699,48.2050662 75.9077284,46.8595231 77.276583,43.8803061 C78.069176,42.1547846 78.0822305,41.9165405 78.254736,25.6972915 L78.4295727,9.26264369 L79.4086581,7.26857309 C80.0534557,5.95566619 81.2185674,4.5052211 82.8182064,3.02447099 C84.1544249,1.78709354 85.2482031,0.599602815 85.2482031,0.38560272 C85.2482031,0.171602625 84.8155406,-0.00183536051 84.2863683,1.46640045e-05 C82.8251999,0.00562433779 72.4790646,9.44260892 71.1983276,11.9374118 C69.6723531,14.9096353 69.512902,16.9438018 69.512902,33.3957001 C69.512902,51.381499 69.7693292,50.1124178 65.3149568,54.1541756 C63.7731304,55.5533352 62.6010253,56.8429306 62.7110559,57.0205647 C62.8206202,57.1977325 63.294311,57.3427304 63.7638058,57.3427304 C64.365244,57.3427304 66.0875018,56.0172352 69.6038171,52.8487284 L69.6038171,52.8487284 Z M36.1876323,49.0773847 C35.9027651,48.7929837 50.2356429,33.9146154 50.7941878,33.9146154 C51.290724,33.9146154 54.963693,37.9549745 57.7345047,41.5496166 C60.173826,44.7134612 60.7817914,46.4249957 59.9290546,47.726713 C59.6026928,48.2246479 58.9401784,48.7822604 58.4571629,48.9664217 C57.4915982,49.3333456 36.548029,49.4382476 36.1876323,49.0773847 L36.1876323,49.0773847 Z M53.5496139,57.5623252 C55.0466821,56.9371093 61.7608768,50.2261782 62.3856265,48.7314412 C62.9861323,47.2945168 63.0472085,38.9914063 62.4779403,36.2923942 C62.009378,34.0717353 60.5141747,30.9391283 58.8208232,28.633149 C57.7209839,27.1346821 57.6328663,26.8605382 58.021703,26.148137 C58.2748665,25.6847033 58.5215028,23.5447023 58.6082218,21.0643526 C58.6902785,18.7080204 58.8478646,16.7806209 58.9583614,16.7806209 C59.0688582,16.7806209 59.6031591,17.2058237 60.1458521,17.7256714 L61.131931,18.6707219 L63.2243764,16.6001894 C64.9965209,14.8466941 65.3168217,14.3408333 65.3154276,13.2950769 C65.3140244,11.8502265 64.4850654,10.3839296 62.1548421,7.70449921 C60.4782749,5.77570097 58.6828188,2.47478447 58.6762916,1.30780792 C58.6697643,0.151554686 57.4319206,0.690984119 55.4672226,2.70650135 C54.3892962,3.81240163 53.3323502,5.0605024 53.1178839,5.48057666 C52.2199227,7.24199792 52.9402498,9.90324529 55.1347998,12.9328153 C56.2253144,14.4378094 56.2253144,14.4382756 56.2253144,19.0772755 C56.2253144,23.7223364 56.0821815,24.8231081 55.4774797,24.8231081 C55.2998456,24.8231081 54.0969693,24.1111732 52.8050428,23.2411858 C49.2752068,20.8643395 46.9804171,20.2773545 41.2159352,20.2773545 C35.442595,20.2773545 33.6713829,20.7216727 30.7830809,22.8929112 C27.8975764,25.0613522 26.7553101,26.81578 26.571615,29.3604696 C26.4904908,30.4780257 26.6000551,31.9256734 26.8149877,32.5769983 C27.2863474,34.004598 32.2964672,39.1191537 32.7370557,38.6221513 C32.9007028,38.4370575 32.9114261,36.7907953 32.7608334,34.9636355 C32.3342319,29.7903347 32.8391603,25.5923895 34.0634833,24.1372821 C35.4132224,22.533447 36.9606436,22.4047672 39.0008711,23.7265325 C41.7152688,25.4851563 48.3576639,31.273416 48.3576639,31.8795165 C48.3576639,32.6679133 34.7651611,46.949972 33.1529338,47.8563253 C31.4241488,48.827951 29.0095377,48.8479989 27.8061951,47.9015497 C26.2806868,46.7014708 26.1534057,46.9331876 26.1534057,50.9073419 C26.1534057,55.2022632 26.5455061,56.0722505 29.0347141,57.3044994 C30.4539217,58.0066435 31.0409068,58.0420771 41.4630377,58.0420771 C49.9423835,58.0420771 52.6595787,57.9343777 53.5496139,57.5623252 L53.5496139,57.5623252 Z M47.0298376,90.4745141 C51.5695302,86.0798194 51.649722,85.0112176 47.7469011,80.9027888 C46.3747828,79.4584047 44.9579064,78.1189226 44.5984422,77.9268354 C44.0464245,77.6312448 43.4580408,78.053184 40.8187063,80.6361045 C39.0992458,82.3182665 37.6926265,83.9216354 37.6926265,84.1990429 C37.6926265,84.4759842 38.6414069,85.7175578 39.8013899,86.9572664 C40.9609068,88.196975 42.3922364,90.0660957 42.9815526,91.1104534 C43.571335,92.1548112 44.134076,93.0094129 44.2319845,93.0094129 C44.3303593,93.0094129 45.5891834,91.8685453 47.0298376,90.4745141 L47.0298376,90.4745141 Z M31.8195128,91.9039788 C32.5869292,91.2955472 33.9865551,89.8716773 34.9292745,88.7387356 C37.6087049,85.5189433 37.3378246,84.3169994 32.9827595,80.1008712 L30.3042615,77.5076936 L27.0047437,80.7936907 C25.1901721,82.6003364 23.7056922,84.1803937 23.7056922,84.3044112 C23.7056922,84.4288949 24.7449214,85.6895839 26.0154013,87.1064604 C27.2858811,88.5233368 28.7050887,90.4311546 29.1685225,91.3459001 C29.6324225,92.2611119 30.1042484,93.0094129 30.2175426,93.0094129 C30.3308367,93.0094129 31.0516301,92.5119442 31.8195128,91.9039788 L31.8195128,91.9039788 Z M98.360954,64.3753609 C96.6722648,63.3160838 93.8758104,60.2580737 94.1662724,59.7881127 C94.5234055,59.2104523 96.575755,58.3917505 97.6676683,58.3917505 C99.2038999,58.3917505 100.507482,59.3148881 101.114981,60.8329367 C101.83018,62.6209332 101.836241,63.7832474 101.133164,64.4858577 C100.410506,65.2089822 99.6412248,65.178211 98.360954,64.3753609 L98.360954,64.3753609 Z M70.1278609,103.044572 C74.8969393,98.7114198 75.7953667,97.723476 76.8560425,95.6501461 L78.0798993,93.2574478 L78.254736,83.2908247 L78.4295727,73.3246678 L83.4998363,68.4861209 C86.2883648,65.8244073 88.7351459,63.6447767 88.9370239,63.6419794 C89.138902,63.6396482 89.4997649,64.5828338 89.7389415,65.7395533 C90.2485321,68.2082472 91.648158,70.0307447 93.5060891,70.6433724 C96.0330619,71.4779262 97.2238163,70.7925664 103.207427,65.0607207 C106.214151,62.180811 107.269233,60.1060824 107.274375,57.0634579 C107.27949,53.3508593 105.847694,51.7479567 102.524864,51.7479567 C100.347099,51.7479567 98.540453,52.6962708 95.0423208,55.6754878 L92.1759317,58.1157416 L91.0495172,57.0238283 C90.4298961,56.4233226 89.8154034,56.0396143 89.68346,56.1710915 C89.5519828,56.3025687 89.4442834,57.3930833 89.4442834,58.5940948 C89.4442834,60.609612 89.3603618,60.8478561 88.3533025,61.6954643 C86.2776415,63.4419662 85.4827174,63.669487 81.8321275,63.5622538 L78.4295727,63.4620141 L78.4594114,59.6156072 C78.4995073,54.4646855 79.0739041,53.1307982 82.7081759,49.7529536 C84.7791746,47.8278852 85.3223339,47.1364644 85.0094928,46.8236233 C84.2122375,46.0263681 82.9170474,46.887497 77.7302259,51.6635688 C72.294437,56.6685601 71.1792121,58.1325259 70.0397432,61.7551419 L69.4723399,63.5589902 L60.6629025,63.8037616 C55.8182946,63.9380361 46.425602,63.9949163 39.7906666,63.9301102 C28.1623957,63.8158836 27.6751841,63.7841799 26.2951399,63.0456697 C25.5076755,62.6241968 24.3472262,61.6912683 23.7164155,60.9728061 C21.5447108,58.4999161 21.4635866,58.0672536 21.2645059,47.9015497 C21.0882705,38.8962952 21.0584317,38.5857852 20.2089586,36.886839 C19.3613504,35.1920887 19.2834898,35.1352085 17.6735936,35.0321715 C16.7602468,34.9734263 16.0128783,35.0279754 16.0128783,35.1524591 C16.0128783,35.2778753 16.3066039,35.797723 16.6651357,36.3082461 C18.634496,39.1102953 18.622374,39.0380294 18.8279819,49.3002432 C19.0154069,58.6472451 19.0475768,58.9945873 19.9874988,61.7136474 C22.021199,67.5998155 25.2106863,71.2438782 29.7079519,72.818807 C30.5154643,73.1018093 36.7890705,73.2850381 50.1060307,73.4151166 L69.3380654,73.6025415 L69.3380654,86.7152924 L69.3380654,99.8280433 L68.4060693,101.401573 C67.893215,102.267365 66.3593146,103.968642 64.9965209,105.183174 C63.6341935,106.396774 62.5194349,107.537642 62.5194349,107.718073 C62.5194349,107.898038 62.9926595,108.045367 63.5717186,108.045367 C64.4351786,108.045367 65.6072837,107.151602 70.1278609,103.044572 L70.1278609,103.044572 Z M50.0286363,109.888845 C50.9480441,109.468771 52.6246113,108.398304 53.7542894,107.5106 C56.1670355,105.615371 60.4740789,100.810392 61.2769289,99.1184395 C62.219182,97.1322949 62.5991604,94.0854743 62.4546287,89.6670018 C62.3334087,85.958133 62.2037964,85.2182242 61.373905,83.5220753 C60.1789545,81.0804228 55.6359983,76.5370003 55.1525166,77.3006869 C54.9790786,77.5748309 54.8354794,79.9227709 54.8331482,82.5192121 C54.8294184,87.8804041 55.0550743,88.5396549 57.6095547,90.5924706 C59.5663268,92.164602 60.4213947,93.6472171 60.4213947,95.4678497 C60.4213947,97.3500248 59.1173462,99.6709234 57.4981255,100.671922 C56.3609877,101.374998 55.8747086,101.401573 44.2711479,101.401573 C31.3388285,101.401573 30.4590503,101.304131 26.831772,99.4676467 C22.8771994,97.4647177 19.5166053,93.6905766 18.0102125,89.5593024 C17.3835979,87.8407744 17.2605128,86.4071136 17.0455803,78.3231318 C16.909907,73.2267592 16.6259723,68.5201558 16.4143033,67.8646348 C15.8431702,66.0952876 14.6953091,65.0355442 13.349766,65.0355442 C11.8056085,65.0355442 11.6167848,65.5148299 12.627574,66.8692313 C14.4649909,69.331398 14.4276924,69.0558554 14.6379627,81.6450287 C14.8211915,92.5706894 14.8985859,93.7180842 15.5904729,95.8067997 C17.9104391,102.80726 23.9471999,108.647738 30.5751418,110.305656 C32.1281578,110.694026 34.520856,110.79753 40.4900133,110.735521 C47.7385089,110.659992 48.4891411,110.592854 50.0286363,109.888845 L50.0286363,109.888845 Z M77.1931277,118.762156 C84.8766169,116.009061 90.030336,110.561617 91.716694,103.409631 C92.1069295,101.754044 92.2323457,98.7780908 92.2360755,91.0862094 L92.2416703,80.945682 L91.2453343,78.8476419 C90.2382751,76.7262902 85.7876326,71.870959 85.189458,72.2406803 C85.0295407,72.3395213 84.898996,74.7023808 84.898996,77.4913755 L84.898996,82.5630379 L87.3634938,85.3594923 C90.1095953,88.4767137 90.4937697,89.2226835 90.4937697,91.4456736 C90.4937697,94.9456708 88.0171499,99.0844047 82.847579,104.226002 C78.7815772,108.270557 75.6834712,110.160192 72.0007114,110.84322 C70.9647458,111.035308 66.2833189,111.192427 61.5976959,111.192427 C55.0019239,111.192427 53.0843152,111.291268 53.1032895,111.629752 C53.1174176,111.869861 55.1940111,113.851344 57.7177203,116.033305 L62.3072997,120 L68.4452327,119.848941 C73.9966469,119.711869 74.8330656,119.6079 77.1931277,118.762156 L77.1931277,118.762156 Z"/>
</svg>
