<svg xmlns="http://www.w3.org/2000/svg" width="120" height="120" viewBox="0 0 120 120">
  <path fill="#F4CA35" fill-rule="evenodd" d="M51.406,3.52166667 C60.9793333,4.25833333 69.066,7.46833333 77.986,9.64833333 L78.0193333,9.65166667 C85.4493333,12.135 93.3126667,14.035 101.332667,14.9483333 L106.922667,15.0016667 L107.096,14.8483333 C110.439333,14.9383333 112.909333,13.4716667 116.162667,12.755 C116.512667,12.6716667 117.352667,12.4616667 117.709333,12.9383333 C117.872667,13.5583333 117.616,14.235 116.912667,14.695 C112.932667,17.7416667 108.182667,20.0083333 103.706,21.6383333 L103.706,21.5483333 C102.239333,21.8316667 100.666,22.4616667 99.1393333,22.965 C93.626,24.635 87.3493333,25.6816667 81.4193333,25.255 C70.0593333,24.6716667 60.4026667,20.6116667 50.3726667,21.0916667 C40.5226667,20.5183333 31.156,24.2816667 25.9126667,31.7083333 C23.2226667,35.595 21.0826667,39.695 20.416,44.2016667 C20.716,48.2816667 26.4426667,49.8516667 28.5893333,53.225 C29.8226667,55.265 30.4326667,57.515 31.3593333,59.635 C33.7393333,63.9016667 36.0993333,68.1683333 39.0226667,72.185 L38.9493333,72.265 C40.6593333,74.9516667 43.3893333,77.2783333 46.616,78.8583333 C50.7993333,81.845 54.4926667,85.595 56.6893333,89.625 L56.5726667,89.6883333 C59.046,93.625 60.4326667,97.7116667 62.346,101.821667 C63.206,104.341667 64.1493333,106.558333 64.886,109.015 C65.136,109.241667 65.136,109.611667 65.2826667,109.935 C65.9593333,111.875 66.536,113.945 67.3626667,115.745 C67.006,116.015 67.6426667,116.118333 67.5626667,116.385 C67.6093333,117.475 68.6726667,119.108333 67.2526667,119.841667 C65.186,118.015 64.1026667,115.338333 62.9893333,113.391667 C60.5493333,109.141667 57.756,105.025 54.7493333,100.978333 L54.8393333,100.898333 C52.9926667,98.5783333 50.9526667,95.9683333 48.8426667,93.565 C39.9426667,83.715 26.8626667,77.795 17.3026667,68.415 L17.2093333,68.495 C16.396,67.7683333 15.8726667,66.8016667 15.2126667,65.9683333 L15.276,65.875 C14.1126667,64.245 13.4193333,62.3816667 12.2926667,60.7116667 L12.356,60.6316667 C9.39933333,56.225 6.55266667,51.5483333 4.63933333,46.9116667 C4.23933333,44.8616667 3.53933333,43.095 3.38266667,40.735 L3.15933333,39.9616667 C3.28266667,37.8116667 -2.05066667,36.565 0.882666667,32.4416667 C2.726,30.455 9.856,28.005 12.2826667,24.2716667 C12.336,23.715 12.466,23.0516667 11.986,22.5483333 C11.986,22.1483333 11.5693333,21.7283333 11.2826667,21.315 C9.93266667,19.6383333 6.276,20.9616667 6.336,18.485 C6.70933333,18.4683333 6.35266667,18.1383333 6.60266667,17.9983333 C6.396,16.7783333 6.31266667,15.9683333 6.656,14.9383333 C7.396,12.9083333 8.11266667,10.5716667 7.96933333,8.525 C8.11933333,7.755 8.88933333,7.295 9.66266667,6.995 C11.1826667,6.61166667 12.5093333,6.40833333 13.9993333,6.21166667 L14.186,6.36166667 C17.6293333,6.08166667 21.7626667,6.325 24.046,9.03166667 C25.0326667,11.0816667 24.2626667,13.515 23.7093333,15.5816667 C23.536,16.7716667 22.2326667,17.7416667 22.536,18.995 C22.9893333,19.455 23.936,19.4283333 24.5426667,19.1716667 C29.7393333,16.0216667 34.2726667,11.6516667 38.0593333,7.23833333 C41.546,3.97166667 46.6826667,2.845 51.406,3.52166667 Z M101.500667,30.7583333 C102.527333,32.4783333 101.537333,34.3683333 101.070667,36.015 C96.9973333,47.4116667 89.3773333,56.8416667 83.2606667,67.225 C78.0206667,75.755 74.594,85.2283333 71.104,94.4883333 C69.8973333,97.2683333 69.464,100.358333 67.9973333,103.005 C67.8773333,103.288333 67.504,103.118333 67.2473333,103.188333 C66.3473333,102.431667 66.4606667,101.348333 66.2506667,100.388333 C66.9406667,88.795 71.4106667,78.3216667 75.6073333,67.855 C80.864,56.1883333 87.904,45.045 92.6906667,32.9816667 C93.3606667,31.4616667 94.6773333,29.5983333 96.7106667,29.025 C98.7473333,28.7183333 100.290667,29.4516667 101.500667,30.7583333 Z M83.9583333,30.026 C85.4283333,31.136 84.6716667,33.2326667 84.095,34.5326667 C77.6883333,48.7126667 67.315,60.9426667 63.025,75.8126667 C61.8383333,78.9693333 61.0683333,82.226 60.0816667,85.4026667 C59.9083333,85.976 59.075,85.9926667 58.475,85.8526667 C57.9083333,84.5026667 58.075,82.7893333 58.075,81.3326667 C59.4283333,69.3826667 62.285,57.7726667 68.1216667,47.3693333 C70.775,42.1726667 73.3416667,37.496 76.1283333,32.4226667 C76.915,30.9893333 78.2316667,29.6893333 80.145,29.2226667 C81.555,29.1393333 82.9116667,29.4693333 83.9583333,30.026 Z M68.1526667,29.479 C68.8693333,32.699 66.5593333,35.339 65.536,38.219 C60.0726667,49.129 53.5093333,59.8056667 50.2693333,71.4656667 C50.1193333,71.8356667 49.9026667,72.3356667 49.4693333,72.499 C49.006,72.6256667 48.6193333,72.3956667 48.4993333,72.069 C47.4026667,67.4356667 48.6626667,62.6123333 49.8526667,58.2056667 C52.966,48.4156667 56.736,38.399 62.0026667,29.2956667 C62.6126667,28.829 62.7093333,28.4356667 63.4693333,28.219 C65.3026667,28.0256667 67.1393333,28.1623333 68.1526667,29.479 Z M51.228,25.8803333 C52.038,26.047 52.7613333,26.3303333 53.3513333,26.9203333 C54.698,28.7136667 52.8946667,30.2936667 52.358,31.8736667 C46.7413333,40.307 44.7813333,49.8603333 41.0546667,58.8936667 C40.7746667,59.207 40.2213333,59.3003333 39.8213333,59.177 C38.8313333,58.467 38.8313333,57.3003333 38.9446667,56.2736667 C39.6913333,46.4803333 42.278,37.2936667 46.448,28.537 C47.4213333,27.1336667 49.0846667,25.547 51.228,25.8803333 Z"/>
</svg>
