<svg xmlns="http://www.w3.org/2000/svg" width="120" height="120" viewBox="0 0 120 120">
  <defs>
    <linearGradient id="ha-hawaiian-airlines-a" x1="50.939%" x2="49.627%" y1="90.246%" y2="33.866%">
      <stop offset="0%" stop-color="#D2068A"/>
      <stop offset="73.696%" stop-color="#413691"/>
      <stop offset="100%" stop-color="#413691"/>
    </linearGradient>
    <linearGradient id="ha-hawaiian-airlines-b" x1="52.798%" x2="48.888%" y1="56.521%" y2="47.386%">
      <stop offset="0%" stop-color="#D2068A"/>
      <stop offset="73.696%" stop-color="#413691"/>
      <stop offset="100%" stop-color="#413691"/>
    </linearGradient>
  </defs>
  <g fill="none" fill-rule="evenodd">
    <path fill="#FFF" fill-rule="nonzero" d="M69.2789458,85.0355768 C67.3189459,78.8945243 66.6305249,73.098735 67.2747354,66.305051 C67.2747354,66.2966299 67.2747354,66.2861036 67.2768406,66.2755773 C67.2789459,66.2608404 67.2810511,66.2418931 67.2810511,66.225051 C67.6726301,62.1555774 68.5378932,57.7303143 69.8936827,52.6566303 L69.8936827,52.6566303 C70.9905247,48.5408409 71.3463142,44.4439989 71.2010511,40.5176832 C70.2536827,30.4313677 64.1252618,22.8461047 56.7652619,18.5976837 C56.7610514,18.599789 56.7589461,18.6018943 56.7547356,18.6039995 C56.7589461,18.6018943 56.7610514,18.599789 56.7652619,18.599789 L56.7652619,18.599789 C57.2957882,23.1345257 57.1315777,28.5471572 55.9357883,35.1597886 C54.3757883,43.7871568 51.1231568,46.6397883 50.6621042,47.2166304 C50.6326305,47.2524199 50.6010516,47.2839988 50.6157884,47.3239988 C50.6242095,47.3534725 50.7105252,47.3913672 50.7378937,47.4103146 C53.4536831,49.1092619 55.8284199,51.1639987 56.942104,52.1113671 C57.7968409,52.8376829 57.4599988,53.1639987 56.6073672,52.7724197 C54.3294725,51.7282092 50.5252621,50.3955777 45.7063148,49.797683 C41.4705255,49.2755777 36.449473,49.3387356 30.9863152,50.3955777 C30.9863152,50.3955777 27.1589469,50.9618935 27.7231574,54.8566302 C27.8789469,55.9471565 28.4284205,57.0650512 28.8663153,58.1492617 C29.0052626,58.4924196 29.3715784,59.5471564 29.1736837,60.4018932 C29.1231574,60.6166301 28.8515784,61.0103143 28.6936837,61.2545248 C28.4115784,61.6861037 28.3084205,62.2818932 28.6010521,62.97663 C28.8515784,63.5661037 29.8578942,64.4292615 31.2747363,64.5661036 C32.8873678,64.7176826 34.8789467,64.4839984 36.4031572,64.7534721 C38.6242098,65.1492615 39.9505255,66.6524194 39.6873676,67.145051 C39.5126308,67.473472 37.5336835,67.0755773 36.8599993,66.9408404 C35.8684204,66.7429457 34.0663151,67.5429457 33.1231573,67.8503141 C31.6578941,68.3282088 30.8957889,68.7092614 29.6284205,68.1682088 C28.8368416,67.8292615 28.2136837,66.2355773 27.9926311,66.9766299 C27.8894732,67.3197878 28.0852627,67.6945246 28.3589469,68.0987351 C28.615789,68.4797878 29.1315784,69.1976825 29.2031574,69.6039983 C29.2831574,70.0650509 29.392631,70.7176824 28.1168416,71.6229456 C27.2115785,72.2608403 26.5905259,72.7808403 26.207368,73.170314 C24.9842101,74.4061034 24.7715785,75.6839981 27.1168416,77.6776823 C28.7926311,79.1050507 32.4915783,82.9239979 33.6157888,85.2566294 C33.7947362,85.6229452 34.6873678,87.0818926 33.7063151,88.5429452 C32.9505257,89.6671557 32.8136836,89.8839978 32.6157889,90.2671556 C32.072631,91.3155767 32.4621047,92.246103 33.3547362,93.6439977 C33.7905257,94.3261029 34.1315783,95.1534713 35.0642098,98.071366 C36.0999993,101.315576 37.7736835,104.189261 40.0578939,106.637682 L40.0515781,106.633471 L40.0599992,106.639787 C40.2326308,106.787155 42.834736,109.66926 45.7778938,110.534524 C46.5021043,109.353471 48.0031569,107.740839 51.0178937,106.199787 C54.0957883,104.62505 57.4852619,103.749261 57.4852619,103.749261 C57.4852619,103.749261 61.7126302,102.536629 65.9947354,101.001892 C69.4115774,99.7808396 72.9715773,95.3492608 72.9715773,94.4334713 C72.9715773,92.5429451 71.1147353,90.7787346 69.2789458,85.0355768" transform="matrix(1 0 0 -1 0 129.132)"/>
    <path fill="url(#ha-hawaiian-airlines-a)" fill-rule="nonzero" d="M8,69.9221035 C8,45.6042094 25.4147364,25.3999994 48.3221043,21.3663153 L48.3221043,21.3663153 C48.1368411,19.5999995 47.9157885,17.9536838 47.6484201,16.6357891 L47.6484201,16.6357891 C46.0757885,8.85263136 40.7452623,1.69684206 37.8610519,0 L37.8610519,0 C45.5705254,0.667368404 51.6989463,2.9726315 55.3494725,6.58736826 L55.3494725,6.58736826 L55.3410514,6.58736826 C55.0842093,6.58526299 52.6715778,6.61473668 52.4589463,6.6189472 L52.4589463,6.6189472 C53.9157883,7.17894719 55.3557883,7.86526296 56.7515777,8.66947347 L56.7515777,8.66947347 C56.753683,8.66947347 56.753683,8.67157873 56.753683,8.67157873 L56.753683,8.67157873 C56.753683,8.67578926 56.7557883,8.67999978 56.7557883,8.68421031 L56.7557883,8.68421031 C56.7578935,8.68210505 56.762104,8.67999978 56.7642093,8.67789452 L56.7642093,8.67789452 C57.2947356,13.2126312 57.1305251,18.627368 55.9347356,25.2399994 L55.9347356,25.2399994 C54.3768409,33.8652623 51.1242094,36.7199991 50.6610516,37.2947359 L50.6610516,37.2947359 C50.6315779,37.3326306 50.5999989,37.3642096 50.6147358,37.4021043 L50.6147358,37.4021043 C50.6252621,37.4336833 50.7094726,37.4694727 50.7389463,37.4884201 L50.7389463,37.4884201 C53.4547357,39.1894727 55.8294725,41.2421042 56.9431567,42.1894726 L56.9431567,42.1894726 C57.7957882,42.9157884 57.4589461,43.2421042 56.6063146,42.8505252 L56.6063146,42.8505252 C54.3284199,41.8063147 50.5263147,40.4736832 45.7052622,39.8757885 L45.7052622,39.8757885 C41.4694728,39.3536832 36.4484203,39.4168411 30.9852626,40.4757885 L30.9852626,40.4757885 C30.9852626,40.4757885 27.1599995,41.039999 27.72421,44.9347357 L27.72421,44.9347357 C27.8778942,46.025262 28.4273679,47.1431567 28.8652626,48.2273672 L28.8652626,48.2273672 C29.00421,48.5684198 29.3705258,49.6252619 29.172631,50.4799987 L29.172631,50.4799987 C29.12421,50.6947356 28.8526311,51.0884198 28.6926311,51.3326303 L28.6926311,51.3326303 C28.4105258,51.7642092 28.3094732,52.3599987 28.6021047,53.0568408 L28.6021047,53.0568408 C28.8505258,53.6442092 29.8568416,54.5073671 31.2757889,54.6442092 L31.2757889,54.6442092 C31.9747362,54.7094723 32.7473678,54.7052618 33.5221046,54.6968407 L33.5221046,54.6968407 C34.5284204,54.6884197 35.5410519,54.6799986 36.4042098,54.8336828 L36.4042098,54.8336828 C38.6231571,55.2252618 39.9494729,56.7305249 39.6884203,57.2231565 L39.6884203,57.2231565 C39.5115782,57.5515775 37.5326308,57.1536828 36.8589466,57.0189459 L36.8589466,57.0189459 C35.869473,56.8210512 34.0673678,57.6231565 33.1242099,57.9284196 L33.1242099,57.9284196 C31.6589468,58.4063143 30.8968415,58.787367 29.6273679,58.2463143 L29.6273679,58.2463143 C28.8378942,57.907367 28.2147363,56.3136828 27.9915784,57.0547354 L27.9915784,57.0547354 C27.8905258,57.3978933 28.08421,57.7726301 28.3578942,58.1768407 L28.3578942,58.1768407 C28.6147363,58.5578933 29.1305258,59.275788 29.20421,59.684209 L29.20421,59.684209 C29.2821047,60.1431564 29.3936837,60.795788 28.1178942,61.6989458 L28.1178942,61.6989458 C27.2126311,62.3410511 26.5894732,62.8589458 26.2063153,63.2505247 L26.2063153,63.2505247 C24.9831575,64.4821037 24.7705259,65.7599984 27.1178943,67.757893 L27.1178943,67.757893 C28.7915784,69.1831562 32.4905257,73.0021034 33.6168415,75.334735 L33.6168415,75.334735 C33.7936836,75.7010507 34.6884204,77.1599981 33.7073678,78.6210507 L33.7073678,78.6210507 C32.9515783,79.7452612 32.8147362,79.9621033 32.6168415,80.3452611 L32.6168415,80.3452611 C32.0736836,81.3936822 32.461052,82.3263137 33.3536836,83.7221032 L33.3536836,83.7221032 C33.789473,84.4042084 34.1305257,85.2315768 35.0631572,88.1473662 L35.0631572,88.1473662 C36.0989467,91.3936819 37.7726308,94.2673661 40.0589466,96.7136818 L40.0589466,96.7136818 L40.0526308,96.7136818 C40.2105255,97.1894713 40.4821045,100.943155 42.6694728,104.442103 L42.6694728,104.442103 C43.3810517,105.804208 44.3347359,107.246313 45.6357885,108.650524 L45.6357885,108.650524 C46.511578,109.591576 47.8884201,110.684208 49.7031569,111.736839 L49.7031569,111.736839 C51.5178936,112.789471 53.7642094,113.802102 56.3789462,114.58105 L56.3789462,114.58105 C59.5178934,115.517892 63.1810513,116.122102 67.2505248,116.06105 L67.2505248,116.06105 C70.2905248,116.016839 73.1852615,115.776839 76.6273667,114.854734 L76.6273667,114.854734 C76.6273667,114.854734 76.6315772,114.852629 76.6336825,114.852629 L76.6336825,114.852629 C76.6484193,114.848418 76.7936825,114.810523 77.0442088,114.736839 L77.0442088,114.736839 C70.8631563,117.606313 63.9894723,119.210523 56.7431567,119.210523 L56.7431567,119.210523 C29.8231573,119.210523 8,97.1452607 8,69.9221035" transform="matrix(1 0 0 -1 0 119.21)"/>
    <path fill="url(#ha-hawaiian-airlines-b)" fill-rule="nonzero" d="M27.4568416,57.6672356 C27.3936837,57.5051304 27.5452627,57.4230251 27.7326311,57.3324988 L27.7326311,57.3324988 C28.6336837,56.9135514 29.0505258,56.6988146 30.6694731,55.7282883 L30.6694731,55.7282883 C32.5621046,54.5935515 33.3852625,55.5324988 33.789473,56.2567093 L33.789473,56.2567093 C33.9031572,56.4524988 34.0715783,57.2567093 33.8863151,57.5409198 L33.8863151,57.5409198 C33.701052,57.8251303 33.3536836,57.6419725 32.9873678,57.2840777 L32.9873678,57.2840777 C32.5747362,56.8819725 31.5684205,57.0988146 31.2315784,57.134604 L31.2315784,57.134604 C30.8989468,57.1724988 29.3536837,57.5619725 28.3473679,57.7724988 L28.3473679,57.7724988 C28.1599995,57.8124988 28.0063153,57.8272356 27.8799995,57.8272356 L27.8799995,57.8272356 C27.6231574,57.8272356 27.4905258,57.7577619 27.4568416,57.6672356" transform="matrix(1 0 0 -1 0 113.027)"/>
    <path fill="#413691" fill-rule="nonzero" d="M49.6094726,35.8624551 C49.3652621,35.9361393 42.9084202,37.3529814 40.7673676,37.2119287 C38.6284203,37.0750866 36.7842098,35.8266656 35.657894,34.5403499 C35.0473677,33.8435078 34.7715783,33.1382446 34.6663151,32.5424552 C34.5715783,31.508771 35.3126309,31.0203499 36.1863151,31.2982447 C36.8242098,31.5024552 37.2915782,31.957192 37.9505256,32.9361394 C38.3547361,33.5382446 38.5989466,34.3024551 39.2221045,34.6982446 C40.2515781,35.3487709 42.0199991,35.5129814 44.9084201,35.4371919 C47.1168411,35.3782446 48.899999,35.2687709 49.3357884,35.2498235 C50.1399989,35.214034 49.9568411,35.7550867 49.6094726,35.8624551" transform="matrix(1 0 0 -1 0 68.443)"/>
    <path fill="#413691" fill-rule="nonzero" d="M45.8764201,39.7605022 C44.6701043,40.4741864 43.0469465,40.4341864 42.7290518,40.4931337 C42.411157,40.5520811 42.3501044,40.8741864 42.8279991,41.1057653 C43.4806307,41.42366 44.7037886,41.1583969 44.7479991,41.3647127 C44.7879991,41.54366 44.5101044,42.0005021 43.5795781,42.3541863 C43.0785254,42.5478705 42.1248413,42.6762916 41.434315,42.6047126 C39.4511571,42.3962916 38.394315,41.1626074 38.1711571,40.935239 C37.9479993,40.7099758 37.6111572,40.3689232 37.5248414,39.846818 C37.4090519,39.1562917 37.8511571,38.6236601 38.2722098,37.9394496 C38.4869466,37.5941864 38.6764203,37.3415549 38.745894,37.0805022 C38.8448413,36.7078707 38.7795782,36.5562917 38.4701045,36.3141865 C38.1227361,36.0426075 38.3269466,35.5647128 39.025894,35.758397 C39.8153676,35.9815549 40.2469466,36.2047128 40.842736,36.7078707 C41.6932623,37.4215549 41.6785255,37.8805022 42.2722097,38.4741864 C42.8658939,39.0678706 44.7353675,39.0636601 45.6974727,38.9289233 C46.827999,38.7710285 47.0848411,39.0489233 45.8764201,39.7605022" transform="matrix(1 0 0 -1 0 78.338)"/>
    <path fill="#413691" fill-rule="nonzero" d="M105.99305,67.9857042 C105.971998,70.1793883 105.355155,74.5583356 105.256208,75.5183355 C104.98884,78.1709671 104.35305,81.8614933 102.315156,86.9604405 C100.091998,92.5162299 98.294103,96.4362298 92.8541031,101.802545 C86.4456822,108.122545 78.8941035,110.741493 77.0709456,111.28465 C76.801472,111.366756 76.649893,111.40465 76.6330509,111.408861 C76.6330509,111.408861 76.6288404,111.410966 76.6288404,111.410966 C73.1846299,112.333071 70.2898932,112.573071 67.2519985,112.617282 C56.3972619,112.779387 48.4330516,108.219387 45.6372622,105.206756 C44.3341044,103.802545 43.3825254,102.36044 42.6709465,100.998335 C40.4835781,97.4993876 40.2119992,93.7457035 40.0541045,93.2678088 L40.0604203,93.2741246 C40.2309466,93.421493 42.835157,96.3035982 45.7783148,97.1688613 C46.5025254,95.9878087 48.0035779,94.3751772 51.0183147,92.8341246 C54.0962094,91.2593878 57.4835777,90.3857036 57.4835777,90.3857036 C57.4835777,90.3857036 61.7130513,89.1709668 65.9951564,87.6383352 C69.4119985,86.4151774 72.9719984,81.9835985 72.9719984,81.0699144 C72.9719984,79.1793881 71.1151563,77.4151776 69.2793669,71.6699146 C67.3172617,65.5288621 66.6309459,59.7330728 67.2730511,52.9393887 C67.2751564,52.9309677 67.2751564,52.9204414 67.2772617,52.9120203 C67.2793669,52.8951782 67.2793669,52.8762308 67.2814722,52.8593887 C67.6730511,48.7920204 68.5383143,44.3646521 69.8919985,39.290968 L69.8941037,39.290968 C70.9909458,35.1751787 71.3467353,31.0783367 71.2014721,27.152021 C70.2519984,17.0657054 64.1256828,9.48044246 56.765683,5.23202151 C56.7614725,5.23412677 56.7593672,5.2383373 56.7551567,5.24044256 C56.7551567,5.23623204 56.7551567,5.23202151 56.7551567,5.22781098 C55.357262,4.42360048 53.917262,3.73517944 52.4583147,3.17517946 C52.6709463,3.16886367 55.085683,3.14149525 55.3404199,3.14526766 C61.5214723,3.21728472 70.2688405,4.4109689 77.7614719,12.2678108 C80.3488403,14.9793897 82.3762087,17.8151791 83.6562086,20.4888632 C84.1804191,21.6067579 86.4098928,25.5751789 87.6709454,33.4530734 C87.8372612,34.505705 88.3930506,37.8909681 88.3930506,37.8909681 C88.3930506,37.8909681 88.7425243,35.4804418 88.7867348,33.3288629 C88.8435769,30.377284 88.9530506,26.6678104 87.1993664,21.0425474 C87.7951559,21.1730737 90.7151558,23.3478105 94.1741031,28.0299157 C95.4393662,29.7393893 96.6035767,31.5246524 97.6688399,33.3667576 C102.637261,41.1457048 106.165682,50.4151783 105.99305,67.9857042" transform="matrix(1 0 0 -1 0 115.767)"/>
    <path fill="#EF3138" fill-rule="nonzero" d="M79.1730509,16.8310233 C79.1393666,16.4962864 79.2551561,16.3720759 79.5625245,16.6183917 C80.9077877,17.7026022 83.1414718,19.3615495 86.183577,19.9068127 C89.8214716,20.557339 91.8825242,22.334181 92.8319979,24.3447073 C93.3983137,25.5531283 93.8593663,27.7257598 95.6298925,29.0268124 C96.1941031,29.4415493 95.6193662,29.5889177 95.1498926,29.5026019 C94.7077873,29.4226019 92.3035768,28.7741809 90.7393664,27.0604967 C89.6972611,28.1762861 89.7730506,29.7068124 89.920419,30.5931282 C89.9877874,30.8562861 89.7814716,31.0457597 89.431998,30.759444 C88.240419,29.799444 87.4446296,28.5278651 87.1856822,27.6099704 C87.1856822,27.6099704 86.2362086,28.2920756 86.7246296,30.007865 C86.8067349,30.2941808 86.6088401,30.1868124 86.5056822,30.1152335 C84.7941033,28.8647072 84.9414718,26.9973388 84.9267349,26.7447072 C84.9267349,26.7447072 83.1983139,27.7026019 80.5519982,28.0668125 C80.0930508,29.8289177 77.269893,30.2920756 76.8067351,28.4857598 C76.3877878,26.8478651 79.1119982,25.6015494 80.2698929,26.9615493 C80.2698929,26.9615493 84.0004192,26.5699704 87.3141033,23.254181 C87.6509454,22.9173389 87.7604191,22.6478652 87.551998,22.454181 C87.3983138,22.3110231 86.9204191,22.6036547 86.3372612,23.0057599 C85.6804191,23.462602 81.166735,26.3699704 77.2635772,24.3720757 C77.0656825,24.2710231 77.0509456,24.1004968 77.2362088,24.0583915 C77.9730509,23.8436547 79.6130508,23.2773389 80.0277877,22.2036547 C78.9856824,21.9320758 77.3162088,21.2962863 76.1183141,18.8289179 C75.8067351,18.188918 76.2109457,18.1004969 76.549893,18.3615495 C76.9562088,18.6689179 79.3919982,20.0015495 80.3035771,19.9068127 C80.3035771,19.9068127 79.478314,18.6983916 79.1730509,16.8310233" transform="matrix(1 0 0 -1 0 47.391)"/>
    <path fill="#EF3138" fill-rule="nonzero" d="M110.297261,37.4776771 C110.143576,36.2292561 110.530945,32.7155719 111.490945,29.4439931 C112.499366,25.9892563 110.707787,22.9387301 107.602524,21.1471512 C106.629892,22.6545195 104.669892,23.4082037 102.926734,23.4713616 C101.905682,23.5092564 102.185682,23.0945195 102.68884,22.8839932 C109.916208,19.8566249 107.366734,11.4313619 106.434103,9.6418883 C105.480419,7.81451992 105.707787,5.4018884 105.707787,5.4018884 C103.461471,6.05873049 101.400419,5.62504629 99.5877872,5.33873051 C95.9983136,4.76820421 93.6067347,5.40609893 91.7393663,6.26083575 C90.2551558,6.94083573 87.9204191,8.48609885 87.5646296,11.4376777 C87.4972612,11.9766251 87.1498928,12.3492566 86.9372612,11.3492567 C86.5751559,9.6418883 86.8277875,7.55767782 88.0509454,6.24609891 C86.7141033,-0.332848297 73.8067352,0.147151691 73.8067352,0.147151691 C72.9498931,2.98715162 67.0825248,3.85030949 65.7562091,7.97873044 C65.1267354,9.93662513 65.6425249,11.9808356 65.6425249,11.9808356 C69.0172616,11.168204 70.9709458,12.7934672 72.0656826,14.1555724 C72.7035773,14.9513618 72.1941037,14.9871513 71.7393668,14.696625 C67.4635775,11.9955724 63.4867355,14.6945197 62.6551565,18.5029407 C61.5456829,22.6692564 57.4846303,24.0608353 57.4846303,24.0608353 C60.442525,25.9239932 59.6088408,29.1429404 61.1498934,31.8671509 C65.2067354,39.0460981 70.9772616,36.8966245 70.9772616,36.8966245 C71.5351563,35.1934666 73.2362089,33.9618877 74.9077878,33.4566245 C75.8825246,33.1618877 75.7288404,33.6460982 75.2867352,33.963993 C71.1877879,36.9155718 72.2004194,41.6166243 75.4277878,43.8103085 C81.0572613,47.6439926 82.0214718,49.3029399 82.0214718,49.3029399 C83.055156,48.5197821 85.7962086,47.8397821 88.6825243,47.5850452 C95.145682,47.0103084 96.6677873,43.6439927 96.7983136,42.3597822 C96.0362083,41.957677 94.7351557,40.7471507 94.12884,38.8145191 C93.8256821,37.8418876 94.3141031,37.9934665 94.6362084,38.4313613 C97.1519978,41.877677 100.250945,41.2292559 103.158313,39.8966244 C104.994103,39.0524139 107.655155,36.9050455 110.297261,37.4776771" transform="matrix(1 0 0 -1 0 49.442)"/>
  </g>
</svg>
