<svg xmlns="http://www.w3.org/2000/svg" width="120" height="120" viewBox="0 0 120 120">
  <g fill="none" fill-rule="evenodd">
    <path fill="#FFF" fill-rule="nonzero" d="M69.2789458,85.0355768 C67.3189459,78.8945243 66.6305249,73.098735 67.2747354,66.305051 C67.2747354,66.2966299 67.2747354,66.2861036 67.2768406,66.2755773 C67.2789459,66.2608404 67.2810511,66.2418931 67.2810511,66.225051 C67.6726301,62.1555774 68.5378932,57.7303143 69.8936827,52.6566303 L69.8936827,52.6566303 C70.9905247,48.5408409 71.3463142,44.4439989 71.2010511,40.5176832 C70.2536827,30.4313677 64.1252618,22.8461047 56.7652619,18.5976837 C56.7610514,18.599789 56.7589461,18.6018943 56.7547356,18.6039995 C56.7589461,18.6018943 56.7610514,18.599789 56.7652619,18.599789 L56.7652619,18.599789 C57.2957882,23.1345257 57.1315777,28.5471572 55.9357883,35.1597886 C54.3757883,43.7871568 51.1231568,46.6397883 50.6621042,47.2166304 C50.6326305,47.2524199 50.6010516,47.2839988 50.6157884,47.3239988 C50.6242095,47.3534725 50.7105252,47.3913672 50.7378937,47.4103146 C53.4536831,49.1092619 55.8284199,51.1639987 56.942104,52.1113671 C57.7968409,52.8376829 57.4599988,53.1639987 56.6073672,52.7724197 C54.3294725,51.7282092 50.5252621,50.3955777 45.7063148,49.797683 C41.4705255,49.2755777 36.449473,49.3387356 30.9863152,50.3955777 C30.9863152,50.3955777 27.1589469,50.9618935 27.7231574,54.8566302 C27.8789469,55.9471565 28.4284205,57.0650512 28.8663153,58.1492617 C29.0052626,58.4924196 29.3715784,59.5471564 29.1736837,60.4018932 C29.1231574,60.6166301 28.8515784,61.0103143 28.6936837,61.2545248 C28.4115784,61.6861037 28.3084205,62.2818932 28.6010521,62.97663 C28.8515784,63.5661037 29.8578942,64.4292615 31.2747363,64.5661036 C32.8873678,64.7176826 34.8789467,64.4839984 36.4031572,64.7534721 C38.6242098,65.1492615 39.9505255,66.6524194 39.6873676,67.145051 C39.5126308,67.473472 37.5336835,67.0755773 36.8599993,66.9408404 C35.8684204,66.7429457 34.0663151,67.5429457 33.1231573,67.8503141 C31.6578941,68.3282088 30.8957889,68.7092614 29.6284205,68.1682088 C28.8368416,67.8292615 28.2136837,66.2355773 27.9926311,66.9766299 C27.8894732,67.3197878 28.0852627,67.6945246 28.3589469,68.0987351 C28.615789,68.4797878 29.1315784,69.1976825 29.2031574,69.6039983 C29.2831574,70.0650509 29.392631,70.7176824 28.1168416,71.6229456 C27.2115785,72.2608403 26.5905259,72.7808403 26.207368,73.170314 C24.9842101,74.4061034 24.7715785,75.6839981 27.1168416,77.6776823 C28.7926311,79.1050507 32.4915783,82.9239979 33.6157888,85.2566294 C33.7947362,85.6229452 34.6873678,87.0818926 33.7063151,88.5429452 C32.9505257,89.6671557 32.8136836,89.8839978 32.6157889,90.2671556 C32.072631,91.3155767 32.4621047,92.246103 33.3547362,93.6439977 C33.7905257,94.3261029 34.1315783,95.1534713 35.0642098,98.071366 C36.0999993,101.315576 37.7736835,104.189261 40.0578939,106.637682 L40.0515781,106.633471 L40.0599992,106.639787 C40.2326308,106.787155 42.834736,109.66926 45.7778938,110.534524 C46.5021043,109.353471 48.0031569,107.740839 51.0178937,106.199787 C54.0957883,104.62505 57.4852619,103.749261 57.4852619,103.749261 C57.4852619,103.749261 61.7126302,102.536629 65.9947354,101.001892 C69.4115774,99.7808396 72.9715773,95.3492608 72.9715773,94.4334713 C72.9715773,92.5429451 71.1147353,90.7787346 69.2789458,85.0355768" transform="matrix(1 0 0 -1 0 129.132)"/>
    <path fill="#C7372B" d="M76.787619,33.68 C75.7485714,33.1361905 74.6847619,32.6561905 73.5914286,32.2419048 C70.9895238,31.2638095 68.2790476,30.6542857 65.3885714,30.3180952 C65.3685714,30.3180952 65.347619,30.3180952 65.327619,30.3161905 C63.2580952,30.1114286 61.1733333,30.0304762 59.0885714,30.0038095 L58.7990476,30.0038095 C50.7219048,30.8552381 46.8219048,34.9619048 42.2028571,38.3142857 C43.2390476,39.6285714 44.1580952,41.0904762 44.9333333,42.6904762 C45.0514286,42.9352381 45.16,43.1714286 45.2761905,43.4219048 C46.8542857,42.8961905 48.552381,42.2561905 50.3990476,41.5095238 C60.9752381,37.212381 68.7857143,35.8628571 74.5133333,35.8628571 C77.2742857,35.8628571 79.5447619,36.172381 81.4114286,36.6247619 C79.94,35.4980952 78.4009524,34.5180952 76.787619,33.68 M44.3895238,46.6495238 C45.0352381,47.1885714 45.927619,47.7628571 46.8714286,48.3152381 C46.48,46.5514286 45.9390476,44.9209524 45.2733333,43.4190476 C44.8209524,43.567619 44.3828571,43.7114286 43.9504762,43.84 C43.1561905,44.0866667 42.3790476,44.2980952 41.6390476,44.4857143 C42.5990476,45.1980952 43.5161905,45.9247619 44.3885714,46.6495238 M35.3009524,57.7352381 L35.3228571,57.7009524 C35.4142857,57.5628571 35.512381,57.427619 35.5980952,57.2942857 C35.5980952,57.2942857 35.5980952,57.2904762 35.5914286,57.287619 L35.5980952,57.2838095 L35.6066667,57.2685714 C28.7266667,52.0209524 25.8228571,41.8685714 16.1095238,38.3914286 C23.5133333,35.6761905 30.7647619,37.8190476 36.9057143,41.3552381 C38.9009524,40.5504762 40.5942857,39.4780952 42.2057143,38.3104762 C39.2019048,34.4885714 35.2466667,31.8161905 31.0733333,30 L0.0561904762,30 C0.108571429,30.02 0.774285714,30.2552381 0.798095238,30.2666667 C0.988571429,30.3342857 1.19142857,30.4104762 1.38761905,30.4933333 C1.80666667,30.6657143 2.22571429,30.8647619 2.62952381,31.0790476 C2.83047619,31.1790476 3.02952381,31.292381 3.23619048,31.4057143 C3.41142857,31.5038095 3.58380952,31.6114286 3.76285714,31.7133333 C3.95047619,31.8228571 4.08761905,31.9057143 4.10761905,31.9238095 C4.12285714,31.9333333 4.09714286,31.9180952 4.01142857,31.867619 C6.14857143,33.1933333 8.33333333,35.1095238 10.2542857,37.7466667 C14.8447619,44.0638095 22.6409524,54.552381 34.8961905,58.3142857 C35.0295238,58.12 35.1666667,57.9295238 35.3,57.7352381 M39.067619,59.2885714 L39.067619,59.292381 L38.9,59.2580952 C37.7038095,59.0571429 36.5380952,58.7885714 35.407619,58.4609524 C35.2390476,58.4152381 35.0666667,58.3628571 34.8961905,58.3104762 C34.1152381,59.4152381 33.2742857,60.4761905 32.3685714,61.4819048 C32.5409524,61.4866667 32.72,61.4885714 32.8904762,61.4885714 C33.1504762,61.4885714 33.412381,61.4866667 33.6714286,61.4685714 C36.1580952,61.3514286 38.567619,60.8485714 40.9038095,60.0828571 L41.1371429,60.0066667 L41.1933333,59.9933333 C40.3552381,59.7857143 38.9933333,59.2552381 39.067619,59.2885714"/>
    <path fill="#BAD243" d="M101.461905,63.292381 C100.634286,61.9285714 99.7790476,60.5114286 98.8904762,59.0495238 L98.6238095,58.6085714 C92.78,60.8752381 90.06,65.6838095 86.7647619,70.3704762 L86.7685714,70.3704762 C88.1742857,70.2628571 90.1,70.4809524 91.3247619,71.6971429 L91.46,71.7428571 C92.6580952,72.1990476 94,72.6009524 95.2209524,73.2466667 C96.0914286,73.7009524 96.9228571,74.1657143 97.7219048,74.6314286 C101.044762,73.2580952 104.115238,72.2733333 106.660952,71.8238095 C105.062857,69.2438095 103.33619,66.3952381 101.459048,63.2914286 M98.3571429,58.1771429 C93.8095238,56.3047619 88.6628571,55.4266667 83.4152381,55.4266667 C82.5885714,55.4266667 81.7561905,55.4514286 80.9228571,55.4971429 C79.9647619,57.5114286 79.0933333,59.567619 78.192381,61.6047619 C77.567619,62.992381 76.9409524,64.3828571 76.26,65.7428571 C76.1552381,65.9419048 75.8152381,66.7342857 75.5180952,67.1666667 L75.5180952,67.1733333 C75.5180952,67.1733333 75.5114286,67.1819048 75.5095238,67.187619 C75.4761905,67.2342857 75.4485714,67.2771429 75.4152381,67.3238095 C75.3628571,67.3866667 75.3038095,67.4542857 75.2819048,67.4847619 C76.2628571,66.3542857 77.2333333,65.3285714 78.2466667,64.5266667 C83.4857143,60.432381 90.7457143,55.8238095 98.3961905,58.2380952 C98.3838095,58.2209524 98.3704762,58.1971429 98.3571429,58.1771429 M88.2514286,43.2657143 C87.5066667,42.3819048 86.747619,41.5285714 85.9457143,40.6971429 C85.5142857,40.2428571 84.5885714,39.3438095 84.5771429,39.3371429 C84.2171429,38.9961905 83.7047619,38.5295238 83.6238095,38.4504762 C83.6238095,38.4504762 83.6171429,38.4485714 83.6152381,38.4447619 L83.6171429,38.4447619 C75.3619048,41.4542857 71.6161905,48.1142857 67.0514286,54.5990476 L67.06,54.5990476 C68.9790476,54.4571429 71.6028571,54.7457143 73.2704762,56.4114286 C73.2685714,56.4085714 75.4447619,56.0638095 76.5428571,55.9266667 C76.5466667,55.9266667 77.092381,55.8504762 77.3657143,55.8133333 C77.6495238,55.7761905 79.7952381,55.5666667 80.0809524,55.5466667 L80.0914286,55.5466667 C80.0914286,55.5466667 80.1009524,55.5466667 80.1095238,55.5447619 C80.227619,55.5380952 80.8009524,55.4990476 80.9209524,55.4961905 C81.292381,54.7152381 81.6790476,53.9380952 82.08,53.1695238 C83.3552381,50.7447619 84.8371429,48.3190476 86.9066667,46.4838095 C87.6752381,45.8 88.5390476,45.2085714 89.4714286,44.7657143 C89.3561905,44.6238095 88.2514286,43.2657143 88.2514286,43.2657143"/>
    <path fill="#85BF47" d="M91.4590476,71.7457143 L91.3219048,71.6980952 C91.3257143,71.7 91.3285714,71.7047619 91.332381,71.7047619 C87.72,72.4209524 86,74.1038095 83.4638095,75.8780952 C80.4857143,77.9628571 76.312381,80.392381 71.2942857,81.4838095 C65.727619,82.6904762 59.6819048,81.7628571 54.5761905,78.5742857 L54.5361905,78.567619 L54.5295238,78.567619 L54.5647619,78.567619 C54.5495238,78.5609524 54.5361905,78.547619 54.5209524,78.5409524 C60.9952381,79.1961905 65.3238095,77.2552381 68.6590476,74.5314286 C68.6485714,74.5295238 68.6371429,74.5247619 68.62,74.5180952 C68.6066667,74.5180952 68.5942857,74.5180952 68.5780952,74.5161905 L68.447619,74.5771429 C64.9895238,76.2933333 60.4209524,77.1180952 55.4161905,77.1180952 C44.9019048,77.1180952 32.4619048,73.4685714 24.3847619,66.6866667 C24.612381,67.0466667 24.8561905,67.4304762 25.1161905,67.8238095 C35.2333333,78.0609524 53.7304762,83.5819048 69,83.5819048 C76.2380952,83.5819048 82.7514286,82.3419048 87.3038095,79.7704762 C90.8466667,77.7685714 94.4066667,76.0142857 97.7228571,74.6342857 C96.9257143,74.1695238 96.0942857,73.7047619 95.2209524,73.252381 C94.0028571,72.6104762 92.6580952,72.2 91.4580952,71.7466667"/>
    <path fill="#9CC746" d="M62.9742857,71.7952381 L62.9580952,71.7704762 C60.8761905,69.9638095 59.2666667,67.5514286 57.5009524,65.2285714 C56.3228571,65.8904762 52.8190476,67.7152381 49.1609524,68.8809524 C41.6190476,71.2771429 33.1409524,70.8361905 25.7571429,67.1428571 C25.6657143,67.1057143 25.3733333,66.9552381 25.2571429,66.8990476 C25.1114286,66.8161905 24.5609524,66.5228571 24.5609524,66.5228571 L25.1047619,66.8219048 L25.4257143,66.992381 L25.772381,67.18 C29.3,69.3590476 36.1714286,73.0190476 43.3361905,73.7657143 C44.2704762,73.8685714 45.2485714,73.907619 46.2809524,73.907619 C51.0828571,73.907619 56.8571429,72.932381 62.9619048,71.7942857 C62.9552381,71.7942857 62.9552381,71.7838095 62.9495238,71.7838095 L62.9752381,71.7942857 L62.9742857,71.7952381 Z M25.1171429,67.827619 C26.0752381,69.2857143 27.2542857,71.0057143 28.6485714,72.8895238 C38.427619,86.1190476 47.7019048,88.8742857 60.0219048,88.8742857 L119.938095,88.8742857 C119.918095,88.8609524 119.900952,88.8419048 119.885714,88.8352381 C115.95619,87.4904762 111.67619,84.0609524 104.941905,79.3590476 C102.811429,77.8733333 100.462857,76.2361905 97.7228571,74.6333333 C94.407619,76.0085714 90.8514286,77.7752381 87.3047619,79.7695238 C82.7514286,82.3409524 76.2419048,83.5809524 69,83.5809524 C53.7314286,83.5809524 35.2352381,78.0609524 25.1171429,67.827619 L25.1171429,67.827619 Z M75.512381,67.1885714 C75.5161905,67.18 75.5209524,67.1752381 75.5209524,67.1752381 L75.5209524,67.1685714 C75.8152381,66.7361905 76.1542857,65.9371429 76.2561905,65.7428571 C76.9371429,64.3857143 77.5685714,62.9933333 78.1904762,61.6028571 C79.0942857,59.5685714 79.967619,57.5114286 80.9209524,55.492381 C80.6571429,55.5104762 78.8390476,55.647619 78.207619,55.7133333 C77.6533333,55.7695238 77.092381,55.8466667 76.5428571,55.9266667 C75.4447619,56.0666667 73.2685714,56.407619 73.2685714,56.407619 C73.0561905,56.4485714 72.8495238,56.4990476 72.6485714,56.5447619 C72.5809524,56.5552381 72.5152381,56.5733333 72.4428571,56.5885714 C71.3780952,56.8457143 70.4333333,57.1714286 69.5685714,57.5333333 C69.5666667,57.5333333 69.5666667,57.5380952 69.5638095,57.5380952 C69.3914286,57.6161905 68.7257143,57.9266667 68.5666667,58.0114286 C67.92,58.3371429 67.32,58.692381 66.7304762,59.0742857 C66.7247619,59.0771429 64.9714286,60.3019048 64.9514286,60.3104762 C64.8247619,60.4104762 64.6828571,60.5114286 64.5457143,60.6095238 C66.5885714,61.7857143 68.4619048,63.1657143 70.1028571,64.5295238 C71.4171429,65.6209524 74.0342857,66.9 75.2828571,67.4847619 C75.3047619,67.4542857 75.4771429,67.2342857 75.512381,67.1885714 L75.512381,67.1885714 Z"/>
    <path fill="#D4DE54" d="M97.7247619,74.632381 C100.46381,76.2352381 102.813333,77.872381 104.942857,79.3580952 C111.677143,84.0561905 115.958095,87.4895238 119.886667,88.8342857 C119.904762,88.847619 119.92,88.86 119.939048,88.8733333 C116.064762,86.2761905 112.079048,80.5657143 106.66381,71.827619 C104.11619,72.2752381 101.046667,73.26 97.7247619,74.632381 M98.4095238,58.26 C95.5914286,53.6495238 92.8171429,49.0114286 89.472381,44.767619 C88.5342857,45.2066667 87.6761905,45.8047619 86.9038095,46.4857143 C84.8390476,48.3238095 83.3542857,50.7447619 82.0819048,53.1714286 C81.68,53.9380952 81.2942857,54.712381 80.9228571,55.4942857 C81.7561905,55.4504762 82.592381,55.4285714 83.42,55.4285714 C88.6628571,55.4285714 93.8142857,56.3038095 98.3571429,58.1790476 C98.3761905,58.2009524 98.3895238,58.2333333 98.4095238,58.26"/>
    <path fill="#D1492B" d="M47.8114286,48.8504762 C48.2457143,49.1038095 49.8085714,49.8961905 50.1685714,50.0685714 C50.1790476,50.0771429 50.692381,50.3285714 51.4342857,50.6714286 C51.4609524,50.6342857 51.9866667,50.0361905 52.0104762,50.0095238 C52.152381,49.852381 52.4971429,49.4771429 52.5257143,49.4447619 C52.6609524,49.2961905 53.5171429,48.4038095 53.5561905,48.3638095 C53.6847619,48.24 54.0390476,47.8971429 54.0914286,47.8447619 C54.2047619,47.7371429 54.8619048,47.1485714 54.9552381,47.0714286 C55.1209524,46.927619 55.2933333,46.787619 55.4657143,46.652381 C62.7114286,40.9790476 72.8152381,34.5952381 83.4219048,38.2771429 C82.8390476,37.7819048 81.9266667,37.0219048 81.4142857,36.6266667 C79.5457143,36.1752381 77.2752381,35.8657143 74.5142857,35.8657143 C68.7866667,35.8657143 60.9761905,37.2190476 50.4019048,41.512381 C48.5504762,42.2590476 46.852381,42.8980952 45.272381,43.4228571 C45.9380952,44.9238095 46.4771429,46.5552381 46.8695238,48.3190476 C46.872381,48.3209524 46.8761905,48.3209524 46.8790476,48.3209524 C47.18,48.4971429 47.8085714,48.8466667 47.8104762,48.8514286 L47.8114286,48.8504762 Z M0.0342857143,30.0028571 L0,30.0028571 C0.00857142857,30.0028571 0.0171428571,30.0057143 0.02,30.0095238 C0.0238095238,30.0133333 0.0266666667,30.0133333 0.0304761905,30.0133333 L0.0352380952,30.0133333 C0.0419047619,30.0180952 0.0504761905,30.02 0.0504761905,30.02 C3.37047619,31.4761905 5.69238095,34.6104762 7.6247619,37.5485714 C10.6066667,42.0952381 13.0904762,46.9714286 15.6942857,51.732381 C15.8495238,52.0190476 16.0066667,52.3047619 16.1657143,52.5904762 C20.7428571,57.4866667 26.1352381,61.28 32.3666667,61.4828571 C33.272381,60.4809524 34.1133333,59.4161905 34.892381,58.3161905 C22.6390476,54.552381 14.8485714,44.0638095 10.2561905,37.7485714 C8.33619048,35.107619 6.14666667,33.1952381 4.01047619,31.8704762 C3.51047619,31.5752381 3.03428571,31.3047619 2.57809524,31.0695238 C2.27714286,30.8990476 1.95809524,30.7657143 1.68285714,30.6371429 C1.36666667,30.4933333 1.05428571,30.3666667 0.758095238,30.252381 C0.631428571,30.212381 0.504761905,30.1685714 0.38,30.1247619 C0.26,30.0838095 0.14952381,30.0447619 0.0333333333,30.0047619 L0.0342857143,30.0028571 Z M59.0314286,30.0028571 L31.0752381,30.0028571 C35.2447619,31.8152381 39.2,34.4847619 42.207619,38.3133333 C46.8228571,34.9628571 50.7190476,30.8542857 58.8,30.0028571 L59.0314286,30.0028571 Z M42.4419048,60.2552381 C42.42,60.2552381 42.4,60.2428571 42.3695238,60.24 C42.1666667,60.207619 41.9552381,60.1657143 41.7561905,60.1228571 C41.7495238,60.12 41.747619,60.12 41.7409524,60.12 C41.5447619,60.0809524 41.3609524,60.0304762 41.1714286,59.987619 C41.1819048,59.9895238 41.1847619,59.9942857 41.1952381,59.9942857 L41.1380952,60.0066667 L40.9028571,60.0838095 C38.5666667,60.847619 36.1619048,61.3514286 33.6714286,61.4695238 C33.4114286,61.4828571 33.1514286,61.4895238 32.8914286,61.4895238 C32.7190476,61.4895238 32.54,61.4866667 32.367619,61.4828571 L32.3333333,61.5257143 C31.7457143,62.1761905 31.1304762,62.7990476 30.4904762,63.3971429 C29.5438095,64.2742857 28.5961905,65.0838095 27.3390476,65.4590476 C26.6619048,65.6533333 25.9590476,65.7409524 25.2561905,65.7409524 C24.7371429,65.7409524 24.2219048,65.6952381 23.7152381,65.6209524 C23.7419048,65.6666667 23.7695238,65.7085714 23.7980952,65.7561905 C32.2742857,66.4790476 38.012381,63.872381 42.4409524,60.2552381 L42.4419048,60.2552381 Z"/>
    <path fill="#E2652B" d="M25.2561905,65.7371429 C25.9571429,65.7371429 26.66,65.6561905 27.3371429,65.4552381 C28.5066667,65.1104762 29.4038095,64.3857143 30.2790476,63.5866667 C30.3514286,63.5190476 30.4190476,63.4542857 30.4885714,63.3885714 C31.147619,62.7819048 31.7704762,62.1438095 32.3657143,61.4828571 C26.1333333,61.2790476 20.7495238,57.4895238 16.167619,52.5895238 C16.047619,52.3657143 15.9247619,52.1438095 15.8057143,51.9304762 C15.8733333,52.0533333 15.9409524,52.1733333 16.0085714,52.3 C18.4790476,56.7942857 21.0466667,61.347619 23.7533333,65.6961905 C23.7571429,65.6961905 23.7571429,65.6961905 23.76,65.7 C23.7466667,65.6695238 23.7266667,65.647619 23.7161905,65.6171429 C24.2228571,65.6961905 24.7371429,65.7371429 25.2571429,65.7371429"/>
    <path fill="#75B743" d="M68.4485714,74.5771429 L68.5819048,74.5152381 C66.2838095,74.1114286 64.5019048,73.112381 62.9742857,71.7933333 C62.9561905,71.7933333 62.9352381,71.8 62.9085714,71.8066667 L62.9019048,71.8066667 C56.8228571,72.9371429 51.0733333,73.9085714 46.2819048,73.9085714 C45.2542857,73.9085714 44.2714286,73.8695238 43.34,73.7647619 C36.16,73.0180952 29.2666667,69.3380952 25.7561905,67.1571429 C25.2104762,66.8847619 24.6561905,66.5761905 24.1190476,66.2666667 C24.167619,66.3409524 24.3314286,66.6028571 24.3771429,66.6752381 C24.3790476,66.6838095 24.3809524,66.6838095 24.3857143,66.6857143 C32.4619048,73.4657143 44.9057143,77.1180952 55.42,77.1180952 C60.4228571,77.1180952 64.9895238,76.292381 68.447619,74.5771429"/>
    <path fill="#B6252B" d="M44.9390476,42.6942857 C44.1619048,41.0904762 43.24,39.6295238 42.207619,38.3095238 C40.592381,39.4838095 38.887619,40.5552381 36.8885714,41.3657143 C38.5542857,42.3238095 40.1428571,43.3933333 41.627619,44.4914286 C42.3742857,44.3009524 43.1485714,44.087619 43.947619,43.8409524 C44.38,43.7114286 44.8209524,43.567619 45.272381,43.4190476 C45.1638095,43.172381 45.0504762,42.9352381 44.9390476,42.6942857 M35.4933333,57.4514286 C35.2942857,57.7390476 35.1,58.0295238 34.8952381,58.3133333 C36.1809524,58.7085714 37.5161905,59.027619 38.9009524,59.2609524 L39.0685714,59.2933333 L39.0685714,59.2895238 C37.7980952,58.7609524 36.6542857,58.0714286 35.6066667,57.272381 L35.4933333,57.4514286"/>
  </g>
</svg>
