<svg xmlns="http://www.w3.org/2000/svg" width="120" height="120" viewBox="0 0 120 120">
  <g fill="none" fill-rule="evenodd">
    <path fill="#48AF64" d="M119.792819,59.5309091 C119.792819,26.3745455 93.3323147,0 59.8954927,0 C26.4568373,0 3.12638804e-13,26.3781818 3.12638804e-13,59.5381818 C3.12638804e-13,92.6909091 26.467838,119.04182 59.8991597,119.04182 C93.3378151,119.049091 119.789152,92.6909091 119.789152,59.5381818 L119.800153,59.5309091 L119.792819,59.5309091"/>
    <path fill="#FFFFFE" d="M86.3596639,68.12 L82.9897632,68.12 C79.621696,68.12 78.1860963,69.9018182 77.6965623,73.3581818 C76.84767,79.6854545 71.8019862,83.9690909 65.1850267,83.9690909 C57.4918258,83.9690909 52.5671505,78.3690909 52.5671505,70.2490909 L52.5671505,51.1745455 C52.5671505,50.4109091 52.4553094,49.74 52.2664629,49.14 C52.9888464,49.4636364 53.8524064,49.6309091 54.8461421,49.6309091 L72.5243697,49.6309091 C75.8997708,49.6309091 77.8175707,47.72 77.8175707,44.3854545 L77.8175707,42.8381818 C77.8175707,39.4945455 75.8997708,37.5890909 72.5243697,37.5890909 L62.5521772,37.5890909 L62.5521772,26.84 C62.5521772,23.5072727 60.6197097,21.5945455 57.2589763,21.5945455 L54.8461421,21.5945455 C51.4835752,21.5945455 49.560275,23.5109091 49.560275,26.84 L49.560275,44.3818182 C49.560275,45.1345455 49.6574484,45.8109091 49.8609626,46.4145455 C49.1312452,46.0927273 48.2658518,45.9290909 47.2739496,45.9290909 L29.5957219,45.9290909 C26.2313216,45.9290909 24.302521,47.8381818 24.302521,51.1745455 L24.302521,52.7309091 C24.302521,56.0709091 26.2313216,57.98 29.5957219,57.98 L39.5807487,57.98 L39.5807487,70.2454545 C39.5807487,85.6327273 49.5639419,96.3690909 65.1996944,96.3690909 C79.757372,96.3690909 89.3738732,87.18 91.1779985,73.3509091 C91.6528648,69.8909091 89.3665393,68.1163636 86.3559969,68.1163636 L86.3596639,68.12"/>
  </g>
</svg>
