<svg xmlns="http://www.w3.org/2000/svg" width="120" height="120" viewBox="0 0 120 120">
  <path fill="#D2232A" fill-rule="evenodd" d="M84.3481481,80.9007407 C88.0014815,82.9511111 90.7392593,86.3333333 92.602963,90.0340741 C94.6785185,94.0651852 95.6296296,98.5407407 97.3748148,102.697778 C98.4385185,105.202963 99.7703704,107.773333 102.056296,109.368889 C104.445926,110.97037 107.331852,111.515556 110.117037,111.964444 C103.988148,114.801481 97,115.684444 90.3288889,114.727407 C84.9733333,113.967407 79.8296296,111.616296 75.8740741,107.908148 C72.746358,105.009012 70.4907845,101.301682 68.8804739,97.3794343 L68.6740741,96.8666667 C67.7392593,94.6133333 67.2133333,92.1437037 65.7096296,90.1644444 C64.6592593,88.7037037 63.0088889,87.717037 61.2311111,87.4459259 L61.3733333,86.9585185 L61.3733333,86.9585185 C65.1362963,84.3185185 69.88,83.1348148 74.4488889,83.7022222 C75.7259259,83.8992593 77.1096296,84.3377778 77.877037,85.4592593 C78.5303704,86.3748148 78.3111111,87.8355556 77.2992593,88.402963 C76.2088889,89.0992593 74.4222222,88.4577778 74.32,87.0814815 C74.2237037,86.3525926 74.7866667,85.8237037 75.2711111,85.3792593 L74.7371102,85.6219842 C74.1985394,85.86866 73.6653214,86.1462506 73.3090173,86.6263174 L73.197037,86.7940741 C72.16,88.2874074 72.6340741,90.4562963 74.0044444,91.5688889 C76.2192593,93.437037 79.8459259,93.0296296 81.7451852,90.8992593 C83.282963,89.2666667 83.4548148,86.5851852 82.2459259,84.717037 C81.1392593,82.9807407 79.2177778,81.9214815 77.2474074,81.4666667 C74.3555556,80.8192593 71.3111111,81.1866667 68.522963,82.1185185 C65.6162963,83.1185185 62.8592593,84.7955556 60.9896296,87.2785185 C60.5777778,87.4548148 60.1125926,87.2844444 59.6814815,87.322963 C57.4592593,87.3007407 55.2474074,88.3777778 53.9437037,90.1866667 C52.5325926,92.0491667 51.988669,94.3478646 51.1473821,96.4894987 L50.9748148,96.9155556 C49.3555556,101.016296 47.0355556,104.918519 43.7777778,107.933333 C39.6859259,111.774815 34.3140741,114.137778 28.7585185,114.823704 C22.2651852,115.631111 15.4903704,114.755556 9.54814815,111.964444 L10.3077718,111.843692 C13.231661,111.363648 16.2678519,110.655289 18.5303704,108.65037 C21.1037037,106.208889 22.3318519,102.771852 23.4962963,99.5140741 L24.3518664,96.9369728 C25.4265518,93.7095311 26.5781676,90.4904483 28.4518519,87.6296296 C30.6711111,84.0948148 33.9362963,81.122963 37.9037037,79.72 C45.6088889,76.9851852 55.082963,79.6622222 59.8444444,86.4103704 C65.1303704,78.8725926 76.3451852,76.4059259 84.3481481,80.9007407 Z M40.9851852,81.9155556 C39.4444444,82.5318519 38.0133333,83.5733333 37.2222222,85.0562963 C36.2044444,86.9451852 36.517037,89.4933333 38.0474074,91.0207407 C39.757037,92.8074074 42.6725926,93.2785185 44.8577778,92.1214815 C46.562963,91.2696296 47.5674074,89.0874074 46.7540741,87.2874074 C46.3733333,86.2711111 45.3674074,85.76 44.4266667,85.3822222 C44.9703704,85.8755556 45.557037,86.5274074 45.3096296,87.3259259 C44.9940741,88.6385185 43.2,89.082963 42.1911111,88.2844444 C41.2014815,87.5674074 41.1955556,85.9985185 42.0207407,85.1525926 C43.2074074,83.882963 45.0488889,83.637037 46.6933333,83.5792593 C50.7940741,83.4562963 55.0740741,84.5274074 58.3303704,87.0844444 L58.5911111,86.8711111 L58.5911111,86.8711111 C57.8103704,86.3422222 57.242963,85.5792593 56.5022222,85.0074074 C54.16,83.1318519 51.3066667,81.9288889 48.3688889,81.4 C45.9185185,80.9777778 43.32,81 40.9851852,81.9155556 Z M17.1403385,40.0713499 L17.6207407,40.1466667 C21.402963,40.7037037 25.1214815,42.4 27.6103704,45.3703704 C29.3614815,47.4118519 30.5318519,49.8814815 31.3674074,52.4251852 C32.16,54.8044444 32.5214815,57.3125926 33.4918519,59.6355556 C34.8266667,63.0562963 37.12,66.1007407 40.0992593,68.2577778 C43.5718519,70.837037 47.7214815,72.2 51.6962963,73.7896296 C54.8562963,75.1437037 58.0459259,77.0444444 59.8162963,80.1007407 C61.0222222,78.0177778 62.9466667,76.4666667 64.9955556,75.2607407 C67.5282051,73.7578348 70.362551,72.918913 73.063964,71.7826646 L73.7362963,71.4918519 C77.4503704,69.9185185 81.0237037,67.7022222 83.48,64.4266667 C85.5214815,61.7762963 86.7466667,58.5896296 87.4725926,55.3496296 C88.4814815,51.1155556 90.1748148,46.7955556 93.5377778,43.8711111 C97.1748148,40.6844444 102.220741,39.6948148 106.934815,39.8696296 C111.423704,40.0622222 115.785185,41.5496296 119.648889,43.8103704 C117.620741,44.0311111 115.608889,44.757037 114.060741,46.1155556 C112.013333,47.7881481 110.922963,50.32 110.251852,52.8148148 C109.288889,56.5659259 108.28,60.3451852 106.543704,63.8266667 C104.567407,67.7807407 101.368889,71.1659259 97.3718519,73.1096296 C91.4607407,76.037037 84.6903704,76.5466667 78.1925926,76.2666667 C73.4977778,76.0088889 68.6,76.5511111 64.4148148,78.837037 C62.6725926,79.7748148 61.1037037,81.0325926 59.8296296,82.5481481 C56.7582571,78.8915468 52.0791337,76.9892362 47.4136791,76.4389091 L46.9896296,76.3925926 C43.7718519,75.9925926 40.5377778,76.4251852 37.3125926,76.3303704 C31.6355556,76.2014815 25.7851852,75.2577778 20.84,72.32 C17.7733333,70.5111111 15.3022222,67.7925926 13.5688889,64.6977778 C11.9407407,61.7407407 10.9244444,58.4962963 10.04,55.2562963 L9.71386888,53.9770058 C9.12383708,51.6953196 8.43610136,49.4012476 6.96148148,47.5274074 C5.30074074,45.3540741 2.68888889,44.0607407 7.10542736e-15,43.802963 C5.11797271,40.7852632 11.2106925,39.208616 17.1403385,40.0713499 L17.1403385,40.0713499 Z M43.9362963,39.4503704 C41.08,42.6355556 38.8340741,46.7407407 39.1259259,51.1422222 C39.28,54.7955556 41.157037,58.2251852 43.922963,60.5674074 C47.1659259,63.4207407 51.2903704,64.9362963 55.3185185,66.3007407 L55.9606071,66.5318106 C57.3550288,67.0394733 58.753679,67.6138272 59.8296296,68.6666667 C61.6192593,66.9644444 64.1244444,66.4548148 66.3644444,65.5881481 L67.1916449,65.2932654 C71.4660531,63.7270415 75.7144332,61.4800449 78.3377778,57.6459259 C80.4725926,54.5185185 81.117037,50.4192593 80.0177778,46.7985185 C79.2177778,44.0474074 77.6533333,41.562963 75.68,39.4992593 C79.3362963,41.9096296 82.2059259,45.6177778 83.2740741,49.9007407 C84.2385185,53.7022222 83.2637037,57.8933333 80.842963,60.96 C77.4222222,65.3392593 72.1748148,67.6725926 67.0977778,69.562963 L66.504949,69.7992478 C64.0136565,70.7795316 61.296845,71.7445267 59.8222222,74.1066667 C58.4162963,71.8266667 55.7851852,70.8518519 53.4251852,69.9051852 L52.3357382,69.4925394 C48.3384774,67.9657613 44.3359259,66.2582716 41.1051852,63.3955556 C38.4666667,61.1214815 36.4785185,57.9585185 36.1066667,54.4503704 C35.5718519,50.3644444 37.2711111,46.2918519 39.8385185,43.1866667 C41.0014815,41.7362963 42.4681481,40.5748148 43.9362963,39.4503704 Z M59.8518519,4.49481481 C60.9185185,10.3792593 62.3244444,16.2281481 64.4207407,21.8385185 C66.2948148,26.8755556 69.082963,31.4888889 71.5466667,36.2385185 C73.8014815,40.5688889 75.602963,45.402963 75.0059259,50.3644444 C74.6414815,54.9007407 71.9007407,59.1259259 67.9066667,61.3111111 C65.3437037,62.8696296 62.2340741,63.3525926 59.8548148,65.2237037 C58.8118519,64.3355556 57.5373457,63.8121502 56.2743544,63.3145756 L55.9303704,63.1792593 C53.2844444,62.1688889 50.6266667,60.957037 48.6340741,58.8962963 C45.5807407,55.9051852 44.3362963,51.4740741 44.6355556,47.282963 C44.9155556,42.3392593 47.2637037,37.8577778 49.5688889,33.5822222 L50.4380027,31.9790881 C52.3194469,28.5024922 54.1660247,24.9958519 55.5051852,21.2711111 C57.4725926,15.8281481 58.84,10.1851852 59.8518519,4.49481481 Z M58.3209438,51.8121077 L58.1362963,51.8903704 C56.1035241,52.7006061 54.9539489,55.135144 55.6007394,57.2217559 L55.6666667,57.4162963 C56.3389899,59.523771 58.7428807,60.8344183 60.8777429,60.2878275 L61.077037,60.2311111 C63.3891091,59.6386787 64.8344463,56.9817904 64.1126053,54.7180525 L64.0474074,54.5303704 C63.3165966,52.237037 60.5521846,50.9338571 58.3209438,51.8121077 L58.3209438,51.8121077 Z"/>
</svg>
