<svg xmlns="http://www.w3.org/2000/svg" width="120" height="120" viewBox="0 0 120 120">
  <g fill="none" fill-rule="evenodd">
    <path fill="#5D0632" fill-rule="nonzero" d="M1.71783462,31.5048615 L14.2414962,31.5048615 C19.5469062,31.5048615 24.5830114,33.8080358 28.0489291,37.8076194 L28.3124192,38.1186154 L62.20845,79.0061231 C65.0568146,82.4401799 65.0002743,87.4106985 62.1185928,90.7774381 L61.9222962,90.9994769 L54.3186346,99.3294154 L50.3458039,103.650615 C49.5337269,104.535558 48.4097059,105.060608 47.2205528,105.122783 L46.9819269,105.129015 L27.5638962,105.129015 C26.1236282,105.129015 25.3453821,103.476122 26.2056346,102.371925 L26.2971577,102.263415 L36.8837423,90.6575692 C39.8877858,87.3636595 40.0684604,82.3961876 37.3524842,78.8984189 L37.1671269,78.6674462 L0.398942314,34.3118462 C-0.49818384,33.2321538 0.214407134,31.6168955 1.57482975,31.5104113 L1.71783462,31.5048615 L14.2414962,31.5048615 L1.71783462,31.5048615 Z M109.410173,34.6964923 C110.850441,34.6991722 111.628774,36.3552644 110.768443,37.4596652 L110.676912,37.5681846 L92.8318039,57.1261538 C92.1654395,57.8519838 91.0375356,57.8636744 90.3555524,57.1816321 L90.2461731,57.0615385 L80.3890039,45.1560615 C79.8792923,44.5393885 79.8677178,43.656204 80.3428714,43.0279699 L80.4443885,42.9058769 L82.5089423,40.6459077 C85.8775577,36.9607667 90.5973376,34.8176947 95.5761334,34.7014787 L96.0034962,34.6964923 L109.410173,34.6964923 Z"/>
    <path fill="#3DBDAE" fill-rule="nonzero" d="M74.2377115,77.5000308 L84.8829115,65.8323385 C85.4589115,65.2037231 85.4819885,64.2431692 84.9382962,63.5853846 L49.3164808,20.6138462 C45.8451577,16.4228 40.6870039,14 35.2455577,14 L22.7181115,14 C21.2657423,14 20.4711577,15.6901538 21.3993115,16.8070769 L71.6554039,77.4381846 C72.3200192,78.2394154 73.5408808,78.2689538 74.2410346,77.5028"/>
  </g>
</svg>
