<svg xmlns="http://www.w3.org/2000/svg" width="120" height="120" viewBox="0 0 120 120">
  <g fill="none" fill-rule="evenodd">
    <path fill="#FFFFFE" d="M118.044545,59.1054545 C118.044545,91.7045455 91.6445455,118.131818 59.0536364,118.131818 C26.4545455,118.131818 0.0190909091,91.7045455 0.0190909091,59.1054545 C0.0190909091,26.4790909 26.4545455,0.0518181818 59.0536364,0.0518181818 C91.6445455,0.0518181818 118.044545,26.4790909 118.044545,59.1054545"/>
    <path fill="#D72433" d="M84.3981818,23.5118182 C102.373636,29.0290909 115.453636,45.7636364 115.453636,65.5909091 C115.453636,68.5063636 115.156364,71.3018182 114.632727,74.0154545 L114.561818,74.4 C113.200909,82.17 110.04,89.3563636 105.561818,95.4327273 L105.474545,95.5281818 C113.348182,85.5054545 118.063636,72.8290909 118.063636,59.0536364 C118.063636,26.4545455 91.62,0 58.9936364,0 C44.1518182,0 30.6,5.49272727 20.2118182,14.5445455 L20.0645455,14.6754545 C11.8827273,22.1836364 6.77454545,32.9672727 6.77454545,44.9372727 C6.77454545,49.8681818 7.63090909,54.6518182 9.25636364,59.0536364 L9.33545455,59.2636364 C13.4454545,68.2363636 22.5163636,74.5063636 33.0463636,74.5063636 C47.4245455,74.5063636 59.1081818,62.8609091 59.1081818,48.4554545 L59.0263636,37.2436364 C59.0263636,32.1272727 61.9090909,27.6054545 66.1418182,25.3009091 L66.1854545,25.29 C69.4936364,23.4818182 73.2736364,22.4154545 77.3427273,22.4154545 C79.7972727,22.4154545 82.1454545,22.7836364 84.3627273,23.49 L84.3981818,23.52"/>
    <path fill="#234686" d="M13.8218182,97.0854545 C24.6545455,109.969091 40.8954545,118.175455 59.0536364,118.175455 C73.9036364,118.175455 87.4963636,112.693636 97.8681818,103.639091 L98.01,103.535455 C106.189091,96 111.305455,85.2190909 111.305455,73.2572727 C111.305455,68.3154545 110.432727,63.54 108.818182,59.13 L108.739091,58.9472727 C104.618182,49.92 95.5718182,43.6690909 85.0172727,43.6690909 C70.6390909,43.6690909 58.9745455,55.3254545 58.9745455,69.7036364 L59.0536364,80.9481818 C59.0536364,86.0727273 56.1736364,90.5781818 51.93,92.8827273 L51.8863636,92.91 C48.5781818,94.7181818 44.7709091,95.7736364 40.7481818,95.7736364 C38.2772727,95.7736364 35.9181818,95.3727273 33.7090909,94.7018182 L33.6818182,94.6663636 C15.6981818,89.13 2.61818182,72.3872727 2.61818182,52.5954545 C2.61818182,49.7045455 2.90727273,46.8763636 3.43909091,44.1436364 L3.48818182,43.7754545 C4.86,35.9890909 8.02090909,28.8572727 12.5236364,22.7536364 L12.5809091,22.6581818 C4.72363636,32.6809091 8.73967565e-13,45.3572727 8.73967565e-13,59.1081818 C8.73967565e-13,68.58 2.24454545,77.5636364 6.20727273,85.5081818 L5.71909091,85.8736364 C5.71909091,85.8736364 8.42,89.6109091 13.8218182,97.0854545 Z"/>
  </g>
</svg>
