<svg xmlns="http://www.w3.org/2000/svg" width="120" height="120" viewBox="0 0 120 120">
  <g fill="none" fill-rule="evenodd">
    <path fill="#000" fill-rule="nonzero" d="M59.4074074,87.2592593 L59.1739153,87.382948 C58.2450659,87.8941799 55.6472663,89.5026455 55.1111111,91.1111111 C54.7555556,92.4148148 54.9688889,93.5288889 55.1442963,94.2257778 L55.2592593,94.6666667 L62.2222222,114.222222 L48.1481481,114.222222 L43.2592593,99.7037037 L26.3703704,101.777778 C23.8148148,102.061728 21.6674383,104.114455 20.9713649,105.458537 L20.8888889,105.62963 L17.9259259,114.074074 L0,114.074074 L0.210497189,113.98734 C1.04609098,113.612563 4.18260121,111.913867 6.22222222,106.814815 C6.22222222,106.666667 6.81481481,105.185185 6.81481481,105.185185 L8.14202315,104.461273 C22.3489861,96.8397917 38.0587639,92.4183102 45.7140231,90.4383102 L49.4814815,89.4814815 C52.4444444,88.7407407 53.3333333,88.5925926 57.1851852,87.7037037 L57.366847,87.6753823 C57.8838483,87.577471 59.2820513,87.2592593 59.4074074,87.2592593 Z M119.259259,80.2962963 C117.62963,80.8888889 114.666667,82.3703704 114.37037,83.4074074 C114.074074,84.4444444 114.37037,85.1851852 114.962963,85.9259259 C117.925926,89.1851852 118.666667,93.037037 118.666667,97.037037 C118.666667,100.444444 117.62963,104.888889 115.259259,107.851852 C113.288889,110.244444 111.71963,111.567407 108.773222,112.70987 L108.296296,112.888889 C105.17284,114.166667 100.144547,114.083848 95.297668,114.074728 L64,114.074074 L64.1481481,86.3703704 C78.2222222,83.5555556 95.4074074,81.3333333 119.259259,80.2962963 Z M93.9259259,88.5925926 L93.4144683,88.6179524 C90.9417133,88.7635366 86.2412494,89.3210187 82.6921856,89.7686246 L78.0740741,90.3703704 L78.0740741,103.407407 L93.9259259,103.407407 C100.888889,103.407407 104.296296,101.333333 104.296296,96.2962963 C104.296296,91.1111111 100.888889,88.2962963 93.9259259,88.5925926 Z"/>
    <path fill="#E30613" fill-rule="nonzero" d="M41.3333333,54.962963 L50.3703704,80.5925926 C46.0740741,81.1851852 41.7777778,81.7777778 37.6296296,82.6666667 L37.6296296,82.6666667 L32.8888889,68.4444444 L28,84.8888889 C23.8518519,85.7777778 16.8888889,87.5555556 13.037037,88.7407407 L13.037037,88.7407407 L22.0740741,64.1481481 C23.8518519,58.3703704 20.8888889,56.1481481 19.2592593,55.4074074 L19.2592593,55.4074074 L19.2592593,54.962963 L41.3333333,54.962963 Z M77.3341891,54.8153883 C81.6228222,54.8253933 95.0760943,54.962963 98.0740741,54.962963 C102.666667,55.4074074 106.962963,56.4444444 109.037037,57.7777778 C110.962963,58.962963 112.148148,60.2962963 113.333333,62.2222222 C114.962963,64.8888889 115.111111,69.037037 112.592593,72.1481481 C109.62963,75.8518519 106.074074,76 100.148148,76.4444444 C98.2222222,76.4444444 96,76.5925926 94.0740741,76.5925926 C97.6296296,75.5555556 100.296296,74.2222222 100.296296,71.5555556 C100.296296,67.1111111 96.8888889,64.8888889 90.3703704,64.8888889 L90.3703704,64.8888889 L78.0740741,64.8888889 L78.0740741,77.4814815 C72.2962963,77.9259259 69.1851852,78.2222222 64,78.6666667 L64,78.6666667 L64,64 C64,58.962963 60.8888889,56.1481481 58.5185185,55.1111111 L58.5185185,55.1111111 L58.5185185,54.8148148 Z"/>
    <path fill="#FC0" fill-rule="nonzero" d="M59.5555556,4 L59.6494721,4.42172148 C62.7681481,18.3216148 67.8281481,30.5081481 80.1481481,29.4814815 C92.7407407,28.4444444 99.8518519,15.5555556 101.481481,13.9259259 C101.481481,13.9259259 90.8148148,38.2222222 88.1481481,45.3333333 L88.1481481,45.3333333 L88,45.3333333 C80.4444444,41.9259259 70.5185185,39.8518519 59.5555556,39.8518519 C48.5925926,39.8518519 38.5185185,41.9259259 31.1111111,45.3333333 C28.4444444,38.2222222 17.7777778,13.9259259 17.7777778,13.9259259 C19.4074074,15.5555556 26.5185185,28.4444444 38.962963,29.4814815 C51.5555556,30.5185185 56.4444444,17.9259259 59.5555556,4 L59.5555556,4 Z M38.962963,15.8518519 C41.6296296,20.7407407 45.4814815,23.2592593 47.5555556,24.5925926 C45.037037,26.3703704 42.0740741,27.2592593 38.2222222,26.8148148 C37.037037,26.8148148 36.1481481,26.6666667 35.1111111,26.3703704 C36.4444444,24.4444444 38.6666667,20.7407407 38.962963,15.8518519 Z M80.1481481,15.8518519 C80.4444444,20.7407407 82.6666667,24.4444444 84,26.3703704 C82.962963,26.5185185 81.9259259,26.6666667 80.8888889,26.8148148 C77.1851852,27.2592593 74.0740741,26.3703704 71.5555556,24.5925926 C73.4814815,23.4074074 77.4814815,20.7407407 80.1481481,15.8518519 Z"/>
  </g>
</svg>
