<svg xmlns="http://www.w3.org/2000/svg" width="120" height="120" viewBox="0 0 120 120">
  <defs>
    <radialGradient id="ku-kuwait-airways-a" cx="72.706%" cy="60.107%" r="116.81%" fx="72.706%" fy="60.107%" gradientTransform="matrix(.36387 0 0 1 .463 0)">
      <stop offset="0%" stop-color="#00AEEF"/>
      <stop offset="47.582%" stop-color="#00AEEF"/>
      <stop offset="79.884%" stop-color="#0B4379"/>
      <stop offset="100%" stop-color="#1E285A"/>
    </radialGradient>
  </defs>
  <path fill="url(#ku-kuwait-airways-a)" d="M0,38.2245811 C11.872679,44.521665 42.834659,67.4694977 75.7648105,76.7975271 L75.7648105,76.7975271 C77.3474801,77.2449049 78.9177736,77.6569435 80.465074,78.033598 L80.465074,78.033598 C96.5605681,81.9504869 110.442086,82.0618927 120,81.2802824 L120,81.2802824 C71.9610969,73.1688799 56.7621579,59.5048652 54.5817866,56.5499563 L54.5817866,56.5499563 C54.3342125,56.2192728 54.2210272,56.0335997 54.2210272,56.0335997 L54.2210272,56.0335997 C54.0795706,55.9716936 62.0088289,48.284706 77.2961858,48.4827603 L77.2961858,48.4827603 C96.394324,48.7267754 109.331552,54.5499547 109.331552,54.5499547 L109.331552,54.5499547 C102.652505,50.5375801 95.8655912,47.9221922 90.1113908,46.2281167 L90.1113908,46.2281167 C86.9884935,45.2732095 83.9080332,44.5517258 80.8912333,44.0212235 L80.8912333,44.0212235 C77.2502049,43.351019 75.0114814,43.1883289 75.0114814,43.1883289 L75.0114814,43.1883289 C65.1352651,42.1485428 57.7700988,44.3076956 51.6286322,46.465074 L51.6286322,46.465074 C45.8832741,48.4792214 38.4597556,52.2776315 28.620678,48.0530521 L28.620678,48.0530521 C24.394329,46.2404979 21.4394202,45.6392573 16.578236,46.1821408 L16.578236,46.1821408 C8.91245181,43.0026559 3.12996011,39.2413793 0.249323503,38 L0.249323503,38 L0,38.2245811 Z"/>
</svg>
