<svg xmlns="http://www.w3.org/2000/svg" width="120" height="120" viewBox="0 0 120 120"><path fill="#064D7A" d="M5.67 73.303c1.35-3.097 5.704-3.7 9.994-3.47-2.882.244-5.382 1.135-6.338 3.312 0 0-12.171 22.324 1.078 30.5l.704.482s5.77 2.263 13.544-.366c-9.577 4.62-17.143 1.645-17.143 1.645l-.726-.496C-6.948 96.44 5.669 73.303 5.669 73.303zm6.387-47.063c3.65-1.186 7.372-.244 10.857 1.739-2.436-.855-4.944-1.056-7.416-.259 0 0-5 3.442-1.523 15.484 0 0-.18 5.87-1.86 7.451 0 0-6.324 12.395 2.773 15.743l13.55 4.986s-3.175-.905-6.961-1.372l-10.045-3.7c-9.427-3.47-2.882-16.31-2.882-16.31 1.746-1.639 1.933-7.718 1.933-7.718-3.6-12.487 1.574-16.044 1.574-16.044z"/><path fill="#F15029" d="M75.366 14c-17.201 0-32.11 9.786-39.49 24.084 3.974 4.642 6.553 9.003 6.553 9.003 10.225 21.786 3.988 31.572 3.988 31.572L44.743 82l-1.818 6.143c-.08.123-.165.23-.244.353.345.373.697.74 1.049 1.099.007-.029.007-.065.014-.094l2.508-5.669.87-3.506s1.544-11.123 22.733-20.758c0 0 25.076-8.63 31.988 2.637 0 0 1.53 5.662-8.593 12.351 0 0-3.542 4.434-3.298 6.661 0 0-3.119 13.091-11.92 9.85l-13.106-4.82s14.945 6.768 12.976 13.278c0 0-.28 1.307-.883 3.269 23.76-.87 42.766-20.399 42.766-44.376 0-24.53-19.889-44.418-44.42-44.418"/></svg>
