<svg xmlns="http://www.w3.org/2000/svg" width="120" height="120" viewBox="0 0 120 120">
  <path fill="#21A2AF" fill-rule="evenodd" d="M60.1060054,7.10542736e-15 C93.1290358,7.10542736e-15 120,26.8859738 120,60.1641677 C120,93.1421692 93.1290358,120.056286 60.1060054,120.056286 C26.8709642,120.056286 -5.40012479e-13,93.1421692 -5.40012479e-13,60.1641677 C-5.40012479e-13,26.9009834 26.8709642,7.10542736e-15 60.1060054,7.10542736e-15 Z M60.1060054,7.3434544 C30.9629606,7.3434544 7.32844478,30.9760941 7.32844478,60.1773011 C7.32844478,89.294079 30.9629606,112.926719 60.1060054,112.926719 C89.2509264,112.926719 112.898576,89.294079 112.898576,60.1773011 C112.898576,30.7490736 89.2509264,7.3434544 60.1060054,7.3434544 Z M15.9383355,79.5190669 L71.130568,13.1352898 C71.5846089,12.6099533 72.2093841,12.4242093 72.9335981,12.8219641 C73.5429885,13.1144014 73.7078274,13.8268745 73.5547249,14.4285366 L71.2299254,22.2827178 C68.4234861,31.837748 63.849448,47.6487397 62.3206587,54.2732746 L62.2542566,54.5637049 C60.3086352,63.1154333 63.2186244,69.5207868 70.6765272,71.7778577 L71.9517443,72.1582006 C83.8564792,75.663047 99.5570345,79.0603355 102.519427,79.761097 C103.271783,79.9299551 103.626386,80.3708626 103.626386,81.1232196 C103.626386,81.8048327 103.14774,82.4249531 102.453234,82.49555 L102.320549,82.502228 L17.0321612,82.4872184 C16.2366516,82.4872184 15.6681624,82.1044732 15.412999,81.4796979 C15.1743193,80.9378776 15.3416937,80.2504602 15.8219864,79.6547921 L15.9383355,79.5190669 L71.130568,13.1352898 L15.9383355,79.5190669 Z"/>
</svg>
