<svg xmlns="http://www.w3.org/2000/svg" width="120" height="120" viewBox="0 0 120 120">
  <path fill="#0A1D3D" fill-rule="evenodd" d="M59.9926561,116.596847 C28.8567831,116.596847 3.59985185,91.3399153 3.59985185,60.2040423 C3.59985185,29.0679577 28.8567831,3.81081481 59.9926561,3.81081481 C91.1285291,3.81081481 116.38546,29.0679577 116.38546,60.2040423 C116.38546,91.3399153 91.1285291,116.596847 59.9926561,116.596847 M59.9926561,0.211661376 C93.1685291,0.211661376 119.985249,27.0281693 119.985249,60.2040423 C119.985249,93.3799153 93.1685291,120.196635 59.9926561,120.196635 C26.8172063,120.196635 6.34920635e-05,93.3799153 6.34920635e-05,60.2040423 C6.34920635e-05,27.0281693 26.8172063,0.211661376 59.9926561,0.211661376 Z M81.2272593,45.4071534 C76.5965714,45.4071534 72.7455661,45.6230265 69.1343492,46.0911746 C64.3358307,56.4202751 56.8975238,62.2990053 48.6077884,62.2990053 C44.8166772,62.2990053 40.7140317,60.9553016 35.3271534,57.9559365 L28.9447196,54.3927619 L30.1563598,53.4454603 L42.4412275,58.7836614 L44.0008042,57.536254 L20.0670476,46.570963 L17.5718095,48.5504339 L10.2416508,45.4071534 L10.3136085,48.1906455 C21.146836,52.9775238 26.0054603,55.7483175 39.8860952,65.1180529 C54.3180529,74.895619 71.4018624,82.0340317 87.6336085,85.0814392 L91.5686349,81.2778413 L90.5127619,81.2778413 C79.2598519,81.2778413 67.6467302,76.4672593 60.5563598,68.8611217 C67.9946667,64.3142434 75.1929735,62.3351958 84.3224974,62.3351958 C87.861545,62.3351958 91.8685291,62.5747725 95.1675767,62.9826032 L97.6031323,60.6431323 C92.9724444,59.9595344 88.0776296,59.6234497 82.9548783,59.6234497 C79.3557249,59.6234497 76.3324444,59.7555132 73.5853545,60.0433439 C73.9572063,59.6357249 75.1809101,58.3157249 75.6486349,57.7760423 C77.7241905,57.6560423 80.0395344,57.5840847 82.0788995,57.5840847 C87.8135026,57.5840847 94.2077884,58.0520212 99.4384762,58.8678942 L101.874032,56.5045079 C94.999746,55.4005926 88.6653545,54.8968889 81.8869418,54.8968889 C79.9315979,54.8968889 78.5159365,54.9208042 77.7842963,54.9688466 C78.4319153,54.1887407 79.079746,53.349164 79.3677884,52.9172063 L79.4760295,52.9133642 C79.7336019,52.9055661 80.0576296,52.9055661 81.1072593,52.9055661 C89.349164,52.9055661 95.8154074,53.4571005 103.601651,54.8367831 L106.036783,52.4852487 C97.4111746,50.9377354 89.6128677,50.2300106 81.0232381,50.2300106 C81.5751958,49.3781587 81.9470476,48.7663069 82.1991111,48.3102222 C82.4149841,48.2863069 82.7986878,48.274455 83.2547725,48.274455 C90.3089524,48.274455 101.358265,49.3781587 107.860275,50.7337143 L110.403556,48.274455 C99.9542434,46.3188995 90.7286349,45.4071534 81.2272593,45.4071534 Z"/>
</svg>
