<svg xmlns="http://www.w3.org/2000/svg" width="120" height="120" viewBox="0 0 120 120">
  <g fill="none" fill-rule="evenodd">
    <path fill="#005DAB" fill-rule="nonzero" d="M68.2817691,40.1386123 L68.5806452,40.1612903 C71.3870968,40.3548387 73.7096774,40.9354839 75.5483871,41.9032258 C81.2431762,44.7506203 93.6402939,48.2496302 102.696988,49.4787274 L103.885451,49.6364149 C105.18894,49.8209348 106.35023,50.0460829 106.516129,50.1290323 C106.703079,50.2225073 103.639646,60.1574205 99.50609,72.3464663 L96.9054293,79.9661872 C92.7702158,91.9777212 90.4696174,98.0255064 89.3870968,99.7741935 C83.483871,108.677419 73.9032258,114.677419 61.0322581,117.387097 L60.15106,117.560775 C55.7731855,118.391129 51.6451613,118.663306 40.0322581,118.935484 L24.7419355,119.225806 L25.0322581,118.064516 C25.2258065,117.290323 28.6129032,109.258065 32.6774194,100.16129 L39.5601159,84.44477 C42.1699852,78.5032399 44.771578,72.5989538 46.7096774,68.2258065 L48.2082779,64.7917785 C51.2426036,57.9137316 53.7310174,52.7419355 54.0645161,52.7419355 C54.2857143,52.7419355 57.9899056,54.9328506 62.9942004,57.9878262 L68.7201319,61.5099168 C75.7673189,65.8691299 81.7578001,69.5901639 82.2258065,69.8709677 L82.4058096,69.9670315 C83.7639127,70.656386 81.6086154,68.5977478 78.540029,66.1474679 L78.3548387,66 C74.2903226,62.9032258 67.7096774,55.1612903 65.3870968,50.9032258 C63.1240695,46.6600496 62.4229179,42.9681237 63.4626805,41.2597563 L63.6719527,40.949939 C64.3641462,39.9867403 64.9746224,39.8915117 68.2817691,40.1386123 L68.2817691,40.1386123 Z M93.5960108,18.7849543 L99.3421243,18.774663 C109.017169,18.7852535 116.870968,18.9732719 116.870968,19.1612903 C116.870968,20.516129 107.193548,49.0645161 106.709677,49.1612903 L106.603183,49.1511111 C105.973333,49.0567742 103.522581,48.316129 100.903226,47.3225806 L100.244374,47.08143 C92.0987847,44.0555134 83.3157895,39.1680815 84.2580645,38.2258065 C85.1290323,37.4516129 94.3225806,36 101,35.6129032 L102.165273,35.5452011 C105.188769,35.3572282 107.473118,35.1182796 107.387097,35.0322581 C106.634711,34.2798728 92.9950791,33.7102853 86.9866125,34.1229144 L84.2154134,34.3340006 C80.0912786,34.6244352 79.0165041,34.4966242 75.9354839,33.5806452 L75.1307299,33.3282277 C68.4337785,31.1787228 65.3870968,28.9227024 65.3870968,26.1290323 C65.3870968,24.2559834 66.565305,22.9267228 69.535676,21.6150039 L70.1598856,21.3454655 C74.8518536,19.3499 78.8123975,18.8588902 93.5960108,18.7849543 L93.5960108,18.7849543 Z"/>
    <path fill="#00AEEB" fill-rule="nonzero" d="M37.3225806,29.3225806 C37.5806452,29.3225806 37.9151732,29.5519713 38.1902297,29.8748175 L38.7888536,30.622718 C41.4461093,33.9160764 42.7391705,35.0709677 44.2903226,35.7096774 L44.8648721,35.9255056 C45.6542339,36.2317288 46.2439516,36.5020161 46.3225806,36.5806452 C46.4193548,36.6774194 45.9354839,37.7419355 45.3548387,39.0967742 C44.6774194,40.3548387 44.1935484,42.3870968 44.1935484,43.5483871 C44.1935484,45.2302558 44.5544091,46.0099728 46.5826953,47.9780414 L49.4193548,50.7096774 L41.9677419,67.6451613 L33.1517103,87.7309069 C32.3112322,89.6582075 31.6129032,91.2733447 31.1290323,92.4193548 L27.7419355,100.258065 L2,100.645161 L18.4253273,67.1139052 C23.3492575,57.1019737 28.3121588,47.0486352 30.7419355,41.9032258 L33.0429098,37.2689596 C35.3597131,32.6440678 37.1011482,29.3225806 37.3225806,29.3225806 Z M104.870968,0.387096774 C104.870968,0.677419355 103.709677,4.16129032 102.354839,8.12903226 L99.8387097,15.2903226 L91.8064516,15.6774194 L90.2512922,15.7383142 C85.4450898,15.9095702 77.4380306,16.0645161 71.2903226,16.0645161 L68.458658,16.0987448 C60.9687249,16.2073988 57.8743633,16.426146 55.7096774,17.0322581 C51.8387097,18.1935484 48.7419355,21 48.7419355,23.516129 L48.7382953,23.8961134 C48.7056452,25.1780914 48.3951613,25.2741935 45.6451613,25.4516129 C43.4193548,25.6451613 41.9677419,26.1290323 40.516129,27.2903226 L39.7672473,27.8272763 C38.2469202,28.8959082 37.8064516,29.0291363 37.8064516,28.3548387 L37.8168465,28.3088373 C37.9718746,27.8060865 39.8407687,23.7982155 42.0645161,19.2580645 L42.5383403,18.2991711 C46.822004,9.71056558 49.5122652,6.59534243 54.6526453,3.91973031 L55.6495505,3.415872 C61.0591985,0.740496 63.8473625,0.395328 82.8515645,0.122979 L87.7813326,0.0558967742 C98.973471,-0.0794322581 104.870968,0.0309677419 104.870968,0.387096774 Z"/>
  </g>
</svg>
