<svg xmlns="http://www.w3.org/2000/svg" width="120" height="120" viewBox="0 0 120 120">
  <path fill="#AE2534" fill-rule="evenodd" d="M53.8341392,52.0115651 C58.0269615,53.5984874 61.6807593,56.364987 65.9880319,57.6676293 C73.7798881,60.1689241 82.0793871,59.8261882 90.1542927,59.6065173 C96.7616489,59.5425236 103.565909,62.6659116 107.15079,68.3453582 L106.438096,67.9923629 C104.170865,66.8782499 101.802082,65.831853 99.2433551,65.7798773 L98.8377543,65.7800697 C93.272758,65.7203832 88.4080013,68.7840847 83.1260544,70.0325784 C79.3947256,71.0614012 75.4898753,71.0066373 71.6582487,70.8694199 C68.4985566,70.7592768 65.4348551,69.8633641 62.2751629,69.730454 C57.6612415,69.416566 53.0843842,70.1753614 48.4943173,70.5709527 L47.6335126,70.6405192 C31.7981325,71.9388542 15.7984607,72.3412765 1.42108547e-14,70.3433173 L6.35608076,70.2812295 C22.9004689,70.1034354 39.5633619,69.6659987 55.7268779,65.8803676 C58.5622939,65.1715136 61.3786349,64.3439019 64.0399141,63.1323276 C58.3375111,61.7691469 53.1294842,59.0024843 48.2167175,55.8733215 L47.62859,55.4961486 C41.8537681,51.6959035 34.7843031,49.9809937 27.9068193,50.7083074 C36.3343059,47.9602675 45.6903174,48.6229722 53.8341392,52.0115651 Z M120,55.4499993 C117.992811,54.9608162 116.026233,54.2476549 113.950743,54.0969003 C107.896564,53.5480307 101.850999,55.3860055 96.5788974,58.2712628 C95.5549972,58.9942693 94.3108107,58.4318626 93.1909199,58.3401792 C89.2399202,57.6860891 85.2341567,58.1937319 81.26039,58.2029618 C87.0173675,55.1804871 93.2315313,52.9351674 99.6333691,51.75559 C106.54285,50.7310744 114.078731,51.4996149 120,55.4499993 Z"/>
</svg>
