<svg xmlns="http://www.w3.org/2000/svg" width="120" height="120" viewBox="0 0 120 120">
  <path fill="#1B2444" fill-rule="evenodd" d="M116.082044,24.0073991 C93.036917,32.7555206 57.1660793,60.6636651 61.068883,120 C55.6770844,119.256609 50.4689211,117.91585 45.5306795,116.015335 C45.7143149,90.6869346 53.9248051,60.6127782 68.8324536,42.1740215 C69.6599188,45.4064458 71.2307752,48.722944 73.7706951,52.0460796 C85.5698179,38.1628065 99.1809568,28.3482727 116.082044,24.0073991 Z M71.0161653,28.1668499 C69.007239,31.1271398 68.0802125,34.5918738 68.2461481,38.2800676 C52.3119117,54.4355513 36.4860866,79.5250043 35.78252,111.176654 C30.8044539,108.242914 26.3064947,104.645432 22.2709424,100.576692 C26.5874788,72.5955363 43.678839,43.3488451 71.0161653,28.1668499 Z M75.9521943,21.7661632 C59.8276852,27.8438287 26.2246331,52.5770734 15.3923614,92.3330151 C11.9032902,87.4368106 9.0160119,82.0472244 6.94956137,76.3080674 C19.4522508,49.8380308 43.5549404,26.7862662 75.9521943,21.7661632 Z M89.0832263,16.1509047 C71.0161653,16.1929417 27.7047781,28.5717326 4.15520696,66.0289141 C2.84763494,59.0087347 2.62417509,51.7650955 3.61757582,44.6630546 C24.627227,23.3038325 56.0753297,9.24798642 89.0832263,16.1509047 Z M117.396254,18.996146 C99.3955667,9.81880466 46.1612346,0.0529452943 5.8742991,34.1936285 C8.84343894,24.4698062 14.0117777,15.6553105 20.7244233,8.33865968 C50.4180342,-4.19057946 88.7026808,-4.09765556 117.396254,18.996146 Z M74.8614447,31.5143228 C74.629135,31.7377826 84.1958717,17.8301723 101.42883,20.3103554 C103.032874,20.4608036 101.800526,24.7839775 100.7673,24.4366191 C98.6765127,23.5936665 96.922021,23.0471855 95.1210673,22.7750512 C95.5325875,25.5450684 94.8312333,28.0827759 92.9285058,29.4810593 C89.8952042,31.6979581 85.1472354,30.3240119 81.8971114,26.472095 C79.7244621,27.8194915 77.5230507,29.5142464 74.8614447,31.5143228 Z"/>
</svg>
