<svg xmlns="http://www.w3.org/2000/svg" width="120" height="120" viewBox="0 0 120 120">
  <path fill="#1B1A19" fill-rule="evenodd" d="M0,63.9555119 C0,63.9555119 5.93011017,81.009052 13.7842958,97.2900147 C20.4427759,111.16062 31.4841064,119.549505 44.9715809,119.549505 C57.6443758,119.549505 66.2143008,109.908077 66.2143008,100.679251 C66.2143008,90.2336678 58.26749,83.3920427 48.8134166,83.3920427 C38.7299137,83.3920427 36.6100625,90.9704582 36.6100625,92.881903 C36.6100625,97.2900147 40.2982247,101.357098 44.9715809,101.357098 C52.3289594,101.357098 52.8804996,95.4817206 52.8804996,95.4817206 C52.8804996,95.4817206 55.1413936,96.9279349 55.1413936,100.679251 C55.1413936,104.285313 52.084766,108.927093 44.9715809,108.927093 C39.2940846,108.927093 30.9515122,105.935724 25.1961266,93.7871027 C18.4302856,79.5628377 17.9650551,75.3694478 17.9650551,75.3694478 L107.118799,75.3694478 L112.202652,63.9555119 L0,63.9555119 Z M73.8979721,0 C60.347344,0 47.8050663,9.62879798 40.6771455,16.6114659 C15.3210301,41.3423619 1.91986527,58.0801347 1.91986527,58.0801347 L114.916146,58.0801347 L120,46.7798751 L28.8127149,46.7798751 C28.8127149,46.7798751 35.6964424,37.3531682 50.5080345,23.3899375 C54.2277735,19.9101817 63.9681426,11.1865834 73.8979721,11.1865834 C80.4196197,11.1865834 85.5371553,15.264192 85.5371553,20.7922251 C85.5371553,26.261315 80.9037962,27.7980493 80.9037962,27.7980493 C81.3879728,25.4613711 79.8196618,19.0976072 73.6727247,19.0976072 C67.2984352,19.0976072 64.6333591,23.9604238 64.6333591,27.2317732 C64.6333591,33.957617 70.7529296,38.7572802 77.853484,38.7572802 C91.5072626,38.7572802 97.8520806,29.0505929 97.8520806,19.6617781 C97.8520806,10.1887587 88.6190443,0 73.8979721,0 L73.8979721,0 Z"/>
</svg>
