<svg xmlns="http://www.w3.org/2000/svg" width="120" height="120" viewBox="0 0 120 120">
  <path fill="#DC0714" d="M60.4137931,4 C92.8965517,4 106.344828,16.6206897 106.344828,16.6206897 C120,29.4482759 120,58.8275862 120,58.8275862 C120,89.4482759 105.931034,102.482759 105.931034,102.482759 C92.6855172,114.724828 61.7251241,115.09209 59.8794215,115.103108 L59.7931034,115.103448 C26.6896552,115.103448 13.4482759,102.689655 13.4482759,102.689655 C0.537931034,90.3751724 0.0215172414,62.8066207 0.000860689655,60.6208397 L0,60.4827586 C0,30.4827586 13.862069,17.0344828 13.862069,17.0344828 C26.7724138,4.52137931 57.7969655,4.02085517 60.2582731,4.00083421 Z M89.8005747,24.4828123 L43.4482759,24.4827586 C41.1724138,24.4827586 39.5172414,25.9310345 39.5172414,25.9310345 L39.5172414,25.9310345 L26.4827586,39.1724138 C24,41.6551724 25.4482759,45.1724138 25.4482759,45.1724138 L25.4482759,45.1724138 L27.3103448,47.6551724 L30.4137931,48.4827586 L54.2068966,48.4827586 L26.4827586,76.2068966 C24.8275862,77.6551724 24.8275862,79.9310345 24.8275862,79.9310345 C24.8275862,82.4137931 26.4827586,83.862069 26.4827586,83.862069 L26.4827586,83.862069 L35.7931034,92.9655172 C37.3414905,94.7074527 39.2520004,94.8198357 39.4920729,94.8270862 L39.5172414,94.8275862 C42,94.8275862 43.4482759,92.9655172 43.4482759,92.9655172 L43.4482759,92.9655172 L71.1724138,65.4482759 L71.1724138,89.2413793 C71.1724138,92.7586207 74.6896552,94.2068966 74.6896552,94.2068966 L74.6896552,94.2068966 L76.5517241,94.8275862 L80.4827586,92.9655172 L93.5172414,80.137931 C95.1724138,78.2758621 95.1724138,76.2068966 95.1724138,76.2068966 L95.1724138,29.862069 C95.1724138,27.7931034 93.5172414,25.9310345 93.5172414,25.9310345 C92.0689655,24.4827586 89.7931034,24.4827586 89.7931034,24.4827586 Z"/>
</svg>
