<svg xmlns="http://www.w3.org/2000/svg" width="120" height="120" viewBox="0 0 120 120">
  <g fill="none" fill-rule="evenodd">
    <path fill="#D81E05" fill-rule="nonzero" d="M118.448451,30.0878873 C118.448451,30.0878873 75.3228169,33.2315493 40.3284507,40.0935211 C40.3284507,40.0935211 37.6343662,40.6039437 35.8614085,40.9588732 C35.8614085,40.9588732 42.0946479,39.9109859 44.0805634,42.24 C46.1594366,44.6771831 49.2338028,50.7887324 24.4901408,72.4952113 C16.2929577,79.6766197 7.14253521,86.0822535 0.169014085,90.6388732 L16.4028169,88.0191549 C23.9543662,80.8309859 43.9047887,64.5785915 61.6309859,55.2811268 C91.6478873,39.5408451 115.254085,31.1814085 118.308169,30.2332394 C118.527887,30.1656338 118.448451,30.0878873 118.448451,30.0878873 Z"/>
    <path fill="#D81E05" fill-rule="nonzero" d="M10.8726761,46.6749296 L25.6833803,48.8991549 C53.5707042,35.9459155 52.2692958,50.1447887 52.2692958,50.1447887 L62.4202817,36.3380282 C55.0039437,37.4383099 47.4997183,38.6890141 40.331831,40.0935211 C40.331831,40.0935211 37.6377465,40.6039437 35.8647887,40.9588732 L10.8692958,46.5684507 L10.8321127,46.5802817 C10.8067606,46.5870423 10.7915493,46.5971831 10.7915493,46.6242254 C10.7915493,46.6461972 10.8084507,46.6614085 10.8321127,46.668169 C10.8507042,46.6715493 10.8726761,46.6749296 10.8726761,46.6749296 Z"/>
  </g>
</svg>
