<svg xmlns="http://www.w3.org/2000/svg" width="120" height="120" viewBox="0 0 120 120">
  <path fill="#E41E26" d="M0,47.8431373 C0,49.4117647 0,50.9803922 0.784313725,52.5490196 C3.92156863,59.6078431 10.9803922,64.3137255 20.3921569,60.3921569 C22.745098,59.6078431 85.4901961,34.5098039 85.4901961,34.5098039 C85.4901961,34.5098039 61.1764706,97.254902 59.6078431,99.6078431 C55.6862745,108.235294 60.3921569,116.862745 67.4509804,119.215686 C69.0196078,120 70.5882353,120 72.1568627,120 C78.4313725,120 83.1372549,116.078431 86.2745098,109.803922 C87.0588235,109.019608 117.647059,24.3137255 118.431373,21.9607843 C118.431373,20.3921569 119.215686,18.0392157 119.215686,15.6862745 C119.215686,11.7647059 117.647059,7.84313725 114.509804,4.70588235 C111.372549,1.56862745 107.45098,0 103.529412,0 C101.176471,0 99.6078431,0 97.254902,0.784313725 C96.4705882,1.56862745 17.254902,31.372549 10.1960784,33.7254902 C3.1372549,36.0784314 0,41.5686275 0,47.8431373"/>
</svg>
