<svg xmlns="http://www.w3.org/2000/svg" width="120" height="120" viewBox="0 0 120 120">
  <g fill="none" fill-rule="evenodd">
    <polygon fill="#F6BC25" fill-rule="nonzero" points="89.129 99.228 119.9 21 69.19 21 0 99.228"/>
    <path fill="#FFFFFE" d="M85.2653235,71.0691667 C85.3986568,70.4991667 85.5028235,69.7541667 85.5628235,69.2933333 C85.6228235,68.8325 84.6986568,66.3008333 84.4894902,65.6758333 C84.2803235,65.0508333 83.9453235,63.225 84.0719902,62.7816667 C84.2511568,62.1575 84.4303235,61.7625 84.6686568,61.2683333 C84.9069902,60.775 85.0861568,60.48 85.5628235,59.8875 C86.0394902,59.2958333 87.1136568,57.5191667 87.4719902,55.9416667 C87.5861568,55.4366667 88.9919902,53.3766667 89.0819902,53.3108333 C89.1919902,53.2283333 89.1411568,54.6916667 89.0819902,55.02 C89.0211568,55.3491667 90.7211568,54.6916667 90.8703235,54.5591667 C91.0203235,54.4283333 90.1853235,56.73 90.0353235,56.9275 C89.8869902,57.125 90.8111568,56.895 91.0494902,56.7958333 C91.2878235,56.6975 91.9144902,57.0266667 91.8253235,57.1908333 C91.7353235,57.355 89.2603235,60.0191667 88.7836568,60.2825 C88.3061568,60.545 87.9178235,61.2358333 87.7094902,61.5983333 C87.5011568,61.9591667 87.3819902,63.9991667 87.7094902,63.505 C88.0386568,63.0116667 89.6178235,61.8608333 89.7969902,61.795 C89.9761568,61.7291667 90.6911568,62.3216667 90.6911568,62.3216667 C90.6911568,62.3216667 87.2928235,66.235 87.2328235,66.6625 C87.1728235,67.09 88.2236568,66.4458333 88.2236568,66.4458333 C88.2236568,66.4458333 87.7994902,70.7075 87.6503235,71.5958333 C87.5011568,72.4833333 87.0244902,73.3391667 86.7561568,73.7 C86.4869902,74.0625 85.5628235,74.3908333 84.9669902,74.49 L83.3428235,74.755 C83.5036568,75.6566667 83.6544902,76.7933333 83.5953235,77.1208333 C83.5053235,77.6133333 83.1478235,78.9958333 82.2228235,80.0808333 C81.2986568,81.1658333 80.8219902,81.7575 80.5528235,82.2508333 C80.2853235,82.745 80.1061568,84.4875 80.3736568,84.9475 C80.6428235,85.4083333 81.6861568,87.6125 81.6861568,88.105 C81.6861568,88.5983333 81.4778235,89.0266667 81.2694902,89.42 C81.0611568,89.8158333 80.4044902,91.4933333 80.2553235,92.1175 C80.1061568,92.7425 79.9569902,94.6175 79.9569902,94.6175 C79.9569902,94.9125 79.2119902,96.6558333 79.1819902,96.7866667 C79.1519902,96.92 78.0794902,97.6758333 77.4528235,97.5766667 C76.8261568,97.4775 76.0211568,97.6425 75.9011568,97.445 C75.7828235,97.2483333 75.6036568,96.7866667 75.6636568,96.5241667 C75.7219902,96.2608333 76.8261568,95.1433333 77.0944902,94.88 C77.3628235,94.6175 78.3469902,92.4133333 78.5853235,91.5258333 C78.8244902,90.6375 79.0619902,88.6641667 78.9436568,88.3683333 C78.8244902,88.0716667 76.7961568,86.1975 76.4978235,85.6716667 C76.2003235,85.1458333 75.6111568,83.6133333 75.2828235,82.6591667 C74.9544902,81.7058333 73.8144902,82.8108333 73.5169902,83.1716667 C73.2178235,83.5333333 72.5611568,84.9475 72.7403235,85.4741667 C72.9194902,86 73.6353235,86.855 73.6353235,86.9875 C73.6353235,87.1191667 73.0694902,88.0066667 72.8011568,88.0391667 C72.5319902,88.0716667 71.6378235,88.2041667 71.1903235,88.3025 C70.7436568,88.4016667 67.6119902,89.6183333 67.4328235,89.6183333 L66.4794902,89.6183333 C66.2103235,89.6183333 65.9128235,91.1633333 65.8228235,91.3941667 C65.7336568,91.6241667 65.1953235,92.1133333 64.9886568,92.1833333 C64.2128235,92.4458333 63.0203235,91.92 62.6628235,91.6566667 C62.4394902,91.4933333 61.9461568,90.835 62.2453235,90.4725 C62.5428235,90.1116667 63.5569902,88.6966667 64.0336568,88.105 C64.2919902,87.7858333 66.1811568,87.9733333 67.4919902,87.5125 C68.0044902,87.3333333 70.2961568,86.5266667 70.4753235,86.0658333 C70.6536568,85.6058333 70.8394902,85.5208333 70.7203235,85.2241667 C70.6011568,84.9291667 70.2436568,84.4683333 69.8853235,84.0733333 C69.5278235,83.6791667 67.5528235,81.9883333 68.5069902,80.7383333 C69.1219902,80.745 71.4286568,81.0016667 70.4144902,80.7383333 C69.4011568,80.475 68.4469902,80.6725 67.4328235,80.6725 C66.4186568,80.6725 65.9419902,80.6066667 65.1669902,80.4091667 C64.3919902,80.2125 62.2453235,78.5016667 61.5294902,77.7133333 C60.8136568,76.9233333 57.7719902,74.6875 57.2944902,74.49 C56.8178235,74.2925 56.4603235,74.1608333 56.2211568,73.9641667 C55.9828235,73.7658333 56.0194902,73.385 55.6628235,72.6616667 C55.3044902,71.9383333 53.3586568,68.8325 53.0003235,68.57 C52.6428235,68.3075 51.3911568,70.74 51.0928235,71.3983333 C50.7944902,72.0566667 50.9736568,72.78 51.0928235,73.1083333 C51.2119902,73.4375 51.3303235,73.7 51.3303235,74.0291667 C51.3303235,74.3575 51.2119902,75.0158333 50.9136568,75.4108333 C50.6153235,75.8058333 51.0328235,75.8708333 51.2711568,76.265 C51.5094902,76.66 51.0328235,77.8441667 50.7344902,78.3708333 C50.4369902,78.8966667 50.0786568,79.2258333 49.8403235,79.16 C49.6011568,79.0941667 49.2436568,78.3708333 48.9461568,77.8441667 C48.6469902,77.3183333 48.7069902,76.8575 48.8861568,76.3975 C49.0644902,75.9366667 49.1244902,75.74 49.1244902,75.345 C49.1244902,74.95 48.5878235,74.6216667 48.5286568,74.095 C48.4686568,73.5691667 48.6469902,73.1741667 49.0053235,72.5825 C49.3628235,71.99 50.3769902,69.2933333 50.4961568,68.7666667 C50.6153235,68.2408333 50.7028235,67.1266667 50.9136568,66.7283333 C51.3303235,65.9391667 52.2853235,65.9391667 52.7028235,66.2016667 C53.1203235,66.465 55.8411568,67.86 55.2144902,67.4325 C55.2028235,67.3825 55.1303235,67.0608333 55.0286568,66.0708333 C54.9144902,66.1925 53.5453235,64.1066667 53.2994902,63.8341667 C52.9411568,63.44 52.7028235,63.11 52.2253235,63.505 C51.7486568,63.8991667 49.1844902,66.1358333 49.5419902,66.6625 C49.9003235,67.1891667 49.1844902,67.9125 49.1844902,67.9125 C49.1844902,67.9125 49.0519902,68.5958333 49.4828235,68.8325 C50.7944902,69.5566667 49.4319902,71.1458333 49.3628235,71.3325 C49.3628235,71.3325 48.2103235,71.3275 47.9919902,71.2666667 C47.9119902,71.245 46.7986568,69.7541667 46.8586568,69.3591667 C46.9178235,68.965 47.0969902,68.4383333 47.1561568,68.1091667 C47.2161568,67.7808333 47.0378235,67.32 46.9178235,67.1233333 C46.8586568,67.025 46.8844902,66.7658333 47.1561568,66.3991667 C47.6928235,65.6758333 48.4686568,64.4916667 49.1244902,63.7683333 C49.7803235,63.045 51.3303235,60.48 51.6294902,60.3483333 C51.9278235,60.2166667 52.1069902,59.8875 52.4636568,60.085 C52.8219902,60.2825 54.2136568,61.135 54.2136568,61.135 C53.9053235,60.4741667 53.4469902,59.4883333 53.3361568,59.2441667 C53.1569902,58.8491667 52.9411568,58.0458333 53.1794902,57.98 C53.4186568,57.9141667 53.7761568,57.9141667 54.2536568,58.5066667 C54.7303235,59.0983333 53.0386568,56.415 52.7394902,55.9541667 C52.4411568,55.495 52.3453235,54.6916667 52.3453235,54.6916667 C52.3453235,54.6916667 53.2394902,55.02 53.5378235,55.415 C53.8361568,55.8091667 53.0386568,54.3108333 52.7994902,53.9158333 C52.5611568,53.5208333 52.1069902,52.7841667 52.3453235,52.5858333 C52.5836568,52.3891667 53.1569902,52.205 52.7394902,51.6133333 C52.3228235,51.0216667 51.7486568,49.2975 51.5694902,48.8375 C51.3911568,48.3775 53.1203235,49.035 53.1203235,49.035 C52.6428235,48.4433333 50.1253235,44.3275 50.3769902,43.7725 C50.6753235,43.115 52.6794902,44.8391667 52.2628235,44.2466667 C51.8453235,43.655 48.2619902,38.8733333 48.8861568,38.2475 C49.3894902,37.7433333 50.0678235,38.4 50.0878235,38.3766667 C50.0928235,38.37 50.0386568,38.3 49.9003235,38.1158333 C49.3036568,37.3266667 46.9769902,34.6291667 47.4544902,34.0383333 C47.9311568,33.4466667 47.9311568,33.4466667 48.7069902,34.0383333 C49.4828235,34.6291667 49.3119902,34.1341667 48.5053235,33.4591667 C46.6794902,31.9333333 46.3753235,30.6966667 46.3811568,30.6833333 C46.3869902,30.6725 48.6186568,30.9008333 50.3236568,32.5425 C48.8594902,30.8925 44.7603235,26.1333333 45.0694902,25.75 C45.5461568,25.1583333 49.7211568,28.0525 51.3911568,29.6308333 C53.0611568,31.21 56.1619902,35.485 57.5328235,37.7875 C58.7628235,39.8508333 61.1611568,46.5758333 61.1111568,46.6016667 C61.4553235,46.6716667 61.7003235,46.8075 62.0661568,46.93 C62.7519902,47.1608333 63.9744902,48.015 64.6303235,48.64 C65.2861568,49.265 65.8528235,50.2183333 66.3594902,51.1391667 C66.8661568,52.0608333 67.3144902,53.7708333 67.5528235,54.8883333 C67.7911568,56.0075 67.7319902,57.8158333 67.6711568,58.6375 C67.6119902,59.46 67.3469902,60.7441667 67.1944902,61.1375 C67.0078235,61.6166667 66.7653235,62.0375 66.7169902,62.1241667 C66.6894902,61.7191667 66.5686568,62.8808333 66.8369902,63.8991667 C67.0103235,64.5583333 67.3044902,65.4233333 67.5236568,65.8241667 C67.9419902,65.45 68.8436568,64.6616667 69.2819902,64.0975 C69.9978235,63.1758333 70.4144902,61.1041667 70.3561568,59.1641667 C70.3011568,57.3875 69.9378235,54.0341667 69.6403235,52.3891667 C69.3411568,50.7441667 69.1619902,48.3108333 69.3411568,46.6666667 C69.5203235,45.0225 70.4753235,41.865 71.2494902,40.4183333 C72.0261568,38.9716667 74.4103235,35.9458333 75.8419902,34.5641667 C77.2736568,33.1825 77.8094902,32.6566667 79.5994902,31.1441667 C81.3878235,29.6308333 85.5628235,27.2633333 86.9936568,26.4733333 C88.4261568,25.6841667 91.2286568,24.5 92.4211568,24.1716667 C93.6144902,23.8425 98.6011568,22.3958333 99.3386568,22.3958333 C100.412824,22.3958333 99.3386568,23.58 98.8019902,23.9741667 C98.2653235,24.3691667 96.4169902,26.0141667 95.6411568,26.6058333 C95.0436568,27.0616667 95.8203235,27.395 96.4169902,27.2633333 C97.0128235,27.1308333 97.4894902,27.7891667 97.1919902,28.3808333 C96.8944902,28.9725 92.7194902,32.8541667 93.3753235,32.7225 C94.0311568,32.5908333 95.0453235,32.525 95.2244902,33.1825 C95.3953235,33.8133333 90.0953235,37.59 90.6911568,37.3925 C91.2878235,37.1958333 91.5261568,38.1158333 91.4078235,38.445 C91.2878235,38.7733333 89.9761568,40.0891667 89.0819902,40.55 C88.1869902,41.01 86.8744902,41.7341667 87.6503235,41.7341667 C88.4261568,41.7341667 87.1136568,43.3116667 86.5769902,43.8383333 C86.0394902,44.365 84.5519902,45.8308333 84.6686568,46.1408333 C84.9669902,46.93 84.1903235,47.9166667 83.2369902,48.7058333 C82.2828235,49.495 81.7919902,49.6425 82.2828235,50.0208333 C82.8786568,50.4816667 82.1644902,51.3366667 81.6269902,51.9283333 C81.0903235,52.5208333 79.8611568,53.3108333 80.6728235,53.3108333 C81.7461568,53.3108333 81.2094902,54.6916667 80.7319902,55.1516667 C80.2553235,55.6125 79.1219902,55.9416667 79.4794902,56.5991667 C79.8969902,57.3666667 79.3003235,57.8491667 78.8244902,58.1775 C78.3469902,58.5066667 77.3644902,58.1975 78.1678235,58.7033333 C78.5853235,58.9675 76.8553235,60.7425 76.8553235,61.0058333 C76.8553235,61.6633333 76.0211568,62.0583333 76.0211568,62.65 C76.0211568,64.1283333 73.6944902,64.2283333 73.8144902,64.5583333 C74.0878235,65.3133333 73.3961568,65.8075 72.8603235,66.0708333 C72.3236568,66.3333333 71.3694902,66.465 71.9053235,66.9908333 C72.4644902,67.5391667 70.2469902,68.5525 70.5344902,68.5041667 C70.6103235,68.6083333 72.9794902,69.3916667 73.6944902,69.3591667 C74.4103235,69.3258333 78.6453235,69.425 78.9436568,69.4908333 C79.2411568,69.5566667 81.5078235,71.0366667 81.9853235,71.6616667 C82.4619902,72.2858333 82.9394902,73.1083333 83.1178235,73.7 C83.1394902,73.7741667 84.7878235,73.1083333 85.2653235,71.0691667"/>
    <path fill="#CF242A" d="M68.0444902,82.1808333 C67.8911568,81.8341667 67.7878235,81.5158333 67.6478235,81.2591667 C67.5878235,81.1475 67.5228235,81.0466667 67.4686568,80.9625 C66.5736568,80.9625 65.5011568,80.9625 64.7253235,80.7 C64.0356939,80.4659259 62.5460643,79.140823 61.7629367,78.386877 L61.5053235,78.1341667 L60.8433018,77.4628126 C60.1365124,76.7490185 59.2263235,75.8588333 58.7019902,75.5691667 L58.3992746,75.4058398 C57.7137124,75.0427481 56.8730457,74.6395556 56.6144902,74.5825 L56.4141516,74.5342839 C56.238136,74.4882292 56.1378235,74.4516667 56.1378235,74.4516667 L55.0834923,72.1577255 C54.963408,71.901373 54.853136,71.6689583 54.7661568,71.4908333 L54.4362245,70.825993 C54.1528235,70.2706061 53.8928235,69.8227273 53.6328235,69.5833333 L53.4191902,69.38908 C53.1367902,69.1386 52.8693235,68.939 52.6786568,68.9916667 C52.4612326,69.0515152 52.2940838,69.6003444 52.1308795,69.9964062 L51.6899749,70.9864232 C51.6346502,71.112939 51.5819365,71.2354767 51.5364335,71.3446262 L51.4261568,71.6225 C51.3069902,71.9516667 51.0686568,72.0833333 51.3069902,72.6091667 C51.5453235,73.135 51.7844902,73.6616667 51.7244902,73.9908333 C51.6644902,74.3191667 51.3069902,74.9766667 51.3069902,74.9766667 L51.2935502,75.1557333 C51.2877902,75.3137333 51.2949902,75.5428333 51.3669902,75.7008333 C51.4853235,75.9641667 52.0228235,76.4241667 51.8436568,76.7525 C51.6644902,77.0816667 51.1878235,78.4633333 50.8303235,78.9241667 C50.4719902,79.3841667 50.2328235,79.5816667 49.9944902,79.6475 C49.7958791,79.7016667 49.8038652,79.6655556 49.6051576,79.3853279 L49.4578235,79.1866667 C49.1003235,78.7258333 48.5636568,77.9366667 48.5036568,77.4758333 C48.4444902,77.0166667 48.2653235,76.8183333 48.5036568,76.49 C48.7428235,76.1608333 48.9811568,75.5691667 48.9811568,75.5691667 L48.6228235,75.0433333 C48.4444902,74.78 48.0269902,74.4516667 48.2061568,73.8591667 L48.5387757,72.7145336 C48.6312083,72.4062346 48.7223606,72.1268519 48.8019902,71.9516667 L48.9236568,71.6775 L48.3314314,71.6186565 C48.1584868,71.5995238 47.9842521,71.5780952 47.8478235,71.5566667 C47.4311568,71.4908333 47.3703235,71.2275 47.1319902,70.8991667 C46.8936568,70.57 46.8936568,69.8466667 46.6553235,69.5183333 C46.4161568,69.1891667 46.5361568,68.7283333 46.6553235,68.4658333 C46.7744902,68.2025 47.0128235,67.8733333 47.0128235,67.8733333 L46.917647,67.7158878 C46.819931,67.5469972 46.6716872,67.2691667 46.5953235,67.0183333 C46.5211568,66.7716667 46.6328235,66.5 46.7269902,66.3291667 C46.7836568,66.2275 46.8336568,66.1633333 46.8336568,66.1633333 L48.9211568,63.5325 C49.2713235,63.098 50.038268,62.0271296 50.5870539,61.2532321 L51.3795519,60.1285185 C51.5383791,59.9142593 51.6444902,59.8266667 51.9628235,59.6516667 C52.4394902,59.3883333 52.6186568,59.7175 53.1553235,59.9141667 C53.3144902,59.9733333 53.4728235,60.0775 53.6361568,60.2033333 C53.3869902,59.8375 53.0228235,59.2808333 52.8569902,58.5991667 L52.7805047,58.2999415 C52.6431833,57.7937253 52.6020719,57.8061984 52.6987908,57.7124715 L52.7978235,57.6125 C53.0361568,57.3491667 53.2753235,57.415 53.2753235,57.415 L53.0433349,57.085519 C52.7950121,56.7216436 52.4159118,56.1309804 52.2611568,55.705 C52.0228235,55.0475 51.9628235,54.3233333 51.9628235,54.3233333 L51.9945423,54.2833464 C52.0561048,54.2126042 52.2015735,54.0772917 52.3803235,54.1266667 C52.5094902,54.1616667 52.5686568,54.1975 52.5953235,54.2225 L52.4435397,53.9809766 C52.2405318,53.649375 51.9230318,53.095 51.8436568,52.745 L51.7299108,52.2945145 C51.6945839,52.1276233 51.7200671,52.0621795 51.9036568,52.0216667 L52.2059099,51.9579012 C52.4002309,51.9188889 52.5594902,51.89 52.5594902,51.89 L52.104616,51.0103043 C51.8102133,50.4276033 51.4642629,49.7131818 51.3669902,49.39 L51.2482073,48.9965684 C51.1783958,48.7517568 51.1634684,48.6279727 51.2188873,48.4729577 L51.2469902,48.4041667 C51.3669902,48.1408333 51.2469902,48.075 51.6644902,48.2066667 L51.8757518,48.2815818 C52.227893,48.4185417 52.5594902,48.6008333 52.5594902,48.6008333 L52.1560938,47.9832468 C51.8555167,47.5140479 51.4545988,46.8677874 51.1996746,46.3759277 L51.1278235,46.2333333 C50.7103235,45.3783333 50.3528235,44.9833333 50.1736568,44.3258333 L50.0894092,44.0293248 C49.9583328,43.5878704 49.8761568,43.405 49.8761568,43.405 L49.8950229,43.3717673 C49.9406013,43.3009671 50.0741198,43.1416667 50.3528235,43.1416667 C50.7103235,43.1416667 51.1878235,43.2075 51.1878235,43.2075 L50.3411362,41.9340336 C49.8446614,41.1733374 49.2608131,40.2511382 48.9771954,39.701811 L48.4327835,38.6102933 C48.2438235,38.2141333 48.1578235,37.9458333 48.2653235,37.7483333 C48.4444902,37.4191667 48.9211568,37.5508333 48.9211568,37.5508333 L49.1603235,37.6175 L48.0137235,35.96906 C47.6501235,35.4385 47.3113235,34.9331667 47.1919902,34.7225 L47.0525437,34.4712165 C46.8777615,34.142259 46.8553235,34.0051515 46.9528235,33.7358333 C47.0728235,33.4075 47.3111568,33.4075 47.5494902,33.3416667 C47.7878235,33.275 48.0269902,33.3416667 48.0269902,33.3416667 L47.681345,33.0454238 C47.2417824,32.6594229 46.5200604,31.9914474 46.3569902,31.6316667 L46.1874452,31.2502542 C46.1022552,31.0481792 46.0684852,30.9314542 46.0605752,30.7857792 L46.0586568,30.71 C46.0586568,30.4475 45.9394902,30.3158333 46.3569902,30.3158333 C46.7744902,30.3158333 47.3111568,30.3816667 47.7286568,30.5791667 L48.7428235,31.0391667 L48.7428235,31.0391667 L46.5953235,28.4083333 L46.5953235,28.4083333 L46.1612871,27.8905078 C45.811873,27.4795378 45.4971269,27.1199186 45.2467526,26.8114469 L44.8719697,26.3329916 C44.6373847,26.0200838 44.5036568,25.7673718 44.6869902,25.5141667 C44.9253235,25.185 44.7461568,24.9883333 45.7003235,25.2516667 C46.6553235,25.5141667 48.9811568,26.83 49.9353235,27.6183333 C50.8480047,28.3739855 53.0705661,30.6941745 53.7310438,31.4699155 L53.8111568,31.5658333 C54.3209902,32.1904583 56.0153548,34.4771875 56.6436412,35.4937983 L56.7336568,35.6433333 C57.2479624,36.5265972 59.0220104,39.7640336 59.5892198,41.1903988 L60.6413375,44.0030241 C60.8186959,44.490651 60.9614693,44.9101042 61.0286568,45.1816667 C61.1278235,45.5866667 61.1911568,45.93 61.2269902,46.1541667 C61.4369902,46.1916667 61.6536568,46.2483333 61.8628235,46.3316667 C62.8796656,46.7374561 64.5920756,47.8799492 65.1500082,48.6700921 L65.2319902,48.7983333 C65.5578235,49.3733333 66.5736568,50.5083333 66.9019902,51.43 L67.0143252,51.7632758 C67.3888152,52.9230833 68.0644902,55.4160833 68.0644902,56.3633333 L68.064605,57.1683616 L68.0582327,57.7543959 C68.0393953,58.7697958 67.9716132,59.9391369 67.7369902,60.6708333 C67.4033235,61.7146111 67.146605,62.1282852 67.041363,62.4186486 L67.0211568,62.4791667 C66.9803235,62.6158333 66.9386568,62.7308333 66.9069902,62.8158333 L66.9358443,63.0446875 C66.9451152,63.1102083 66.9540735,63.1641667 66.9628235,63.2041667 C67.0511568,63.6308333 67.1711568,64.1241667 67.3503235,64.5191667 C67.4494902,64.7375 67.5936568,64.9575 67.7036568,65.1091667 C68.5219902,64.3358333 69.7486568,62.86 69.8536568,61.23 C69.9693711,59.4541071 69.8619222,55.4155867 69.2660545,52.0621366 L69.0850861,51.0871987 C68.5884452,48.3302841 68.7742013,47.94651 68.8887577,46.754643 L68.9003235,46.6283333 C69.0186568,45.2475 69.6719902,41.9325 70.5094902,40.445 C71.8819902,38.0116667 74.6253235,34.5916667 76.5336568,32.8808333 C78.4419902,31.1708333 81.7819902,28.7366667 83.5111568,27.7508333 L84.0288797,27.4589601 C85.8994282,26.4157094 89.1283538,24.7250758 91.0253235,24.0675 L91.6846885,23.84363 C93.6379035,23.1928558 96.2448606,22.427445 97.7491623,22.1952994 L98.470151,22.1038433 C99.8209985,21.9480083 100.674574,21.9360833 100.030324,22.8833333 C99.3629902,23.8648889 98.175168,25.0192148 97.535323,25.543437 L97.4069902,25.6458333 C96.8094902,26.1058333 95.8561568,27.0266667 95.8561568,27.0266667 L95.9958183,26.9691797 C96.2583964,26.870625 96.8394902,26.698125 97.2869902,26.895 C97.8836568,27.1591667 98.1219902,27.5533333 97.4661568,28.54 C96.860003,29.4507692 95.8995296,30.5859172 95.2395205,31.220528 L94.7176902,31.7049933 C94.2750235,32.1259 94.0078235,32.4208333 94.0078235,32.4208333 L94.203946,32.4139043 C94.4995242,32.410017 95.0472283,32.43 95.2603235,32.6175 L95.3443153,32.6983952 C95.6038326,32.973373 95.7709981,33.4355556 94.9619902,34.3275 C94.2348027,35.1298438 93.1142721,36.0185579 92.4313357,36.5350403 L91.8195232,36.9915889 C91.468144,37.2598964 91.3828235,37.3541667 91.3828235,37.3541667 L91.4392773,37.4116188 C91.5985761,37.5841753 92.0152255,38.1160784 91.6219902,38.6033333 L91.3131302,38.9860467 C90.8702235,39.5270333 90.2978235,40.1685 89.5344902,40.6425 L88.2227633,41.472985 C88.0675631,41.5736198 87.9836568,41.6291667 87.9836568,41.6291667 L88.0141635,41.71176 C88.0789902,41.9264 88.1743235,42.5366667 87.5069902,43.2733333 L87.1860422,43.6173677 C86.295321,44.5518812 84.9428235,45.8391667 84.9428235,45.8391667 L84.991536,45.8935492 C85.161111,46.0927042 85.6883235,46.8026667 85.1811568,47.4175 L85.0100361,47.616033 C84.3081707,48.4034433 82.8544902,49.785 82.8544902,49.785 L82.8925149,49.8849451 C82.9636671,50.1097325 83.0670828,50.6837037 82.5569902,51.2975 L81.2444902,52.8766667 L81.3955009,52.9641691 C81.6146943,53.1023129 81.9860378,53.3842857 81.9003235,53.6658333 C81.7819902,54.0608333 81.2444902,55.0475 80.7086568,55.5733333 L80.1979699,56.0855223 C79.9858018,56.3041963 79.8728235,56.4291667 79.8728235,56.4291667 L79.9137934,56.4709975 C80.0269931,56.5994781 80.3044902,57.0161275 79.8144902,57.6125 C79.2169902,58.3366667 78.6211568,58.7958333 78.6211568,58.7958333 L78.6291845,58.9040931 C78.6339827,59.1256373 78.5851765,59.6437255 78.0836568,60.0458333 L77.2486568,60.7041667 L77.2486568,60.7041667 L77.2664712,60.7500895 C77.3071041,60.8790104 77.3653756,61.2629167 76.8311568,61.6908333 L76.373774,62.0674593 C76.248774,62.1765495 76.2953235,62.1508333 76.2953235,62.1508333 L76.3400982,62.2171658 C76.4257377,62.3564694 76.5848107,62.6874359 76.3553235,62.94 C76.0561568,63.2691667 75.3403235,63.9925 74.5653235,64.3216667 L74.6102526,64.4270302 C74.6952001,64.6594033 74.8243976,65.2276852 74.2669902,65.6366667 C73.8719902,65.9283333 73.5128235,66.1583333 73.1894902,66.3291667 C72.9294902,66.4666667 72.6919902,66.565 72.4786568,66.6241667 C72.0011568,66.755 72.5969902,67.2158333 72.1794902,67.6108333 C71.7619902,68.005 71.7619902,68.3341667 71.2253235,68.4658333 L71.1711568,68.4783333 C71.2836568,68.5533333 71.4219902,68.6375 71.5536568,68.695 C71.8221568,68.81425 72.1142818,68.772175 72.6706018,68.738875 L72.8661568,68.7283333 C73.1110973,68.7164286 73.4928363,68.7087755 73.9231889,68.7038557 L76.5698866,68.6914057 C77.1601707,68.6802071 77.3846184,68.6545513 78.2928235,68.7941667 C79.3661568,68.9591667 79.9328235,69.3858333 80.9169902,70.0108333 C81.9003235,70.6358333 82.4669902,71.5241667 82.9144902,72.1158333 C83.1169902,72.3841667 83.3136568,72.8266667 83.4794902,73.2725 L83.5703235,73.2341667 C83.9578235,73.0691667 84.4661568,72.4116667 84.7336568,71.4258333 C85.0019902,70.4383333 85.2111568,69.1891667 85.1219902,68.695 C85.0528235,68.3166667 84.6486568,67.18 84.3711568,66.33 L85.1561568,66.3291667 C85.3053235,66.6883333 85.4586568,67.0625 85.5694902,67.4458333 C85.7778235,68.1691667 85.9569902,68.8933333 85.8961568,69.3533333 L85.8201022,69.9893685 C85.7673027,70.3888151 85.688136,70.8330208 85.5386568,71.1616667 C85.3003235,71.6883333 84.7936568,72.4775 84.5544902,72.7733333 L84.3630839,73.0030469 C84.1965475,73.1971224 84.021222,73.3881055 83.9030253,73.5031608 L83.6436568,73.7408333 L83.7119902,73.9541667 C83.7561568,73.9716667 83.8086568,73.995 83.8694902,74.0233333 C84.0786568,74.1216667 84.2569902,74.3516667 84.8528235,74.2533333 C85.4486568,74.155 86.1353235,73.8925 86.4036568,73.53 L86.5591352,73.317473 C86.8489115,72.9124769 87.2640735,72.26375 87.3869902,71.5241667 C87.5219902,70.7246667 87.5827402,69.8191917 87.6591502,69.2384592 L87.6853235,69.0575 C87.7744902,68.4983333 87.8053235,67.9391667 87.9244902,67.5116667 C88.0144902,67.1866667 88.2094902,66.595 88.2969902,66.33 L89.0286568,66.3291667 C88.8746568,66.9140556 88.5638568,68.7569741 88.5007428,69.4526877 L88.4911568,69.5833333 C88.4611568,70.1758333 88.2219902,71.8191667 87.7161568,72.7083333 L87.2457559,73.5560139 C87.0657351,73.8753603 86.9210647,74.0964615 86.7279593,74.2549651 L86.6419902,74.3191667 C86.2544902,74.5825 86.0161568,74.9441667 85.5694902,74.9108333 L85.0280839,74.8707552 C84.7202714,74.8445833 84.4241777,74.8086458 84.2569902,74.7466667 C84.1219902,74.6975 84.0036568,74.6725 83.9169902,74.6608333 C84.0211568,75.1616667 84.0444902,76.4658333 83.9878235,77.1808333 C83.9286568,77.9366667 83.5111568,78.7258333 83.1236568,79.4833333 C82.7353235,80.2391667 82.2586568,80.6666667 81.5136568,81.4558333 C81.2819902,81.7008333 81.1078235,81.945 80.9761568,82.1808333 L80.974287,82.1804304 L80.8750012,82.3749268 C80.6595553,82.8240365 80.5827193,83.23 80.5294902,83.5275 C80.4394902,84.0216667 80.5294902,84.4158333 80.6786568,84.8758333 C80.8269902,85.3366667 81.4236568,85.9283333 81.6919902,86.2908333 C81.927511,86.6065625 82.0022506,86.8986849 82.0172555,87.1644092 L82.0266516,87.7679167 C82.0301673,88.1004036 82.0278235,88.485625 81.9903235,88.6908333 L81.9228168,89.1111133 C81.8927568,89.3149333 81.8711568,89.4808333 81.8711568,89.4808333 L81.6700211,89.6159245 C81.5044902,89.7331481 81.2696985,89.9138194 81.0961568,90.1058333 C80.8302309,90.3976852 80.9192021,90.5334877 80.8790467,90.8146582 L80.8569902,90.9275 C80.7805616,91.2382143 80.7261739,91.7172959 80.5993663,92.0545991 L80.5294902,92.21 C80.3503235,92.5391667 80.2911568,92.9658333 80.2011568,93.2633333 C80.1119902,93.5583333 80.2911568,94.1175 80.2911568,94.4466667 C80.2911568,94.7288095 80.2029936,94.8897279 80.0088245,95.1367104 L79.9028235,95.2683333 C79.6353235,95.5983333 79.5144902,95.795 79.4853235,95.9925 C79.461018,96.1570833 79.4772217,96.2528009 79.5527425,96.3756211 L79.6714173,96.5461068 C79.7132923,96.6152083 79.6796985,96.6333333 79.5453235,96.7808333 L79.2891865,97.0818829 C79.1597793,97.2327381 79.004133,97.4017857 78.8003235,97.5708333 C78.4745659,97.8397727 78.1990838,97.7829545 77.6351595,97.8686983 L77.4569902,97.8991667 C76.8290735,98.0198611 76.8768802,97.9192824 76.4302652,97.8766479 L76.2953235,97.8666667 C75.6986568,97.8333333 75.8478235,97.7683333 75.5494902,97.7025 C75.2519902,97.6366667 75.3403235,97.4058333 75.2519902,97.045 C75.1619902,96.6825 75.3103235,96.3208333 75.4003235,96.025 C75.4795828,95.762037 75.8656733,95.3950412 76.1810917,95.0627229 L76.6722477,94.5292493 C76.7846821,94.4104373 76.8854183,94.3097522 76.9789824,94.2272595 L77.0703235,94.1508333 C77.2794902,93.9866667 77.2194902,93.8875 77.3686568,93.5258333 C77.5178235,93.1641667 77.9053235,92.5066667 78.0836568,92.0458333 C78.2628235,91.5858333 78.5311568,90.0075 78.5911568,89.2833333 C78.6503235,88.5591667 78.2336568,87.8691667 78.0236568,87.5733333 C77.8153235,87.2766667 77.0403235,86.8166667 76.6828235,86.5533333 C76.3244902,86.2908333 76.4136568,86.06 75.9969902,85.4025 C75.5794902,84.7441667 75.4311568,83.9883333 75.2811568,83.5933333 L75.1886568,83.3616667 C75.1526152,83.2745833 75.1119902,83.1791667 75.0686568,83.08 L74.9708443,83.08875 L74.9708443,83.08875 L74.8636568,83.1 C74.5953235,83.1333333 74.5653235,83.1991667 73.9094902,83.4291667 C73.2528235,83.6591667 73.2836568,84.0216667 73.1344902,84.3166667 C72.9853235,84.6133333 73.0153235,84.975 73.0153235,85.3366667 C73.0153235,85.6983333 73.7011568,86.4225 73.8794902,86.685 C74.0586568,86.9483333 73.9694902,87.08 73.7903235,87.4416667 C73.6335527,87.758125 73.4991126,87.8225651 73.288748,88.0107015 L73.1936568,88.1 C72.9253235,88.3625 72.8661568,88.2966667 72.0611568,88.4608333 C71.2553235,88.625 70.3911568,88.6908333 69.6453235,88.8891667 C68.9003235,89.0858333 68.1244902,89.415 67.8269902,89.645 L67.6115272,89.8092593 C67.5120828,89.8822222 67.4789346,89.8966667 67.3794902,89.94 C67.2303235,90.0075 66.9628235,89.9075 66.6044902,89.94 C66.2819902,89.97075 66.3226402,90.1068 66.2896477,90.3013725 L66.2753235,90.3683333 C66.2161568,90.5991667 66.2161568,90.895 66.1569902,91.29 C66.0969902,91.6841667 65.9178235,91.8816667 65.6494902,92.1116667 C65.3811568,92.3416667 64.9044902,92.5066667 64.5469902,92.605 C64.1894902,92.7033333 63.7111568,92.5066667 63.4728235,92.4741667 C63.2344902,92.44 62.8469902,92.1441667 62.3986568,91.7166667 C61.9528235,91.29 62.1011568,91.2566667 61.8628235,90.8291667 C61.6236568,90.4008333 61.9528235,90.1058333 62.1611568,89.875 C62.3694902,89.645 62.8169902,89.0525 63.0253235,88.8558333 C63.2344902,88.6583333 63.4136568,88.2641667 63.6519902,87.8691667 C63.8903235,87.475 64.6061568,87.5075 64.9928235,87.5408333 C65.3256807,87.5686905 65.6358847,87.5004252 66.0373133,87.4388946 L66.2461568,87.4091667 C66.5276383,87.3721296 66.7080396,87.3353498 66.8538043,87.2986843 L67.1711568,87.2108333 C67.3916926,87.1504762 67.6388142,87.0326361 68.4129316,86.7785818 L68.6011568,86.7175 C69.5261568,86.4225 69.9736568,86.1591667 70.2119902,85.8958333 C70.4503235,85.6333333 70.1219902,85.14 69.9136568,84.7441667 C69.7053235,84.35 69.1678235,83.9883333 68.8403235,83.5933333 C68.6527045,83.3680952 68.5431807,83.1855782 68.4392934,82.984519 L68.1844902,82.475 C68.1328235,82.375 68.0853235,82.2766667 68.0444902,82.1808333 Z M51.7844902,60.375 C51.4853235,60.5066667 51.3669902,61.0325 51.1278235,61.4275 L50.9995914,61.627536 C50.6550754,62.1456519 49.9070457,63.1682222 49.3386568,63.7958333 C48.7895943,64.4017708 48.1569511,65.3292708 47.650636,66.0401628 L47.0409902,66.8685067 C47.0354568,66.8783667 47.0341568,66.8838333 47.0361568,66.8866667 C47.0453235,66.9016667 47.1336568,66.855 47.1919902,66.9533333 C47.3111568,67.15 47.5494902,67.6766667 47.4903235,68.005 C47.4311568,68.3341667 47.1319902,68.5308333 47.0728235,68.9258333 C47.0128235,69.32 47.2519902,69.5183333 47.5494902,70.1758333 L47.7249302,70.5643 C47.7866902,70.6974 47.8189902,70.751 47.8644902,70.78 C47.9011568,70.8041667 47.9478235,70.8108333 48.0269902,70.8333333 C48.2453235,70.8933333 49.1644902,70.7883333 49.3178235,70.7708333 L49.4328235,70.5025 L49.5542818,70.1852083 C49.576886,70.1283333 49.6003756,70.0705729 49.6243079,70.0135937 L49.6969902,69.8466667 C49.8761568,69.4525 49.7561568,69.32 49.3386568,69.0575 C48.9211568,68.7941667 48.9211568,68.4 48.8611568,68.07 C48.8019902,67.7416667 49.1603235,67.3466667 49.1603235,67.3466667 L49.2070302,67.3493067 C49.3083768,67.3493311 49.5249872,67.3140415 49.3395788,66.9841393 L49.2786568,66.8866667 C49.1153235,66.645 49.1269902,66.4591667 49.1869902,66.3291667 C49.2586568,66.175 49.3986568,66.0975 49.3986568,66.0975 L49.7297298,65.6789284 C49.9515104,65.4019932 50.2477963,65.0387689 50.4992123,64.7537347 L50.9771334,64.2271615 C51.3853756,63.7830208 51.8436568,63.3020833 52.2011568,63.0058333 C52.6786568,62.6116667 53.0961568,63.0058333 53.4544902,63.4008333 C53.7003235,63.6725 54.4278235,64.755 54.8561568,65.4025 C54.8919902,65.1825 54.9394902,64.9683333 55.0044902,64.7816667 L55.2225891,64.1716276 C55.4042949,63.6836393 55.5975566,63.2338184 55.889858,62.7263395 L56.1353235,62.3208333 C56.0790735,62.2845833 56.0003235,62.2413021 55.8945032,62.196263 L55.7794902,62.1508333 C55.4219902,62.02 54.5869902,61.5591667 53.9903235,61.2958333 C53.3936568,61.0325 52.7978235,60.4408333 52.4394902,60.2433333 C52.0819902,60.0458333 52.0819902,60.2433333 51.7844902,60.375 Z M54.7478235,66.33 L55.4136568,66.3291667 L55.3427321,66.9265832 C55.3297782,67.0535288 55.324305,67.1458333 55.3328235,67.1825 C55.8692521,67.5496429 57.6105786,69.1480102 58.3600684,69.8459402 L58.6419902,70.11 C59.0349314,70.4809804 59.1111943,70.678489 58.6220567,70.4802042 L58.5236568,70.4383333 C57.9759485,70.1977083 57.6299068,70.0110012 56.9328742,69.4751119 L56.065722,68.7971186 C55.539082,68.3888946 55.0642521,68.0334524 54.4678235,67.6108333 C53.9668235,67.2553333 53.5300235,66.9712333 53.1707435,66.7439533 L52.5111568,66.3308333 L52.5111568,66.3308333 L54.0286568,66.3291667 L54.5236568,66.6542901 C54.6044902,66.7081481 54.6839346,66.7613889 54.7611568,66.8133333 L54.7686568,66.3658333 L54.7686568,66.3658333 L54.7478235,66.33 L54.7478235,66.33 Z M88.1636568,66.3291667 C88.1069902,66.3816667 88.0386568,66.455 87.9536568,66.5583333 C87.6853235,66.8866667 87.4478235,67.2816667 87.3578235,67.4458333 C87.2686568,67.6108333 87.2978235,67.7416667 87.1786568,67.7416667 C87.0751152,67.7416667 87.016235,67.8175911 86.9824768,67.6824902 L86.9341452,67.3760083 C86.9007147,67.1520408 86.8674664,66.8636905 86.9103235,66.5583333 C86.9203235,66.485 86.9328235,66.4075 86.9461568,66.3291667 L88.1636568,66.3291667 Z M67.2094902,66.3291667 C67.0028235,66.4583333 66.8078235,66.56 66.6336568,66.6241667 C65.7386568,66.9533333 64.0103235,67.15 64.0103235,67.15 L64.6215331,66.8800687 C64.9455917,66.7335554 65.3628235,66.5398529 65.7828235,66.3308333 L67.2094902,66.3291667 Z M90.1611568,52.35 C89.9819902,52.8766667 89.7128235,53.4033333 89.6536568,53.7975 L89.560636,54.3610417 C89.5344902,54.5295833 89.5194902,54.6691667 89.5344902,54.7508333 L89.5644902,54.9483333 C89.5644902,54.9483333 89.5644902,54.7508333 89.9819902,54.455 C90.3994902,54.1591667 90.8769902,53.9625 91.1744902,53.8633333 C91.3449664,53.8066667 91.5151705,53.7932653 91.6577361,53.7921866 L91.9203235,53.7975 C92.0694902,53.7975 92.3078235,53.8633333 92.0694902,54.0283333 L91.8758507,54.1662877 C91.7210038,54.2834524 91.5750854,54.417381 91.3828235,54.6525 L91.1833859,54.9012311 C90.9335848,55.220144 90.6478235,55.6205556 90.5778235,55.9025 C90.4886568,56.2641667 90.4886568,56.4291667 90.4886568,56.4291667 L90.5436324,56.4169059 C90.6073287,56.4042839 90.730636,56.3836458 90.9353235,56.3633333 C91.2644902,56.33 91.7111568,56.33 92.0094902,56.3958333 C92.3078235,56.4616667 92.4261568,56.5275 92.5469902,56.6583333 C92.6505318,56.7735417 92.6405058,56.8383464 92.4962561,56.941512 L92.4261568,56.9883333 C92.2178235,57.1191667 91.8303235,57.415 91.6811568,57.6125 C91.5319902,57.81 91.3536568,58.1383333 91.2044902,58.4016667 C91.0553235,58.665 90.9353235,59.06 90.7561568,59.2241667 C90.5778235,59.3883333 90.4586568,59.5858333 90.2203235,59.9475 C90.084133,60.1541667 89.8698473,60.3178401 89.6556782,60.4571793 L89.2069902,60.7375 C88.9078235,60.9341667 88.6394902,61 88.4011568,61.3616667 L88.2064678,61.6564674 C88.0551194,61.890068 87.9367521,62.095 87.8944902,62.2825 L87.855597,62.4706771 C87.8221985,62.6464583 87.8053235,62.7758333 87.8053235,62.7758333 L87.995375,62.5219273 L87.995375,62.5219273 L88.1328235,62.3483333 C88.3454161,62.0853704 88.3216301,62.0041358 88.6075286,61.8043827 L89.045663,61.5203086 C89.2067124,61.4205556 89.3061568,61.3838889 89.5644902,61.3616667 C89.9528235,61.3291667 89.9528235,61.395 90.3094902,61.23 C90.6678235,61.0658333 90.6978235,60.9675 90.8769902,60.8025 L91.0491067,60.6429445 C91.1766647,60.5323767 91.2846825,60.4762821 91.2644902,60.7041667 L91.224456,61.1848991 C91.1952324,61.4983594 91.1485527,61.8633333 91.0553235,62.1508333 C90.9061568,62.6116667 90.6678235,63.2041667 90.4586568,63.4333333 C90.2503235,63.6633333 89.6836568,64.0916667 89.3261568,64.3216667 C88.9678235,64.5516667 88.5203235,64.8475 88.2528235,65.1108333 C87.9836568,65.3741667 87.8644902,65.6366667 87.8644902,65.6366667 L87.9956104,65.5509419 C88.0585185,65.5109694 88.1420336,65.4592581 88.2416804,65.4006847 L88.4611568,65.2758333 C88.7471568,65.1178333 88.9958235,64.9593 89.2208102,64.85186 L89.6569285,64.6760494 C89.805984,64.6236049 89.9014396,64.6183605 89.7890351,64.808996 L89.7436568,64.88 C89.4744902,65.2758333 89.2069902,65.7691667 89.0569902,66.2283333 L89.0286568,66.3291667 L89.0286568,66.3291667 L88.2969902,66.3291667 L88.3411568,66.1958333 L88.3411568,66.1958333 L88.2983443,66.2183333 C88.2692818,66.236875 88.2249068,66.27 88.1636568,66.3283333 L86.9461568,66.3291667 C87.0128235,65.9458333 87.1253235,65.515 87.2978235,65.2425 L87.512484,64.9012654 C87.6629161,64.6649074 87.8353235,64.4091667 88.0736568,64.1241667 C88.3994902,63.7341667 88.6694902,63.6966667 89.1469902,63.4333333 C89.6236568,63.1708333 89.6836568,63.0716667 89.8919902,62.8416667 C90.1011568,62.6116667 90.2203235,62.25 90.2203235,62.25 L90.1984868,62.2254325 C90.1620922,62.1908844 90.0802045,62.1371429 89.9528235,62.1841667 C89.7736568,62.25 89.5044902,62.25 89.2361568,62.4141667 C88.9678235,62.5791667 88.5803235,62.6775 88.2528235,63.1708333 C87.9244902,63.6633333 87.5661568,64.0258333 87.4769902,64.2225 L87.2978235,64.6508333 L87.2978235,64.6508333 L87.1786568,64.7166667 L87.1636568,64.585 C87.1561568,64.5027083 87.1486568,64.3875 87.1486568,64.2558333 C87.1486568,63.9925 87.0603235,63.5325 87.1186568,63.1708333 L87.1640707,62.8466404 C87.2245005,62.3883436 87.3149531,61.7087963 87.4769902,61.4275 L87.7890413,60.8598316 C88.0146348,60.4636295 88.3061568,60.0164394 88.6094902,59.8483333 C89.0861568,59.5858333 89.6236568,59.2241667 89.9819902,58.895 C90.2203235,58.6755556 90.3793976,58.4857407 90.5384717,58.2764198 L90.7869902,57.9416667 C91.0553235,57.58 91.1744902,57.4475 91.2644902,57.2833333 C91.3536568,57.1191667 91.3228235,56.8883333 91.0853235,56.9883333 L90.8489964,57.0831173 C90.694305,57.1487963 90.5483791,57.2291667 90.4294902,57.3825 L90.1734502,57.6901267 C90.0401902,57.8439667 89.9219902,57.9741667 89.9219902,57.9741667 L89.7376502,58.1094467 C89.7250268,58.1129933 89.6976218,58.0971033 89.7065993,57.8822733 L89.7128235,57.7775 C89.7436568,57.3825 89.7128235,56.7241667 89.8028235,56.3958333 C89.8919902,56.0666667 90.0411568,55.6391667 90.1903235,55.4416667 L90.2951803,55.291901 C90.3916256,55.1440104 90.4586568,55.0141667 90.4586568,55.0141667 L90.4610136,54.9853646 C90.4624589,54.9359896 90.4513652,54.8495833 90.3394902,54.9483333 L90.1505396,55.1031481 C90.0046754,55.2225926 89.832268,55.3761111 89.7128235,55.5733333 L89.504016,55.8995983 C89.3165152,56.1836 89.0995735,56.5011667 89.0569902,56.5933333 C89.0175457,56.6805556 88.9381013,56.7244444 88.889521,56.7440123 L88.8486568,56.7575 C88.8486568,56.7575 88.7617181,56.7813776 88.7368784,56.6643513 L88.7303235,56.5933333 C88.7303235,56.4110256 88.6273649,56.4530966 88.6587168,55.9690684 L88.7055709,55.4136979 C88.7339693,55.0329167 88.7449068,54.7679167 88.7886568,54.5216667 L88.8704204,54.1092077 C88.8979465,53.9604374 88.9097954,53.8510595 88.8719048,53.8528448 L88.7835334,53.899784 C88.7458791,53.9215741 88.6992124,53.9725 88.5203235,54.2575 C88.2528235,54.6858333 87.9244902,54.9816667 87.7744902,55.475 C87.6269902,55.9683333 87.5369902,56.0341667 87.4478235,56.5275 C87.3578235,57.0208333 87.4478235,57.185 87.2086568,57.7441667 C86.999386,58.2334375 86.8596595,58.4955729 86.647677,58.7739779 L86.5519902,58.895 C86.3067818,59.1967361 86.2863478,59.3598264 85.9168484,59.8406467 L85.4679452,60.403465 C85.3215368,60.5914483 85.2316702,60.7228067 85.1314702,60.9083733 L85.0019902,61.1641667 C84.7636568,61.6575 84.5844902,61.8216667 84.4053235,62.4466667 C84.2786568,62.8908333 84.3161568,63.0383333 84.4053235,63.7633333 C84.4953235,64.4866667 84.5844902,64.7816667 84.7936568,65.4066667 C84.8919902,65.7008333 85.0228235,66.0091667 85.1561568,66.3291667 L84.3711568,66.3291667 L84.2559485,65.97 L84.2559485,65.97 L84.1669902,65.6708333 C83.9578235,64.9133333 83.5411568,64.3541667 83.6003235,63.4666667 L83.6397619,62.8170066 C83.6753442,62.2974725 83.7366114,61.9056818 84.0178235,61.4275 L84.2991907,60.9558984 C84.5476976,60.5475998 84.8096305,60.1464308 85.2264708,59.5768359 L85.3903235,59.355 C86.0753235,58.435 86.3436568,57.9741667 86.5828235,57.5133333 C86.8211568,57.0533333 86.8211568,56.9883333 86.8503235,56.4616667 L86.8664038,56.0281481 C86.8757659,55.8230556 86.9002172,55.6516564 87.0116312,55.3844925 L87.1855568,55.000622 C87.3323838,54.6594509 87.3478776,54.5331019 87.7235639,54.0148478 L88.1354825,53.4652467 C88.5735535,52.8924518 88.9593387,52.4398485 89.3261568,52.2516667 L89.4876071,52.1729646 C89.8964942,51.9852076 90.3185098,51.8860294 90.1611568,52.35 Z M61.7736568,51.7258333 L61.7894772,51.7525 C61.8145943,51.8017188 61.8480318,51.90625 61.7136568,51.955 L61.6553235,51.9758333 L61.671274,52.0023828 C61.6966256,52.0514063 61.7305318,52.155625 61.5961568,52.205 L61.4040865,52.2601221 C61.3008964,52.2927474 61.200636,52.3495833 61.0886568,52.535 C60.9094902,52.83 60.7319902,53.3566667 60.5219902,53.5533333 C60.3136568,53.7516667 60.4036568,53.8825 60.0453235,53.9158333 C59.7011568,53.9475 59.5228235,53.8575 59.2969902,53.9675 L59.4850697,53.9472028 C59.7082247,53.9291667 59.9244902,53.9291667 59.9244902,53.9291667 L59.9395339,53.9583406 C59.9587759,54.0044048 59.9802045,54.0984524 59.8944902,54.1925 L59.8369902,54.2591667 C59.8444902,54.3083333 59.8369902,54.375 59.7769902,54.4416667 L59.6471287,54.5901579 C59.6030325,54.6378839 59.5495339,54.688999 59.4608532,54.7589845 L59.3594902,54.8358333 C59.1978235,54.955 59.0469902,55.0741667 58.9461568,55.2075 C58.9161568,55.4646429 58.8892181,55.9360714 58.8821335,56.2108819 L58.8803235,56.33 C58.8803235,56.56 58.8511568,56.955 58.8511568,57.2508333 L58.8555981,57.4331025 C58.8583677,57.5653061 58.8472283,57.6583333 58.7353235,57.7875 C58.7242124,57.8840278 58.6876383,57.9684028 58.573518,58.08451 L58.2734885,58.3583583 C58.1234902,58.4850583 57.9939902,58.54275 57.6603235,58.52 L57.203512,58.4810498 C56.990011,58.4576042 56.8363652,58.4294792 56.7061568,58.3883333 C56.4969902,58.3225 56.4969902,58.0925 56.4969902,58.0925 L56.7336568,58.0925 C56.6144902,58.0008333 56.6144902,57.8425 56.6144902,57.8425 L57.0319902,57.8425 C57.3903235,57.8425 57.5686568,57.8758333 57.8078235,57.7116667 C57.9494902,57.6133333 58.0803235,57.5266667 58.1761568,57.3966667 L58.1969902,57.3025 L58.1969902,57.3025 C58.2495828,56.9817593 58.2791301,56.2178909 58.3687414,55.7290295 L58.4053235,55.56 C58.5119902,55.1491667 58.4519902,54.8708333 58.6278235,54.6741667 C58.6498235,54.5721667 58.6856902,54.4851 58.7588902,54.4104067 L58.8211568,54.3566667 C58.9169902,54.2858333 58.9786568,54.22 59.0286568,54.1625 C58.9969902,54.1841667 58.9569902,54.2 58.8828235,54.2116667 C58.6736568,54.245 58.5544902,54.2116667 58.5544902,54.2116667 L58.578748,54.1012321 C58.6064824,53.9910026 58.6592818,53.8201042 58.7436568,53.6925 C58.7953235,53.5425 58.8778235,53.3716667 58.9994902,53.3041667 C59.1987957,53.1944444 59.3558559,53.1761574 59.5753197,53.1350116 L59.9383507,53.0602381 C60.0993201,53.0247789 60.2054426,52.9846429 60.3119902,52.8441667 L60.6449902,52.4103667 C60.6854902,52.3566667 60.7259902,52.3022 60.7653235,52.2480333 L61.0084382,51.8998615 C61.101429,51.7732823 61.1681807,51.7163095 61.2961568,51.6925 C61.4753235,51.66 61.7736568,51.7258333 61.7736568,51.7258333 Z M57.3644902,56.45 C57.5278235,56.42 57.7436568,56.7508333 57.7436568,56.7508333 L57.7225149,56.767716 C57.692268,56.787963 57.6256013,56.8216667 57.4978235,56.8416667 C57.5711568,56.9191667 57.6261568,57.0008333 57.6261568,57.0008333 L57.6048297,57.0175309 C57.5820056,57.0325772 57.5386954,57.0551929 57.464795,57.0742323 L57.3803235,57.0916667 C57.2294902,57.115 57.1828235,57.1383333 57.1161568,57.2191667 C57.1161568,57.295 57.1453235,57.35 57.1453235,57.35 L57.0344902,57.3308333 C56.9578235,57.4683333 57.0278235,57.6 57.0278235,57.6 L56.7879508,57.5548611 C56.7664809,57.55 56.746018,57.545 56.7278235,57.54 C56.6186568,57.5091667 56.6186568,57.3891667 56.5911568,57.2116667 C56.5636568,57.0341667 56.5911568,57.0008333 56.7003235,56.85 C56.7019902,56.7583333 56.7361568,56.7141667 56.8178235,56.6008333 C56.9278235,56.45 57.2003235,56.48 57.3644902,56.45 Z M57.7703235,50.825 C57.9344902,50.825 58.0711568,50.885 58.1803235,50.9458333 C58.2894902,51.0058333 58.3711568,51.1558333 58.2353235,51.1558333 L57.9769902,51.1516667 L57.9769902,51.1516667 L58.0619902,51.195 C58.1169902,51.225 58.1644902,51.2775 58.1819902,51.3225 C58.3261568,51.2575 58.4036568,51.3366667 58.4803235,51.3366667 C58.5510378,51.3366667 58.4809358,51.447483 58.3907171,51.5169291 L58.3003235,51.5741667 C58.3219902,51.5808333 58.3428235,51.5866667 58.3628235,51.5866667 C58.4328235,51.5866667 58.3626194,51.697483 58.2723862,51.7669291 L58.2261568,51.7975 C58.1442818,51.8425 58.0469381,51.9217188 57.9344772,51.9964844 L57.7069173,52.131312 C57.6327555,52.1714116 57.5825854,52.1805952 57.4069902,52.1591667 C57.1611568,52.1283333 57.1369902,51.9783333 57.1369902,51.9783333 L57.2116902,51.9106533 C57.2414902,51.8849333 57.2778235,51.855 57.3161568,51.8266667 C57.2628235,51.7783333 57.2553235,51.7283333 57.2553235,51.7283333 L57.3398789,51.6524368 C57.4067011,51.5955272 57.5013949,51.5217857 57.5794902,51.4875 C57.6711568,51.4466667 57.8244902,51.4341667 57.9653235,51.4016667 C57.8203235,51.3983333 57.6403235,51.4016667 57.5436568,51.4666667 L57.40872,51.5476579 C57.2882147,51.6154422 57.1644902,51.6766667 57.1644902,51.6766667 L56.9728235,51.8275 L56.9796985,51.7598958 C56.9865735,51.7147917 57.0003235,51.6470833 57.0278235,51.5566667 C57.0594902,51.4533333 57.0986568,51.36 57.1519902,51.2875 C57.2061568,51.1158333 57.2844902,50.9733333 57.4161568,50.915 C57.5528235,50.855 57.6069902,50.825 57.7703235,50.825 Z M56.2994902,46.0466667 L56.3169902,46.1661458 C56.3286568,46.23375 56.3461568,46.3170833 56.3694902,46.38 C56.4253235,46.4091667 56.4786568,46.4425 56.5086568,46.4766667 L57.0278235,47.0458333 L57.1911568,47.2516667 L57.3369902,47.0366667 L57.1453235,46.7958333 L56.6269902,46.2266667 C56.5453235,46.1366667 56.2994902,46.0466667 56.2994902,46.0466667 Z M68.8469902,82.18 C68.9061568,82.3133333 68.9661568,82.4475 69.0186568,82.5741667 C69.1722283,82.9405952 69.5229426,83.3070238 69.8451437,83.6529859 L70.0028235,83.8241667 C70.3611568,84.2183333 70.7186568,84.6791667 70.8378235,84.975 C70.9578235,85.2708333 70.8678235,85.6658333 70.6886568,86.1258333 C70.5094902,86.5866667 69.9136568,86.85 69.3761568,87.08 C68.8403235,87.31 68.1244902,87.475 67.6178235,87.6716667 C67.1103235,87.8691667 66.4253235,87.9016667 65.9478235,88.0333333 C65.5307402,88.1485417 65.4096985,88.1131771 65.0666256,88.1025358 L64.9044902,88.1 C64.4269902,88.1 64.5469902,88 64.1894902,88.165 C63.8311568,88.33 63.9203235,88.4608333 63.8011568,88.79 C63.7011568,89.0636111 63.4987263,89.2695139 63.2787417,89.5398457 L63.1453235,89.7108333 C62.8769902,90.0733333 62.8469902,90.0075 62.5486568,90.3683333 L62.4384022,90.5098573 C62.3264231,90.6700482 62.4324126,90.6267236 62.4547303,90.797188 L62.4586568,90.8625 C62.4586568,91.1575 62.5778235,91.0916667 62.9661568,91.355 C63.3536568,91.6183333 63.8311568,91.7166667 64.2778235,91.7825 C64.7253235,91.8491667 64.9044902,91.75 65.1136568,91.6841667 C65.3219902,91.6183333 65.5011568,91.2566667 65.5903235,91.0258333 C65.6803235,90.7958333 65.6194902,90.6316667 65.6803235,90.2041667 C65.7386568,89.7766667 65.8286568,89.6125 65.9178235,89.3491667 C66.0069902,89.0858333 66.0969902,89.1183333 66.3653235,89.1183333 C66.6336568,89.1183333 67.2003235,89.1841667 67.3794902,89.1841667 C67.5586568,89.1841667 67.5286568,89.0858333 67.7061568,88.9875 L67.8461761,88.9158989 C68.1564578,88.7629861 68.8156013,88.46125 69.2878235,88.2966667 C69.8536568,88.1 70.8378235,87.935 71.2853235,87.8358333 C71.7328235,87.7375 72.5678235,87.6716667 72.8361568,87.6391667 C73.1044902,87.6058333 73.1344902,87.5075 73.2236568,87.3758333 C73.3136568,87.2441667 73.3728235,87.1125 73.3728235,86.9816667 C73.3728235,86.85 73.1044902,86.5866667 72.7761568,86.225 C72.4486568,85.8633333 72.5678235,85.7975 72.3886568,85.2708333 C72.2103235,84.7441667 72.3886568,84.4491667 72.4186568,84.0866667 C72.4486568,83.725 72.8953235,83.1333333 73.1936568,82.7716667 C73.4017124,82.519537 73.8255293,82.3636934 74.1843713,82.2586534 L74.6403235,82.135 L74.5653235,81.9825 C74.3861568,81.62 74.2378235,81.2591667 74.0286568,80.8641667 C73.8427309,80.5130556 73.398698,79.980216 73.0090958,79.6127172 L72.8661568,79.4833333 C72.5008443,79.1661458 72.2950371,78.8751172 71.8897685,78.5209245 L71.7028235,78.365 C71.2205735,77.9795 71.1473735,77.75465 70.920071,77.44988 L70.8378235,77.345 C70.5403235,76.9833333 70.6886568,76.9175 70.6886568,76.9175 L70.7108391,76.9508311 C70.7551383,77.0090741 70.8681013,77.1261111 71.1669902,77.345 C71.6136568,77.6741667 71.8519902,77.7725 72.4486568,78.2008333 C73.0444902,78.6275 73.7903235,79.4175 74.2069902,79.9758333 C74.5484717,80.4328704 74.9097062,81.1315535 75.2093404,81.8922028 L75.3601152,82.2948958 L75.3601152,82.2948958 L75.4003235,82.4091667 C75.7286568,83.3633333 76.5036568,84.8433333 76.8011568,85.3691667 C77.1011568,85.8958333 77.6969902,86.4225 78.3228235,86.9158333 C78.9478235,87.4091667 79.1569902,87.935 79.2769902,88.2308333 C79.3961568,88.5266667 79.3661568,89.02 79.3661568,89.5133333 C79.3661568,90.0075 79.1569902,90.3358333 78.9186568,91.2241667 C78.706805,92.0130556 78.2829367,92.8802984 78.0239701,93.5250629 L77.9353235,93.7558333 C77.6969902,94.4141667 77.3986568,94.7091667 77.1303235,94.9733333 C76.8619902,95.2358333 76.5636568,95.4 76.2353235,95.7291667 C75.9078235,96.0575 75.9969902,96.0908333 75.9369902,96.3541667 C75.9027045,96.5046429 75.946514,96.622466 76.0127531,96.7328256 L76.1761568,96.9791667 C76.2861568,97.1614744 76.3457426,97.007214 76.8458382,97.0597447 L76.9803235,97.0775 C77.6069902,97.1766667 78.3228235,97.0116667 78.5611568,96.9133333 C78.8003235,96.815 78.8894902,96.7158333 78.9186568,96.5841667 C78.9478235,96.4533333 78.9478235,96.2558333 78.9186568,95.9266667 C78.8894902,95.5983333 79.0686568,95.4983333 79.1569902,95.2358333 C79.2469902,94.9733333 79.4261568,94.8741667 79.5744902,94.6766667 C79.681633,94.5355952 79.696514,94.4285374 79.696271,94.2707629 L79.6936568,94.0516667 C79.6936568,93.7558333 79.6644902,93.2633333 79.6644902,92.9333333 C79.6644902,92.605 79.9328235,92.1775 80.0819902,91.5525 L80.2025004,91.0670092 C80.2968031,90.6992007 80.3757997,90.4105952 80.4394902,90.1058333 C80.5294902,89.6775 80.9169902,89.1516667 81.1261568,88.7575 C81.3084485,88.411875 81.331235,88.1415365 81.3340833,87.7494157 L81.3344902,87.5733333 C81.3344902,87.1348148 81.2870828,86.8780247 81.1296434,86.6648377 L81.0653235,86.5866667 C80.8569902,86.3566667 80.8269902,86.1258333 80.4694902,85.83 C80.1119902,85.5341667 80.1711568,85.2383333 79.9028235,84.7775 C79.6353235,84.3166667 79.7836568,83.8241667 79.8144902,83.2325 C79.8330616,82.8475 79.9404085,82.5880102 80.0866768,82.3181122 L80.3503235,81.85 C80.6178235,81.3575 81.0961568,80.8316667 82.0203235,79.7458333 C82.9444902,78.66 83.1836568,77.345 83.2728235,76.8516667 C83.3619902,76.3583333 82.9144902,74.385 82.7353235,73.7933333 C82.5569902,73.2016667 82.0503235,72.3791667 81.5728235,71.7541667 C81.0961568,71.1291667 80.1711568,70.3075 79.8728235,70.11 C79.5744902,69.9125 79.1878235,69.6825 78.8894902,69.6166667 C78.6141056,69.5558974 77.8310286,69.4951282 77.078375,69.5123562 L76.8911568,69.5183333 C76.1532402,69.548125 74.6884832,69.5232986 73.8987494,69.5439873 L73.7011568,69.5508333 C72.9853235,69.5833333 72.1203235,69.5183333 71.6436568,69.4191667 C71.2199531,69.3310185 71.1959202,69.1915123 70.9652115,69.0234739 L70.8678235,68.9591667 C70.6761568,68.8433333 70.5444902,68.6933333 70.4703235,68.5891667 C70.1819902,68.6383333 69.8728235,68.7191667 69.4969902,68.9258333 C68.7803235,69.32 67.4086568,70.3725 67.1711568,70.8991667 L66.9319902,71.4258333 L66.9073423,71.3094363 C66.8745976,71.1052111 66.8481568,70.658 67.1103235,70.1758333 L67.2699624,69.8898153 C67.5572959,69.3952367 67.8438492,69.0524359 68.6011568,68.6625 C69.4969902,68.2025 70.8678235,67.8733333 71.1669902,67.6108333 L71.2917693,67.4935185 C71.564745,67.2222619 71.846869,66.8386285 71.162405,67.0463514 L70.5804585,67.2420602 C69.8244207,67.4932176 69.1782402,67.6766667 68.7803235,67.6766667 L68.8095467,67.6429005 C68.8772853,67.574543 69.0884475,67.3999369 69.6939269,67.0968064 L70.4089502,66.7535467 L70.4089502,66.7535467 L72.6683836,65.689249 L72.6683836,65.689249 L72.7761568,65.6366667 C73.3136568,65.3741667 74.5653235,64.3866667 73.1936568,64.7166667 L72.7072213,64.839681 C71.6361438,65.1248307 71.0089693,65.3905208 70.7486568,65.505 C70.4503235,65.6366667 70.5094902,65.2425 70.8086568,65.0458333 L70.9381175,64.9675996 C71.1603357,64.8462439 71.4307195,64.7588411 71.9879717,64.5371453 L74.1412978,63.667364 C74.6616865,63.4550185 75.1178791,63.2608333 75.3403235,63.1383333 C75.8186568,62.8741667 76.2353235,62.1508333 74.9836568,62.6775 L74.5751037,62.8526292 C73.6345709,63.264109 73.2785588,63.4820588 73.0153235,63.5975 C72.7327772,63.7218519 72.1328364,63.6113169 72.5696929,63.3775159 L73.1256835,63.1154733 C73.8108368,62.7835422 74.8302191,62.2607896 75.2895954,62.0142158 L75.4003235,61.9541667 C75.8599664,61.7002381 77.0968063,60.7125053 76.2759724,60.9957017 L74.7176581,61.5891749 L74.7176581,61.5891749 L74.0878235,61.8216667 C73.748141,61.9478571 73.1363496,61.9538662 73.7483281,61.6698058 L73.8494902,61.625 C74.6253235,61.2958333 76.4744902,60.3091667 77.0703235,59.9141667 L77.211337,59.8146347 C77.7850967,59.3853402 78.4323748,58.6194231 77.6069902,58.8625 C76.7119902,59.125 75.9969902,59.52 75.1619902,59.98 C74.3799589,60.4120313 74.4350859,60.5540234 74.2479643,60.5165265 L74.2069902,60.5066667 C73.9853235,60.4452222 73.9182791,60.3837778 74.3466549,60.0547086 L74.9699531,59.5855864 C75.3277309,59.3225 75.7381013,59.0591667 76.4136568,58.7958333 L77.5914085,58.349759 C77.9871899,58.1955028 78.3007023,58.0553788 78.5611568,57.8758333 C79.0386568,57.5475 79.8728235,56.6258333 78.8003235,56.955 C77.797768,57.2614444 76.328442,58.0266741 75.6518756,58.3949674 L75.5194902,58.4675 C74.9228235,58.7958333 74.8044902,58.7958333 74.8044902,58.7958333 L74.8818946,58.6950057 C75.0118502,58.5362699 75.3078057,58.2140279 75.7875391,57.9028477 L75.9369902,57.81 C76.6635527,57.3779688 76.9711699,57.0045313 78.1370024,56.3628442 L78.3819902,56.2308333 C79.7536568,55.5075 80.1711568,55.1133333 80.6486568,54.6525 C81.1261568,54.1925 81.3053235,53.2716667 80.5294902,53.5341667 C79.7536568,53.7975 78.5611568,54.5875 77.9653235,54.9816667 C77.4183791,55.3429861 76.621452,55.980897 76.2626364,56.3388903 L75.9151413,56.7099927 C75.7018881,56.9294048 75.5194902,57.0770238 75.5194902,56.8883333 C75.5194902,56.6258333 75.6394902,56.4291667 76.0561568,56.0341667 C76.4512494,55.6611111 78.2281604,54.2912731 79.0267067,53.6410858 L79.1569902,53.5341667 C79.8728235,52.9425 80.8869902,52.285 81.4236568,51.6925 L81.5707549,51.5254971 C82.0596417,50.952989 82.5028235,50.2518182 81.9611568,50.3116667 C81.5628235,50.3555556 81.1915272,50.5457407 80.7939346,50.7844444 L80.1711568,51.1666667 C79.5144902,51.5616667 78.0836568,52.68 77.7861568,53.0741667 L77.5926931,53.3220054 C77.2834908,53.705179 76.8799068,54.143125 76.8311568,53.9291667 C76.7756881,53.6822917 77.0871627,53.2039714 77.9118362,52.4948924 L78.0836568,52.35 C79.0386568,51.5616667 79.9328235,50.64 80.8269902,50.0483333 C81.4534902,49.6335833 81.8754152,49.3160167 82.3994643,48.89212 L83.4841175,48.0028841 C84.1927193,47.431901 84.4734485,47.2446875 84.5244902,46.9566667 L84.548109,46.8088927 C84.5718937,46.6118268 84.5339597,46.5254639 84.3084476,46.5501558 L84.2261568,46.5625 C83.8694902,46.6283333 83.4519902,46.6941667 82.5569902,47.22 L82.191458,47.4425016 C81.7343217,47.7281128 81.1845329,48.0938155 80.6968016,48.424118 L78.7850925,49.7387736 C78.3666893,50.0225579 77.9346985,50.3006944 77.7261568,50.3775 C77.3686568,50.5083333 77.1894902,50.5083333 77.3094902,50.2458333 C77.4278235,49.9825 78.0236568,49.8508333 78.6803235,49.325 L79.1703544,48.9435995 C80.1762475,48.1739786 82.1480106,46.7178205 83.2804261,46.0102856 L83.4519902,45.905 C84.6762124,45.1684444 85.7443606,44.2591185 86.3183467,43.7136267 L86.4336568,43.6025 C86.9694902,43.0758333 87.8644902,41.8916667 87.0894902,41.8916667 L86.7646098,41.8977623 C86.3608771,41.9169637 86.2867539,41.9855401 85.9139978,42.1590384 L85.7778235,42.2208333 C85.206018,42.4731944 82.2249358,44.2355628 81.3467409,44.7868512 L80.9479578,45.0478193 C80.2875643,45.4937 79.5427124,46.0446111 79.3361568,46.1016667 C79.1127193,46.1633854 78.8372799,45.9936589 79.2946743,45.700977 L79.5643914,45.5423902 C80.5139175,44.9684017 83.9393752,42.7111782 84.8828235,42.2208333 L89.1178235,40.05 L89.1178235,40.05 C90.0111568,39.59 91.0253235,38.8008333 91.1444902,38.4725 C91.2644902,38.1425 91.0853235,37.6175 90.4886568,37.8141667 L90.2096771,37.9157123 C89.1901123,38.304138 86.2649966,39.5333627 84.7582757,40.4662192 L84.5844902,40.5766667 C82.9753235,41.6291667 82.3178235,41.695 81.6619902,42.09 C81.0061568,42.4841667 80.6486568,42.945 80.4094902,42.6816667 C80.2589639,42.5153509 80.1323711,42.5328578 80.2847927,42.4358582 L83.20989,40.756815 C84.7349969,39.8898477 86.5261096,38.8836675 87.2124216,38.530811 L87.3278235,38.4725 C89.0569902,37.6175 90.3094902,36.8933333 91.6219902,36.17 C92.9344902,35.4466667 94.6628235,33.8016667 94.7828235,33.4733333 C94.9019902,33.1441667 94.8419902,32.6841667 94.1869902,32.8158333 C93.5900205,32.9347727 92.9441527,33.1632163 92.0703235,33.5988348 L91.8011568,33.7358333 C90.8232104,34.2436905 86.9650631,36.4268219 86.0996946,37.0304311 L85.7753162,37.2657696 C84.7492632,37.9870859 82.6197046,39.2493487 82.1137019,39.5890933 L82.0203235,39.6558333 C81.7819902,39.8533333 81.3794902,39.7866667 81.9003235,39.3266667 C82.7603235,38.5690667 85.8168035,36.8414827 86.6401853,36.3550174 L87.0433611,36.1064975 C88.1714768,35.3922725 91.300383,33.3370536 92.0994902,32.75 L92.3190618,32.581598 C93.4550272,31.6859948 96.4733982,29.0258046 96.7511568,28.4741667 L96.8470679,28.2779081 C97.0913112,27.7597737 97.2206939,27.3046296 96.6903235,27.4216667 L96.4187149,27.4886875 C95.5990375,27.704406 93.8246863,28.2573039 93.3511568,28.6058333 L93.0862685,28.7890425 C92.0412418,29.4927108 88.7475137,31.5991418 87.7856935,32.2826135 L87.2634115,32.6582847 C86.3512249,33.302483 85.0873473,34.1402381 84.5244902,34.5916667 L83.2128235,35.6433333 L83.5837609,35.2158802 C83.8673914,34.8982305 84.2805087,34.4543519 84.7036568,34.065 C85.7181476,33.1331481 91.2534665,29.1507407 93.1718256,27.8237769 L93.4711568,27.6183333 C94.9104426,26.6417857 97.4814247,24.5306675 98.2717172,23.9178025 L98.5599909,23.6990852 C99.1019758,23.2786927 99.9555794,22.5089943 99.4517629,22.6018742 L98.5071435,22.84216 C96.9198368,23.2396511 93.8046018,24.0004869 92.7075182,24.2943821 L92.5761568,24.33 C91.3828235,24.6591667 88.6394902,25.7766667 87.2086568,26.5666667 L86.1209269,27.1798409 C84.2808561,28.2350801 81.3179197,30.0150321 79.8728235,31.2366667 L79.0308359,31.9556515 C77.8663991,32.9619983 77.2944902,33.5189706 76.1161568,34.6575 C74.6853235,36.0383333 72.4186568,38.735 71.6436568,40.1825 C70.8678235,41.6291667 70.0328235,44.7208333 69.8536568,46.3641667 C69.6761568,48.0091667 69.6153235,50.4433333 69.9136568,52.0875 C70.2119902,53.7316667 70.6944902,57.0866667 70.7486568,58.8625 C70.8086568,60.8025 70.3911568,63.1383333 69.6761568,64.0583333 C69.0994902,64.8 68.0594902,65.7966667 67.2094902,66.3291667 L65.7828235,66.3291667 C66.3261568,66.06 66.8744902,65.7641667 67.2294902,65.5125 L67.0624531,65.2196422 C66.8507247,64.8319856 66.5951383,64.2974074 66.4544902,63.7633333 C66.1861568,62.7433333 65.9178235,62.5133333 65.9178235,61.1966667 L65.9144603,60.6751218 C65.8984925,59.2412168 65.8321863,56.9334314 65.8586568,56.0341667 C65.8886568,55.0141667 65.7094902,53.7316667 65.3811568,52.68 C65.0536568,51.6266667 64.1894902,50.2458333 63.6811568,49.72 C63.1753235,49.1933333 62.1311568,48.3058333 61.4753235,47.9433333 L61.0736178,47.7284858 C60.6854369,47.5279093 60.4911568,47.45 60.4911568,47.45 L60.4605118,47.42156 C60.4266318,47.38285 60.4014902,47.3183333 60.6103235,47.3183333 C60.9078235,47.3183333 61.4153235,47.3516667 61.8628235,47.6141667 L62.4306013,47.9494136 C62.8635643,48.2102778 63.3539346,48.5247222 63.5928235,48.7658333 L63.7714615,48.9555578 C64.2280087,49.4554704 65.0814346,50.4757778 65.2619902,50.9033333 C65.4711568,51.3966667 65.8586568,51.9883333 66.0969902,53.0083333 C66.3144144,53.9356061 66.5063566,55.378719 66.5394583,56.4980779 L66.5511326,57.331499 C66.5743833,58.2847522 66.6524603,59.3250219 66.6851182,59.926424 L66.727947,60.6730556 C66.7358791,60.7944444 66.744768,60.9244444 66.7544902,61.0591667 C66.8011568,60.9725 66.8536568,60.865 66.9019902,60.7375 C67.0511568,60.3425 67.4086568,58.9608333 67.4686568,58.1383333 C67.5286568,57.3166667 67.4978235,55.7708333 67.2603235,54.6525 C67.0211568,53.5341667 66.6044902,52.0875 66.0969902,51.1666667 L65.7575663,50.5601257 C65.3577309,49.8640226 64.9377309,49.2186111 64.4269902,48.7325 C63.7711568,48.1075 62.8769902,47.3516667 62.1903235,47.1216667 L61.7753702,46.9851 C61.2212902,46.8080333 60.6818235,46.6608333 60.3711568,46.6608333 L60.0873968,46.6667 C59.9585568,46.6719 59.8521568,46.6795 59.7811568,46.685 C59.8011568,46.9275 59.7728235,47.3358333 59.7461568,47.5483333 C59.7153235,47.7791667 59.6261568,47.9433333 59.6261568,47.9433333 L59.5846894,47.9468707 C59.5237079,47.9489116 59.4169902,47.9390476 59.4169902,47.845 C59.4169902,47.7133333 59.5069902,47.1875 59.3878235,46.8908333 C59.2686568,46.595 58.9703235,46.2 58.8511568,46.0691667 L58.7448938,45.9623177 C58.6273548,45.8514583 58.4928235,45.7408333 58.4928235,45.7408333 L58.4928235,46.2 C58.4928235,46.4264286 58.4493541,46.554898 58.511978,46.7113557 L58.5528235,46.7925 C58.6719902,46.9891667 58.6719902,47.1875 58.6719902,47.3516667 C58.6719902,47.5158333 58.5828235,47.8125 58.5828235,47.8125 L58.4661594,47.6965771 C58.3449172,47.5677617 58.1566114,47.3431061 58.0378235,47.0816667 C57.9728235,47.1058333 57.9011568,47.14 57.8369902,47.1875 L57.7179667,47.2729818 C57.6118339,47.3514583 57.5388652,47.4258333 57.4494902,47.6483333 C57.3303235,47.9433333 57.2703235,48.1733333 57.2411568,48.3383333 C57.2111568,48.5025 57.1219902,48.5683333 56.8236568,48.7 L56.5510055,48.8128223 C56.427511,48.8679818 56.3389693,48.9298958 56.2269902,49.095 L56.0756637,49.316793 C55.9531296,49.5027381 55.8437759,49.7009524 55.7794902,49.9825 L55.6806718,50.3987061 C55.6344641,50.6220703 55.6158443,50.8453125 55.6903235,51.1333333 C55.8094902,51.5941727 55.9586568,51.7583333 55.9586568,52.3175 L55.9653768,52.99578 C55.9682568,53.3344 55.9646568,53.666 55.9286568,53.9625 L55.8592741,54.4981173 C55.8062494,54.8684259 55.739768,55.2341667 55.6603235,55.4091667 C55.5411568,55.6725 55.2136568,56.0666667 55.0936568,56.2308333 C54.9744902,56.3958333 54.9744902,56.4616667 55.0936568,56.6258333 C55.2136568,56.79 55.3619902,56.9883333 55.5711568,57.1525 C55.7794902,57.3166667 55.9586568,57.5133333 56.0778235,57.58 C56.1969902,57.6458333 56.1378235,57.8758333 56.1378235,57.8758333 L56.0623157,57.8707031 C55.9196985,57.8553125 55.6009485,57.79375 55.3328235,57.5475 L55.0959225,57.3222266 C54.9234615,57.1499284 54.8094316,57.0097754 54.7241289,56.8535498 L54.6761568,56.7575 C54.5569902,56.4941667 54.4378235,56.2975 54.6169902,56.1325 C54.7961568,55.9683333 55.0344902,55.7383333 55.1244902,55.5075 C55.2062263,55.2966667 55.3376788,54.5879688 55.3821276,53.9141657 L55.3919902,53.7316667 C55.4219902,53.0083333 55.5711568,52.9425 55.4519902,52.5475 C55.3328235,52.1533333 54.9744902,51.7583333 55.0044902,51.1991667 C55.0344902,50.64 55.1536568,50.0483333 55.3619902,49.4891667 C55.5711568,48.9308333 55.5711568,48.7 55.9286568,48.47 C56.2869902,48.2391667 56.5844902,48.075 56.7636568,47.9433333 C56.9428235,47.8125 56.9719902,47.5816667 56.9719902,47.5816667 L56.9209835,47.55824 C56.7932235,47.4961333 56.4594902,47.312 56.3161568,47.0233333 C56.1378235,46.6608333 55.8694902,46.4966667 55.8394902,46.0691667 L55.8161386,45.8216495 C55.7861157,45.5759774 55.7503235,45.4766667 55.7503235,45.4766667 L55.7593435,45.4606467 C55.7859568,45.4228333 55.8811568,45.3388333 56.1678235,45.4441667 L56.4029407,45.5305078 C56.6111048,45.610625 56.7565735,45.690625 57.0028235,45.9375 C57.3303235,46.2658333 57.4794902,46.595 57.5986568,46.6941667 C57.7178235,46.7925 57.8669902,46.7925 57.8669902,46.7925 L57.9403235,46.7791667 L57.9316777,46.7203125 L57.9316777,46.7203125 L57.8956013,46.1140432 C57.8802309,45.7802778 57.8867124,45.5097222 57.9861568,45.3125 C58.1353235,45.0158333 58.1653235,44.8516667 58.2844902,44.7208333 L58.3708482,44.6363112 C58.4773606,44.5452984 58.5959717,44.4941667 58.6419902,44.6225 C58.7019902,44.7866667 58.6128235,44.8516667 58.8211568,45.1816667 C59.0294902,45.51 59.0894902,45.4766667 59.3286568,45.7733333 C59.4303235,45.9 59.5211568,46.0333333 59.5953235,46.1616667 L59.7846041,46.1317343 C60.0227409,46.0999587 60.4322175,46.064697 60.8928235,46.1083333 L60.3290805,44.6912813 C59.5098001,42.6614478 58.082975,39.2464646 57.1511568,37.6833333 L56.8103721,37.1224097 C55.3549192,34.7681903 52.8477594,31.1810897 51.3069902,29.7241667 L50.8288338,29.275698 C49.3134225,27.8670408 47.804768,26.594881 46.8336568,26.2375 L46.3856185,26.0670568 C45.6915931,25.7957364 45.5219381,25.7082018 45.5219381,26.0408333 L45.5219381,26.2275651 C45.5321074,26.3234212 45.5986015,26.2795483 45.9543022,26.6518837 L46.0586568,26.7641667 C46.2859584,27.0146429 46.6949078,27.4847411 47.1734594,28.0398871 L49.5769902,30.8425 C50.6511568,32.0916667 54.5869902,37.5508333 54.7061568,37.9458333 C54.8173791,38.3145 54.6687198,38.4537741 54.4546304,38.0960309 L54.4078235,38.0116667 C54.1694902,37.5508333 52.1419902,34.7225 51.4853235,34.065 L51.136205,33.7240222 C50.4179172,33.0384665 49.3110286,32.0664744 48.5036568,31.5658333 L48.1523961,31.3529217 C47.5078539,30.9730521 47.1941917,30.8595647 46.9054894,30.8443528 L46.8336568,30.8425 C46.6628235,30.8425 46.5869902,30.8116667 46.5811568,30.8233333 C46.5754426,30.8347619 46.6303405,30.8829252 46.7243347,31.0255491 L46.7744902,31.105 C46.9969346,31.4736667 47.7906828,32.3003926 48.4775262,33.0506059 L49.1251282,33.7658724 C49.4969121,34.1806163 49.843246,34.578559 50.2946406,35.1295795 L52.641261,38.0195833 C53.2919798,38.8262083 53.9124079,39.6129208 54.2471676,40.0981446 L54.9150412,41.1054993 C55.1331424,41.4371528 55.2098143,41.577963 55.0636568,41.4975 C54.8402193,41.3740625 54.1451022,40.2098535 53.7150759,39.6857813 L53.3223299,39.2314838 C52.7169931,38.5168512 51.6191961,37.1721569 51.1278235,36.63 C50.5311568,35.9725 49.9353235,35.315 49.1603235,34.7225 L48.8805467,34.5129435 C48.3364791,34.1156185 48.174268,34.0737778 47.9669902,34.1308333 C47.7286568,34.1966667 47.7878235,34.2625 47.9669902,34.5916667 L48.1077263,34.8248494 C48.4841824,35.4243926 49.4298384,36.8371677 49.9645876,37.5627317 L50.3216647,38.0330745 C50.9857988,38.8971281 52.1467005,40.3850981 52.6851298,41.1922475 L52.9436917,41.5897258 C53.5634822,42.5138253 54.8253235,44.1283333 54.8253235,44.1283333 L54.7961398,44.210481 C54.7475004,44.3218027 54.6380616,44.4763095 54.4678235,44.1941667 L54.3640302,44.0364125 C54.0057502,43.5168458 53.0324302,42.2524792 52.3306835,41.3547792 L52.0819902,41.0375 C51.3715735,40.1322917 50.6604566,39.3391204 50.1335006,38.8582523 L49.785513,38.5578474 C49.4393444,38.2707276 49.2877136,38.1926974 49.1867199,38.3560939 L49.1105082,38.5017493 C49.0250016,38.6490573 48.9872659,38.6748803 49.2572116,39.0258762 L49.3386568,39.13 C49.7240415,39.6153846 51.6339231,42.8472781 52.2538457,43.8076377 L52.632361,44.3771654 C53.3033645,45.4170382 54.7661568,47.8125 54.7661568,47.8125 L54.762631,47.8311871 C54.7508781,47.8633755 54.6999488,47.9025185 54.4792551,47.6373308 L53.9462054,46.9701749 C53.4612079,46.3691667 52.7979426,45.5566667 52.5003235,45.1816667 C52.0819902,44.655 51.6053235,44.26 51.1278235,43.9975 C50.6809485,43.7498438 50.6002845,43.9086816 50.8377661,44.3627771 L52.1939693,46.86625 C52.7828235,47.9433333 53.3940735,49.02875 53.6328235,49.325 C54.1094902,49.9166667 54.7061568,50.8383333 54.7061568,50.8383333 L54.6961368,50.8809062 C54.6694987,50.9707823 54.5822283,51.147381 54.3478235,50.8383333 L54.235756,50.6937634 C54.0534916,50.4677102 53.9707378,50.421349 53.5246678,49.9810985 L53.000168,49.4562999 C52.6222663,49.0826085 52.4176312,48.9154487 52.1419902,48.8641667 L51.9525769,48.8270275 C51.7863779,48.7972777 51.7655871,48.8251081 51.868946,49.1024526 L51.9036568,49.1933333 C52.0819902,49.6541667 52.4394902,50.7725 52.8569902,51.3633333 L52.9785603,51.5468352 C53.1336712,51.7923587 53.3309412,52.1389034 53.5250296,52.4918414 L54.2886568,53.9291667 C54.2886568,53.9291667 54.3414321,54.2807536 53.8951966,53.7104675 L53.6032383,53.3256049 C53.166968,52.7654815 52.8252124,52.4421667 52.6186568,52.6133333 C52.4200457,52.7779167 52.5941198,53.1253704 52.7955859,53.4647222 L52.9169902,53.6658333 C53.1553235,54.0608333 54.0503235,56.0341667 54.0503235,56.0341667 L54.0115613,56.0261539 C53.9522112,56.0074574 53.8269326,55.9451359 53.6511875,55.7373973 L53.5728235,55.6391667 C53.2753235,55.245 52.6786568,54.85 52.6786568,54.85 L52.6646855,54.9189063 C52.6451152,55.0515625 52.6338652,55.36 52.8569902,55.705 C53.1354346,56.1343333 53.933642,57.5959333 54.1845013,58.1100548 L54.3706181,58.5011543 C54.5675812,58.9011437 54.8253235,59.3883333 54.8253235,59.3883333 L54.8153502,59.40414 C54.7849235,59.4357667 54.6706568,59.4675 54.2886568,58.9941667 C53.8111568,58.4016667 53.5728235,58.1383333 53.3344902,58.205 C53.1358791,58.2598611 53.2271985,58.4970139 53.3668397,58.8031289 L54.2686568,60.7275 L54.2686568,60.7275 C54.4778235,60.8941667 54.7011568,61.0516667 54.9453235,61.1641667 C55.4469902,61.3958333 56.1269902,61.5941727 56.4861568,61.6916667 L56.7048376,61.2435909 C56.8024664,61.047449 56.9138949,60.8416667 57.0919902,60.5716667 L57.5201394,59.9368557 C57.6954212,59.6823253 57.8232123,59.50071 57.9516571,59.2957213 L58.1744113,58.9255366 C58.4477133,58.4611226 58.8535811,57.7349242 58.9994902,57.2508333 L59.3351383,56.1773137 C59.4004161,55.9644673 59.4590272,55.7641724 59.5009717,55.5970153 L59.5917753,55.1945908 C59.6498606,54.9493107 59.6861568,54.85 59.6861568,54.85 L59.7229919,54.9201033 C59.7798965,55.0417562 59.8783538,55.3137121 59.8353235,55.6725 L59.773291,56.1622575 C59.721226,56.5209225 59.637031,56.9462175 59.456446,57.4520025 L59.0592914,58.471301 C58.9378531,58.7733037 58.8392338,58.9708974 58.5828235,59.355 C58.1653235,59.98 57.7178235,60.7041667 57.3003235,61.395 C56.9424664,61.9864286 56.6501194,62.6507143 56.386548,63.1805685 L56.2569902,63.4333333 C55.9586568,63.9925 55.5111568,65.0116667 55.4811568,65.6041667 C55.4703235,65.8258333 55.4419902,66.0858333 55.4136568,66.3291667 L54.7478235,66.3291667 C54.6051568,66.0878333 54.4342235,65.8102333 54.2806768,65.5915133 L53.6761739,64.7753426 C53.4424324,64.4639626 53.1893711,64.1527381 52.9169902,63.9275 C52.4735973,63.5607143 52.4419264,63.7040901 52.2488412,63.8852405 L52.2011568,63.9275 C51.9826846,64.1077778 51.563246,64.5653472 50.9903399,65.1467993 L50.8303235,65.3083333 C50.4791568,65.6600833 50.2819318,65.8991333 50.1377493,66.0952267 L49.8153235,66.5583333 L49.8153235,66.5583333 C49.5769902,66.8866667 49.8761568,67.0183333 49.8153235,67.3466667 C49.7561568,67.6766667 49.4578235,67.8075 49.3986568,68.07 C49.3446568,68.30775 49.6295068,68.38485 49.9038943,68.6372475 L50.1386568,68.8775 L50.1386568,68.8775 L50.2328235,68.6625 C50.4119902,68.2683333 50.4119902,67.8733333 50.4119902,67.4783333 C50.4119902,67.0841667 50.1144902,66.755 50.4719902,66.4266667 L50.5869902,66.3291667 L50.5869902,66.3291667 C50.9369902,66.0566667 51.3969902,65.88 51.6644902,65.7033333 C51.9628235,65.505 52.3211568,65.3741667 52.9761568,65.7033333 C53.2644902,65.8466667 53.6436568,66.08 54.0286568,66.3291667 L52.5111568,66.3291667 C52.1786568,66.1358333 51.9586568,66.1591667 51.6503235,66.3291667 L51.5703235,66.3747917 L51.5703235,66.3747917 L51.4853235,66.4266667 C51.0686568,66.6891667 50.8894902,66.8208333 50.8894902,67.2816667 C50.8894902,67.6759524 50.8894902,67.9257483 50.8144465,68.3202089 L50.6289655,69.1937963 C50.5368873,69.6161728 50.4202035,70.0925617 50.2687689,70.4424931 L50.1736568,70.6358333 C49.8761568,71.1616667 49.7561568,71.9516667 49.3986568,72.5441667 C49.0403235,73.135 48.8019902,73.53 48.8611568,74.0566667 C48.9211568,74.5825 49.3986568,74.9108333 49.3986568,75.3058333 L49.3966907,75.5200309 C49.3917753,75.6654012 49.3745713,75.7475 49.3143576,75.9129321 L49.2194902,76.1608333 C49.0403235,76.6216667 48.9211568,77.0816667 49.2194902,77.6083333 C49.5178235,78.1341667 49.5769902,78.5291667 49.8153235,78.595 L49.9573968,78.6328619 C50.0810871,78.6563143 50.1649901,78.6147246 50.3473627,78.3117683 L50.4119902,78.2008333 C50.7103235,77.6741667 50.9486568,77.4108333 51.0086568,77.0166667 C51.0536568,76.7204167 50.9974068,76.5722917 50.8659225,76.3501042 L50.7103235,76.095 C50.4719902,75.7008333 50.2928235,75.3716667 50.5911568,74.9766667 C50.8894902,74.5825 51.1278235,74.4516667 51.1278235,74.1216667 C51.1278235,73.7933333 50.8303235,73.3983333 50.7103235,73.0691667 L50.6482286,72.8936613 C50.5446985,72.5817593 50.4617124,72.1704167 50.7103235,71.6225 C51.0086568,70.965 51.3669902,69.8466667 51.5453235,69.2541667 C51.7244902,68.6625 51.7244902,68.2683333 52.1419902,68.005 L52.3433563,67.8818094 C52.6107023,67.7288567 52.7436568,67.7243939 53.0361568,67.9391667 C53.3638652,68.1805556 53.89254,68.9191088 54.2537427,69.5469671 L54.3478235,69.715 C54.7061568,70.3725 55.4219902,71.6883333 55.7794902,72.4116667 C56.1378235,73.135 56.1969902,73.53 56.4361568,73.7266667 C56.6744902,73.925 56.7936568,73.6616667 57.2703235,73.8591667 C57.7080318,74.0402083 58.7465388,74.6630961 59.3299536,75.1199706 L59.4769902,75.24 C60.0144902,75.7008333 60.9678235,76.3583333 61.6836568,77.1475 C62.3986568,77.9366667 62.7569902,78.4633333 63.4728235,78.9891667 L63.8596968,79.2682133 C64.3275902,79.5945333 64.6419902,79.752 65.2619902,79.91 C66.0378235,80.1075 66.5153235,80.1733333 67.5286568,80.1733333 C68.5419902,80.1733333 69.4361568,80.0425 70.4503235,80.305 L71.0504259,80.4520642 C71.6177298,80.5850296 71.8996825,80.6434615 72.3586568,80.8966667 C72.9553235,81.225 73.4919902,81.7516667 73.4919902,81.7516667 L73.2041389,81.6302918 C72.7203373,81.4370386 71.7032023,81.0762121 70.7486568,81.0283333 C69.9819902,80.99 69.2961568,80.9741667 68.6811568,80.9675 C68.6536568,81.0916667 68.6178235,81.2616667 68.6011568,81.3908333 C68.5803235,81.5525 68.7078235,81.8616667 68.8469902,82.18 Z"/>
  </g>
</svg>
