<svg xmlns="http://www.w3.org/2000/svg" width="120" height="120" viewBox="0 0 120 120">
  <g fill="none" fill-rule="evenodd">
    <path fill="#ED1C24" fill-rule="nonzero" d="M84.6497519,61.344716 C84.7520746,61.6581244 84.5933149,61.9393916 84.6982225,62.1911899 C84.6982225,62.6760437 84.7068275,63.1421613 84.7068275,63.6323597 C84.6152746,65.895916 84.4699771,68.1246454 84.4699771,70.3801681 C84.4699771,72.4749479 84.3676578,73.9241546 84.3676578,75.2796101 C84.3784141,75.6358857 84.3058326,77.5351328 84.3191872,77.8833748 C84.3321284,79.0432739 84.087725,80.1121008 83.9423838,81.2130655 C83.4875368,84.8079529 81.7677048,87.995684 79.0304914,90.4119092 C78.0588611,91.2584034 77.0630426,91.9709546 75.9837687,92.5897546 C75.6446426,92.7532538 75.3028208,92.9299597 74.9583099,93.098716 C74.9206124,93.107321 74.8910998,93.1228504 74.8426292,93.1228504 L74.7026124,93.1228504 C74.145483,92.7665782 73.5883569,92.4129748 73.0258426,92.0647328 C71.8496779,91.3870151 70.498572,90.8673277 69.0963065,90.6637378 C68.4261519,90.5726185 67.642925,90.4709412 66.9135502,90.5726185 C62.5049519,91.1324807 58.0344443,94.5398723 56.0131636,98.4642588 C55.3995099,99.6509378 54.9258124,100.845674 54.6674225,102.227906 C54.5004779,103.194945 54.4843199,104.432528 54.6002124,105.458484 C54.9581687,109.256961 56.3281216,112.348252 58.9630561,114.976121 C60.3653015,116.366387 61.8213754,117.494148 63.3770393,118.546904 C63.9476309,118.900508 64.5370494,119.264817 65.0995603,119.631798 C65.1560006,119.655933 65.201883,119.655933 65.201883,119.741661 L65.2665082,119.741661 L65.2665082,119.789913 C62.9465956,119.714948 60.3008914,118.367526 58.5433653,117.156723 C57.2568611,116.256655 56.0080141,115.402124 54.864162,114.22081 C54.2316611,113.585939 53.7014393,112.865355 53.2142998,112.155476 C52.6517855,111.32238 52.0569586,110.502682 51.6236309,109.602615 C50.4070964,107.076551 49.7234763,103.88882 49.9253418,100.687708 C50.0492073,98.7697176 50.4824712,96.9910151 51.079967,95.3194824 C51.4137082,94.3872739 51.9439334,93.5461412 52.4445351,92.6996471 C55.0390998,88.4538185 59.5984242,85.7643395 63.5467872,83.0962958 C66.0955973,81.3899294 68.63633,79.6540941 71.1905082,77.942363 C73.634367,76.2895697 76.062051,74.6796471 78.1667636,72.4562622 C80.0777115,70.4230891 81.614525,68.0416773 82.7395502,65.6093613 C83.2078628,64.5753681 84.2629216,62.4055798 84.6504746,61.344716"/>
    <path fill="#B49142" fill-rule="nonzero" d="M84.2710527,50.1142723 C84.3733754,50.4009008 84.3302931,50.8080807 84.3302931,51.1643529 L84.3302931,53.4520168 C84.3302931,54.919963 84.2710527,56.6986655 84.1015199,58.0728639 C83.7085821,61.1855899 82.2821048,63.5509311 80.7399065,66.0930655 C80.2042998,66.9636639 79.5960309,67.7538924 79.0308242,68.5923529 C78.5221452,69.3290084 77.9730931,70.0844235 77.3378998,70.7353647 C76.2989956,71.8068605 75.1658931,72.7792437 74.0193452,73.6445008 C72.1864678,75.0079697 70.4154763,76.347358 68.4776242,77.5179866 C66.5047872,78.7046655 64.6261552,80.0440504 62.7233082,81.3325345 C58.659204,84.0621849 54.476683,87.1909815 51.6479603,91.3591328 C50.8432141,92.5404672 50.2941653,93.8530555 49.785483,95.1736773 C48.9834292,97.2443563 48.5393284,99.6927395 48.7008275,102.22684 C48.8408477,104.52523 49.5459435,106.593237 50.3641317,108.551402 C50.9105115,109.813086 51.5295468,111.042655 52.3477384,112.17843 C53.2763065,113.528545 54.5305149,114.790229 55.8170393,115.883156 C57.1331603,117.002884 58.4465889,118.02884 59.859604,118.961049 C60.0534763,119.097624 61.8539569,119.968266 62.0665922,119.968266 C62.0665922,119.987661 60.8069754,119.740571 60.8069754,119.775469 C58.2393384,119.242403 55.8358662,117.857479 53.9087838,116.2904 C49.1906594,112.408881 46.0443502,107.059415 45.7617485,100.796461 C45.6514561,98.6106017 45.776841,96.4809882 46.4830628,94.6487126 C49.3602326,87.1910454 56.3714729,81.4344034 62.7313855,76.6715563 C64.9491267,74.9839529 67.166888,73.2963261 69.3846494,71.6274622 C70.8138191,70.5425681 72.2483536,69.4576739 73.6829115,68.3700874 C74.108162,67.9468403 74.5334124,67.5236134 74.9667199,67.1084034 C77.2544712,64.8207395 79.2676746,62.3964571 80.8986897,59.7337782 C81.3616141,58.9729983 81.8406998,58.2149076 82.2363502,57.4220101 C82.9334326,55.9781479 83.4878695,54.3869613 83.8054763,52.7582958 C83.977809,51.8930387 84.2226494,51.0197681 84.2710964,50.1142723"/>
    <path fill="#254AA5" fill-rule="nonzero" d="M83.5903838,0 C84.0102494,0 84.4220578,0 84.6562157,0.348305882 C84.9388174,0.752789916 84.8070057,1.91536134 84.8070057,2.50202353 C84.8285519,5.41383193 84.9577956,34.1863798 84.9577956,35.9972235 C84.9980779,37.9928908 84.9384006,40.4064437 84.9093284,42.4262387 C84.8285485,47.874837 82.9687838,52.7475025 80.5922191,57.0469076 C79.6852141,58.6648672 78.9369889,60.3283866 77.6504678,61.7695563 C76.7380544,62.7928437 75.8175872,63.8107664 74.808283,64.7617345 C72.8246964,66.6073882 70.7334292,68.2467832 68.6341015,69.8647664 C66.4540141,71.678279 64.2766225,73.491795 62.0938662,75.2865681 C60.5597216,76.4411261 59.0229082,77.5956639 57.5533687,78.8921849 C56.6086662,79.7225849 55.7151031,80.5878454 54.7784813,81.434316 C53.8149519,82.3076101 52.9509855,83.322837 52.0332107,84.2738084 C49.320209,87.0624 46.8979099,90.2260067 45.7621149,93.8262588 C45.3530191,95.0826017 45.0596443,96.293405 44.8766292,97.6676034 C44.7204544,98.8435731 44.8255737,100.142787 44.9061418,101.321429 C45.2829452,107.372736 48.0847603,112.738292 52.8297922,116.418918 C54.3073889,117.56275 55.8495872,118.588706 57.5371502,119.317324 C57.8762561,119.462084 58.4952947,119.842376 58.8640174,119.842376 L58.8640174,119.893217 C53.1796712,119.196713 48.0847401,117.198373 43.7111267,113.916894 C42.874088,113.306128 42.1177889,112.577506 41.3749519,111.848887 C35.9839536,106.464592 33.340962,98.8301109 34.1403233,90.547405 C34.5036645,86.6899899 35.4106897,83.0977714 36.9259636,79.8243261 C39.4882393,74.2739429 43.6815267,69.819163 48.3781115,65.5679697 C49.4170157,64.7107697 50.4424578,63.8616034 51.4625115,63.0070723 C53.2361956,61.5980437 54.9560242,60.1488403 56.7027805,58.6648034 C57.50753,57.9629815 58.3095838,57.2665008 59.1197183,56.5646588 C61.4747199,54.3439664 63.9239435,52.206316 66.0959536,49.774 C68.7066729,46.8166555 71.2231737,43.821805 73.3871031,40.6448 C74.6897821,38.7294824 75.874004,36.7632807 77.0555569,34.805116 C77.9760443,33.2889176 78.7377115,31.6763193 79.4644107,30.0583395 C81.9970662,24.2695563 83.6254124,17.5378185 83.8461048,10.6212739 C83.9186998,8.4166521 83.7599368,6.34864538 83.4666057,4.35564706 C83.3455435,3.6698958 83.2270662,2.9814521 83.0951872,2.2876437 C82.9928678,1.81351261 82.8502628,1.28044706 82.9120847,0.75272605 C82.9605552,0.348238655 83.2754258,0.160722689 83.5903199,0"/>
  </g>
</svg>
