<svg xmlns="http://www.w3.org/2000/svg" width="120" height="120" viewBox="0 0 120 120">
  <g fill="none" fill-rule="evenodd">
    <polygon fill="#2F3A8D" fill-rule="nonzero" points="68.343 93.952 80.52 26 0 93.952"/>
    <path fill="#F6B727" fill-rule="nonzero" d="M71.1101812,55.6800531 L71.6743098,33.4637819 L69.8042984,35.0416837 L69.2851342,55.8733046 L66.7699944,65.1158933 L66.7731834,65.1158933 C66.7699944,65.1194012 66.7661676,65.1194012 66.7626598,65.1194012 L66.7703133,65.1158933 L62.4550005,57.2365888 L60.1567106,43.184716 L58.5357576,44.5531025 L60.5652175,57.2365888 L60.5652175,67.155239 L60.6207055,67.1370619 C60.5862647,67.1482233 60.5546939,67.1622547 60.5218475,67.1826641 L60.5652175,67.1603413 L54.615877,60.1857473 L49.4966251,52.1811163 L48.1221795,53.341901 L53.0146957,60.9973399 L55.3413674,69.9070003 L55.4038712,69.8747917 C55.3589068,69.9050869 55.3174502,69.9353821 55.277588,69.9577049 L55.3413674,69.9073192 L47.3954135,64.5374144 L42.370874,58.1926417 L41.0238535,59.3282336 L45.9999206,65.6130536 L50.4778709,73.6211925 L41.3504039,69.9650395 L34.6650493,64.696225 L33.3189855,65.8330925 L40.2023751,71.2651822 L46.5158958,77.9349108 L46.5774429,77.869218 C46.5439587,77.9106746 46.5111124,77.9521312 46.4808172,77.9955012 L46.5155769,77.9349108 L36.6138283,76.2246667 L26.3577852,71.7119567 L24.9182846,72.9240838 L35.7540822,77.6986082 L43.3192733,83.0174895 L43.3718913,82.935533 C43.3406394,82.9980368 43.3093875,83.0627729 43.27686,83.1265523 L43.3192733,83.0174895 L33.5731464,82.3427037 L18.5706419,78.2815517 L17.0118738,79.5998715 L33.0004075,83.9237945 L41.2464435,88.3446622 L31.5860998,89.4821674 L6.95737359,88.0828478 L5.10777159,89.6425725 L31.337998,91.1356478 L40.26456,93.6240003 L73.8565212,65.7970571 L71.1101812,55.6800531 L71.1101812,55.6800531 L71.1101812,55.6800531 Z"/>
    <polygon fill="#E62E2F" fill-rule="nonzero" points="106.956 93.952 119.131 26 38.611 93.952"/>
  </g>
</svg>
