<svg xmlns="http://www.w3.org/2000/svg" width="120" height="120" viewBox="0 0 120 120">
  <path fill="#D93138" fill-rule="evenodd" d="M60.1360945,115.442908 L0,115.442908 L0.00134151504,78.832963 L0.00402454511,78.832963 L0.00536606014,42.2216762 L0.931011435,44.1467503 C2.27252647,46.9371015 3.45574273,48.5267969 6.14548038,51.1561663 C8.98144316,53.9290779 9.71525189,54.4938557 14.2509142,57.3982358 C16.1585486,58.620356 18.5625435,60.1698058 19.5941686,60.8405634 C27.4809355,65.9758829 31.1258319,70.4860565 33.0348078,77.4726668 C33.5204362,79.2501742 33.6116592,79.9652017 33.6975162,82.6374997 C33.7914222,85.571393 33.639831,87.3489005 33.0683456,89.9890021 C32.967732,90.4571908 33.0066359,90.5054853 33.4949474,90.5054853 C34.4608382,90.5081684 39.0501612,91.2500262 41.0637752,91.7302886 C48.5199158,93.507796 54.6264923,96.2458282 61.6895689,100.97601 C65.2056798,103.331711 68.6023959,106.13816 72.6698695,110.048676 C74.056996,111.382142 74.5614057,111.83155 74.7720235,111.83155 C74.8431238,111.83155 74.8793448,111.781914 74.9061751,111.69874 C75.304605,110.443082 73.2091585,106.921605 70.3383164,104.023932 C65.3223916,98.9637376 58.3639531,94.2335556 50.2518117,90.3713338 C44.699281,87.7272077 43.0867799,86.727779 41.357567,84.8603901 C39.9972708,83.3914311 39.3801739,82.127724 39.3774908,80.8049901 C39.3761493,79.3803012 39.8215323,78.4345331 40.8491328,77.6832846 C41.7077025,77.0554556 42.6856669,76.7442241 43.6207029,76.7442241 C44.6348883,76.7442241 45.5994376,77.1104577 46.3050745,77.8389004 L46.9422941,78.4962427 L46.21251,78.8007667 C45.8261536,78.9617485 45.4840673,79.0328488 44.8602628,79.0328488 C44.5208595,79.0328488 44.0982823,79.0113845 43.5388705,78.9738221 L41.5950152,78.8410121 L41.6567249,79.2823706 C41.7667291,80.0550832 43.4328908,80.5541268 45.2010076,80.5541268 C46.038113,80.5541268 46.8980241,80.4427811 47.6264668,80.1946008 C50.0063145,79.3883502 52.6504406,77.6162089 56.212163,74.4408428 C57.0412193,73.701668 57.9064965,72.9973726 58.1345541,72.8739532 C58.3639531,72.7518754 59.8744991,72.5010121 61.4937077,72.3172245 C63.6106185,72.0770933 64.6543171,71.8718415 65.2123874,71.5860988 C65.9971737,71.1863273 66.4854852,70.581304 66.2855994,70.2579989 C66.115227,69.9816468 63.2054809,68.1008427 62.0705592,67.5320404 C60.0717018,66.5312701 56.9848757,65.3923239 53.982565,64.5471694 C52.3995773,64.1017864 51.0594038,63.7637246 50.8823238,63.7637246 C50.8715917,63.7637246 50.8648841,63.7650661 50.8635426,63.7677492 C50.6998777,63.9300725 51.1895307,65.2501233 51.6241816,65.8202672 C52.1674952,66.5326117 53.8604872,67.4327682 54.9269916,67.5763104 C55.3455443,67.632654 55.6889722,67.7171694 55.6889722,67.765464 C55.6889722,67.9143721 54.9015028,69.0103899 54.3930686,69.5684602 C53.7947529,70.2258026 52.0266361,71.1433988 51.0594038,71.2976731 L50.3376687,71.4130434 L49.1370127,69.8488368 C44.7100131,64.0883713 40.641198,60.3965219 34.6888958,56.7422349 C30.9916804,54.473733 28.0859588,53.1496577 20.5318876,50.2895476 C11.5410539,46.886124 11.0661575,46.6942873 9.00022437,45.6344904 C4.99177745,43.5752649 2.70583583,41.494575 1.24492595,38.5767798 C-0.0254887857,36.0413164 -0.0335378759,35.9165555 0.0348793909,19.3917733 L0.0939060525,5 L8.43812957,12.6962718 C13.0274525,16.9287517 16.9178461,20.4515702 17.0828525,20.5253535 C17.2492003,20.5991368 21.4253366,24.3768432 26.364795,28.9192131 C31.3029118,33.461583 41.6728231,42.9903643 49.4079988,50.0936864 C57.1418329,57.195667 64.0613675,63.618841 64.7831026,64.3674064 C65.5048377,65.1159718 78.162032,76.7978847 92.9079653,90.3297469 C107.656582,103.861609 119.845587,115.047161 119.995837,115.18802 C120.227919,115.402663 110.882925,115.442908 60.1360945,115.442908"/>
</svg>
