<svg xmlns="http://www.w3.org/2000/svg" width="120" height="120" viewBox="0 0 120 120">
  <g fill="none" fill-rule="evenodd">
    <path fill="#6F787E" d="M63.4810619,110.033989 C63.4810619,110.750803 39.919646,111.329564 32.1833628,111.329564 C30.6764602,111.329564 29.4562832,110.750803 29.4562832,110.033989 C29.4562832,109.327794 30.6764602,108.743723 32.1833628,108.743723 L33.7388044,108.749932 C42.6650098,108.814252 63.4810619,109.370166 63.4810619,110.033989 Z M64.6630088,102.025847 C65.2630088,102.669387 65.8502655,103.275759 66.4046018,103.823723 L64.5302982,103.902191 C51.2336401,104.434157 30.3012662,104.785847 21.3621239,104.785847 C18.7253097,104.785847 16.5812389,103.962838 16.5812389,102.96567 C16.5812389,101.993475 18.5892137,101.196319 21.108542,101.145901 L22.678576,101.145605 C32.2527372,101.176292 51.9912049,101.520393 64.6630088,102.025847 Z M57.2824779,92.4895641 L58.6287887,94.4070324 C58.9242478,94.8240632 59.2160708,95.2323606 59.5019469,95.6265553 L54.283782,95.7710916 C39.384249,96.1603433 22.8589702,96.4039004 14.5306195,96.4039004 C11.1674336,96.4039004 8.44353982,95.3685022 8.44353982,94.092042 C8.44353982,92.812396 11.1674336,91.7748739 14.5306195,91.7748739 L17.2690389,91.7819589 C26.8229442,91.82735 43.1276549,92.0882477 57.2824779,92.4895641 Z M20.8470796,82.6814225 C20.8438938,82.7196526 20.859823,82.7578827 20.859823,82.7578827 C22.0849236,84.2368851 23.2652644,85.5026205 24.7694551,86.8447108 L25.2307965,87.2499181 C25.2307965,87.2499181 25.8828319,88.1823075 27.8633628,87.3837234 C29.8778761,86.5628385 31.5865487,85.4467323 33.5129204,82.8630154 L37.30706,82.9308926 C41.7810947,83.014651 46.4022419,83.1133989 50.9681416,83.2166438 L53.6410619,87.171334 L53.6410619,87.171334 L47.4589692,87.3220537 C32.9731361,87.6542876 18.3815044,87.8477942 10.4219469,87.8477942 C6.63185841,87.8477942 3.55752212,86.672219 3.55752212,85.232219 C3.55752212,83.821899 6.4762214,82.6767321 10.1318531,82.6189328 L12.5066353,82.6199154 C14.9007649,82.6271089 17.7230193,82.6465032 20.8470796,82.6814225 Z M22.1352212,73.6591216 L21.5777031,74.4726304 C19.8114883,77.0796263 18.9619308,78.6269092 18.8750442,78.7331039 L18.6584071,79.0378827 L18.6584071,79.0378827 L15.1887015,79.0735389 C12.5288973,79.0963229 10.1611452,79.1058473 8.18442478,79.1058473 C4.15327434,79.1058473 0.887787611,77.8644314 0.887787611,76.3235464 C0.887787611,74.792219 4.15327434,73.5508031 8.18442478,73.5508031 L11.0900111,73.5578716 C14.2156195,73.5719092 17.9753097,73.6065553 22.1352212,73.6591216 Z M7.43150442,64.6304491 L10.4521705,64.6376999 C15.380789,64.6595305 21.8381703,64.7299678 28.9720354,64.8396526 C27.3366372,66.7628385 25.9168142,68.5447854 24.699823,70.1419535 L17.8797435,70.222363 C14.0187655,70.2612742 10.6137318,70.28296 7.88074289,70.2851349 L7.43150442,70.2853163 C3.33026549,70.2853163 4.79616347e-14,69.0226615 4.79616347e-14,67.4552278 C4.79616347e-14,65.8984137 3.33026549,64.6304491 7.43150442,64.6304491 Z M37.0523894,56.151865 C35.3246018,57.8605376 33.7274336,59.5224845 32.2693805,61.1090331 L24.3158443,61.2312937 C17.8525339,61.3194641 12.2165827,61.3670862 8.18336283,61.3670862 C4.15539823,61.3670862 0.887787611,60.1256703 0.887787611,58.5879712 C0.887787611,57.089994 4.00165011,55.8662633 7.89697804,55.8088396 L11.367005,55.8149694 C17.921577,55.8461551 27.160467,55.9647816 37.0523894,56.151865 Z M69.8240708,56.9908031 L73.4577973,57.1258338 C84.3338203,57.5510214 92.0145133,58.0560912 92.0145133,58.5879712 C92.0145133,59.112573 84.6446018,59.6042544 74.1238938,60.0173517 C72.2665487,58.9628385 70.8562832,57.9040774 69.8240708,56.9908031 Z M10.4230088,47.0700951 L13.6236525,47.0788727 C21.7267865,47.1195254 34.0741593,47.2992101 46.4548673,47.572396 C44.7185841,49.0368208 43.0725664,50.4842544 41.5189381,51.9051393 L32.7433014,52.0661106 C23.7179996,52.2157019 15.6456212,52.2991216 10.4230088,52.2991216 C6.63079646,52.2991216 3.55646018,51.13098 3.55646018,49.6856703 C3.55646018,48.2435464 6.63079646,47.0700951 10.4230088,47.0700951 Z M80.0463717,48.6853163 L82.4994707,48.8288217 C86.7628742,49.0988503 89.3437168,49.3879789 89.3437168,49.6877942 C89.3437168,50.0764668 84.9982301,50.4481482 78.2718584,50.7794756 C79.7086726,49.6984137 80.0240708,48.7554048 80.0463717,48.6853163 Z M57.1943363,39.2254933 L55.6320157,40.3635857 C55.3697935,40.5559948 55.1065487,40.7504491 54.8421239,40.9479712 L53.4126647,42.0165258 C53.1769912,42.1942249 52.9426549,42.372042 52.7097345,42.5504491 L46.0364503,42.70802 C33.6387749,42.9805659 21.3431168,43.1430154 14.5295575,43.1430154 C11.1663717,43.1430154 8.44460177,42.1076172 8.44460177,40.8279712 C8.44460177,39.5483252 11.1663717,38.5086792 14.5295575,38.5086792 L17.2614513,38.5158928 C26.7926663,38.5620762 43.0597235,38.8270641 57.1943363,39.2254933 Z M73.3879646,39.7978827 L75.2473839,39.8877333 C80.8641348,40.1732974 84.4566372,40.4957656 84.4566372,40.8269092 C84.4566372,41.2644314 78.280354,41.6743429 69.4492035,42.0279712 C70.7150442,41.2888562 72.019115,40.5444314 73.3879646,39.7978827 Z M68.7313274,31.1961128 C67.9274336,31.7228385 67.1235398,32.2697411 66.3111504,32.8177057 L64.4348946,32.8951843 C51.1294459,33.4206095 30.2819714,33.771334 21.3610619,33.771334 C18.7242478,33.771334 16.580177,32.9589446 16.580177,31.951157 C16.580177,30.9465553 18.7242478,30.1288562 21.3610619,30.1288562 L24.9357627,30.1429661 C36.3635549,30.2227742 57.4439414,30.6340734 68.7313274,31.1961128 Z M63.4821239,24.8807146 C63.4821239,25.5890331 39.9238938,26.17098 32.1844248,26.17098 C30.6775221,26.17098 29.4573451,25.5890331 29.4573451,24.8807146 C29.4573451,24.1660243 30.6775221,23.5872632 32.1844248,23.5872632 L34.8903329,23.603653 C44.3294598,23.7024796 63.4821239,24.2363498 63.4821239,24.8807146 Z"/>
    <path fill="#471328" d="M92.7865487,65.3631924 C92.840708,66.7734579 92.8322124,68.172042 92.7621239,69.5440774 C79.0555752,70.0867323 66.0573451,70.9129269 66.0573451,71.8421305 C66.0573451,72.7543429 78.7646018,73.572042 92.3139823,74.112573 C92.0739823,75.6768208 91.7670796,77.211334 91.3922124,78.7171747 C78.0361062,79.2630154 65.6421239,80.0669092 65.6421239,80.971688 C65.6421239,81.8435464 77.2130973,82.6283252 90.0265487,83.1741659 C89.439292,84.8095641 88.7745133,86.3982367 88.0269027,87.9200066 C77.0230088,88.4488562 67.9295575,89.1561128 67.9295575,89.9270862 C67.9295575,90.6470862 75.8739823,91.311865 85.8892035,91.8258473 C85.3274336,92.7412455 84.740177,93.6375287 84.1263717,94.4849623 C83.4743363,95.4088562 82.7660177,96.3242544 82.0162832,97.2226615 C75.7550442,97.6984137 71.4573451,98.2389446 71.4573451,98.8177057 C71.4573451,99.3146969 74.5348673,99.7787677 79.2775221,100.195051 C76.6895575,102.756467 73.6311504,105.149033 70.0258407,107.237883 C70.0258407,107.237883 65.780177,103.5816 62.2768142,99.311511 C59.1525664,95.5033694 52.5249558,85.4637234 50.9660177,83.2177057 C49.4038938,80.971688 48.3769912,80.3143429 46.5515044,80.9663783 C44.1047788,81.8329269 41.260885,82.2672632 40.3858407,82.2672632 C39.5107965,82.2672632 39.0307965,81.9274402 40.4973451,81.3465553 C41.9585841,80.7571747 47.7355752,78.0300951 50.580531,72.3932809 C53.7748673,66.0449623 50.9660177,57.2796526 50.9660177,57.2796526 C49.8923894,61.9649623 47.4530973,63.7150508 47.4530973,63.7150508 C48.2410619,59.3631924 47.3830088,55.4191216 45.2346903,52.6506261 L44.0368142,58.1600066 C44.0368142,58.1600066 43.2870796,58.1217765 41.4318584,59.6807146 C39.5787611,61.2428385 39.0679646,63.5185907 39.0679646,63.5185907 C40.5270796,64.1058473 42.2814159,62.6414225 42.2814159,62.6414225 C40.040708,71.0265553 36.8272566,77.85275 34.4835398,81.4633694 C32.1419469,85.0729269 30.2102655,86.4332809 27.8633628,87.3869092 C25.8828319,88.1801836 25.2318584,87.2488562 25.2318584,87.2488562 C23.500885,85.7546969 22.2084956,84.3858473 20.860885,82.7589446 C20.860885,82.7589446 20.7525664,82.5688562 21.1157522,82.5741659 C22.08,82.5879712 23.7971681,80.9387677 24.1720354,80.2538119 C24.6010619,79.4690331 24.5553982,78.8690331 24.340885,78.8286792 C24.1284956,78.792573 23.7621239,79.4148739 21.9015929,80.5883252 C20.0516814,81.7585907 19.2010619,80.9472632 18.5840708,80.2952278 C18.1061947,79.7759358 18.5766372,79.1345199 18.8750442,78.7331039 C19.1575221,78.3741659 28.9444248,60.1235464 54.8421239,40.9490331 C88.779823,15.8201836 110.453097,9.03540482 111.694513,8.5458473 C112.514336,8.22301544 113.853451,7.79611279 114.15823,8.10938713 C114.494867,8.4619535 114.660531,8.74443137 114.614867,9.15434288 C114.571327,9.56213049 114.353628,9.77133403 112.784071,10.4637234 C99.7561062,16.2035464 84.5479646,25.7706261 75.9069027,31.3384137 C65.2810619,36.5164668 55.1352212,43.9097411 54.7656637,44.0860243 C53.9479646,44.5946969 54.5511504,45.33275 55.0460177,45.0237234 C72.9897345,33.0885022 94.0279646,24.9582367 117.276106,18.2977057 C118.386903,17.9823075 118.995398,17.9823075 119.180177,18.2276172 C119.389381,18.4984137 119.479646,18.8085022 119.511504,19.1504491 C119.541239,19.5773517 119.188673,19.8024845 118.235044,20.1752278 C93.259115,29.4534579 74.8502655,38.072219 63.0095575,46.0389446 C63.0095575,46.0389446 61.7851327,46.7780597 61.7681416,47.6339889 C61.7628319,47.9600066 62.4254867,47.9982367 62.4254867,47.9982367 C68.3532743,48.1033694 76.2764602,48.451688 80.0463717,48.671511 C80.0463717,48.671511 79.5090265,50.5808916 75.8984071,52.1185907 C73.1118584,53.3079712 70.5313274,53.1178827 67.9784071,53.1401836 C67.4102655,53.1295641 66.9292035,53.7019535 67.3826549,54.3136349 C67.6109735,54.6173517 73.0438938,63.3646084 92.7865487,65.3631924"/>
  </g>
</svg>
