<svg xmlns="http://www.w3.org/2000/svg" width="120" height="120" viewBox="0 0 120 120">
  <g fill="none" fill-rule="evenodd">
    <path fill="#194688" d="M2.51862857,0 C1.13451429,0 0,1.13451429 0,2.51862857 L0,117.481371 C0,118.865486 1.13451429,120 2.51862857,120 L117.481371,120 C118.865486,120 120,118.865486 120,117.481371 L120,2.51862857 C120,1.13451429 118.865486,0 117.481371,0 L2.51862857,0"/>
    <path fill="#FFFFFE" d="M37.9470857,54.856449 C43.7921143,54.8626286 46.5665143,56.4315429 47.6794286,57.0144 C48.250213,57.3131636 48.2584888,57.7917683 48.2363171,57.9813697 L48.2185554,58.0799238 C48.1759123,58.2852356 47.7697263,60.2410827 47.7288,60.4457143 C47.6424,60.8708571 47.3773714,60.9418286 47.0598857,60.7446857 L46.7343232,60.5411976 C45.1175854,59.5402756 43.1214565,58.4756571 40.2497143,58.4756571 C36.69875,58.4787107 34.8745556,61.1291648 35.7569484,64.8292095 L37.776689,72.9949379 C38.2857109,75.0700281 38.7325714,76.9063121 38.8902857,77.5892571 C40.4283429,84.2297143 36.0322286,92.0633143 23.9105143,92.0633143 C17.1774857,92.0633143 13.0097143,89.5632 11.5824,88.3854857 C10.8481102,87.7821184 10.5980847,87.1841707 10.6918331,86.7167622 L10.7036571,86.6653714 C10.7036571,86.6653714 11.4589714,84.1097143 11.5206857,83.8813714 C11.6441143,83.4342857 12.0696,83.4373714 12.2698286,83.6410286 L12.5071771,83.8797176 C13.9088067,85.2676971 17.4616134,88.3934723 22.1502857,88.3731429 C27.7210286,88.3515429 27.3912,83.5237714 27.3881143,82.8517714 C27.3819429,81.1069714 24.9466286,71.8090286 24.3421714,69.3888 C22.4492571,61.8267429 27.0798857,54.8502857 37.9470857,54.856449 Z M99.24,54.856449 C105.082286,54.8626286 107.856686,56.4315429 108.972686,57.0144 C109.541039,57.3131636 109.548799,57.7917683 109.526518,57.9813697 L109.508727,58.0799238 C109.466092,58.2852356 109.06006,60.2410827 109.022057,60.4457143 C108.935657,60.8708571 108.670629,60.9418286 108.353143,60.7446857 L108.034467,60.5454625 C106.4165,59.5433022 104.4186,58.4756571 101.539886,58.4756571 C97.991975,58.4787107 96.1647907,61.1291648 97.0501111,64.8292095 L98.0503285,68.8541946 C98.8668017,72.1585721 99.9221878,76.4575196 100.183543,77.5892571 C101.718857,84.2297143 97.3224,92.0633143 85.2037714,92.0633143 C78.4710857,92.0633143 74.5957714,89.7356571 73.1684571,88.5579429 C72.4341673,87.9516 72.1841418,87.3538649 72.2778902,86.8861679 L72.2897143,86.8347429 C72.2897143,86.8347429 72.8108571,84.1556571 72.8725714,83.8813714 C72.9740571,83.4281143 73.3625143,83.4373714 73.5630857,83.6410286 L73.8004336,83.8797176 C75.2020532,85.2676971 78.7546891,88.3934723 83.4404571,88.3731429 C88.5098331,88.3534869 88.6955012,84.3538403 88.6855342,83.1276634 L88.6813714,82.8517714 C88.6752,81.1069714 86.2395429,71.8090286 85.6323429,69.3888 C83.7425143,61.8267429 88.3700571,54.8502857 99.24,54.856449 Z M65.6801143,55.6392 L75.6192,55.6392 C75.9582857,55.6392 76.0878857,55.9385143 76.0508571,56.1264 L69.2190857,91.0275429 L69.2190857,91.0275429 C69.1701257,91.2720229 69.0031924,91.3877775 68.8281154,91.4021249 L68.7905143,91.4036571 L56.8107429,91.4036571 C56.3987065,91.4036571 56.357485,91.0581464 56.3706915,90.9381719 L58.2110577,81.4994188 C58.2176133,81.4530871 58.2173511,81.3537603 58.0985354,81.3373035 L58.0625143,81.3349714 L48.7522286,81.3349714 C48.5556923,81.3349714 48.3936284,81.5029511 48.3698584,81.5287942 L40.9618286,91.0152 L40.9037244,91.0968563 C40.8134159,91.2155403 40.6453752,91.3796075 40.2709202,91.3987306 L40.1972571,91.4005714 L36.8554286,91.4005714 C36.6025182,91.4005714 36.3147694,91.2509895 36.6476444,90.8024642 L36.6857143,90.7532571 L64.6148888,56.1236039 C64.6702092,56.0596945 65.026064,55.674849 65.6004431,55.641505 L65.6801143,55.6392 Z M61.3117714,65.0112 C61.2541714,65.0112 61.1835048,65.0821333 61.1549418,65.1136593 L61.1420571,65.1284571 L51.0150857,78.1134857 C50.9645922,78.1889143 51.0059051,78.2773771 51.0900815,78.2928379 L51.1165714,78.2952 L58.6481143,78.2952 C58.7800286,78.2952 58.8371143,78.1929857 58.8574125,78.1418786 L58.8668571,78.1134857 L61.3881984,65.121792 C61.3927406,65.0901943 61.3957029,65.0112 61.3117714,65.0112 Z"/>
  </g>
</svg>
