<svg xmlns="http://www.w3.org/2000/svg" width="120" height="120" viewBox="0 0 120 120">
  <path fill="#FCB130" fill-rule="evenodd" d="M45.1800603,0 L76.3427954,50.1937988 C76.3427954,50.1937988 80.917552,57.7134618 80.917552,63.5270889 C80.917552,69.3414629 77.2741384,75.9307143 75.2568495,79.2638044 L61.5363052,100.65936 C61.5363052,100.65936 59.9865505,102.713344 61.0724964,103.488966 C62.195696,104.263843 63.2816419,102.868319 64.2111221,101.744188 L74.4447185,86.163193 L74.4550732,86.1415135 C74.6524596,85.7343645 77.6902119,79.7289171 85.1421236,79.7289171 L95.9941317,79.7289171 L103.552911,91.6666848 C103.552911,91.6666848 97.5830027,91.0467829 94.9081858,95.3106572 L83.7469719,112.131642 C83.7469719,112.131642 80.1035582,120 70.3747498,120 L17.8172044,120 L37.8168629,89.302005 C37.8168629,89.302005 40.6444201,85.6980803 36.6918007,79.7289171 L18.9012876,51.1251418 L18.8899348,51.1138806 C18.6477864,50.8702347 14.6574497,46.6842206 19.0558906,39.6528593 L24.2509215,31.7830114 L48.9799395,71.8603731 C48.9799395,71.8603731 53.3591141,77.3647962 48.9799395,83.9533025 L30.4126865,112.907265 L69.5607561,112.907265 C69.5607561,112.907265 73.979047,113.7207 77.7770636,108.062046 L87.505872,93.1009529 C87.505872,93.1009529 89.7150175,88.0622013 94.5989799,86.0080313 L86.7149384,86.0088667 C86.4334354,86.0255682 82.5077777,86.3407781 79.4832838,91.0467829 L70.8404213,104.418819 C70.8404213,104.418819 67.6999328,110.077472 60.7614279,110.077472 L47.0799999,110.077472 L63.5908477,84.4575315 C63.5908477,84.4575315 72.5838953,72.6359955 66.2656647,61.7830561 L38.9009461,16.5127124 C38.9009461,16.5127124 36.8482663,12.5973447 39.2120147,8.95393112 L45.1800603,0 Z M35.2966489,15.7359723 L62.8159704,60.6982297 C62.8159704,60.6982297 69.9090783,70.1163403 62.195696,81.7829009 L44.0959771,109.883939 L35.7623204,109.883939 L52.5842368,83.3334006 C52.5842368,83.3334006 55.1025881,77.8297226 51.8074967,72.0160936 L28.3581439,33.1800258 C28.3581439,33.1800258 26.3054641,29.5738659 28.3581439,26.1241716 L35.2966489,15.7359723 Z"/>
</svg>
