<svg xmlns="http://www.w3.org/2000/svg" width="120" height="120" viewBox="0 0 120 120">
  <g fill="none" fill-rule="evenodd">
    <path fill="#045DBA" fill-rule="nonzero" d="M91.875,15.001 C89.5224,15.001 87.8436,15.142 86.5625,15.313 C85.2815,15.489 84.289,15.769 83.125,16.25 C82.0541,16.693 81.2763,17.027 80.625,17.5 C79.974,17.973 79.4393,18.6715 78.75,19.375 C71.7561,26.5246 64.8051,33.4748 57.8125,40.625 L49.375,49.375 L40.9375,57.8125 C35.3171,63.5576 29.683,69.567 24.0625,75.3125 C23.0524,76.3447 21.7374,77.5239 20,79.0625 C18.2627,80.6015 16.2575,82.3678 14.0625,84.0625 C11.8675,85.7572 9.5711,87.5625 7.1875,89.0625 C4.8039,90.5619 2.3025,91.8586 -1.18660637e-12,92.8125 C0.445,93.8877 5.8091,92.4915 11.5625,90.9375 C17.3158,89.383 23.569,87.5 25,87.5 L53.125,87.5 L78.4375,87.5 L82.5,87.5 L86.875,87.5 C87.279,86.4677 87.721,85.4073 88.125,84.375 C88.529,83.3427 88.971,82.2827 89.375,81.25 C89.779,80.2174 90.221,79.1573 90.625,78.125 C91.03,77.0924 91.471,76.3447 91.875,75.3125 C93.0003,72.4396 93.8746,69.4351 95,66.5625 C96.1247,63.6897 97.3122,60.6851 98.4375,57.8125 C99.5628,54.94 100.7503,52.2475 101.875,49.375 L105.3125,40.625 C108.1125,33.4748 110.9499,26.5246 113.75,19.375 C114.025,18.672 114.099,17.8916 114.375,17.1875 C114.651,16.4835 115.038,15.7038 115.312,15 L112.812,15 L110.6245,15 L104.687,15 L98.437,15 L94.9995,15 L91.8745,15 L91.875,15.001 Z"/>
    <path fill="#FFF" fill-rule="nonzero" d="M96.1869,18.1869 L48.9744,85.4994 L48.9644,85.4994 C50.7894,66.9369 65.5769,51.3744 76.2519,43.9744 C67.3644,49.8869 41.0644,68.0494 6.8894,97.9619 L87.7519,97.9619 C75.2269,55.1619 90.0644,28.9244 96.1894,18.1869"/>
    <path fill="#D3E7EE" fill-rule="nonzero" d="M70.7069,54.5132 L70.7069,54.5132 L48.9694,85.5007 C48.5694,89.5382 48.7694,93.7007 49.7694,97.9632 L59.2569,97.9632 C56.5819,88.1382 54.6819,78.7632 70.7069,54.5132"/>
  </g>
</svg>
