<svg xmlns="http://www.w3.org/2000/svg" width="120" height="120" viewBox="0 0 120 120">
  <defs>
    <radialGradient id="st-germania-a" cx="50.002%" cy="50.001%" r="50.031%" fx="50.002%" fy="50.001%" gradientTransform="scale(1 .99878)">
      <stop offset="0%" stop-color="#3C9776"/>
      <stop offset="89.999%" stop-color="#108565"/>
      <stop offset="89.999%" stop-color="#108565"/>
      <stop offset="100%" stop-color="#108565"/>
    </radialGradient>
    <linearGradient id="st-germania-b" x1="10.239%" x2="94.382%" y1="28.032%" y2="59.873%">
      <stop offset="0%" stop-color="#4DBF5D"/>
      <stop offset="75%" stop-color="#37A961"/>
      <stop offset="100%" stop-color="#108565"/>
    </linearGradient>
    <linearGradient id="st-germania-c" x1="43.113%" x2="54.644%" y1="45.121%" y2="53.627%">
      <stop offset="0%" stop-color="#B8E5B1"/>
      <stop offset="100%" stop-color="#5EC569"/>
    </linearGradient>
    <linearGradient id="st-germania-d" x1="50.001%" x2="50.001%" y1="0%" y2="100%">
      <stop offset="0%" stop-color="#FFF"/>
      <stop offset="100%" stop-color="#3C9776"/>
    </linearGradient>
  </defs>
  <g fill="none" fill-rule="evenodd">
    <path fill="url(#st-germania-a)" fill-rule="nonzero" d="M0,55.7361031 C3.72826639,50.1421175 11.2229988,44.3698392 22.5478763,40.7370928 L22.5478763,40.7370928 C30.7939924,38.0881485 43.0963058,36.1969485 55.5960161,36.1969485 L55.5960161,36.1969485 C81.2640402,36.1969485 105.843195,43.3955876 117.199914,55.809334 L117.199914,55.809334 C115.7067,24.7351732 90.0418546,0 58.5983666,0 L58.5983666,0 C27.1835313,0 1.53142454,24.6969588 0,55.7361031 M58.5983666,117.343188 C80.4744526,117.343188 102.723046,103.340709 102.723046,93.6746041 L102.723046,93.6746041 C102.723046,85.3648144 86.2913041,80.3502804 61.7153351,80.3502804 L61.7153351,80.3502804 C48.7889907,80.3502804 38.0244668,82.3115196 27.5815089,82.3115196 L27.5815089,82.3115196 C17.21178,82.3115196 7.04581546,78.4813732 1.77339526,73.3299402 L1.77339526,73.3299402 C8.28114124,98.6413794 31.2556478,117.343188 58.5983666,117.343188"/>
    <path fill="url(#st-germania-b)" fill-rule="nonzero" d="M24.1206885,47.4836227 C12.7066621,51.3360557 3.67732515,59.1205113 3.67732515,64.2241918 L3.67732515,64.2241918 C3.67732515,70.0919876 15.5466377,75.8770082 27.833032,75.8770082 L27.833032,75.8770082 C35.8308093,75.8770082 44.9270072,74.1895732 59.8177732,74.1895732 L59.8177732,74.1895732 C95.3079062,74.1895732 108.339319,83.7983629 108.339319,92.1909402 L108.339319,92.1909402 C108.339319,103.111472 93.4039825,112.637487 78.9971536,116.661847 L78.9971536,116.661847 L78.8889062,119.097476 C106.139292,112.010276 119.883888,96.8711691 119.883888,76.8289732 L119.883888,76.8289732 C119.883888,67.4557794 116.461265,60.0501959 107.170853,54.4784969 L107.170853,54.4784969 C95.5180361,47.4836227 75.8929206,42.9307546 56.3219295,42.9307546 L56.3219295,42.9307546 C45.2294709,42.9307546 33.2296212,44.4144124 24.1206878,47.4836227"/>
    <path fill="url(#st-germania-c)" fill-rule="nonzero" d="M23.8500625,51.870934 C15.333321,55.0770557 8.23338371,61.1231443 8.23338371,64.3101588 L8.23338371,64.3101588 C8.23338371,67.5703918 17.6097588,71.3273134 21.9875227,71.3273134 L21.9875227,71.3273134 C33.296481,62.2311155 55.5418911,52.2116041 82.4134052,52.2116041 L82.4134052,52.2116041 C88.3926402,52.2116041 93.5376959,53.1476536 100.45616,54.647233 L100.45616,54.647233 C91.477766,50.1548536 75.2020299,46.5666804 58.9867942,46.5666804 L58.9867942,46.5666804 C45.1275885,46.5666804 32.5769363,48.5915938 23.8500625,51.8709402"/>
    <path fill="url(#st-germania-d)" fill-rule="nonzero" d="M19.2876365,33.4715938 C19.2876365,36.1905835 19.8511738,38.8172412 20.8859184,41.2942577 L20.8859184,41.2942577 C21.4303528,41.1064082 21.9811553,40.9217505 22.5478763,40.7370928 L22.5478763,40.7370928 C30.7939924,38.0881485 43.0963058,36.1969485 55.5960161,36.1969485 L55.5960161,36.1969485 C70.0155742,36.1969485 84.0912773,38.4702062 95.6740485,42.6633031 L95.6740485,42.6633031 C97.1099536,39.7883134 97.8995412,36.6936309 97.8995412,33.4715938 L97.8995412,33.4715938 C97.8995412,18.198767 80.3025247,5.81686392 58.5951829,5.81686392 L58.5951829,5.81686392 C36.8878398,5.81686392 19.2876365,18.198767 19.2876365,33.4715938"/>
  </g>
</svg>
