<svg xmlns="http://www.w3.org/2000/svg" width="120" height="120" viewBox="0 0 120 120">
  <path fill="#00529C" fill-rule="evenodd" d="M69.415223,70.3408593 L71.3365439,70.9087498 L72.1170805,71.1964476 C71.8343861,71.406592 71.6192382,71.6217399 71.3365439,71.8368879 L70.829878,72.3433511 C70.4304459,72.7354806 69.9938708,73.1195197 69.3476765,73.4680093 L71.3340422,77.2981425 L72.2571768,79.0093189 L71.3340422,79.4396147 L68.8473325,80.5728939 L66.0053787,74.9590343 C64.2316593,75.5994746 62.2402902,75.9547189 60.2489211,76.024767 C58.1174558,76.0973169 55.9159422,75.8096191 53.997123,75.1691788 L51.5804616,80.5728939 C50.7974232,80.6404403 49.7316905,80.5728939 49.0237038,80.080055 C48.6684596,79.8649071 48.3132153,79.5071612 48.173119,79.0093189 L49.0237038,77.588342 L51.085121,73.8882982 C50.4446807,73.4680093 49.8767903,73.1853149 49.3088999,72.612421 L51.0150729,70.5560073 C53.7947111,72.2538791 56.8342078,73.2337211 59.8224167,73.3192897 L60.2489211,73.3254112 C63.376071,73.3979611 66.5007192,72.3972731 69.415223,70.3408593 Z M72.5423729,67.4989055 L89.2388517,70.6235537 L81.848771,73.1102633 L70.4084058,69.6328726 C70.76365,69.3451748 71.0488461,69.0599787 71.3340422,68.7097379 C71.7593345,68.351992 72.1145788,67.8541497 72.5423729,67.4989055 Z M30.9187566,70.5785227 L47.6027269,67.4263556 C47.9579711,67.9266996 48.4558134,68.4245419 49.0237038,68.9173807 C49.2121667,69.0608126 49.4017415,69.2342652 49.5916869,69.3977109 L49.8767903,69.6303709 L38.0211395,72.9626618 L30.9187566,70.5785227 Z M47.8879229,57.1943211 C47.8879229,59.2507349 48.3132153,60.9569079 49.0237038,62.5204828 C51.085121,66.8609669 55.703296,69.2000751 60.2489211,69.3426731 C64.7691484,69.4160931 69.2845873,67.2414234 71.2095757,62.6921914 L71.3340422,62.38539 C71.9229085,61.0113684 72.2112133,59.4518939 72.2520834,57.6518717 L72.2571768,57.1968228 L120,57.1968228 L111.191444,62.8106823 L74.8139346,61.0294578 C74.1034461,63.6562637 72.8976171,65.8602789 71.3340422,67.5664519 C68.4220402,70.8412033 64.2992057,72.3297267 60.2489211,72.2571768 C56.2573488,72.2571768 52.2000379,70.6583212 49.3006354,67.7767568 L49.0237038,67.4939021 C47.4123182,65.8872419 46.1825144,63.7673431 45.4544199,61.3259883 L45.3311652,60.8918632 L8.74100944,62.8081806 L0,57.1943211 L47.8879229,57.1943211 Z M45.7564576,64.6569517 C46.18175,65.3649384 46.6095441,66.0053787 47.1073863,66.645819 L27.2112077,70.1932579 L21.3146538,67.6365001 L45.7564576,64.6569517 Z M74.3861405,64.5844018 L98.6853462,67.4964038 L92.7887923,70.1932579 L73.1077616,66.645819 C73.533054,66.0053787 74.1734943,65.3674401 74.3861405,64.5844018 Z M61.9550941,51.2952655 L66.2180249,54.9903058 L61.1720558,57.409469 L66.0053787,67.0010632 C65.1568787,67.6500511 64.072939,68.0614971 63.2950359,68.2354014 L63.090875,68.2769404 L58.5452499,58.6903496 L55.0628557,60.2489211 L52.9313903,55.4155982 L60.2489211,52.0833073 L61.9550941,51.2952655 Z M11.2252173,63.733817 L44.618175,61.8124961 C44.7795359,62.2965789 44.9394896,62.7778473 45.1296985,63.2563012 L45.3311652,63.733817 L17.9748577,67.003565 L11.2252173,63.733817 L44.618175,61.8124961 L11.2252173,63.733817 Z M75.6695228,61.8124961 L108.777284,63.733817 L102.027644,66.8609669 L75.0290825,63.733817 L75.6695228,61.8124961 L75.6695228,61.8124961 Z M58.4051535,40 C59.0455938,40.2151479 59.6134843,40.4302958 60.2514229,40.6454437 C64.6544499,42.4141597 68.5621365,44.8333229 71.3340422,48.2431672 C73.1803115,50.4471824 74.5287385,53.14904 75.2417287,56.2711864 L72.1871287,56.2711864 C72.0170117,55.528676 71.8020639,54.7925699 71.5410044,54.0923285 L71.3365439,53.5743324 C69.2751266,48.1756207 65.082244,44.3354806 60.2514229,41.1332791 C59.6134843,40.7805366 59.0455938,40.3552442 58.4051535,40 Z"/>
</svg>
