<svg xmlns="http://www.w3.org/2000/svg" width="120" height="120" viewBox="0 0 120 120">
  <g fill="none" fill-rule="evenodd">
    <path fill="#F9C623" d="M116.110766,72.4888909 C115.025598,70.1635321 113.785407,67.9931971 112.235167,66.13291 C110.684928,64.272623 108.979665,62.7223837 107.119378,61.3271684 C106.189234,60.5520488 105.104067,59.9319531 104.0189,59.4668813 C103.553828,59.1568335 102.933732,58.8467856 102.46866,58.5367378 C102.933732,58.3817139 103.553828,58.071666 104.0189,57.7616182 C105.104067,57.2965464 106.189234,56.6764507 107.119378,55.9013311 C108.979665,54.5061158 110.684928,52.9558765 112.235167,51.0955895 C113.785407,49.2353024 115.025598,47.0649675 116.110766,44.7396086 C117.195933,42.4142498 117.971053,39.933867 118.436124,37.2984603 C118.591148,35.4381732 118.746172,33.5778861 118.746172,31.872623 C118.746172,31.0975033 118.746172,30.3223837 118.746172,29.3922402 C118.591148,27.2219053 118.126077,25.0515703 117.350957,22.8812354 C116.575837,20.8659244 115.645694,18.6955895 114.405502,16.8374555 C113.165311,14.8221445 111.770096,13.1168813 110.064833,11.4116182 C108.359569,9.86137894 106.499282,8.31113971 104.483971,7.07094832 C102.313636,5.83075693 100.143301,4.90061339 97.6629187,4.2805177 C95.1825359,3.50539808 92.7021531,3.04032631 89.9117225,3.04032631 C87.2763158,2.88530239 84.795933,3.19535023 82.3155502,3.660422 C79.9901914,4.2805177 77.6648325,5.21066124 75.6495215,6.2958287 C73.4791866,7.38099617 71.6188995,8.77621148 69.9136364,10.4814746 C68.3633971,12.0317139 66.9681818,13.892001 65.8830144,15.907312 C64.7978469,17.9204699 64.0227273,20.0908048 63.7126794,22.4161636 C63.4026316,23.656355 63.4026316,24.7415225 63.4026316,25.9817139 C63.4026316,27.0668813 63.4026316,27.9970249 63.5576555,28.9271684 C61.3894737,27.686977 59.2191388,26.6018096 57.0488038,25.9817139 C54.4133971,25.0515703 51.3129187,24.5864986 48.2124402,24.4314746 C45.2669856,24.4314746 42.476555,24.7415225 39.8411483,25.3616182 C37.3607656,25.8266899 34.8803828,26.7568335 32.5550239,27.9970249 C30.5397129,29.0821923 28.369378,30.4774076 26.354067,32.1826708 C25.1138756,33.2678383 23.8736842,34.3530057 22.6334928,35.5931971 C22.6334928,35.5931971 20.7732057,37.4534842 19.8430622,38.6936756 C18.7578947,39.7788431 17.6727273,41.1740584 16.5875598,42.5692737 L14.107177,45.6697521 C13.4870813,46.5998957 12.8669856,47.3750153 12.091866,48.1501349 C11.1617225,49.3903263 10.076555,50.4754938 8.99138756,51.5606612 C7.13110048,53.4209483 5.11578947,55.1262115 2.94545455,56.5214268 C2.48038278,56.8314746 2.015311,57.1415225 1.55023923,57.4515703 C1.24019139,57.6065943 0.930143541,57.7616182 0.620095694,57.9166421 C0.310047847,58.071666 1.56319402e-13,58.2266899 1.56319402e-13,58.5367378 C1.56319402e-13,59.0018096 0.310047847,59.1568335 0.620095694,59.3118574 C0.930143541,59.4668813 1.24019139,59.6219053 1.55023923,59.7769292 C2.015311,60.086977 2.48038278,60.3970249 2.94545455,60.7070727 C5.11578947,62.102288 7.13110048,63.8075512 8.99138756,65.6678383 C10.076555,66.7530057 11.1617225,67.8381732 12.091866,69.0783646 C12.8669856,69.8534842 13.4870813,70.6286038 14.107177,71.5587474 L16.5875598,74.6592258 C17.6727273,76.0544411 18.7578947,77.4496565 19.8430622,78.5348239 C20.7732057,79.7750153 22.6334928,81.4802785 22.6334928,81.4802785 C23.8736842,82.8754938 25.1138756,83.9606612 26.354067,85.0458287 C28.369378,86.7510919 30.5397129,88.1463072 32.5550239,89.2314746 C34.8803828,90.471666 37.3607656,91.4018096 39.8411483,91.8668813 C42.476555,92.642001 45.2669856,92.7970249 48.2124402,92.7970249 C51.3129187,92.642001 54.4133971,92.1769292 57.0488038,91.2467856 C59.2191388,90.6266899 61.3894737,89.5415225 63.5576555,88.3013311 C63.4026316,89.2314746 63.4026316,90.1616182 63.4026316,91.2467856 C63.4026316,92.486977 63.4026316,93.5721445 63.7126794,94.8123359 C64.0227273,97.1376947 64.7978469,99.3080297 65.8830144,101.321188 C66.9681818,103.336499 68.3633971,105.196786 69.9136364,106.747025 C71.6188995,108.452288 73.4791866,109.847503 75.6495215,110.932671 C77.6648325,112.017838 79.9901914,112.947982 82.3155502,113.568078 C84.795933,114.033149 87.2763158,114.343197 89.9117225,114.188173 C92.7021531,114.188173 95.1825359,113.723101 97.6629187,112.947982 C100.143301,112.327886 102.313636,111.397743 104.483971,110.157551 C106.499282,108.91736 108.359569,107.367121 110.064833,105.816881 C111.770096,104.111618 113.165311,102.406355 114.405502,100.391044 C115.645694,98.53291 116.575837,96.3625751 117.350957,94.3472641 C118.126077,92.1769292 118.591148,90.0065943 118.746172,87.6812354 C118.746172,86.9061158 118.746172,86.1309962 118.746172,85.3558765 C118.746172,83.6506134 118.591148,81.7903263 118.436124,79.9300392 C117.971053,77.2946325 117.195933,74.8142498 116.110766,72.4888909"/>
    <path fill="#311C56" d="M109.599761,74.9692737 C108.669617,72.9539627 107.58445,71.0936756 106.034211,69.3884124 C104.638995,67.6831493 102.933732,66.287934 101.073445,65.2027665 C99.058134,63.9625751 97.042823,63.0324316 94.872488,62.5673598 C92.7021531,61.7922402 90.3767943,61.4821923 88.0514354,61.4821923 C85.5710526,61.4821923 83.2456938,61.7922402 80.765311,62.4123359 C78.75,62.8774076 76.8897129,63.4975033 75.0294258,64.4276469 C73.3241627,65.2027665 71.7739234,66.287934 70.3787081,67.3731014 C68.9834928,68.303245 67.5882775,69.3884124 66.3480861,70.4735799 C64.9528708,71.4037234 63.7126794,72.333867 62.3196172,73.2640105 C61.0794258,74.0391301 59.6842105,74.8142498 58.1339713,75.4343454 C56.4287081,75.8994172 54.723445,76.2094651 53.0181818,76.2094651 C50.692823,76.2094651 48.3674641,75.7443933 46.1971292,74.8142498 C44.0267943,73.8841062 42.1665072,72.6439148 40.6162679,70.9386517 C38.9110048,69.3884124 37.6708134,67.3731014 36.8956938,65.2027665 C35.9655502,63.1874555 35.6555024,60.8620966 35.6555024,58.5367378 C35.6555024,56.3664029 35.9655502,54.041044 36.8956938,52.025733 C37.6708134,49.8553981 38.9110048,47.995111 40.6162679,46.2898478 C42.1665072,44.5845847 44.0267943,43.3443933 46.1971292,42.4142498 C48.3674641,41.4841062 50.692823,41.0190344 53.0181818,41.0190344 C54.723445,41.0190344 56.4287081,41.3290823 58.1339713,41.7941541 C59.6842105,42.4142498 61.0794258,43.1893694 62.3196172,43.964489 C63.7126794,44.8946325 64.9528708,45.8247761 66.3480861,46.9099435 C67.5882775,47.8400871 68.9834928,48.9252545 70.3787081,50.010422 C71.7739234,50.9405655 73.3241627,52.025733 75.0294258,52.8008526 C76.8897129,53.7309962 78.75,54.3510919 80.765311,54.8161636 C83.2456938,55.4362593 85.5710526,55.7463072 88.0514354,55.7463072 C90.3767943,55.7463072 92.7021531,55.4362593 94.872488,54.8161636 C97.042823,54.1960679 99.058134,53.2659244 101.073445,52.025733 C102.933732,50.9405655 104.638995,49.5453502 106.034211,47.8400871 C107.58445,46.1348239 108.669617,44.2745368 109.599761,42.2592258 C110.529904,40.0888909 111.15,37.918556 111.460048,35.5931971 C111.770096,33.1128143 111.770096,30.6324316 111.305024,28.1520488 C110.839952,25.8266899 110.064833,23.5013311 108.979665,21.4860201 C107.894498,19.4707091 106.499282,17.7654459 104.949043,16.2173598 C103.24378,14.5120966 101.538517,13.2719053 99.5232057,12.1867378 C97.5078947,11.2565943 95.3375598,10.4814746 93.1672249,10.0164029 C90.99689,9.55133109 88.5165072,9.39630717 86.1911483,9.70635502 C84.0208134,10.0164029 81.6954545,10.6364986 79.6801435,11.721666 C77.8198565,12.6518096 75.9595694,14.0470249 74.5643541,15.5972641 C73.0141148,17.1453502 71.9289474,19.0056373 70.9988038,21.0209483 C70.2236842,23.0362593 69.6035885,25.2065943 69.4485646,27.3769292 C69.4485646,29.5472641 69.6035885,31.872623 70.3787081,34.0429579 C70.3787081,34.3530057 70.5337321,34.6630536 70.688756,34.9731014 C70.688756,35.1281254 70.688756,35.2831493 70.8437799,35.4381732 C70.8437799,35.5931971 70.8437799,35.748221 70.9988038,35.903245 C70.9988038,35.903245 71.1538278,36.0582689 71.3088517,36.0582689 C71.3088517,36.0582689 71.4638756,35.903245 71.4638756,35.748221 C71.4638756,35.4381732 71.4638756,35.1281254 71.4638756,34.8180775 C71.6188995,33.5778861 71.9289474,32.4927187 72.3940191,31.4075512 C73.3241627,29.3922402 74.719378,27.686977 76.4246411,26.4467856 C78.2849282,25.3616182 80.4552632,24.7415225 82.6255981,24.5864986 C84.9509569,24.4314746 87.2763158,24.7415225 89.2916268,25.8266899 C91.1519139,26.7568335 92.7021531,28.3070727 93.7873206,30.1673598 C94.872488,32.0276469 95.3375598,34.3530057 95.3375598,36.5233407 C95.3375598,38.6936756 94.7174641,41.0190344 93.4772727,42.8793215 C92.3921053,44.7396086 90.6868421,46.2898478 88.6715311,47.3750153 C86.6562201,48.3051588 84.3308612,48.7702306 82.1605263,48.4601828 C80.6102871,48.3051588 79.0600478,47.8400871 77.6648325,47.2199914 C76.2696172,46.5998957 74.8744019,45.6697521 73.6342105,44.7396086 C72.2389952,43.6544411 70.8437799,42.5692737 69.6035885,41.4841062 C68.2083732,40.2439148 66.8131579,39.0037234 65.4179426,37.918556 C63.8677033,36.6783646 62.3196172,35.5931971 60.6143541,34.8180775 C58.754067,33.73291 56.8937799,32.9577904 54.8784689,32.3376947 C52.708134,31.717599 50.3827751,31.4075512 48.0574163,31.4075512 C45.7320574,31.4075512 43.4066986,31.5625751 41.0813397,32.1826708 C39.0660287,32.6477426 37.2057416,33.2678383 35.3454545,34.1979818 C33.7952153,35.1281254 32.2449761,36.2132928 30.6947368,37.4534842 C29.2995215,38.5386517 28.0593301,39.933867 26.8191388,41.3290823 C25.5789474,42.7242976 24.4937799,44.1195129 23.4086124,45.5147282 C22.1684211,46.9099435 21.0832536,48.4601828 19.9980861,49.8553981 C18.7578947,51.2506134 17.6727273,52.4908048 16.277512,53.8860201 C15.0373206,55.1262115 13.7971292,56.2113789 12.24689,57.2965464 C11.9368421,57.4515703 11.6267943,57.6065943 11.3167464,57.7616182 C11.1617225,57.9166421 10.8516746,58.071666 10.6966507,58.2266899 C10.5416268,58.2266899 10.2315789,58.3817139 10.2315789,58.5367378 C10.2315789,58.8467856 10.5416268,59.0018096 10.6966507,59.1568335 C10.8516746,59.1568335 11.1617225,59.3118574 11.3167464,59.4668813 C11.6267943,59.6219053 11.9368421,59.7769292 12.24689,60.086977 C13.7971292,61.0171206 15.0373206,62.102288 16.277512,63.3424794 C17.6727273,64.5826708 18.7578947,65.9778861 19.9980861,67.3731014 C21.0832536,68.7683167 22.1684211,70.318556 23.4086124,71.7137713 C24.4937799,73.1089866 25.5789474,74.5042019 26.8191388,75.8994172 C28.0593301,77.2946325 29.2995215,78.6898478 30.6947368,79.7750153 C32.2449761,81.0152067 33.7952153,82.1003742 35.3454545,83.0305177 C37.2057416,83.9606612 39.0660287,84.5807569 41.0813397,85.0458287 C43.4066986,85.6659244 45.7320574,85.8209483 48.0574163,85.8209483 C50.3827751,85.8209483 52.708134,85.5109005 54.8784689,84.8908048 C56.8937799,84.2707091 58.754067,83.4955895 60.6143541,82.5654459 C62.3196172,81.6353024 63.8677033,80.5501349 65.4179426,79.3099435 C66.8131579,78.2247761 68.2083732,76.9845847 69.6035885,75.8994172 C70.8437799,74.6592258 72.2389952,73.5740584 73.6342105,72.4888909 C74.8744019,71.5587474 76.2696172,70.6286038 77.6648325,70.0085081 C79.0600478,69.3884124 80.6102871,68.9233407 82.1605263,68.7683167 C84.3308612,68.4582689 86.6562201,68.9233407 88.6715311,69.8534842 C90.6868421,70.7836277 92.3921053,72.4888909 93.4772727,74.349178 C94.7174641,76.2094651 95.3375598,78.5348239 95.3375598,80.7051588 C95.3375598,83.0305177 94.872488,85.2008526 93.7873206,87.0611397 C92.7021531,88.9214268 91.1519139,90.471666 89.2916268,91.4018096 C87.2763158,92.486977 84.9509569,92.7970249 82.6255981,92.642001 C80.4552632,92.642001 78.2849282,91.8668813 76.4246411,90.7817139 C74.719378,89.5415225 73.3241627,87.8362593 72.3940191,85.8209483 C71.9289474,84.7357809 71.6188995,83.6506134 71.4638756,82.410422 C71.4638756,82.1003742 71.4638756,81.7903263 71.4638756,81.4802785 C71.4638756,81.3252545 71.3088517,81.1702306 71.3088517,81.1702306 C71.1538278,81.1702306 70.9988038,81.3252545 70.9988038,81.3252545 C70.8437799,81.4802785 70.8437799,81.6353024 70.8437799,81.7903263 C70.688756,81.9453502 70.688756,82.1003742 70.688756,82.2553981 C70.5337321,82.5654459 70.3787081,82.8754938 70.3787081,83.1855416 C69.6035885,85.3558765 69.4485646,87.6812354 69.4485646,89.8515703 C69.6035885,92.0219053 70.2236842,94.1922402 70.9988038,96.2075512 C71.9289474,98.2228622 73.0141148,100.083149 74.5643541,101.631235 C75.9595694,103.181475 77.8198565,104.57669 79.6801435,105.506833 C81.6954545,106.592001 84.0208134,107.212097 86.1911483,107.522144 C88.5165072,107.832192 90.99689,107.677168 93.1672249,107.212097 C95.3375598,106.747025 97.5078947,105.971905 99.5232057,105.041762 C101.538517,103.956594 103.24378,102.561379 104.949043,101.01114 C106.499282,99.4630536 107.894498,97.7577904 108.979665,95.7424794 C110.064833,93.7271684 110.839952,91.4018096 111.305024,89.0764507 C111.770096,86.5960679 111.770096,84.1156852 111.460048,81.6353024 C111.15,79.3099435 110.529904,77.1396086 109.599761,74.9692737"/>
    <path fill="#B21D7B" d="M76.5796651,58.5367378 L76.5796651,58.5367378 L76.4246411,58.3817139 C73.6342105,57.7616182 71.1538278,56.2113789 68.9834928,54.6611397 C66.50311,52.8008526 64.1777512,50.9405655 61.8545455,49.2353024 C59.3741627,47.5300392 56.5837321,46.1348239 53.6382775,45.9798 C51.3129187,45.8247761 48.8325359,46.2898478 46.8172249,47.5300392 C44.9569378,48.6152067 43.4066986,50.1654459 42.3215311,52.025733 C41.0813397,54.041044 40.6162679,56.3664029 40.6162679,58.5367378 C40.6162679,58.6917617 40.6162679,58.6917617 40.6162679,58.6917617 C40.6162679,60.8620966 41.0813397,63.1874555 42.3215311,65.2027665 C43.4066986,67.0630536 44.9569378,68.6132928 46.8172249,69.6984603 C48.8325359,70.7836277 51.3129187,71.4037234 53.6382775,71.2486995 C56.5837321,71.0936756 59.3741627,69.6984603 61.8545455,67.9931971 C64.1777512,66.287934 66.50311,64.4276469 68.9834928,62.5673598 C71.1538278,61.0171206 73.6342105,59.4668813 76.4246411,58.8467856 C76.4246411,58.8467856 76.5796651,58.6917617 76.5796651,58.5367378"/>
  </g>
</svg>
