<svg xmlns="http://www.w3.org/2000/svg" width="120" height="120" viewBox="0 0 120 120">
  <path fill="#E22219" fill-rule="evenodd" d="M60.0029146,0 C93.1428583,0 120,26.8698137 120,60.0072231 C120,93.142098 93.1428583,120.011912 60.0029146,120.011912 C38.4908434,120.011912 19.6348338,108.683099 9.04606924,91.6772091 L9.04606924,91.6772091 L109.578507,70.3095993 C111.005379,70.0054701 110.739266,68.6394232 109.578507,68.6394232 L109.578507,68.6394232 L68.6351147,68.6394232 C74.7633178,63.4895023 79.5989719,57.0014129 79.7282268,47.5607361 C79.7282268,32.2605035 65.2668839,16.3165309 37.1273309,4.52645607 C44.1780592,1.61695351 51.9004061,0 60.0029146,0 Z M32.8865028,6.48327395 C46.719312,18.6053565 51.3572821,40.0692739 44.6157518,59.7641732 C38.3253464,78.1513169 23.4635668,85.2704743 7.11915739,88.3675232 C2.58002927,79.920335 0,70.2667678 0,60.0074765 C0,36.6300796 13.3766154,16.3877478 32.8865028,6.48327395 Z"/>
</svg>
