<svg xmlns="http://www.w3.org/2000/svg" width="120" height="120" viewBox="0 0 120 120">
  <g fill="none" fill-rule="evenodd">
    <path fill="#B9D137" d="M42.67968,61.80608 L52.704,61.80608 L47.69088,45.09728 L42.67968,61.80608 Z M14.27232,92.83904 L14.27232,45.09728 L0,45.09728 L0,26 L62.01408,26 L62.01408,92.83904 L58.43232,80.90432 L36.95232,80.90432 L33.36768,92.83904 L14.27232,92.83904 L14.27232,92.83904 Z"/>
    <path fill="#D8232A" d="M81.1104,45.09728 L95.43072,45.09728 C98.0688,45.09728 100.20576,47.2352 100.20576,49.87232 C100.20576,52.5104 98.0688,54.64256 95.43072,54.64256 L81.1104,54.64256 L81.1104,45.09728 Z M62.01408,26 L95.43072,26 C108.61632,26 119.30592,36.68576 119.30592,49.87232 C119.30592,63.05408 108.61632,73.74464 95.43072,73.74464 L81.1104,73.74464 L81.1104,92.83808 L62.01408,92.83808 L62.01408,26 L62.01408,26 Z"/>
    <polyline fill="#6CB644" points="14.272 92.838 33.368 92.838 33.368 45.097 47.691 45.097 47.691 26 33.368 26 14.272 92.838"/>
    <polyline fill="#A51F25" points="62.014 92.838 81.111 92.838 62.014 26 62.014 92.838"/>
  </g>
</svg>
