<svg xmlns="http://www.w3.org/2000/svg" width="120" height="120" viewBox="0 0 120 120">
  <path fill="#D40000" fill-rule="evenodd" d="M119.052051,92.2786495 L120,93.486311 L115.000541,93.486311 L114.358546,93.2762958 C113.971737,93.1468593 113.493036,92.9811476 113.16957,92.8500162 L113.013106,92.7826635 C112.730926,92.6574328 112.477317,92.5251066 112.299771,92.4274787 L112.039823,92.2786495 L119.052051,92.2786495 Z M22.1274754,92.0578942 L22.1274754,93.3824261 L20.7380154,92.0578942 L22.1274754,92.0578942 Z M113.650038,89.3568878 L115.221296,91.0839736 L109.20896,91.0839736 L106.352126,89.3568878 L113.650038,89.3568878 Z M22.0885186,89.2400173 L22.0885186,90.9281463 L19.7640948,90.9281463 L17.9980522,89.2400173 L22.0885186,89.2400173 Z M113.805865,86.9415648 L114.961584,88.2271399 L102.46943,88.2271399 L100.61872,87.8570167 C100.15678,87.7661622 99.6648369,87.6707271 99.2146065,87.5860425 L98.1606477,87.3917585 C97.5192491,87.2688762 97.0072624,87.1490133 96.6690906,87.0639022 L96.2103668,86.9415648 L113.805865,86.9415648 Z M20.8548858,86.7987231 L22.0235905,88.0063846 L16.6865058,88.0063846 L15.6346716,86.7987231 L20.8548858,86.7987231 Z M74.7062006,84.0327887 L108.390867,84.0327887 L109.24759,84.8429589 C109.331964,84.9240111 109.404981,84.9949536 109.455687,85.0456661 L109.548541,85.1420058 C109.675474,85.2778619 109.811109,85.4379246 109.909736,85.5573234 L110.053025,85.7339033 L78.6408397,85.7339033 L78.1475344,85.5833601 C77.6322113,85.4211426 76.8240052,85.1522021 76.2760019,84.8997993 L76.1995455,84.8638675 C75.5852312,84.5754847 75.060616,84.2576585 74.8306288,84.1127385 L74.7062006,84.0327887 Z M18.0629802,84.0717455 L19.7640948,85.6689752 L14.5049237,85.6689752 L12.8687371,84.0717455 L18.0629802,84.0717455 Z M71.3818851,81.6823937 L108.611622,81.6823937 L109.234931,82.3706309 L109.234931,82.3706309 C109.333225,82.4907857 109.461722,82.6887959 109.540351,82.813882 L109.611514,82.929012 L73.238827,82.929012 L71.3818851,81.6823937 Z M15.621686,81.6823937 L16.9072611,82.9030408 L11.7260037,82.9030408 L10.4404285,81.6823937 L15.621686,81.6823937 Z M12.9336652,78.8385456 L14.5308949,80.4098041 L9.28470945,80.4098041 L7.58359485,78.8385456 L12.9336652,78.8385456 Z M47.3974678,78.8385456 L44.1121091,80.4098041 L29.321502,80.4098041 L28.5482386,80.1145218 C28.1402154,79.9563035 27.6467753,79.7609515 27.2663762,79.5978989 L27.1918624,79.5657396 C26.6352258,79.3306905 26.1143596,79.0501933 25.8750451,78.9166646 L25.7374743,78.8385456 L47.3974678,78.8385456 Z M83.861054,78.8385456 L85.4712693,80.3838329 L70.1482524,80.3968185 L70.007621,80.2445483 C69.9108147,80.1367282 69.7741808,79.9790302 69.6306274,79.7956885 L69.3272537,79.3953492 C69.245045,79.2853675 69.1732367,79.1868399 69.1140295,79.1043505 L68.9276052,78.8385456 L83.861054,78.8385456 Z M10.5962558,76.4232226 L11.6740612,77.6828265 L6.57071745,77.6828265 L5.25917109,76.4232226 L10.5962558,76.4232226 Z M103.32648,76.4621794 L104.482199,77.6828265 L23.9844173,77.6828265 L23.7453405,77.479609 C23.5886944,77.3492268 23.3791021,77.1799921 23.1922952,77.0465318 L23.0048933,76.9148195 C22.8186569,76.7804326 22.6421238,76.6437453 22.5311512,76.556268 L22.4131587,76.4621794 L103.32648,76.4621794 Z M78.5239693,73.5923601 L80.1341846,75.1246618 L20.9587707,75.1246618 L19.6861811,73.5923601 L78.5239693,73.5923601 Z M7.58359485,73.6183313 L9.15485337,75.0727194 L3.83075425,75.0727194 L2.29845255,73.6183313 L7.58359485,73.6183313 Z M97.8465534,71.1640515 L99.1970566,72.4885835 L1.28557515,72.4885835 L0,71.1640515 L97.8465534,71.1640515 Z M76.8228547,68.3591603 L75.2775674,69.9693756 L0.155827291,69.9693756 L1.63618656,68.3591603 L76.8228547,68.3591603 Z M92.7042528,66.0607077 L94.0937128,67.2943404 L16.2060383,67.2943404 L16.1309315,67.1080134 C16.0887615,67.0072576 16.0302975,66.8728358 15.9593118,66.7229737 C15.8687655,66.4966095 15.8121412,66.2764373 15.7846105,66.1556708 L15.7645276,66.0607077 L92.7042528,66.0607077 Z M15.1152473,63.138946 L32.5679039,63.138946 L32.7967989,63.2746251 C33.1149648,63.4587283 33.7168553,63.7910483 34.2922795,64.0211739 L34.6427716,64.156622 C34.9453556,64.2759066 35.2660116,64.4088896 35.5531287,64.5305235 L36.4765718,64.9309599 L15.4788443,64.9309599 L15.4146707,64.7322863 C15.3616922,64.563405 15.2883136,64.3174617 15.2443685,64.1189351 L15.2321177,64.0609241 C15.2041824,63.9282315 15.1793792,63.7477856 15.1598893,63.5817037 L15.1152473,63.138946 Z M68.1614544,63.1779028 L69.8885402,64.9309599 L57.5002705,64.9309599 L59.2533276,63.1779028 L68.1614544,63.1779028 Z M87.5879234,60.7366086 L88.7176712,62.048155 L14.9724056,62.048155 L14.9616977,61.6685055 L14.9616977,61.6685055 L14.9575107,61.3117801 C14.9538796,61.1830905 14.9456442,61.0500155 14.937858,60.9443206 L14.9204632,60.7366086 L87.5879234,60.7366086 Z M27.5944162,57.9187317 L28.8799913,59.6717888 L14.8944919,59.6717888 L14.9128156,59.3043944 C14.9212498,59.1565561 14.9325133,58.9817674 14.9464344,58.8147387 L14.9625662,58.5208078 C14.9721942,58.3743278 14.9833836,58.2342532 14.9926169,58.1261317 L15.0113624,57.9187317 L27.5944162,57.9187317 Z M82.2638243,55.4644519 L83.4585002,56.8668975 L15.0762904,56.8668975 L15.0909865,56.742723 C15.1078951,56.6138817 15.1403433,56.4004986 15.1931609,56.1786603 C15.2354156,55.9462626 15.3110844,55.7253744 15.3618941,55.5923891 L15.4139162,55.4644519 L82.2638243,55.4644519 Z M16.2060383,52.6985175 L26.2828698,52.6985175 L26.2842899,52.8477953 C26.2885958,53.0307394 26.3044446,53.3483491 26.3607835,53.60751 L26.3936202,53.8227339 C26.4168415,53.9884843 26.4346035,54.1456945 26.4465602,54.261467 L26.4646683,54.4515745 L15.6346716,54.4515745 L15.6928025,54.2013389 C15.733741,54.0309369 15.792327,53.797883 15.8554269,53.5815388 C15.9286695,53.2885717 16.0789979,52.958191 16.1568622,52.7972517 L16.2060383,52.6985175 Z M76.9656964,50.2961801 L78.3032139,51.6466833 L16.6085921,51.6466833 L16.675302,51.4813949 C16.7240375,51.3654032 16.7970373,51.2001747 16.8861079,51.0246671 L17.0216423,50.7592503 C17.097293,50.613142 17.1637316,50.4901181 17.2089445,50.4076813 L17.2708581,50.2961801 L76.9656964,50.2961801 Z M18.8810735,47.5302456 L26.7243805,47.5302456 L26.6510893,47.8348997 C26.6114636,47.990315 26.5593016,48.1813097 26.5036251,48.3483389 C26.4358101,48.5970009 26.3832018,48.9602394 26.3557888,49.1736109 L26.3348122,49.3482307 L17.7513256,49.3482307 L17.8161839,49.1716309 C17.8983564,48.9579981 18.0497854,48.5962331 18.2188075,48.3483389 L18.3094626,48.2252523 C18.4044051,48.0996839 18.5098009,47.9691104 18.6039694,47.8554975 L18.8810735,47.5302456 Z M71.8104101,45.1408938 L73.0180716,46.4654258 L19.6082675,46.4654258 L20.7769722,45.1408938 L71.8104101,45.1408938 Z M29.4643437,42.3360026 L28.230711,44.011146 L21.9326913,44.011146 L23.6987339,42.3360026 L29.4643437,42.3360026 Z M66.6291527,39.9985932 L68.0445839,41.4529813 L24.6726545,41.4529813 L25.7374743,39.9985932 L66.6291527,39.9985932 Z M34.3599178,37.2196732 L32.5679039,39.0506439 L25.9582296,39.0506439 L25.9667069,38.9505891 C25.9785753,38.7864651 25.9948523,38.4452659 25.9582296,38.1156801 C25.9362828,37.8852174 25.8497665,37.5762817 25.791784,37.3879414 L25.7374743,37.2196732 L34.3599178,37.2196732 Z M61.4608809,34.8173358 L62.7594416,36.2067958 L25.2959636,36.2067958 L23.9454604,34.843307 L61.4608809,34.8173358 Z M39.6190888,32.0384158 L37.9309599,33.7135591 L18.2577643,33.7135591 L16.5176929,32.0384158 L39.6190888,32.0384158 Z M56.3315658,29.713992 L57.5392274,31.0125528 L16.3618656,31.0125528 L17.5565415,29.713992 L56.3315658,29.713992 Z M53.6305595,27 L55.1368899,28.6102153 L27.4645601,28.6102153 L28.8799913,27 L53.6305595,27 Z"/>
</svg>
