<svg xmlns="http://www.w3.org/2000/svg" width="120" height="120" viewBox="0 0 120 120">
  <g fill="none" fill-rule="evenodd">
    <polygon fill="#ED6D27" points="0 0 120 0 120 120 0 120"/>
    <path fill="#FFF" d="M12.2638636,58.5156818 L11.9106818,58.5156818 C11.1504545,58.5156818 10.9063636,58.4611364 10.9063636,57.7554545 C10.9063636,56.6693182 11.7477273,55.8272727 12.6709091,55.8272727 C13.5668182,55.8272727 14.2459091,56.5063636 14.2459091,57.5652273 C14.2459091,58.4884091 14.0290909,58.5156818 12.5352273,58.5156818 L12.2638636,58.5156818 L12.2638636,58.5156818 Z M17.9659091,61.2313636 C19.0247727,61.2313636 19.4863636,60.6879545 19.4863636,59.1402273 C19.4863636,55.8272727 16.7440909,53.1668182 12.6709091,53.1668182 C10.1454545,53.1668182 7.78363636,54.3613636 6.31772727,56.4252273 C5.39454545,57.7281818 4.90568182,59.2486364 4.90568182,60.7963636 C4.90568182,64.9779545 8.055,68.2684091 12.5352273,68.2684091 C14.3270455,68.2684091 15.9293182,67.7740909 17.3140909,66.8515909 C18.4547727,66.0913636 19.0247727,65.2227273 19.0247727,64.5436364 C19.0247727,63.7022727 18.5086364,63.1322727 17.8840909,63.1322727 C17.1777273,63.1322727 16.1195455,64.3268182 14.3815909,64.3268182 C12.4540909,64.3268182 10.9875,62.8343182 10.9875,61.6118182 C10.9875,61.2852273 11.2315909,61.2320455 11.8288636,61.2320455 L17.9659091,61.2320455 L17.9659091,61.2313636 Z M28.2559091,59.4654545 C27.36,59.3025 26.6536364,59.2213636 26.0836364,59.2213636 C22.6895455,59.2213636 20.1102273,61.2313636 20.1102273,63.8093182 C20.1102273,66.3075 21.9565909,68.0775 24.9156818,68.0775 C26.2731818,68.0775 27.0606818,67.7475 28.0111364,67.0684091 C28.2825,66.8781818 28.4727273,66.6606818 28.7168182,66.6606818 C29.0154545,66.6606818 29.2868182,67.1229545 29.8029545,67.6118182 C30.2645455,68.0515909 30.8079545,68.1859091 31.5675,68.1859091 C34.2013636,68.1859091 36.1288636,66.3893182 36.1288636,65.0870455 C36.1288636,64.6247727 35.8575,64.2722727 35.3140909,64.1359091 C34.5265909,63.9190909 34.4993182,63.5393182 34.4993182,61.5565909 L34.4993182,61.1488636 C34.4993182,60.2536364 34.5804545,59.1940909 34.5804545,57.9995455 C34.5804545,54.8229545 32.2997727,53.1395455 27.9831818,53.1395455 C23.8288636,53.1395455 21.195,54.8229545 21.195,56.6693182 C21.195,57.7009091 21.9279545,58.4338636 22.8784091,58.4338636 C23.7743182,58.4338636 24.4806818,57.9722727 25.2675,57.0225 C25.8920455,56.2622727 26.2997727,55.5831818 27.1138636,55.5831818 C27.9825,55.5831818 28.3084091,56.3706818 28.3084091,58.1086364 C28.3097727,58.5156818 28.2831818,58.95 28.2559091,59.4654545 L28.2559091,59.4654545 Z M28.2286364,62.2070455 C28.2286364,64.0806818 28.1740909,64.8409091 27.2243182,64.8409091 C26.5186364,64.8409091 26.1381818,64.2975 26.1381818,63.2386364 C26.1381818,62.1252273 26.6536364,61.5006818 27.5229545,61.5006818 C28.1475,61.5013636 28.2286364,61.5559091 28.2286364,62.2070455 L28.2286364,62.2070455 Z M49.2981818,63.4295455 C49.2981818,61.2845455 48.0763636,60.0081818 45.4970455,58.7052273 C44.0311364,57.9722727 43.1079545,57.7009091 43.1079545,56.9952273 C43.1079545,56.5875 43.4877273,56.2615909 43.9220455,56.2615909 C44.7906818,56.2615909 45.2256818,57.0218182 45.9586364,57.6736364 C46.4475,58.1079545 46.9090909,58.3254545 47.4518182,58.3254545 C48.4022727,58.3254545 49.0268182,57.7009091 49.0268182,56.7504545 C49.0268182,55.0125 47.4245455,53.1668182 46.3929545,53.1668182 C45.9586364,53.1668182 45.4425,53.6011364 44.9004545,53.6011364 C44.3304545,53.6011364 43.5156818,53.2479545 42.5113636,53.2479545 C39.3886364,53.2479545 36.945,55.4747727 36.945,58.0268182 C36.945,59.9815909 38.1668182,61.665 40.5020455,62.8329545 C41.6965909,63.4295455 42.5659091,63.5652273 42.5659091,64.4618182 C42.5659091,64.7604545 42.2672727,65.0584091 41.8322727,65.0584091 C41.235,65.0584091 40.5286364,64.5975 39.6872727,63.7015909 C39.0906818,63.0770455 38.6556818,62.5070455 37.7870455,62.5070455 C36.9995455,62.5070455 36.6197727,63.0770455 36.6197727,64.1638636 C36.6197727,66.1186364 38.2759091,68.0229545 39.2529545,68.0229545 C39.6872727,68.0229545 40.1222727,67.6929545 40.5293182,67.6929545 C40.9370455,67.6929545 41.9140909,68.1859091 43.5163636,68.1859091 C47.0447727,68.1852273 49.2981818,66.1452273 49.2981818,63.4295455 L49.2981818,63.4295455 Z M54.5386364,63.4840909 C55.7604545,66.1445455 56.5745455,67.9145455 56.5745455,68.9734091 C56.5745455,69.57 56.3031818,69.8965909 55.8954545,69.8965909 C55.2988636,69.8965909 55.4611364,69.0286364 54.9995455,68.0229545 C54.5925,67.1229545 53.805,66.6340909 52.8272727,66.6340909 C51.4970455,66.6340909 50.3018182,67.8006818 50.3018182,69.3531818 C50.3018182,71.5534091 52.0390909,73.155 54.8086364,73.155 C57.4697727,73.155 59.37,71.7422727 60.945,68.9188636 C62.5206818,66.0354545 63.2263636,62.5070455 64.5020455,59.0584091 C65.0727273,57.5652273 65.2622727,57.0225 66.3756818,56.5875 C67.1904545,56.2888636 67.7059091,56.0720455 67.7059091,55.0397727 C67.7059091,53.9263636 66.7281818,53.3836364 64.6111364,53.3836364 C62.3297727,53.3836364 61.1625,54.0075 61.1625,55.0125 C61.1625,55.8272727 62.2486364,56.1259091 62.2486364,56.805 C62.2486364,56.9134091 62.1402273,57.5652273 61.7325,58.4338636 C61.3793182,59.2213636 61.0806818,59.6284091 60.5925,59.6284091 C60.0225,59.6284091 59.7231818,59.2213636 59.3972727,58.4065909 C59.0440909,57.5379545 58.8545455,56.9672727 58.8545455,56.6686364 C58.8545455,56.1797727 59.7504545,56.1259091 59.7504545,55.1209091 C59.7504545,53.6815909 58.3390909,53.3563636 55.3520455,53.3563636 C51.7411364,53.3563636 49.8947727,54.1711364 49.8947727,55.6097727 C49.8947727,56.5875 50.5193182,56.7497727 51.1438636,57.0756818 C51.9040909,57.4561364 52.0670455,58.1072727 52.4475,58.9493182 L54.5386364,63.4840909 L54.5386364,63.4840909 Z M76.5859091,61.5838636 C76.5859091,63.5918182 75.8529545,64.6520455 74.7122727,64.6520455 C74.2779545,64.6520455 73.9793182,64.3527273 73.9793182,63.9729545 C73.9793182,63.4561364 74.1688636,62.9406818 74.1688636,62.4525 C74.1688636,60.7145455 72.8659091,59.4115909 70.9929545,59.4115909 C69.1731818,59.4115909 67.8429545,60.7690909 67.8429545,62.8056818 C67.8429545,66.0640909 70.7481818,68.3761364 75.4179545,68.3761364 C79.3820455,68.3761364 81.9075,66.7970455 82.8845455,63.7568182 C83.4818182,61.9097727 83.2377273,58.5975 83.4006818,53.955 C83.4552273,52.5702273 83.4552273,52.1359091 84.3511364,51.6197727 C85.0029545,51.24 85.4106818,51.0497727 85.4106818,50.0720455 C85.4106818,48.4970455 83.7265909,48.09 79.9254545,48.09 C76.1515909,48.09 74.3863636,48.6334091 74.3863636,50.3434091 C74.3863636,51.2665909 74.8752273,51.4568182 75.5543182,51.7554545 C76.4775,52.1359091 76.5865909,52.4072727 76.5865909,53.955 L76.5865909,61.5838636 L76.5859091,61.5838636 Z M94.0445455,58.5156818 L93.6913636,58.5156818 C92.9311364,58.5156818 92.6863636,58.4611364 92.6863636,57.7554545 C92.6863636,56.6693182 93.5277273,55.8272727 94.4509091,55.8272727 C95.3468182,55.8272727 96.0259091,56.5063636 96.0259091,57.5652273 C96.0259091,58.4884091 95.8090909,58.5156818 94.3159091,58.5156818 L94.0445455,58.5156818 L94.0445455,58.5156818 Z M99.7459091,61.2313636 C100.805455,61.2313636 101.266364,60.6879545 101.266364,59.1402273 C101.266364,55.8272727 98.5240909,53.1668182 94.4509091,53.1668182 C91.9261364,53.1668182 89.5636364,54.3613636 88.0977273,56.4252273 C87.1745455,57.7281818 86.6863636,59.2486364 86.6863636,60.7963636 C86.6863636,64.9779545 89.8356818,68.2684091 94.3159091,68.2684091 C96.1077273,68.2684091 97.71,67.7740909 99.0940909,66.8515909 C100.234773,66.0913636 100.805455,65.2227273 100.805455,64.5436364 C100.805455,63.7022727 100.289318,63.1322727 99.6647727,63.1322727 C98.9584091,63.1322727 97.9002273,64.3268182 96.1615909,64.3268182 C94.2340909,64.3268182 92.7675,62.8343182 92.7675,61.6118182 C92.7675,61.2852273 93.0115909,61.2320455 93.6095455,61.2320455 L99.7459091,61.2320455 L99.7459091,61.2313636 Z M103.872955,56.5602273 L103.872955,63.1840909 C103.872955,66.4704545 105.610909,68.2125 108.842045,68.2125 C112.099773,68.2125 114.489545,66.3613636 114.489545,64.95 C114.489545,63.9722727 114.054545,63.4022727 113.566364,63.4022727 C112.969091,63.4022727 112.452955,63.9443182 111.774545,63.9443182 C110.796818,63.9443182 110.335909,63.4022727 110.335909,62.3154545 L110.335909,57.3204545 C110.335909,56.6413636 110.552727,56.6686364 111.231136,56.6413636 L113.348864,56.5602273 C114.272045,56.5329545 114.462273,56.4784091 114.462273,55.4740909 L114.462273,54.2795455 C114.462273,53.5465909 114.326591,53.5193182 113.539091,53.5193182 L110.525455,53.5193182 L110.525455,52.2702273 C110.525455,50.6406818 110.470909,50.1525 109.249091,50.1525 C107.946136,50.1525 106.208182,51.3743182 103.330227,53.3836364 C102.081136,54.2522727 101.700682,54.3340909 101.700682,55.3656818 C101.700682,56.5875 101.890909,56.5063636 103.872955,56.5602273 L103.872955,56.5602273 Z"/>
  </g>
</svg>
