<svg xmlns="http://www.w3.org/2000/svg" width="120" height="120" viewBox="0 0 120 120">
  <path fill="#223D77" fill-rule="evenodd" d="M86.2967914,51.0895722 L86.61133,51.5236458 C89.9482197,56.173957 92.6697962,61.5334832 91.5792112,73.6530749 L91.4231565,74.9544619 C89.3656951,91.4389281 84.2005605,107.894471 71.5391043,120.026738 L66.5040107,120.026738 L66.5189314,119.6513 C66.5560627,117.999339 66.3168449,114.621812 65.5949198,112.289439 C70.4361631,107.301136 75.6868316,99.0675134 77.6403743,93.0347594 C79.0023396,95.8104947 79.7192513,98.4024064 80.0785428,101.716243 C83.477607,95.6417112 86.0795455,86.7964572 86.7981283,80.7837567 C86.3485963,78.8937166 85.4679144,77.0153743 84.5170455,75.6166444 C85.6885027,72.6504011 86.6811497,67.0086898 86.7346257,63.9254679 C87.568516,64.769385 88.4291444,66.6544118 88.8352273,67.6888369 C89.2245989,65.3559492 88.6714572,61.5925802 87.0137032,59.1076203 C87.0721925,57.3379011 86.6544118,52.9996658 86.2967914,51.0895722 Z M94.5237299,75.8940508 C96.3552807,84.5822193 96.3552807,103.788436 87.8793449,120.025067 L77.269385,120.025067 C80.5481283,117.037099 82.2058824,114.049131 84.0307487,110.170455 C84.8078209,112.055481 85.1921791,114.324866 85.2824198,116.826537 C86.2383021,113.992313 91.4889706,105.367647 91.3887032,93.2703877 C93.2052139,87.3529412 94.2546791,80.9408422 94.5237299,75.8940508 Z M120,0 L120,120.018382 L92.7389706,120.018382 C96.5173797,112.528409 100.503008,98.8419118 99.674131,83.4575535 C98.3272059,58.1751337 87.3128342,39.8445856 71.1931818,25.3509358 C51.5619318,7.71986965 17.895794,4.51186598 0.574985568,9.73065859 L0.0551470588,9.89137701 L0.0551470588,0 L120,0 Z M74.2245989,35.0484626 L74.6384951,35.4033972 C80.3462278,40.3535023 85.2689918,47.0198569 83.8101604,61.4923128 C81.5658422,83.8402406 68.3923797,105.142045 52.8375668,119.978275 L34.3866979,119.978275 C40.7520053,115.762032 45.1169786,111.940174 49.1861631,106.788102 C50.4846257,109.729278 51.1647727,115.339238 51.1647727,115.334225 C54.131016,112.832553 60.2690508,106.198195 62.322861,102.523396 C61.7045455,100.503008 60.2907754,97.3195187 59.1610963,95.8739973 C63.193516,91.8833556 67.174131,84.5838904 68.6096257,79.7125668 C70.2707219,81.3803476 71.9234626,84.2830882 72.5568182,86.1781417 C75.1370321,81.4639037 77.513369,75.6851604 78.6380348,69.293115 C77.7606952,67.4247995 76.2934492,65.3292112 74.6674465,63.7249332 C75.8238636,60.4311497 76.4572193,55.6868316 76.3519385,51.8114973 C77.5651738,52.7456551 79.7192513,55.4595588 80.8004679,57.391377 L80.7933207,56.5352994 C80.7108622,50.3547677 79.9319926,46.2942484 76.1196524,42.8927139 C76.046123,40.924131 75.4395053,37.6036096 74.2245989,35.0484626 Z M55.529746,20.3158422 C69.3783422,25.0083556 71.0411096,34.8462567 72.065508,38.7516711 C74.3566176,53.6363636 71.263369,66.9050802 64.618984,79.7159091 C56.1998663,95.977607 45.8389037,105.365976 27.8559492,119.93984 L0.010026738,119.93984 L0.010026738,118.519385 C6.98696524,116.423797 15.1153075,112.002005 18.546123,108.982286 C19.7593583,111.89004 20.9692513,116.641043 21.3335561,119.385027 C24.456885,117.474933 28.2102273,114.936497 30.7904412,111.906751 C30.0367647,109.451872 28.4842914,106.138035 26.9284759,103.778409 C31.4137701,100.721925 37.2242647,95.1955214 40.6567513,90.8940508 C42.0538102,93.043115 43.7383021,96.806484 44.5939171,99.6824866 C47.9929813,96.8582888 52.1356952,91.8282086 54.2413102,88.3723262 C52.9428476,86.0227273 50.7854278,83.2035428 48.5310829,81.0661765 C51.8983957,77.0504679 55.556484,70.0083556 56.6276738,66.3669786 C58.5544786,67.4548797 61.8900401,71.1798128 63.1149733,73.0865642 C65.516377,68.668115 66.9518717,64.0875668 67.7690508,59.035762 C66.2332888,57.2259358 63.5260695,55.0768717 60.9976604,53.9321524 C61.8098262,51.0929144 62.6654412,46.3101604 62.4699198,43.1968583 C64.6290107,44.1360294 67.5584893,46.2834225 69.0524733,47.8726604 C69.3783422,44.6841578 69.1092914,41.5290775 68.2653743,38.3873663 C66.8933824,37.0003342 63.8051471,35.1737968 61.9418449,34.6356952 C61.7580214,32.5501337 60.9024064,29.9532086 60.2272727,28.5494652 C61.7580214,28.8770053 64.7927807,30.7553476 65.9792781,31.7429813 C64.7927807,28.8770053 61.535762,26.0578209 59.0290775,25.1286765 C58.2737299,23.7616979 56.8382353,21.5775401 55.529746,20.3158422 Z M35.4161096,13.165107 L36.5351719,13.3379422 C41.1298035,14.089414 49.4127889,16.0456648 54.1109626,23.4893048 C57.2242647,28.4358289 60.5447861,37.4983289 57.2459893,52.4816176 C50.5423128,82.9674632 22.5299783,105.566976 0.665658367,113.729341 L0.00501336898,113.972259 L0.00501336898,97.160762 L0.988104947,96.6545622 C3.92772393,95.1308489 6.74849599,93.5516377 8.58790107,91.6610963 C10.693516,94.8596257 12.5668449,98.7349599 13.7115642,102.45488 C16.8783422,100.828877 20.6366979,98.1851604 22.7055481,96.0628342 C21.1915107,93.3506016 17.8241979,88.6213235 15.3643048,86.2199198 C18.9789439,83.9237968 24.2847594,78.5611631 26.5006684,74.8830214 C29.266377,77.0671791 33.1885027,82.2075535 34.756016,85.0434492 C37.6637701,82.5935829 40.2924465,79.3850267 42.540107,75.3425802 C40.5932487,72.9194519 35.5314171,68.4491979 32.5016711,66.6109626 C34.5705214,64.1360294 37.4899733,58.0247326 38.5143717,54.8211898 C41.970254,56.2884358 47.3863636,59.660762 50.0785428,62.0571524 C51.8666444,58.6046123 53.1400401,54.5203877 53.614639,50.8773396 C51.1447193,49.1042781 45.8338904,46.3970588 42.1824866,45.2256016 C43.0213904,42.5802139 43.6012701,39.0441176 43.6965241,36.6109626 C47.2175802,37.2493316 52.1356952,39.2078877 54.8278743,40.7436497 L54.82933,39.7279268 C54.817952,37.3858414 54.6783088,35.2180816 53.8887032,32.7790775 C51.4772727,31.7229278 46.7262701,30.3927139 43.9705882,30.040107 C43.9087567,27.8760027 43.6597594,25.8121658 43.1483957,24.1226604 C45.897393,24.2596925 49.3499332,25.2790775 51.5875668,26.2717246 L51.4474767,25.9839756 C50.2279377,23.52514 47.6687834,19.5988662 41.0260695,18.3856952 C39.7593583,16.385361 37.2209225,14.1209893 35.4161096,13.165107 Z M38.1534091,44.2881016 C31.956885,66.1447193 18.8669786,80.828877 0.0284090909,92.0822193 L0.0284090909,80.5815508 C1.1263369,81.4889706 2.54177807,83.2570187 3.5026738,84.8562834 C5.60828877,83.8118316 8.42078877,81.8215241 9.87800802,80.2272727 C8.36898396,78.0899064 2.84258021,72.6537433 0.0284090909,70.964238 L0.0284090909,69.4752674 L0.0284090909,69.4752674 C2.59525401,68.1133021 7.04378342,64.8312166 8.97058824,62.2810829 C12.1323529,63.6380348 18.3706551,68.7533422 19.7794118,70.6049465 C22.0237299,68.3355615 24.6774733,64.6356952 25.802139,62.1657754 C23.2904412,59.9849599 18.4224599,57.1674465 14.8663102,55.910762 C16.8298797,53.8569519 18.818516,50.4846257 19.7058824,48.0832219 C22.7941176,48.7700535 28.4826203,50.4328209 31.1229947,51.9685829 C32.4147727,49.6507353 33.4024064,46.6159759 34.0842246,43.3221925 C31.4120989,42.2459893 25.9441845,41.2533422 22.4030749,40.8840241 C22.8726604,39.401738 23.2052139,35.6701203 23.1099599,34.1326872 C27.1641043,34.0441176 32.7423128,34.618984 35.720254,35.325869 C36.141377,33.5477941 36.2784091,31.4421791 35.9358289,29.2997995 C32.4682487,28.7667112 26.6677807,28.4341578 22.730615,28.7182487 C22.6888369,27.1039439 22.1340241,24.6707888 21.5424465,23.5294118 C24.6774733,23.0180481 31.032754,22.9595588 34.6958556,23.3773396 C34.1260027,21.6343583 33.4024064,19.8612968 31.8198529,18.5578209 C29.2647059,18.3205214 23.4057487,18.5945856 19.7794118,19.2446524 C19.0942513,17.9294786 17.9328209,16.5524733 16.6928476,15.7185829 C19.0407754,15.0066845 23.8970588,14.510361 26.5457888,14.6724599 C24.3983957,13.5645053 20.3074866,12.5150401 14.0157086,13.3372326 C11.6878342,11.8499332 9.03910428,11.3736631 9.03910428,11.3736631 C33.6881684,6.81985294 44.8395722,17.7139037 38.1534091,44.2881016 Z M18.1834893,25.8823529 C21.8733289,40.5765374 13.6597594,54.9649064 0.0167112299,64.2229278 L0.0367647059,58.9872995 C1.57252674,58.1634358 5.72192513,54.6841578 6.85661765,52.8643048 C5.11530749,52.2526738 1.95855615,51.8081551 0,51.8449198 L0,45.2105615 C3.28877005,45.0150401 8.26036096,45.6233289 11.358623,46.3252005 C12.6838235,44.2981283 13.4007353,42.581885 13.8870321,40.2757353 C10.5832219,39.6524064 3.61129679,39.8211898 0,40.3442513 L0,35.7002005 C3.72660428,34.6758021 11.9084225,33.9004011 15.1052807,34.253008 C15.3492647,32.7957888 15.2907754,30.9441845 14.8111631,29.2914439 C11.6276738,29.0441176 3.61129679,29.9782754 0.0167112299,31.0661765 L0.0167112299,27.3028075 C3.3355615,25.8873663 10.8572861,24.5621658 14.0508021,24.3516043 C13.7600267,23.016377 12.9311497,21.4388369 11.9602273,20.5782086 C8.97894385,20.8054813 3.45254011,21.9652406 0.0167112299,23.1016043 L0.0167112299,19.565508 C2.04879679,18.6196524 6.43382353,17.5434492 8.73495989,17.3897059 C7.5,16.5558155 3.50434492,15.3893717 0.0317513369,15.6333556 L0.0167112299,12.9094251 C10.6784759,12.4398396 16.3302139,18.4826203 18.1834893,25.8823529 Z"/>
</svg>
