<svg xmlns="http://www.w3.org/2000/svg" width="120" height="120" viewBox="0 0 120 120">
  <path fill="#4D77AE" fill-rule="evenodd" d="M34.4245735,85.2161506 C38.3489777,81.9979518 42.374536,77.5771433 45.9139926,72.3096375 L46.9714275,70.6331021 L47.6008308,69.5831601 C39.6555514,64.2828729 35.8688292,57.0522284 34.4245735,53.1737182 C33.7099386,51.1881008 33.5600806,50.1100605 33.8523036,50.4987544 L34.4245735,51.4512888 C36.2509669,54.4699892 40.3598836,60.7668315 51.416588,62.3084948 C56.1989287,51.3370221 56.6943965,41.3171472 51.8080918,37.7158742 C47.8303007,34.7795956 41.1841021,36.8195365 34.4245735,42.3633428 C30.4533387,45.5871612 26.5008362,50.0032867 22.9379642,55.3017006 C13.3592335,69.6964901 10.6823965,85.2142774 17.0138935,89.8767318 C21.0385151,92.7980245 27.6819039,90.7702596 34.4245735,85.2161506 Z M82.9036094,39.2425517 C73.6189749,45.2846355 64.3437065,55.3972351 62.7524027,63.8314259 C68.8834647,64.4936106 76.1984043,62.5463943 82.9036094,59.3694065 C95.7773411,53.3235761 106.40976,42.6096717 102.136,36.2332174 C99.1266655,31.6634876 91.0380844,33.9366448 82.9036094,39.2425517 Z M82.9036094,84.3760096 C89.5114069,79.2658547 95.8316645,71.5303764 99.5640633,61.9066883 C105.261474,61.0131605 112.434985,56.0641028 117.747448,52.3869642 C113.978522,59.3684698 107.983268,67.5085645 98.8981322,76.7323193 C93.5866056,81.7890874 88.1767349,86.0075877 82.9036094,89.33537 C66.727384,99.5837783 51.8493027,101.569396 46.2165183,95.3278135 C43.6192933,92.5535688 42.8456518,88.3182094 43.8571927,83.1406184 C40.6980005,85.8080893 37.527569,88.1365067 34.4236369,90.1783208 C20.9298681,98.8504111 8.30902175,101.311827 2.75397611,95.2837927 C-4.81853172,86.9498193 3.76364382,65.7786422 21.8983249,48.023289 C25.9697772,44.00897 30.2322983,40.5360128 34.4236369,37.5978611 C48.7818985,27.6379293 62.6025448,24.5236945 68.4957074,30.9085783 C70.9964614,33.6978088 71.7120329,37.861049 70.8868778,42.8653668 C73.7688328,40.3945844 78.0182414,37.1642097 82.9036094,33.9366448 C92.2453773,27.8458571 103.727304,21.8421744 111.861779,21.0938214 C117.079644,20.6002269 119.854825,22.0416727 120,25.7160015 L120,26.3041938 C119.945677,27.7315905 119.529821,29.4821183 118.75056,31.5492209 C113.398759,45.8437929 97.1120131,57.0522284 82.9036094,64.2369789 C71.6661389,69.9531218 61.6715525,73.1235533 59.3150368,73.3661358 C54.0494043,94.0287327 69.0838997,95.073055 82.9036094,84.3760096 L82.9036094,84.3760096 Z"/>
</svg>
