<svg xmlns="http://www.w3.org/2000/svg" width="120" height="120" viewBox="0 0 120 120">
  <path fill="#B8242A" fill-rule="evenodd" d="M81.1124066,31.6565786 C81.1124066,29.5092681 84.2433726,27.0187582 86.0642837,27.7174998 C88.8462217,28.7851551 86.1541121,33.5457182 82.7684037,33.5457182 C81.5145773,33.5457182 81.1124066,33.0869762 81.1124066,31.6565786 Z M35.6712286,52.283857 C34.3642594,51.3283158 34.3594594,51.1664875 35.581743,49.3010051 C37.4146541,46.5036385 39.527679,45.4956403 40.6707627,46.872895 C41.8721321,48.3207782 41.0516763,50.6744884 38.8409373,52.1234002 C37.3412828,53.1056842 36.8307694,53.1317413 35.6712286,52.283857 Z M78.1268118,59.9384723 C77.6588126,59.3744732 77.4318416,57.7531046 77.6228127,56.3357357 C77.8134409,54.9180239 78.1960688,51.0485449 78.4724112,47.7368935 C78.8876105,42.7603307 79.2983526,41.3923331 80.8384642,39.8522215 C82.3909186,38.2997671 82.8973178,38.1506245 83.8724018,38.9597659 C84.6626861,39.6156505 84.9074857,40.6901629 84.6263433,42.2683316 C84.397658,43.5537008 84.151487,47.3511799 84.0794871,50.7070598 C83.9214303,58.065447 83.7877162,58.476532 81.0966352,59.8681867 C79.3264668,60.7836137 78.8375534,60.7949279 78.1268118,59.9384723 Z M42.5465309,76.1806154 C41.678761,74.7766179 43.0049301,58.4779034 44.1294996,56.7228207 C45.017498,55.3373374 51.2653728,52.6140279 53.5553117,52.6140279 C53.9725681,52.6140279 54.5434243,53.3364266 54.8235381,54.2192822 C55.2092517,55.4343658 54.6455955,56.5291068 52.5044564,58.7216744 C49.8181754,61.4724125 49.6505185,61.9438402 49.1736051,68.0734295 C48.894177,71.6699947 48.2136067,75.0803888 47.6372649,75.7746733 C46.4612669,77.1920422 43.3261867,77.4419846 42.5465309,76.1806154 Z M31.2692934,82.5471186 C30.5472375,81.3790064 32.0438063,64.372636 33.0308903,62.5294392 C34.9697441,58.9078455 38.0005959,58.3208751 38.5988806,61.4508125 C39.1412797,64.2886361 37.0978547,80.7903217 36.0473422,82.056148 C35.1096295,83.1858604 31.8696352,83.5187741 31.2692934,82.5471186 Z M16.734233,102.308341 C16.1935482,101.433029 13.5881813,86.6079115 11.707956,73.7027912 C9.73104516,60.1356148 9.3117316,59.3988161 7.19390672,65.7629193 C6.28259402,68.5016574 4.91493925,71.3051953 4.15448344,71.9933084 C2.70214311,73.3078204 0.637460988,72.9947924 0.0120906483,71.3651952 C-0.286194547,70.5879394 5.01025337,53.9141399 7.54327754,47.6563222 C8.66373273,44.8880985 10.828529,44.2198711 12.6796115,46.0709536 C13.275839,46.6671811 14.1703517,49.8420327 14.6674937,53.1262556 C15.1646357,56.4101356 16.1208626,61.6712692 16.7928614,64.8176638 C18.0943449,70.9129674 18.2722874,72.0690797 18.5530869,76.2584439 L18.7320581,78.9279249 L19.3334284,75.8771874 C19.664285,74.1992474 20.5094264,69.5655412 21.2115966,65.5801767 C22.8926222,56.0395076 27.2667861,38.9563374 29.7226675,32.3405775 C30.7999228,29.4376111 32.864262,23.8089352 34.3100881,19.832485 C37.6135109,10.7447293 39.1073369,8.18461952 41.6225325,7.30004963 C43.1180727,6.77410769 44.1150996,6.921536 45.586297,7.88564861 C48.5184062,9.80667384 48.1848068,12.7836972 44.5440131,17.1894038 C41.2447046,21.1819683 36.4879129,32.0014923 33.8318032,41.5545043 C32.8985477,44.9103841 31.4938644,49.3723192 30.7100943,51.4699156 C29.2196969,55.4573372 27.9466706,60.6968709 27.3658716,65.2345773 C27.1773005,66.7061176 26.8615296,68.1711436 26.6643871,68.4906859 C26.4669017,68.8102282 26.1158166,71.1176528 25.8843885,73.6184484 C25.6526174,76.1192441 25.2785609,79.0235819 25.0526185,80.0720372 C24.826676,81.1208354 24.116963,85.9259699 23.4754784,90.7503043 C22.0560523,101.427543 21.497539,102.95394 19.0114861,102.95394 C17.9784594,102.95394 16.9536612,102.663541 16.734233,102.308341 Z M67.3775734,112.095867 C66.8440886,111.099526 66.6339175,105.069365 66.778603,94.9338399 C66.9013456,86.3394549 66.8900314,79.3081528 66.7532316,79.3084957 C66.2732324,79.31021 57.0205628,86.568483 50.6033169,91.9773879 C47.0376088,94.9828684 41.2693902,100.419887 37.7849392,104.05931 C31.0481509,111.095412 29.3420967,111.811296 27.1642719,108.514731 C26.1147881,106.925933 26.2841592,106.581705 30.1279239,102.495884 C35.1974008,97.1072076 45.591097,88.3088229 57.0891341,79.6726093 C65.9104902,73.0469066 69.4669411,69.3286273 65.7325477,70.6359394 C64.7526636,70.9791388 62.5916388,71.2691954 60.930156,71.2801668 C56.6722206,71.3093096 55.7245651,69.3231416 56.3005641,61.5793837 C56.833706,54.4153962 57.6051332,52.2152857 60.715185,48.9910628 C64.9021491,44.650156 68.7873995,46.5331242 65.2247771,51.1764304 C63.3308375,53.6449975 62.7754099,55.347966 62.3962106,59.8465867 C61.9998684,64.54955 62.7503814,66.0725187 64.8973491,64.9236064 C66.6688889,63.9752652 67.2198593,61.6921835 67.8486583,52.6915135 C68.3290003,45.8186111 69.4151698,43.4611295 72.1017937,43.4611295 C72.8889923,43.4611295 73.7132195,43.9305001 73.9333334,44.504442 C74.1534473,45.078041 74.056076,50.5695743 73.7169909,56.7080779 C73.3779058,62.8462386 73.2980202,67.8684013 73.5393912,67.8684013 C73.7804194,67.8684013 76.355272,66.3738896 79.2613241,64.5474928 C82.1670333,62.7207531 88.4022225,59.0617881 93.1171857,56.4166498 C99.9393452,52.5889993 101.516828,51.3982586 100.843115,50.5863743 C100.270545,49.8965469 100.165288,47.3402085 100.519116,42.6996451 C101.0982,35.1046869 100.482087,34.17246 97.1954643,37.6709682 C95.7948953,39.1613656 95.389296,40.6791915 95.0440395,45.7188399 C94.7354686,50.2184892 94.2132981,52.443971 93.1490713,53.7972258 C91.6223311,55.7377939 89.2000497,56.2644215 88.3237083,54.846024 C88.0453088,54.3958533 88.0662231,50.2202035 88.369994,45.5669544 C88.8561645,38.1286817 89.1376498,36.8919981 90.7034756,35.3265151 C91.8506736,34.1789743 93.3804995,33.5457182 95.004611,33.5457182 C96.6451795,33.5457182 97.8379775,33.0454905 98.4204907,32.1129207 C98.9124899,31.3246935 100.381287,30.3084667 101.684142,29.8541818 C103.699796,29.1513259 104.276138,29.25144 105.549164,30.5244663 C106.834533,31.8098355 107.045047,33.0869762 107.045047,39.602622 C107.045047,43.7727861 107.375561,47.3888941 107.779103,47.6384937 C108.182988,47.8880932 110.15647,47.2682086 112.164924,46.2608961 C114.173378,45.2535835 116.468459,44.5318705 117.265601,44.657356 C118.681255,44.8798699 119.976225,46.2461532 120,47.5407796 C120.02731,49.0647769 115.278404,52.3400855 111.140469,53.6511689 C108.678073,54.4311676 103.403225,56.8064777 99.4178604,58.9291026 C95.4324959,61.0520703 91.3137603,63.2391522 90.2649621,63.789437 C89.2165068,64.3397217 84.9259999,66.9450886 80.7311501,69.5789126 L73.1036205,74.3682757 L72.9966493,88.0890518 C72.937678,95.6356673 73.2565346,103.931767 73.7053338,106.524791 C74.3464755,110.23107 74.3084184,111.495868 73.5284198,112.435981 C72.0887652,114.170492 68.3780288,113.965464 67.3775734,112.095867 L67.3775734,112.095867 Z"/>
</svg>
