<svg xmlns="http://www.w3.org/2000/svg" width="120" height="120" viewBox="0 0 120 120">
  <path fill="#D99E09" d="M60.0029988,89.3237711 C58.9559745,89.917588 51.4668801,96.26596 36.5628561,96.26596 C24.0067217,96.2722107 10.5989913,89.8394542 6.38754775,89.9644683 C4.90691207,89.9019613 3.71927817,90.2026202 2.78557915,90.6129789 C1.02756845,91.3513434 -0.679655281,90.2730969 0.27357719,88.4682059 C3.57863731,82.2214078 9.18083142,78.3772244 14.4900238,76.7754813 C18.361554,75.6073809 21.8971089,75.2128052 23.7332534,77.2520976 C27.7649579,81.7291648 35.0548423,87.2571318 42.1415788,87.9837762 C42.7119556,88.0425329 45.2864646,88.2572446 45.3138114,87.5306002 C45.3419396,87.0852374 44.4660596,86.7961423 43.5792409,86.7297286 C36.3401435,86.2062321 23.295704,78.4592649 16.1269271,63.4575736 C13.4352173,57.8280326 11.2982576,52.3703861 6.6141358,49.9951183 C5.57495614,49.4950619 5.54370261,47.5768769 7.72363588,47.0572871 C9.25115185,46.6939648 18.8811438,45.7680792 29.8941042,51.5656078 C34.9493617,54.226064 35.6564726,56.6130519 35.6720994,58.6953179 C35.6289695,74.4158403 43.5831476,80.654825 46.6577129,82.4987829 C48.3688434,83.5223357 49.9705864,83.9598851 50.1424808,83.4246685 C50.2790587,82.9753991 49.8299456,82.6706772 49.4353699,82.4323691 C39.8991385,76.6426539 37.3793231,67.7353996 37.305096,58.6679711 C37.2347756,49.6982098 40.5554625,41.9356159 42.9111968,35.5755238 C43.2588922,34.676985 44.3762057,30.8874953 43.4268799,27.3792872 C42.7158623,24.7618046 43.2940525,24 44.6692075,24 C46.1810967,24 48.1930423,26.4455882 48.8688997,27.2855267 C49.4119297,27.9145038 51.1660337,30.0553702 53.8225832,35.3020555 C59.0770819,45.6899454 59.1122421,56.5427315 59.1122421,57.8710062 C59.1122421,65.3288783 57.1901504,66.1922569 54.0569847,67.7393063 C50.9277256,69.2863557 49.4392765,71.2787679 49.4353699,73.5915286 C49.4291192,75.9667964 51.0839932,78.4397315 54.0569847,79.3109234 C56.3580566,79.9828742 57.8191276,79.7289393 57.6980202,79.1312157 C57.6042596,78.6585061 56.5846446,78.5413054 56.2877049,78.4592649 C53.1506325,77.6076064 51.0722732,76.0019566 51.0722732,73.5915286 C51.0722732,70.583377 54.7797224,68.3760969 59.9951542,68.3760969 C65.2144926,68.3760969 68.9219418,70.583377 68.9219418,73.5915286 C68.9219418,76.0019566 66.8474892,77.6115131 63.7104168,78.4592649 C63.4135083,78.5414617 62.3938621,78.6583499 62.3001015,79.1312157 C62.1791504,79.732846 63.6400963,79.9867809 65.9450437,79.3109234 C68.9141285,78.4436382 70.5666585,75.9707031 70.5627518,73.5915286 C70.5596265,71.2826746 69.0704273,69.2863557 65.9450437,67.7393063 C62.811878,66.1922569 60.8858796,65.3288783 60.8858796,57.8749129 C60.8858796,56.5466382 60.9249465,45.6899454 66.1755697,35.3020555 C68.832088,30.0592769 70.5862232,27.9145038 71.1292532,27.2855267 C71.8051106,26.4455882 73.8170562,24 75.3289454,24 C76.7041005,24 77.2822907,24.7618046 76.571273,27.3792872 C75.6297606,30.8874953 76.739417,34.676985 77.0830494,35.5755238 C79.4426905,41.9434293 82.7672841,49.6982098 82.6969636,58.6679711 C82.6188298,67.7393063 80.1029212,76.6465606 70.5666898,82.4362758 C70.1760207,82.6706772 69.7150313,82.9753991 69.8595788,83.4246685 C70.0274102,83.9637918 71.6292783,83.5299929 73.3404087,82.5026895 C76.4188808,80.6587316 84.3689959,74.4158403 84.329929,58.6953179 C84.3424304,56.6130519 85.04876,54.226064 90.1079554,51.5656078 C101.120885,45.7680792 110.750877,46.6978715 112.274517,47.0572871 C114.45445,47.5768769 114.427103,49.4989686 113.387893,49.9951183 C108.699864,52.3703861 106.562904,57.8319393 103.875133,63.4575736 C96.7063243,78.4592649 83.6580095,86.2101388 76.4188808,86.7336353 C75.5320933,86.7961423 74.653088,87.0891441 74.6843103,87.5345068 C74.7124384,88.2572446 77.2861974,88.0423766 77.8565742,87.9837762 C84.9433106,87.2610385 92.233195,81.7330715 96.2648996,77.2520976 C98.1049195,75.2167118 101.636599,75.6073809 105.512005,76.779388 C110.81729,78.3772244 116.419484,82.2214078 119.724544,88.4721126 C120.681715,90.2770035 118.97446,91.3513434 117.212543,90.6168856 C116.278844,90.2066831 115.09121,89.9058679 113.610574,89.9644683 C109.403068,89.8432046 95.9953067,96.2737734 83.4313902,96.2698685 C68.5312728,96.2698685 61.0460539,89.917588 60.0029988,89.3237711"/>
</svg>
