<svg xmlns="http://www.w3.org/2000/svg" width="120" height="120" viewBox="0 0 120 120">
  <g fill="none" fill-rule="evenodd">
    <circle cx="60" cy="60" r="60" fill="#FFD102"/>
    <path fill="#757575" fill-rule="nonzero" d="M96.8660598,53.2938882 C98.6944083,53.2964889 100.559168,53.6710013 102.161248,54.5773732 C102.89857,54.9778934 103.451235,55.7542263 103.43303,56.6150845 C103.43303,60.9076723 103.43173,65.2015605 103.43433,69.4954486 C103.407022,71.4382315 102.784135,73.4993498 101.26528,74.7984395 C99.739922,76.1118336 97.6501951,76.496749 95.6918075,76.4707412 C94.1859558,76.4070221 92.6684005,76.0273082 91.3719116,75.243173 C90.9037711,74.9427828 90.4616385,74.5682705 90.189857,74.076723 C89.6931079,73.159948 90.2704811,71.8517555 91.2925878,71.6215865 C91.8392245,71.53647 92.3611001,71.7079066 92.8652176,71.9132959 L93.4252276,72.1469441 C94.2412946,72.5064297 95.1231197,72.7272071 96.0159044,72.746258 L96.3511053,72.7438231 C97.2093628,72.7425228 98.130039,72.5279584 98.7529259,71.9011704 C99.3315995,71.2990897 99.5084525,70.4304291 99.5019506,69.6215865 C99.4993498,68.8725618 99.4954486,68.1248375 99.5006502,67.3758127 C98.3250975,68.4096229 96.6749025,68.6579974 95.1612484,68.5604681 C93.5760728,68.4629389 92.0208062,67.7555267 90.9830949,66.5383615 C89.5227568,64.8647594 89.0910273,62.5357607 89.2093628,60.3745124 C89.3107932,58.3784135 90.1040312,56.3563069 91.6462939,55.0390117 C93.0663199,53.7906372 95,53.2483745 96.8660598,53.2938882 Z M38.7776333,53.9804941 C39.1795721,54.4427237 39.2870423,55.0640093 39.2944675,55.6616514 L39.2938882,55.840052 C39.2795839,57.9154746 39.3094928,59.9921977 39.2795839,62.0689207 C39.236671,63.8452536 38.7555267,65.7451235 37.4031209,66.9856957 C35.953186,68.3224967 33.8738622,68.6462939 31.9713914,68.5721717 C30.2184655,68.5123537 28.3550065,67.9856957 27.1612484,66.6280884 C26.0663199,65.390117 25.6553966,63.6918075 25.6371912,62.0741222 L25.6397919,55.3107932 L25.6397919,55.3107932 C25.6501951,54.4564369 26.2275683,53.6189857 27.0611183,53.3797139 C27.7776333,53.1781534 28.6254876,53.2990897 29.1625488,53.8439532 C29.6176853,54.2912874 29.7997399,54.9427828 29.7971391,55.5656697 L29.7984395,62.4681404 L29.7984395,62.4681404 C29.793238,63.2977893 30.1326398,64.1820546 30.8569571,64.6397919 C31.4941482,65.053316 32.2886866,65.0910273 33.023407,65.0052016 C33.6540962,64.9258778 34.283485,64.6306892 34.6501951,64.0949285 C35.0637191,63.5097529 35.1222367,62.7685306 35.130039,62.0741222 L35.130039,55.3107932 C35.136541,54.5253576 35.609883,53.7373212 36.3550065,53.4486346 C37.1651495,53.1222367 38.2106632,53.2769831 38.7776333,53.9804941 Z M12.7425228,53.479844 C13.4054431,53.6030095 13.8912051,54.1578581 14.0998571,54.7768585 L14.1430429,54.9206762 C14.9648895,57.6944083 15.7893368,60.4668401 16.6059818,63.243173 C16.6501951,63.4057217 16.7269181,63.5591678 16.8153446,63.7022107 C17.6762029,60.8608583 18.5110533,58.0117035 19.3537061,55.1638492 C19.5123537,54.5539662 19.8062419,53.9128739 20.4044213,53.626788 C21.3654096,53.1885566 22.6879064,53.4993498 23.2327698,54.4382315 C23.5510403,55.0092111 23.50326,55.6971084 23.2997715,56.3005956 L23.2405722,56.4629389 C22.0715215,59.7178153 20.9245774,62.9804941 19.7594278,66.236671 L19.5950899,66.6580759 C19.398401,67.1510218 19.1725184,67.638636 18.793238,68.0169051 C18.2886866,68.496749 17.550065,68.5448635 16.8894668,68.550065 C16.1560468,68.5539662 15.3394018,68.4863459 14.7763329,67.9583875 C14.260078,67.4629389 13.9895969,66.7776333 13.7451235,66.1209363 C12.5890767,62.8543563 11.4421326,59.5851756 10.2808843,56.3224967 C10.0650195,55.7347204 10.0130039,55.0507152 10.3159948,54.4837451 C10.756827,53.6293888 11.8439532,53.2964889 12.7425228,53.479844 Z M53.3758127,54.7087126 C54.763329,55.9284785 55.3823147,57.7971391 55.5084525,59.5955787 L55.5439588,60.1856344 C55.5690013,60.7164827 55.5507743,61.2545218 55.2821847,61.7217165 C54.9947984,62.2288687 54.3615085,62.3628088 53.8231469,62.36671 L45.7854356,62.3706112 L45.7854356,62.3706112 C45.9557867,63.36671 46.4226268,64.4343303 47.4122237,64.8530559 C48.793238,65.4408322 50.3511053,65.0949285 51.7321196,64.6814044 L52.1460704,64.5571968 C52.5633127,64.435712 52.9902471,64.3374512 53.4252276,64.3979194 C54.2340702,64.5721717 54.8088427,65.4395319 54.716515,66.2509753 C54.6384915,66.8686606 54.1287386,67.313394 53.6202861,67.6072822 C52.686606,68.1248375 51.6189857,68.3315995 50.5695709,68.4551365 C48.5825748,68.686606 46.4304291,68.5318596 44.7256177,67.390117 C43.0364109,66.2977893 42.0689207,64.3537061 41.8309493,62.3953186 C41.556567,60.1638492 41.8660598,57.7464239 43.1950585,55.8790637 C44.2509753,54.373212 46.0104031,53.4447334 47.8257477,53.2691808 C49.7542263,53.0559168 51.8816645,53.3836151 53.3758127,54.7087126 Z M69.5305592,54.2964889 C69.8478544,54.739922 69.9206762,55.3029909 69.9180754,55.8348505 C69.9128739,59.3029909 69.9154746,62.7724317 69.916775,66.2405722 C69.9154746,66.8205462 69.7711313,67.426528 69.3758127,67.8673602 C68.626788,68.7516255 67.0949285,68.7763329 66.3146944,67.9219766 C65.9401821,67.5019506 65.7490247,66.9362809 65.7529259,66.3771131 C65.7542263,62.7763329 65.7555267,59.1742523 65.7529259,55.573472 C65.7308192,54.7412224 66.213264,53.8790637 67.0104031,53.5786736 C67.8855657,53.2314694 68.9973992,53.4954486 69.5305592,54.2964889 Z M61.7958388,44.6124837 C62.26658,45.0507152 62.4668401,45.7061118 62.4694408,46.336801 C62.4720416,52.5357607 62.4707412,58.7347204 62.4707412,64.9336801 C62.4369311,65.8621586 62.63329,66.9037711 62.0585176,67.7113134 C61.4863459,68.5448635 60.2847854,68.7646294 59.4031209,68.3250975 C58.6840052,67.9674902 58.2990897,67.1430429 58.3081925,66.3641092 L58.3094928,47.1261378 C58.3172952,46.5539662 58.2496749,45.9596879 58.4525358,45.4122237 C58.6540962,44.840052 59.1261378,44.3615085 59.7113134,44.1872562 C60.4174252,43.976593 61.2405722,44.1118336 61.7958388,44.6124837 Z M83.9674902,54.3029909 C85.1521456,55.0130039 85.9583875,56.2392718 86.3068921,57.5617685 C86.5461638,58.4369311 86.6254876,59.3498049 86.626788,60.2548765 L86.626788,66.2314694 L86.626788,66.2314694 C86.6384915,66.8907672 86.4239272,67.5851756 85.9193758,68.0325098 C85.1742523,68.6983095 83.9557867,68.7139142 83.1820546,68.0897269 C82.7210072,67.7149781 82.4598545,67.131737 82.4308375,66.5422431 L82.4346931,59.9702875 C82.4335147,59.2101092 82.3872162,58.4214264 81.9349805,57.7854356 C81.4980494,57.1391417 80.7061118,56.8426528 79.9505852,56.8153446 C79.2041612,56.793238 78.3888166,56.9362809 77.8296489,57.4707412 C77.3094928,57.9895969 77.1287386,58.7516255 77.1313394,59.4668401 L77.1352406,66.2457737 L77.1352406,66.2457737 C77.136541,66.7841352 77.0195059,67.3420026 76.6827048,67.7750325 C75.9674902,68.7308192 74.3784135,68.810143 73.5591678,67.9479844 C73.1495449,67.5344603 72.9674902,66.9414824 72.9713914,66.3693108 L72.9713914,61.8179454 C72.9856957,60.4317295 72.8777633,59.0195059 73.2522757,57.6657997 C73.5643693,56.3771131 74.3107932,55.1807542 75.4109233,54.4226268 C76.2301691,53.8660598 77.189857,53.5474642 78.1638492,53.4018205 C80.1170351,53.1560468 82.2457737,53.2457737 83.9674902,54.3029909 Z M96.0260078,56.8491547 C95.390117,56.9583875 94.7711313,57.2392718 94.3224967,57.710013 C93.5019506,58.5994798 93.3159948,59.869961 93.3172817,61.0338101 C93.3342003,62.0806242 93.4161248,63.2184655 94.0650195,64.0871261 C94.680104,64.8868661 95.7724317,65.0689207 96.7217165,64.9947984 C97.6293888,64.9505852 98.5253576,64.4564369 98.9427828,63.6293888 C99.7230169,62.1495449 99.4460338,60.4252276 99.5006502,58.8205462 C99.4720416,58.343303 99.6436931,57.7269181 99.1664499,57.4174252 C98.2769831,56.7620286 97.083225,56.6918075 96.0260078,56.8491547 Z M47.1326398,56.8062419 C46.1339402,57.3315995 45.8868661,58.5474642 45.786736,59.5721717 C47.739922,59.573472 49.6944083,59.5695709 51.6475943,59.573472 C51.573472,58.5279584 51.2249675,57.3459038 50.2301691,56.8218466 C49.2782835,56.3537061 48.0910273,56.3589077 47.1326398,56.8062419 Z"/>
    <path fill="#FFF" fill-rule="nonzero" d="M106.287386,45.6579974 C106.945384,45.449935 107.671001,45.449935 108.328999,45.6605982 C109.146944,45.923277 109.794538,46.6553966 109.937581,47.5045514 C110.027308,48.2340702 109.994798,49.0403121 109.547464,49.6579974 C108.676203,50.8777633 106.784135,51.0442133 105.595579,50.213264 C104.06762,49.0754226 104.381014,46.2171651 106.287386,45.6579974 Z"/>
  </g>
</svg>
