<svg xmlns="http://www.w3.org/2000/svg" width="120" height="120" viewBox="0 0 120 120">
  <path fill="#00A1E4" fill-rule="evenodd" d="M57.7782857 25L61.5428571 25C61.5737143 26.2788571 61.5702857 27.5542857 61.5634286 28.8331429 62.8217143 28.8297143 64.0834286 28.8365714 65.3417143 28.8262857 65.352 30.0811429 65.352 31.336 65.3142857 32.5908571 64.0662857 32.5908571 62.8148571 32.5977143 61.5668571 32.5908571 61.5668571 33.8251429 61.5634286 35.0628571 61.5737143 36.3005714 60.3325714 36.3794286 59.0914286 36.3622857 57.8502857 36.352 57.8434286 35.0971429 57.8434286 33.8388571 57.8365714 32.5805714 56.5748571 32.5977143 55.3165714 32.5908571 54.0582857 32.5942857 54.0377143 31.3428571 54.0411429 30.088 54.0377143 28.8365714 55.3062857 28.8331429 56.5748571 28.8297143 57.84 28.8365714 57.8125714 27.5577143 57.9257143 26.272 57.7782857 25M35.9793943 35.5977829C39.7713943 34.6857829 43.93368 37.8400686 43.8513943 41.7863543 44.1428229 45.2354971 41.12568 48.46864 37.69368 48.5337829 34.6182514 48.7977829 31.6079657 46.5314971 30.9599657 43.5280686 30.0102514 40.09264 32.4925371 36.2457829 35.9793943 35.5977829M51.0549257 35.5908914C54.8434971 34.6926057 59.0194971 37.8537486 58.9132114 41.8000343 59.2183543 45.3486057 55.98864 48.6366057 52.46064 48.5440343 49.3474971 48.6777486 46.4400686 46.2331771 45.9497829 43.1714629 45.2537829 39.8080343 47.68464 36.21832 51.0549257 35.5908914M66.13728 35.5977829C69.8127086 34.7234971 73.8275657 37.6617829 73.9681371 41.4640686 74.2626514 44.0457829 72.78528 46.6412114 70.4912229 47.8172114 68.08128 49.11664 64.8889371 48.6572114 62.9247086 46.7577829 60.7197943 44.6937829 60.2603657 41.0594971 61.91328 38.5257829 62.8424229 37.0274971 64.3989943 35.9303543 66.13728 35.5977829M81.2434286 35.5908914C84.5382857 34.85032 88.1108571 37.1028914 88.8685714 40.39432 89.5302857 42.9280343 88.5222857 45.7771771 86.3862857 47.3028914 84.4011429 48.7840343 81.552 48.9691771 79.392 47.7588914 77.0331429 46.5348914 75.6308571 43.75432 76.0388571 41.1314629 76.3508571 38.42632 78.5588571 36.0674629 81.2434286 35.5908914M37.1897829 58.0445371C37.0937829 55.4251086 37.1383543 52.7988229 37.1657829 50.1793943 52.2412114 50.2239657 67.31664 50.18968 82.3917257 50.1965371 82.3954971 52.80568 82.3954971 55.4113943 82.3917257 58.0171086 67.3234971 58.0342514 52.2549257 57.9828229 37.1897829 58.0445371M0 64.6857143C3.80571429 64.6857143 7.61142857 64.6822857 11.4205714 64.6891429 11.4274286 68.3302857 11.4137143 71.9748571 11.424 75.6194286 15.1988571 72.0057143 18.888 68.3062857 22.6628571 64.6925714 26.4994286 64.6822857 30.336 64.6822857 34.1725714 64.6925714 29.7497143 69.1874286 25.2068571 73.5657143 20.8182857 78.0914286 26.3485714 83.4537143 31.6902857 89.0148571 37.2685714 94.3188571 37.3165714 84.4445714 37.2754286 74.5668571 37.2891429 64.6891429 41.1805714 64.6822857 45.072 64.6822857 48.9634286 64.6891429 48.9634286 72.1805714 48.9565714 79.672 48.9634286 87.1634286 55.1794286 87.1462857 61.392 87.184 67.6045714 87.1428571 67.6902857 89.6834286 67.6182857 92.2274286 67.6457143 94.768 52.5394286 94.768 37.4297143 94.7817143 22.3234286 94.7611429 18.7508571 91.144 15.1302857 87.5748571 11.5405714 83.9748571 11.4891429 87.5782857 11.5474286 91.1782857 11.5097143 94.7817143 7.67314286 94.7542857 3.83657143 94.7851429 0 94.7645714L0 64.6857143zM70.8445371 64.6857143C77.1119657 64.6651429 83.3797371 64.7268571 89.6468229 64.6548571 91.6251086 70.0342857 93.3565371 75.5062857 95.2251086 80.9268571 95.3797371 80.6834286 95.5988229 80.4777143 95.67768 80.1931429 97.4639657 75.0194286 99.2913943 69.8594286 101.094823 64.6891429 107.396537 64.6822857 113.698251 64.6788571 119.999966 64.6925714L119.999966 94.7474286C116.142823 94.7954286 112.282251 94.7645714 108.425109 94.7645714 108.418251 87.8457143 108.459394 80.9234286 108.404537 74.0011429 107.866251 74.3028571 107.811394 74.9851429 107.58168 75.496 105.342823 81.9245714 103.04568 88.3325714 100.806823 94.7611429 97.1797371 94.7611429 93.5485371 94.8091429 89.9245371 94.7371429 87.6517371 88.1645714 85.2993943 81.6228571 83.00568 75.0605714 82.9233943 74.6937143 82.71768 74.4262857 82.3953943 74.2548571 82.3851086 81.0914286 82.3988229 87.9314286 82.3919657 94.7714286 78.54168 94.7714286 74.6913943 94.7714286 70.8411086 94.768 70.8479657 84.7428571 70.83768 74.7142857 70.8445371 64.6857143"/>
</svg>
