<svg xmlns="http://www.w3.org/2000/svg" width="120" height="120" viewBox="0 0 120 120">
  <g fill="none" fill-rule="evenodd">
    <polygon fill="#D62A40" points="0 0 0 120 120 120 120 0"/>
    <path fill="#FFF" d="M106.384569,58.5597083 C103.875985,61.0756609 96.3562917,64.3087208 92.0601899,65.3843816 C85.6130075,67.1771498 82.0258534,66.8185962 79.8808322,67.5357034 C80.5958392,67.9003342 86.6915775,69.6870252 89.5516057,74.7250076 C90.2666128,76.1592221 90.2666128,78.6751747 88.1215916,79.392282 C83.4619269,81.1972045 77.7358109,77.9580675 76.657241,77.2409602 C80.5958392,86.5815861 83.4679863,89.8085688 90.2726722,98.0735339 C92.4176934,100.589486 92.0662492,104.539654 86.6915775,104.187177 C78.450818,103.105439 66.6289638,92.6830751 63.7628762,85.1473716 C63.0478691,89.4560924 62.6903656,91.6074142 60.8967885,93.4062595 C59.8242779,94.840474 58.0307009,94.4879976 57.3156938,93.4062595 C55.8856797,91.601337 55.1706726,85.1473716 55.1706726,85.1473716 C55.1706726,85.1473716 46.5724096,97.3625038 34.3930519,103.105439 C29.0183801,105.621392 28.3033731,102.023701 29.3758837,100.94804 C31.8844678,97.3625038 34.0355484,93.0416287 35.4655625,89.4560924 C36.8955767,86.2169553 37.6105837,81.5496809 42.627752,76.5177758 C37.6105837,77.9519903 32.2419713,77.5995138 29.7333872,76.5177758 C27.2248031,75.8067457 27.2248031,74.0018232 27.9398101,72.5676086 C30.0908907,69.6931024 35.823066,67.1771498 41.5552414,65.7429353 C30.0908907,64.3087208 27.5823066,61.7927682 20.7776207,60.3585536 C15.7604524,59.2828927 12.9004242,58.5657855 11.8218542,57.1254938 C11.4643506,56.4083865 11.1068471,54.2509875 13.6154312,52.816773 C16.1240154,52.0996658 27.2248031,49.5837132 32.2419713,48.8666059 C34.3930519,48.5080523 39.4102202,47.4263142 43.3488184,52.0996658 C40.8402343,45.633546 37.2591396,40.9601945 35.108059,37.3746582 C33.6719855,34.8587056 35.108059,33.0659374 37.9741466,33.7830447 C41.1977378,34.1415983 46.9299131,38.8149499 51.941022,43.8407779 C52.2985256,44.5639623 53.3710362,44.2054087 53.3710362,43.4822242 C56.5946273,34.1415983 55.8796203,30.185354 56.2371238,19.7690672 C56.2371238,16.5360073 58.7457079,13.3029474 62.6843062,17.2531146 C68.4164815,23.7192343 68.7739851,36.2929201 67.7014744,47.0677606 C70.2100586,44.1932543 73.4336498,41.6773017 77.0147445,39.8845336 C85.6069481,35.9343665 84.5344375,41.6773017 83.1044233,44.5578851 C82.0258534,46.7092069 80.5958392,49.948344 76.2997374,52.816773 C76.657241,53.1814038 79.8808322,51.0240049 84.891941,50.6654512 C89.9091093,50.6654512 91.3391234,51.0240049 97.7863058,51.3825585 C101.724904,51.7411121 103.518481,51.7411121 105.669562,51.7411121 C108.172086,51.7350349 111.044233,54.2509875 106.384569,58.5597083 Z"/>
    <path fill="#3B5FA4" d="M57.8117647,14.3878992 C56.0752941,15.1078992 54.9136134,17.2315966 54.9136134,19.669916 C54.9136134,19.669916 54.7865546,25.2302521 54.7865546,25.2302521 C54.6836975,31.5589916 54.5929412,35.4857143 52.2635294,42.3892437 C48.2884034,38.4020168 42.0504202,32.8295798 38.0510924,32.3878992 C36.3206723,31.9462185 34.7354622,32.3334454 33.8581513,33.4890756 C33.4527731,34.0215126 33.2470588,34.6628571 33.2470588,35.3647059 C33.2470588,36.1270588 33.4951261,36.9680672 33.9791597,37.8151261 C33.9912605,37.8393277 35.8184874,40.7132773 35.8184874,40.7132773 C37.137479,42.7401681 38.6198319,45.2389916 40.0356303,47.9798319 C36.9015126,46.6547899 33.8460504,47.102521 32.2487395,47.3747899 C26.9001681,48.1431933 15.7734454,50.6601681 13.2504202,51.3862185 C11.0178151,52.632605 10.309916,54.3146218 10.309916,55.7183193 C10.309916,56.3717647 10.4611765,56.9647059 10.6910924,57.4245378 C12.1855462,59.4453782 15.3801681,60.2077311 20.4806723,61.3028571 C20.4867227,61.3028571 26.9304202,63.2329412 26.9304202,63.2329412 C29.332437,64.0921008 32.4544538,64.9694118 36.3993277,65.7620168 C32.9687395,66.9902521 28.8968067,68.8477311 26.9001681,71.5038655 C26.4584874,72.3630252 26.2527731,73.1435294 26.2527731,73.8635294 C26.2527731,74.347563 26.3435294,74.7892437 26.525042,75.2067227 C26.8396639,75.9206723 27.589916,76.8826891 29.3445378,77.3788235 C31.4379832,78.2863866 35.5341176,78.4618487 39.8117647,77.8023529 C37.4278992,80.9001681 36.0181513,83.8346218 35.1529412,86.2487395 L34.2695798,88.5660504 C32.6420168,92.6258824 30.4759664,96.7038655 28.309916,99.7956303 C27.8742857,100.213109 27.6443697,100.878655 27.6443697,101.586555 C27.6443697,102.209748 27.8258824,102.863193 28.2070588,103.407731 C28.7576471,104.194286 30.5122689,105.803697 34.8564706,103.782857 C44.0531092,99.4568067 51.1321008,91.7001681 54.2904202,87.8218487 C54.6655462,89.9515966 55.2766387,92.5472269 56.2507563,93.7754622 C56.7831933,94.5801681 57.829916,95.154958 58.9189916,95.1791597 C60.0322689,95.2154622 61.0729412,94.6890756 61.7868908,93.7452101 C63.1663866,92.3657143 63.7472269,90.4719328 64.2373109,88.0941176 C68.5633613,95.3606723 78.5586555,103.934118 86.3878992,104.956639 C90.2359664,105.210756 91.6517647,103.552941 92.16,102.536471 C93.0070588,100.842353 92.577479,98.6097479 91.0648739,96.8430252 C91.0769748,96.8551261 90.0605042,95.6329412 90.0605042,95.6329412 C84.8994958,89.394958 82.1344538,85.8857143 79.1334454,79.5569748 C81.6504202,80.5613445 85.1838655,81.4507563 88.4208403,80.2043697 L88.4208403,80.2043697 C88.4208403,80.1680672 90.7321008,78.0564706 90.7321008,78.0564706 L90.5263866,73.8453782 C88.7233613,70.6870588 86.1095798,68.9929412 83.8285714,67.8191597 C84.8631933,67.6315966 92.2568067,66.2944538 92.2568067,66.2944538 C96.4436975,65.2477311 104.339496,61.9502521 107.110588,59.1852101 C109.312941,57.1522689 109.960336,55.4581513 109.960336,54.1694118 C109.960336,53.6611765 109.857479,53.2134454 109.706218,52.8322689 C109.01042,51.0594958 107.104538,50.2668908 105.519328,50.2668908 L97.7626891,49.909916 C97.7203361,49.909916 92.087395,49.5226891 92.087395,49.5226891 L84.7784874,49.1959664 C84.730084,49.1959664 82.5277311,49.7344538 80.4887395,50.2305882 C82.0921008,48.3912605 83.2477311,46.6184874 83.9132773,45.2692437 C84.6635294,43.7687395 85.1838655,42.1472269 85.1838655,40.737479 C85.1838655,39.7210084 84.9115966,38.807395 84.2521008,38.1297479 C82.8302521,36.6534454 80.2527731,36.7986555 76.3865546,38.577479 C73.5610084,39.9872269 71.2436975,42.1290756 68.9808403,44.2648739 C69.1321008,42.1895798 69.3136134,40.1263866 69.3136134,37.9361345 C69.3136134,29.8346218 68.0067227,21.3942857 63.5173109,16.3482353 C60.9882353,13.8131092 59.0218487,13.8917647 57.8117647,14.3878992 Z M52.9532773,45.2147899 C53.8789916,44.9969748 54.5263866,44.2043697 54.5263866,43.2847059 C57.0978151,36.0786555 57.1583193,32.0127731 57.2672269,25.2786555 L57.3942857,19.7183193 C57.3942857,18.2964706 57.9811765,17.0077311 58.7616807,16.6870588 C59.4756303,16.3905882 60.552605,16.8927731 61.7142857,18.0544538 C67.2927731,24.3287395 67.3290756,37.1193277 66.3670588,46.7394958 C66.312605,47.2779832 66.6151261,47.7862185 67.1052101,47.9979832 C67.6013445,48.2097479 68.1761345,48.0826891 68.5270588,47.6773109 C70.977479,44.8820168 74.0631933,42.5102521 77.4514286,40.8161345 C80.4766387,39.4305882 82.0497479,39.4305882 82.4672269,39.8601681 C82.9633613,40.3684034 82.6910924,42.177479 81.8742857,43.805042 C80.6702521,46.2252101 79.272605,49.032605 75.4971429,51.5495798 C75.1885714,51.7552941 74.994958,52.0880672 74.952605,52.4510924 C74.9102521,52.8141176 75.0433613,53.1831933 75.3035294,53.4494118 C76.0053782,54.1633613 76.8282353,53.8366387 78.0746218,53.352605 C78.0746218,53.352605 84.8571429,51.6705882 84.8571429,51.6705882 C84.8571429,51.6766387 91.8816807,51.9973109 91.8816807,51.9973109 L97.5751261,52.3905882 C97.5327731,52.3905882 105.513277,52.747563 105.513277,52.747563 C106.257479,52.747563 107.14084,53.092437 107.394958,53.7398319 C107.443361,53.8668908 107.467563,54.0060504 107.467563,54.1633613 C107.467563,54.9983193 106.723361,56.1660504 105.386218,57.4003361 C103.171765,59.6147899 95.9778151,62.8154622 91.6215126,63.9045378 C91.5912605,63.9105882 82.9754622,65.4715966 82.9754622,65.4715966 L79.3694118,66.0766387 C78.8188235,66.167395 78.7462185,66.6998319 78.6917647,67.2504202 C78.6917647,67.2746218 78.6917647,67.2927731 78.6917647,67.3169748 C78.6917647,67.8494118 79.3270588,68.4181513 79.8292437,68.6117647 C81.3721008,69.2107563 86.0672269,71.0258824 88.3482353,75.0191597 C88.3482353,75.0191597 88.3482353,75.0312605 88.3482353,75.0615126 C88.3482353,75.3640336 88.4692437,77.1065546 88.4692437,77.1065546 L87.610084,77.874958 C83.7983193,79.3452101 78.8248739,76.9371429 77.2336134,75.8783193 C76.7737815,75.5757983 76.1808403,75.6121008 75.7573109,75.9630252 C75.3337815,76.3139496 75.1946218,76.8947899 75.4063866,77.3969748 C79.2060504,86.3818487 82.0194958,89.7821849 88.1727731,97.2121008 L89.1831933,98.4403361 C90.0363025,99.432605 90.3448739,100.65479 89.9576471,101.429244 C89.5583193,102.23395 88.3784874,102.609076 86.6420168,102.500168 C78.7583193,101.465546 67.450084,91.2221849 64.8242017,84.3368067 C64.6245378,83.8164706 64.0981513,83.4897479 63.5415126,83.5442017 C62.9848739,83.6047059 62.5310924,84.0221849 62.4403361,84.5788235 C61.7505882,88.7233613 61.4359664,90.6110924 59.9233613,92.1297479 C59.5784874,92.5653782 59.3062185,92.7166387 58.9976471,92.7105882 C58.7072269,92.7045378 58.4107563,92.5472269 58.2594958,92.3233613 C57.370084,91.1919328 56.5956303,87.1684034 56.3173109,84.6453782 C56.2628571,84.1310924 55.8937815,83.7136134 55.3976471,83.5805042 C54.8954622,83.4534454 54.3690756,83.6652101 54.072605,84.0645378 C53.9878992,84.1855462 45.5233613,96.0322689 33.8097479,101.538151 C31.5408403,102.603025 30.5122689,102.330756 30.2581513,102.004034 C30.2763025,101.979832 30.3247059,101.247731 30.3428571,101.217479 C32.6117647,97.9805042 34.8806723,93.7210084 36.5566387,89.5280672 C36.5445378,89.5643697 37.4944538,87.0836975 37.4944538,87.0836975 C38.5048739,84.2581513 39.7633613,80.7368067 43.4359664,77.0642017 C43.8352941,76.6709244 43.9139496,76.0477311 43.6235294,75.5636975 C43.3391597,75.0736134 42.7583193,74.8436975 42.2198319,74.994958 C37.6457143,76.3078992 32.5028571,76.0537815 30.1734454,75.0494118 C29.5623529,74.8678992 28.9815126,74.6258824 28.7939496,74.2023529 C28.7455462,74.087395 28.7213445,73.9603361 28.7213445,73.8211765 C28.7213445,73.5247059 28.8181513,73.1798319 28.9996639,72.8107563 C30.6332773,70.6689076 35.697479,68.1882353 41.7842017,66.6635294 C42.3347899,66.5243697 42.7220168,66.0282353 42.7220168,65.4594958 C42.7220168,65.4352941 42.7220168,65.4110924 42.7220168,65.3868908 C42.6857143,64.7878992 42.2258824,64.3038655 41.6389916,64.2312605 C34.6689076,63.36 31.1596639,62.107563 27.7593277,60.9035294 L20.994958,58.8887395 C16.7233613,57.9751261 13.6315966,57.2369748 12.8026891,56.1418487 C12.8026891,56.1176471 12.7542857,55.9603361 12.7542857,55.7183193 C12.7542857,55.2161345 12.96,54.3751261 14.2063866,53.6672269 C16.3421849,53.092437 27.4447059,50.587563 32.3636975,49.8857143 C34.8867227,49.4561345 39.0131092,48.7542857 42.3347899,52.674958 C42.7220168,53.1347899 43.3936134,53.2497479 43.9139496,52.9351261 C44.4342857,52.6265546 44.6581513,51.9852101 44.4342857,51.422521 C42.4981513,46.4490756 39.9448739,42.5223529 37.8937815,39.370084 L36.114958,36.5687395 C35.6490756,35.7579832 35.6672269,35.207395 35.8305882,34.9956303 C36.0242017,34.7415126 36.647395,34.5963025 37.6094118,34.8322689 C40.2352941,35.1347899 45.2994958,38.8376471 50.9808403,44.5189916 C51.1623529,45.0090756 52.0457143,45.4265546 52.9532773,45.2147899 Z"/>
    <path fill="#FFEA00" d="M64.7394958,57.2309244 C67.6013445,58.3078992 70.4631933,57.2309244 71.5401681,54.7260504 C72.2541176,52.2211765 70.8262185,49.3593277 67.9643697,48.2884034 C65.102521,47.2114286 61.8836975,48.2884034 61.1697479,50.7932773 C60.0867227,53.2921008 61.5206723,56.1539496 64.7394958,57.2309244 Z M55.7969748,56.1539496 C58.3018487,54.3690756 59.3727731,51.1442017 58.3018487,49.3593277 C57.2309244,47.2114286 54.0121008,47.2114286 51.1502521,49.0023529 C48.6453782,50.7872269 47.217479,54.0121008 48.6453782,55.7969748 C49.7163025,57.9448739 52.9351261,57.9448739 55.7969748,56.1539496 Z M51.1502521,63.3055462 C50.7932773,60.0867227 48.6453782,57.2248739 46.497479,57.5878992 C43.992605,57.5878992 42.2077311,60.4497479 42.5647059,64.0255462 C42.5647059,67.2443697 44.712605,69.7492437 47.217479,69.7492437 C49.7163025,69.3922689 51.5072269,66.5304202 51.1502521,63.3055462 Z M55.0830252,70.1062185 C51.8642017,68.6783193 48.2823529,69.7492437 47.2114286,71.8910924 C46.1405042,74.7529412 47.9253782,77.6087395 51.1442017,79.0426891 C54.3630252,80.4766387 57.9388235,79.7626891 59.0097479,77.2578151 C60.0806723,74.7529412 58.3018487,71.5401681 55.0830252,70.1062185 Z M75.8238655,64.0255462 C76.1868908,60.4497479 74.3959664,57.2248739 71.8910924,56.8678992 C69.3983193,56.1539496 66.9055462,59.0036975 66.1794958,62.5613445 C66.167395,59.4756303 64.2554622,56.6379832 61.1636975,55.7969748 C57.5878992,54.7260504 53.2921008,56.8678992 52.2211765,60.8067227 C50.7932773,64.7394958 52.9351261,69.0292437 56.8739496,70.1062185 C60.4497479,71.5401681 64.7394958,69.0292437 65.8164706,65.0964706 C66.1129412,64.2736134 66.1734454,63.4447059 66.1734454,62.6278992 C65.8588235,65.8890756 67.0689076,68.7388235 69.1865546,69.4890756 C67.4682353,68.6783193 65.1267227,68.8114286 63.3115966,70.1062185 C60.4497479,71.5401681 59.3788235,75.109916 60.8067227,77.2578151 C62.2406723,79.7626891 65.4594958,80.1196639 68.3213445,78.3347899 C71.1831933,76.549916 71.8971429,73.325042 70.8262185,70.8201681 C70.487395,70.3179832 70.0154622,69.9307563 69.4830252,69.6282353 C69.5798319,69.652437 69.6463866,69.7371429 69.7492437,69.7552941 C72.605042,70.1062185 75.109916,67.6013445 75.8238655,64.0255462 Z"/>
    <path fill="#3B5FA4" d="M72.3085714,55.7364706 C72.417479,55.5489076 72.5808403,55.4157983 72.6715966,55.2161345 C73.6396639,51.8642017 71.7337815,48.3731092 68.3878992,47.1206723 C66.469916,46.4006723 64.3159664,46.4853782 62.6278992,47.3263866 L59.9657143,50.4484034 C59.9173109,50.5573109 59.9354622,50.6783193 59.8931092,50.7932773 C59.8568067,50.0551261 59.7176471,49.3351261 59.3546218,48.7240336 C59.3485714,48.7663866 56.7468908,46.6608403 56.7468908,46.6608403 C54.9317647,46.152605 52.5842017,46.6366387 50.4786555,47.9495798 C48.5001681,49.3532773 47.1448739,51.4164706 46.872605,53.3707563 C46.872605,53.3707563 47.6531092,56.5290756 47.6591597,56.5532773 C47.6712605,56.5411765 47.8648739,56.6803361 48.1310924,56.88 C47.2840336,56.6440336 46.3038655,56.3717647 46.2917647,56.3657143 C46.2917647,56.4383193 43.0487395,57.9388235 43.0487395,57.9388235 C41.8931092,59.2154622 41.269916,61.0608403 41.269916,63.1119328 C41.269916,63.4568067 41.2880672,63.7956303 41.3243697,64.152605 L41.3243697,64.1647059 C41.3243697,67.6013445 43.6235294,70.4147899 46.5337815,70.8322689 C46.4067227,71.0137815 46.194958,71.1408403 46.0981513,71.3405042 C44.7791597,74.8315966 46.6668908,78.4013445 50.6359664,80.1801681 C52.8201681,81.1482353 55.2645378,81.2813445 57.1764706,80.5310924 L59.8628571,78.0201681 C60.1532773,78.2137815 63.172437,80.5068908 63.172437,80.5068908 C65.0057143,80.9667227 67.0568067,80.5794958 68.9626891,79.387563 C72.3690756,77.2638655 73.0467227,73.512605 72.0423529,70.7233613 C74.4383193,69.9186555 76.3805042,67.5226891 77.0278992,64.2736134 C77.0642017,63.8984874 77.0824073,63.5294118 77.0824073,63.172437 C77.0944538,59.4030252 75.0857143,56.3052101 72.3085714,55.7364706 Z M62.3011765,51.2833613 C62.3556303,51.1321008 63.7532773,49.5468908 63.7532773,49.5468908 C64.8302521,49.0023529 66.24,48.9660504 67.5287395,49.450084 C69.6705882,50.2547899 70.9109244,52.4147899 70.3482353,54.3811765 C69.5858824,56.1236975 67.3895798,56.8921008 65.1751261,56.0631933 C65.1630252,56.0571429 65.1509244,56.0510924 65.1327731,56.045042 C63.7895798,55.6033613 62.7912605,54.7744538 62.3253782,53.7337815 C61.9623529,52.9411765 61.9563025,52.0880672 62.3011765,51.2833613 Z M60.8853782,56.7226891 C62.5129412,57.1643697 63.8198319,58.2352941 64.6003361,59.7297479 C64.9210084,60.3529412 65.0480672,61.0305882 65.1448739,61.7082353 C65.0904202,61.9260504 65.0057143,62.1317647 64.9573109,62.3495798 C64.914958,62.7791597 64.8907563,63.2147899 64.8907563,63.6322689 C64.8907563,63.8682353 64.9633613,64.0739496 64.9754622,64.3038655 C64.9331092,64.4551261 64.9633613,64.6245378 64.9089076,64.7636975 C64.4067227,66.5909244 63.1421849,68.1216807 61.4964706,68.932437 C60.0746218,69.6403361 58.5559664,69.7371429 57.2248739,69.2047059 L57.1220168,69.1684034 C55.5186555,68.7327731 54.2057143,67.6678992 53.4312605,66.167395 C52.632605,64.6245378 52.5176471,62.7852101 53.1226891,61.127395 C53.5583193,59.5361345 54.5747899,58.2836975 55.9663866,57.4487395 C56.1297479,57.3640336 56.2931092,57.3035294 56.4564706,57.2006723 C56.4564706,57.2006723 56.4564706,57.2006723 56.4564706,57.2006723 C57.8783193,56.5048739 59.4695798,56.2931092 60.8853782,56.7226891 Z M51.8702521,50.0067227 C53.3042017,49.1173109 54.9438655,48.730084 56.087395,49.0507563 L57.1946218,49.9159664 C57.370084,50.212437 57.4547899,50.587563 57.4547899,51.0110924 C57.4547899,52.3119328 56.6137815,54.0181513 55.0890756,55.1253782 C53.6006723,56.0329412 51.9852101,56.4262185 50.8537815,56.1055462 L49.7465546,55.2403361 C49.607395,55.022521 49.3351261,53.7095798 49.3351261,53.7095798 C49.5166387,52.4510924 50.5270588,50.9626891 51.8702521,50.0067227 Z M47.1206723,68.4605042 C45.3176471,68.3818487 43.7989916,66.4094118 43.7989916,64.0255462 C43.7747899,63.7411765 43.7566387,63.4568067 43.7566387,63.1784874 C43.7566387,61.6840336 44.1620168,60.407395 44.8941176,59.6026891 L46.497479,58.8221849 C46.7031933,58.810084 47.8285714,59.1912605 47.8285714,59.1912605 C48.8813445,59.9838655 49.7223529,61.6961345 49.9159664,63.4447059 C49.9401681,63.6685714 49.9522689,63.8863866 49.9522689,64.1042017 C49.9522689,66.2884034 48.7482353,68.1579832 47.1206723,68.4605042 Z M57.8722689,76.7677311 L56.274958,78.2137815 C54.9680672,78.7280672 53.2376471,78.6131092 51.6463866,77.9052101 C49.3532773,76.8887395 47.4534454,74.765042 48.3670588,72.3267227 C49.0689076,70.9351261 51.9670588,70.0820168 54.5747899,71.2315966 C56.6863866,72.1694118 58.0840336,74.045042 58.0840336,75.7028571 C58.0840336,76.0779832 58.017479,76.434958 57.8722689,76.7677311 Z M67.6618487,77.2820168 C66.3610084,78.0927731 64.9512605,78.3952941 63.7895798,78.1048739 L61.8776471,76.6467227 C61.3996639,75.9206723 61.2968067,75.0070588 61.5448739,74.0631933 C61.8715966,72.8470588 62.7368067,71.7821849 63.8621849,71.2134454 C65.0843697,70.3542857 66.4638655,70.0457143 67.7163025,70.2756303 L69.7915966,71.509916 C69.9791597,71.9636975 70.0880672,72.5142857 70.0880672,73.0951261 C70.0880672,74.5290756 69.4285714,76.1808403 67.6618487,77.2820168 Z M69.9186555,68.5210084 C68.4121008,68.3031933 67.3532773,66.2097479 67.3532773,63.6564706 C67.3532773,63.3478992 67.3714286,63.0272269 67.4016807,62.7186555 C67.7828571,60.8430252 68.8235294,59.0763025 70.0396639,58.3381513 L71.5522689,58.0598319 C73.5368067,58.3563025 74.88,61.0668908 74.5956303,63.9045378 C74.0087395,66.7845378 72.0363025,68.7751261 69.9186555,68.5210084 Z"/>
  </g>
</svg>
