<svg xmlns="http://www.w3.org/2000/svg" width="120" height="120" viewBox="0 0 120 120">
  <g fill="none" fill-rule="evenodd">
    <path fill="#991782" fill-rule="nonzero" d="M119.834839,59.9135484 C119.834839,92.9995699 93.008172,119.827097 59.916129,119.827097 C26.8258065,119.827097 8.52651283e-14,92.9995699 8.52651283e-14,59.9135484 C8.52651283e-14,26.8266667 26.8258065,0 59.916129,0 C93.008172,0 119.834839,26.8266667 119.834839,59.9135484"/>
    <path fill="#FFF" fill-rule="nonzero" d="M86.0554839,80.5505376 C87.415914,80.5505376 88.4976344,80.9195699 89.2236559,81.6546237 C89.8950538,82.3212903 90.2516129,83.2447312 90.2516129,84.4933333 L90.2516129,90.7522581 L89.3066667,90.7522581 L89.3066667,89.0834409 C88.6098925,90.0412903 87.3754839,90.9875269 85.4610753,90.9875269 C83.6533778,90.9875269 81.7233887,90.0015752 81.5924355,88.0521254 L81.5853763,87.7896774 C81.5853763,85.7092473 83.3767742,84.5255914 85.9780645,84.5255914 C87.3754839,84.5255914 88.3423656,84.7088172 89.3066667,84.9578495 L89.3066667,84.5255914 C89.3066667,82.5066667 88.064086,81.4550538 85.9948387,81.4550538 C84.7711828,81.4550538 83.768172,81.7862366 82.8447312,82.2619355 L82.4860215,81.4206452 C83.5888172,80.907957 84.6739785,80.5505376 86.0554839,80.5505376 Z M102.907097,80.5505376 L102.907097,81.6154839 L102.804301,81.6154839 C100.48043,81.6154839 98.4550538,83.3655914 98.4550538,86.6356989 L98.4550538,90.7522581 L97.4911828,90.7522581 L97.4911828,80.7083871 L98.4550538,80.7083871 L98.4550538,83.5535484 C99.2447312,81.7698925 100.916129,80.4744086 102.907097,80.5505376 Z M94.2795699,80.7083871 L94.2795699,90.7522581 L93.3105376,90.7522581 L93.3105376,80.7083871 L94.2795699,80.7083871 Z M85.9165591,85.4 C83.8743755,85.4 82.69869,86.2649074 82.6112736,87.5829162 L82.6060215,87.7810753 C82.6060215,89.2322581 83.9827957,90.0769892 85.5221505,90.0769892 C87.5711828,90.0769892 89.3230108,88.8270968 89.3230108,86.996129 L89.3230108,85.8473118 C88.4765591,85.6322581 87.3565591,85.4 85.9165591,85.4 Z M94.3978495,76.76 L94.3978495,78.0851613 L93.1956989,78.0851613 L93.1956989,76.76 L94.3978495,76.76 Z M63.4055914,62.8791398 L74.2094624,62.4662366 C73.4391398,69.1789247 67.5815054,74.6713978 59.5470968,74.6713978 C51.6471169,74.6713978 45.8622533,69.3892337 45.0019638,62.7830901 L44.9647312,62.4675269 L55.7402151,62.8791398 C56.4060215,64.4924731 57.8696774,65.6154839 59.5729032,65.6154839 C61.2020757,65.6154839 62.6120576,64.5880033 63.3142683,63.0867419 L63.4055914,62.8791398 Z M28.5909677,47.8008602 C29.1425448,47.8008602 29.625454,48.1127569 29.8730553,48.5642782 L29.9346237,48.6907527 L30.0344086,49.0146237 L32.8756989,58.5311828 L35.3582796,49.0636559 C35.363871,49.0189247 35.3746237,48.9703226 35.387957,48.9264516 C35.5610587,48.3730025 36.0464033,47.959916 36.6403393,47.8996391 L36.7909677,47.892043 L43.9277419,47.892043 C44.7397849,47.892043 45.3935484,48.5496774 45.3935484,49.3625806 C45.3935484,49.5045161 45.3746237,49.6382796 45.3397849,49.7673118 L45.3294086,49.7984409 L45.323871,49.8266667 L42.1346237,60.3109677 L27.8245161,60.9462366 C27.8245161,60.9462366 27.1496774,61.0064516 26.9810753,61.0425806 C26.8354301,61.0734409 26.5211828,61.173125 26.4382695,61.3125311 L26.4163441,61.3780645 C26.427957,61.556129 26.8146237,61.6808602 26.9810753,61.7165591 L27.279371,61.7581296 L27.279371,61.7581296 L27.8245161,61.8129032 L41.5221505,62.335914 L38.258871,73.0817742 L38.2584946,73.0929032 L38.191828,73.2984946 C38.0029749,73.8027599 37.5322222,74.1758333 36.9790079,74.2345104 L36.8262366,74.2425806 L29.8847312,74.2425806 C29.2791398,74.2425806 28.7513978,73.8688172 28.5298925,73.3419355 L28.5105376,73.2791398 L28.4752688,73.1905376 L28.4623656,73.1367742 L25.3126882,63.0322581 L22.0455914,73.2124731 C21.8724897,73.7639371 21.3889775,74.1750385 20.7980298,74.2350218 L20.648172,74.2425806 L13.7565591,74.2425806 C13.1634078,74.2425806 12.6479506,73.8885589 12.4158688,73.3848433 L12.363871,73.255914 L12.3376344,73.1582796 L5.33505376,49.7909677 C5.28645161,49.6615054 5.26709677,49.5182796 5.26709677,49.3625806 C5.26709677,48.5974953 5.848495,47.969949 6.59354173,47.8987674 L6.73505376,47.892043 L14.0172043,47.892043 C14.6726882,47.892043 15.2326882,48.3268817 15.4167742,48.9264516 L15.4362366,48.9947312 L15.4576344,49.0636559 L17.8378495,58.4275269 L20.695914,48.8326882 C20.8642514,48.278048 21.3517949,47.8681682 21.9393315,47.8083917 L22.088172,47.8008602 L28.5909677,47.8008602 Z M90.6670968,47.8008602 L97.1612903,47.8008602 C97.7183871,47.8008602 98.1952509,48.1055287 98.4411437,48.5624711 L98.5023656,48.6907527 L98.6073118,49.0189247 L101.453763,58.5311828 L103.929892,49.0636559 C103.934194,49.0189247 103.947957,48.9703226 103.96086,48.9208602 C104.13158,48.3725724 104.621505,47.9598829 105.214131,47.8996366 L105.364301,47.892043 L112.504516,47.892043 C113.313548,47.892043 113.968602,48.5496774 113.968602,49.3625806 C113.968602,49.4572043 113.959044,49.5481959 113.94184,49.6365751 L113.897634,49.8266667 L106.83828,73.0696774 L106.833387,73.0817742 L106.833387,73.0817742 L106.832688,73.0929032 L106.767742,73.2984946 C106.573369,73.8027599 106.110108,74.1758333 105.552217,74.2345104 L105.397849,74.2425806 L98.4610753,74.2425806 C97.8473118,74.2425806 97.3333333,73.8688172 97.1032258,73.3419355 L97.0925269,73.3108602 L97.0925269,73.3108602 L97.0860215,73.2791398 L97.0576344,73.1905376 L97.0326882,73.1367742 L93.883871,63.0322581 L90.6210753,73.2124731 C90.4487676,73.7639371 89.9605523,74.1750385 89.3681996,74.2350218 L89.2180645,74.2425806 L82.3277419,74.2425806 C81.7341935,74.2425806 81.2249361,73.8885589 80.9927955,73.3777391 L80.9406452,73.2468817 L80.9156989,73.1539785 L77.6748387,62.3346237 L91.3247312,61.8129032 C91.3247312,61.8129032 91.9995699,61.7526882 92.1677419,61.7165591 L92.3247917,61.67375 C92.4744724,61.6252621 92.651749,61.5461122 92.710977,61.4465911 L92.7329032,61.3810753 L92.7329032,61.3810753 C92.7212903,61.2030108 92.3346237,61.0778495 92.1677419,61.0425806 C92.1004731,61.028129 91.9521376,61.0098237 91.7983518,60.9930598 L91.3247312,60.9462366 L77.0623656,60.3131183 L73.907957,49.8030108 C73.8653763,49.6615054 73.8412903,49.5139785 73.8412903,49.3625806 C73.8412903,48.5974953 74.4219266,47.969949 75.168318,47.8987674 L75.3101075,47.892043 L82.5901075,47.892043 C83.2460215,47.892043 83.8064516,48.3268817 83.9905376,48.9208602 L84.0283871,49.0636559 L86.4116129,58.4395699 L89.2606452,48.8326882 C89.4369231,48.278048 89.9250773,47.8681682 90.5170587,47.8083917 L90.6670968,47.8008602 L97.1612903,47.8008602 L90.6670968,47.8008602 Z M59.6404301,47.2705376 C67.7650951,47.2705376 73.6576916,52.8709322 74.2476395,59.7341524 L74.2727957,60.0926882 L74.2727957,60.0926882 L74.276129,60.1892473 L63.6417204,59.7178495 C63.2477419,58.0894624 62.0855914,56.8150538 60.6111828,56.4 L60.4245741,54.3597481 C60.2889626,52.9285764 60.1209677,51.2772504 60.0533333,51.1088172 C59.9589964,50.8733094 59.7691703,50.8175919 59.6706415,50.8044586 L59.6129032,50.8004301 L59.5324731,50.8004301 C59.4924731,50.8004301 59.2137634,50.8060215 59.092043,51.1088172 C58.9806452,51.3862366 58.5974194,55.6864516 58.5346237,56.4 C57.1335269,56.7943011 56.0146312,57.9641699 55.5688258,59.4763094 L55.504086,59.7178495 L44.9156989,60.1875269 C45.3277419,53.1475269 51.3294624,47.2705376 59.6404301,47.2705376 Z"/>
  </g>
</svg>
