<svg xmlns="http://www.w3.org/2000/svg" xmlns:xlink="http://www.w3.org/1999/xlink" width="120" height="120" viewBox="0 0 120 120">
  <defs>
    <path id="x3-tuifly-a" d="M34.4022418,38.1698113 C37.2125151,38.1698113 39.3325853,39.0674649 40.1666745,43.0910383 C41.0929405,47.5679722 40.7107434,50.6825581 35.7152015,51.038446 L26.713334,51.6867513 C33.3388344,93.8968703 72.0756418,107.656358 93.166181,62.1933783 C96.6576646,54.6698627 97.7997596,53.3007143 101.621731,54.2573047 C106.806124,55.5539154 107.512064,58.2400757 105.045768,65.8270618 C86.8104669,121.869206 25.5217781,127.486342 13.4983048,52.6456085 L6.18484951,53.178307 C0.23381474,53.6089994 0,48.5472306 0,45.7318626 C0,40.164597 2.05037541,38.1698113 5.73070935,38.1698113 L34.4022418,38.1698113 Z M109.811321,11 C115.438451,11 120,15.5610671 120,21.187603 C120,26.8141389 115.438451,31.3773585 109.811321,31.3773585 C104.18419,31.3773585 99.6226415,26.8141389 99.6226415,21.187603 C99.6226415,15.5610671 104.18419,11 109.811321,11 Z"/>
  </defs>
  <use fill="#D40E14" fill-rule="evenodd" xlink:href="#x3-tuifly-a"/>
</svg>
