<svg xmlns="http://www.w3.org/2000/svg" width="120" height="120" viewBox="0 0 120 120">
  <g fill="none" fill-rule="evenodd">
    <path fill="#1A428A" fill-rule="nonzero" d="M75.4966775,81.2864434 L78.7558554,81.0537809 C94.3835603,79.9708995 108.116313,79.5252614 116.359959,81.1636119 C115.052397,84.8366713 113.423889,88.2640676 111.442735,91.5012732 C108.514589,96.2798165 104.833605,100.634393 100.284876,104.687834 C89.2815467,114.502471 74.9974267,119.907058 60.0555637,119.907058 C45.2048337,119.907058 30.9048644,114.411337 19.7945531,104.426322 C17.7143415,102.567999 15.7886598,100.570996 14.0056213,98.4788974 C10.8199257,94.7067802 8.12555634,90.5899423 5.96609854,86.2155544 C26.4274565,87.3250006 54.912488,82.7921204 75.4966775,81.2864434 Z M113.447663,33.4098771 C113.812195,33.5208217 114.11333,33.782334 114.275785,34.1270548 C114.846357,35.3236718 115.389193,36.5638741 115.884482,37.8080388 C116.124862,38.3997435 115.916533,39.0639319 115.410905,39.4301314 L115.29806,39.5039066 L97.6182425,49.7147741 L96.8099317,50.0634572 L96.8178563,50.0991179 L97.6935264,49.9960979 L118.107337,50.0040225 C118.784891,50.0040225 119.359426,50.499311 119.454521,51.1649788 C119.652637,52.5002765 119.807167,53.8514235 119.914149,55.1748343 C119.941885,55.5512536 119.819054,55.9316352 119.557541,56.212959 C119.328718,56.4556504 119.02102,56.6103661 118.692845,56.645253 L118.551115,56.6527752 L83.7224287,56.6527752 C83.0765725,56.6527752 82.5139248,56.1931475 82.3831687,55.5512536 C82.1929779,54.552752 81.9195786,53.5502881 81.5827825,52.5795227 C81.4683708,52.2397548 81.4965404,51.881785 81.6327834,51.5772832 L81.6976894,51.4502649 L82.1929779,50.9510141 L112.365953,33.5287463 C112.690862,33.3425178 113.08313,33.2989324 113.447663,33.4098771 Z M7.43661779,33.4576956 L7.56290862,33.5208217 L37.7279587,50.9312026 C38.2866441,51.2600741 38.5481564,51.9415911 38.3341918,52.5636734 C38.0013579,53.5265143 37.7358833,54.5250159 37.5456925,55.5354044 C37.4728851,55.8855733 37.2726647,56.1781031 37.003429,56.378486 L36.8839871,56.4586221 L36.1985078,56.636926 L1.36585907,56.6448506 C0.985477508,56.6448506 0.620945181,56.4784336 0.363395168,56.2050344 C0.105845154,55.9276728 -0.0209486983,55.5512536 0.00282514913,55.170872 C0.109807462,53.8434989 0.260375163,52.5002765 0.45452825,51.1729034 C0.543283946,50.540519 1.05313612,50.0669088 1.67159896,50.0065713 L1.80567524,50.0000602 L22.2274102,50.0000602 L23.0951556,50.1030802 L23.1110048,50.0634572 L22.302694,49.7108118 L4.62683847,39.5078689 C4.04437921,39.1631481 3.78682919,38.4499327 4.04437921,37.8238881 C4.53966769,36.5678365 5.07457926,35.3236718 5.6451516,34.1230925 C5.80760622,33.782334 6.10874162,33.5208217 6.47327395,33.4019524 C6.79223973,33.3048759 7.13547465,33.3261114 7.43661779,33.4576956 Z M26.9187827,10.2264135 C27.2481495,10.299221 27.5320118,10.4873068 27.7278984,10.7588177 L27.8063397,10.8801943 L45.2167206,41.0373198 C45.5455921,41.5999675 45.4267229,42.3171452 44.9314344,42.7490368 C44.166709,43.4186668 43.4376443,44.1556561 42.7600897,44.9283061 C42.5243324,45.1987336 42.2036331,45.3538828 41.872316,45.3884446 L41.7298896,45.3958585 L41.0483727,45.2135923 L10.875398,27.8032114 C10.5465265,27.6090583 10.3127503,27.2881114 10.2255795,26.9156544 C10.1423711,26.5511221 10.2176549,26.1588536 10.4316195,25.841869 C11.184458,24.748272 11.9848442,23.6586373 12.8208912,22.6046634 C13.2091974,22.1054126 13.894342,21.9513229 14.4543083,22.2068242 L14.5722313,22.2678672 L32.2599738,32.4787347 L32.9692269,33.009684 L32.9930007,32.9740232 L32.4660138,32.2647701 L22.2630709,14.5928769 C21.9262748,14.0064553 22.0728801,13.2575791 22.6077917,12.8375745 C23.6578033,12.0015275 24.7514003,11.1892544 25.841035,10.4403782 C26.1540573,10.2184889 26.5423635,10.1432051 26.9187827,10.2264135 Z M94.0759393,10.4245289 C95.1695363,11.1773674 96.2631332,11.9817159 97.3131448,12.8138006 C97.8123956,13.1984086 97.969937,13.8833068 97.7148958,14.4496996 L97.6539033,14.569103 L87.4469982,32.2568455 L86.9200112,32.9660986 L86.9437851,32.9859101 L87.6530382,32.4628855 L105.332856,22.2599426 C105.915315,21.9231465 106.664191,22.0618272 107.080234,22.5967388 C107.920243,23.6507127 108.728554,24.7403474 109.485355,25.8339444 C109.703282,26.150929 109.774603,26.5431975 109.691395,26.9077298 C109.618587,27.2405637 109.430501,27.5218256 109.164299,27.717008 L109.045539,27.7952868 L78.8884131,45.20963 C78.3218031,45.5385015 77.600663,45.41567 77.1687715,44.9243438 C76.5070661,44.1556561 75.7661145,43.4226291 74.9934644,42.7490368 C74.7265039,42.5132795 74.5657209,42.1956138 74.5296964,41.8624007 L74.5219498,41.7188367 L74.704216,41.0373198 L92.1185592,10.8643451 C92.3127123,10.5354736 92.6296969,10.3016974 93.0021538,10.2184889 C93.3785731,10.1273558 93.7668793,10.206602 94.0759393,10.4245289 Z M56.2002381,0.368191495 C56.4463965,0.590080737 56.5985119,0.896911955 56.6326946,1.23028754 L56.6400542,1.3746177 L56.6479789,36.2033041 C56.6479789,36.8531226 56.1843888,37.4157703 55.542495,37.5465265 C54.5400311,37.7406796 53.5415295,38.0140788 52.5668017,38.3469127 C52.2270338,38.4613243 51.878165,38.4331548 51.5706295,38.2995662 L51.4415063,38.2359681 L50.9382932,37.732755 L33.5199877,7.56374264 C33.3337592,7.23090877 33.2822492,6.83864029 33.3971561,6.48203258 C33.5081007,6.10957564 33.7775377,5.81240255 34.1182962,5.64994792 C35.3149131,5.07541328 36.5551155,4.54050171 37.7992802,4.04521322 C38.3909848,3.80113506 39.0620765,4.00576625 39.4227534,4.51091765 L39.495148,4.62371018 L49.7020531,22.3114526 L50.0546985,23.1158011 L50.0903593,23.1078765 L49.9873393,22.2361688 L49.9913016,1.82235849 C49.9913016,1.14480384 50.4865901,0.574231506 51.1601824,0.4712115 C52.4915179,0.273096105 53.8387026,0.118566097 55.1621134,0.011583784 C55.542495,-0.0161523713 55.9228765,0.114603789 56.2002381,0.368191495 Z M64.6045021,0.000633265056 L64.7469362,0.00365916816 C66.0663847,0.110641481 67.4096071,0.257246874 68.7369803,0.451399961 C69.3693646,0.540155658 69.8464265,1.05000783 69.9072241,1.67169218 L69.9137857,1.80650926 L69.9137857,22.2282442 L69.8107657,23.0999519 L69.8464265,23.1158011 L70.1990719,22.303528 L80.405977,4.62767249 C80.7506978,4.04521322 81.4599509,3.79558783 82.0899579,4.04521322 C83.3460095,4.54050171 84.5901742,5.07541328 85.7907535,5.64598562 C86.1354742,5.81240255 86.3930243,6.10957564 86.5118935,6.47410797 C86.6124371,6.79307375 86.5886013,7.13327503 86.4536584,7.4363142 L86.389062,7.56374264 L68.978681,37.7248304 C68.6577341,38.2874781 67.9722548,38.5450281 67.3501725,38.3389881 C66.391294,38.0061542 65.3848678,37.7446419 64.3784416,37.5465265 C64.0282726,37.4737191 63.7296756,37.2734987 63.5357392,37.004263 L63.4591861,36.8848211 L63.27692,36.2033041 L63.2689954,1.36669309 C63.2689954,0.986311527 63.4274877,0.6217792 63.7127738,0.368191495 C63.9178233,0.172057254 64.1830503,0.0494733532 64.4633216,0.0121409835 L64.6045021,0.000633265056 Z"/>
    <path fill="#EE5F2A" fill-rule="nonzero" d="M116.110333,64.1771979 C119.543166,64.1771979 119.929193,65.5304943 119.572374,68.0598592 L119.545654,68.2425258 C118.852251,72.8705014 117.802239,77.1537563 116.375808,81.1636119 C107.701869,79.4405192 92.9639687,80.0225754 76.3282274,81.2267286 L75.5085645,81.2864434 C54.9283372,82.7921204 26.4433058,87.3250006 5.97798546,86.2155544 C4.37721307,83.4221274 2.24945373,77.2686632 1.62737139,74.39599 C1.33812291,73.4331491 1.90077063,72.9972953 2.75662914,73.1042776 L3.32639576,73.1851774 C10.0247091,74.2047206 34.6630342,79.8171404 68.9311334,72.5376676 L71.9432977,71.8933017 C94.7010263,66.9890207 104.052581,64.1771979 116.110333,64.1771979 Z M0.759625958,64.3356902 C1.14793213,64.0543663 1.65906985,63.9790825 2.09096141,64.1771979 C12.6069266,68.8685704 34.7681147,73.9918346 49.3771439,74.0433446 L50.4267437,74.0412107 C57.5313807,73.9865715 63.2246728,73.1306315 65.9712894,72.6961599 C60.4874552,73.8927769 51.3067878,74.9626 44.1112367,74.8556177 C18.7564284,74.4950477 2.42379528,68.9319674 1.24302752,68.4683773 C0.557548255,68.1949781 0.458490557,67.9136542 0.395093631,67.5847827 C0.323772089,66.9111903 0.256412855,66.237598 0.200940544,65.5640057 C0.157355157,65.0806041 0.371319784,64.6209764 0.759625958,64.3356902 Z"/>
  </g>
</svg>
