<svg xmlns="http://www.w3.org/2000/svg" width="120" height="120" viewBox="0 0 120 120">
  <path fill="#731472" d="M112.848369,24 L113,118.124248 C113,118.251169 112.8947,118.37809 112.771851,118.416871 L112.696737,118.428858 L85.5547025,118.428858 C85.4283429,118.428858 85.3019834,118.323091 85.2633735,118.199696 L85.2514395,118.124248 L85.2499232,73.500521 L59.7773512,118.885772 C59.6473814,119.016318 59.5174116,119.034968 59.4829298,118.94172 L59.4740883,118.885772 L34,73.498998 L59.4740883,27.8076152 L59.7773512,27.8076152 L85.2499232,73.4944289 L85.2514395,73.3466934 L112.848369,24 Z M6,117.697141 L6,24.1135723 C6,23.9837754 6.11241218,23.965233 6.24088324,24.057945 L6.30601093,24.1135723 L34,73.1768023 L34,117.697141 C34,117.823332 33.8937462,117.949523 33.7697834,117.988082 L33.6939891,118 L6.30601093,118 C6.17850638,118 6.05100182,117.89484 6.0120421,117.772154 L6,117.697141 L6,24.1135723 L6,117.697141 Z M60,2 C64.4444444,2 68,5.55555556 68,10 C68,14.4444444 64.4444444,18 60,18 C55.5555556,18 52,14.4444444 52,10 C52,5.55555556 55.5555556,2 60,2 Z M112,2 C116.444444,2 120,5.55555556 120,10 C120,14.4444444 116.444444,18 112,18 C107.555556,18 104,14.4444444 104,10 C104,5.55555556 107.555556,2 112,2 Z M8,2 C12.4444444,2 16,5.55555556 16,10 C16,14.4444444 12.4444444,18 8,18 C3.55555556,18 0,14.4444444 0,10 C0,5.55555556 3.55555556,2 8,2 Z"/>
</svg>
